G04 #@! TF.FileFunction,Soldermask,Top*
%FSLAX46Y46*%
G04 Gerber Fmt 4.6, Leading zero omitted, Abs format (unit mm)*
G04 Created by KiCad (PCBNEW 4.0.2-stable) date 2016 March 27, Sunday 01:25:21*
%MOMM*%
G01*
G04 APERTURE LIST*
%ADD10C,0.150000*%
%ADD11C,0.000120*%
%ADD12C,1.100000*%
%ADD13O,2.600000X2.300000*%
%ADD14O,2.800000X2.600000*%
%ADD15C,1.588000*%
%ADD16R,1.588000X1.588000*%
%ADD17R,2.540000X1.750000*%
%ADD18O,2.540000X1.750000*%
%ADD19R,8.890000X8.890000*%
%ADD20C,1.397000*%
%ADD21R,1.397000X1.397000*%
%ADD22O,1.574800X2.286000*%
%ADD23R,1.574800X2.286000*%
%ADD24C,6.000000*%
%ADD25R,1.651000X1.651000*%
%ADD26C,1.651000*%
%ADD27R,1.780000X3.500000*%
G04 APERTURE END LIST*
D10*
D11*
G36*
X248032570Y-164866629D02*
X248281696Y-164617894D01*
X249276635Y-165612833D01*
X250271900Y-164617894D01*
X250520635Y-164866629D01*
X249276635Y-166110694D01*
X248032570Y-164866629D01*
G37*
X248032570Y-164866629D02*
X248281696Y-164617894D01*
X249276635Y-165612833D01*
X250271900Y-164617894D01*
X250520635Y-164866629D01*
X249276635Y-166110694D01*
X248032570Y-164866629D01*
G36*
X247186976Y-166210084D02*
X246689115Y-166707553D01*
X246440380Y-166458818D01*
X247684445Y-165214818D01*
X247933180Y-165463879D01*
X247435711Y-165961349D01*
X248430650Y-166956353D01*
X248181915Y-167205414D01*
X247186976Y-166210084D01*
G37*
X247186976Y-166210084D02*
X246689115Y-166707553D01*
X246440380Y-166458818D01*
X247684445Y-165214818D01*
X247933180Y-165463879D01*
X247435711Y-165961349D01*
X248430650Y-166956353D01*
X248181915Y-167205414D01*
X247186976Y-166210084D01*
G36*
X244848190Y-168051399D02*
X246091864Y-166807334D01*
X246838460Y-167553930D01*
X245843130Y-168548869D01*
X245594395Y-168300134D01*
X246340599Y-167553930D01*
X246091864Y-167304804D01*
X245345660Y-168051399D01*
X245594395Y-168300134D01*
X245843130Y-168548869D01*
X246340599Y-169046339D01*
X246091864Y-169295399D01*
X244848190Y-168051399D01*
G37*
X244848190Y-168051399D02*
X246091864Y-166807334D01*
X246838460Y-167553930D01*
X245843130Y-168548869D01*
X245594395Y-168300134D01*
X246340599Y-167553930D01*
X246091864Y-167304804D01*
X245345660Y-168051399D01*
X245594395Y-168300134D01*
X245843130Y-168548869D01*
X246340599Y-169046339D01*
X246091864Y-169295399D01*
X244848190Y-168051399D01*
G36*
X247981962Y-169098707D02*
X247978114Y-168443414D01*
X248059830Y-168391763D01*
X247704597Y-168031965D01*
X247302995Y-168433893D01*
X247981962Y-169098707D01*
G37*
X247981962Y-169098707D02*
X247978114Y-168443414D01*
X248059830Y-168391763D01*
X247704597Y-168031965D01*
X247302995Y-168433893D01*
X247981962Y-169098707D01*
G36*
X248181915Y-168311808D02*
X248517322Y-168057399D01*
X248099416Y-167637407D01*
X247806139Y-167930749D01*
X248181915Y-168311808D01*
G37*
X248181915Y-168311808D02*
X248517322Y-168057399D01*
X248099416Y-167637407D01*
X247806139Y-167930749D01*
X248181915Y-168311808D01*
G36*
X242787552Y-166884876D02*
X242684576Y-166909593D01*
X242596469Y-166891920D01*
X242524666Y-166843464D01*
X242476145Y-166771596D01*
X242458145Y-166683488D01*
X242476145Y-166595773D01*
X242524666Y-166523969D01*
X242596469Y-166475122D01*
X242684576Y-166457449D01*
X242772683Y-166475122D01*
X242844486Y-166523969D01*
X242893007Y-166595773D01*
X242910681Y-166683488D01*
X242905007Y-166734096D01*
X242887659Y-166782226D01*
X244308265Y-168160702D01*
X244775279Y-167693688D01*
X242755009Y-165677984D01*
X242720314Y-165694614D01*
X242683532Y-165707005D01*
X242645316Y-165714049D01*
X242606381Y-165716527D01*
X242488210Y-165692788D01*
X242391624Y-165627376D01*
X242326147Y-165530791D01*
X242302082Y-165412619D01*
X242326147Y-165294056D01*
X242391624Y-165197471D01*
X242488210Y-165131994D01*
X242606381Y-165108320D01*
X242724945Y-165131994D01*
X242821530Y-165197471D01*
X242886942Y-165294056D01*
X242910681Y-165412619D01*
X242907485Y-165456836D01*
X242897572Y-165499618D01*
X242881659Y-165540704D01*
X242859355Y-165579573D01*
X244876168Y-167592864D01*
X245165207Y-167303760D01*
X244169224Y-166317690D01*
X244131333Y-166340647D01*
X244091747Y-166357668D01*
X244050335Y-166368298D01*
X244007488Y-166372863D01*
X244001162Y-166372863D01*
X243886837Y-166349125D01*
X243792730Y-166284756D01*
X243727971Y-166189214D01*
X243702862Y-166072086D01*
X243707493Y-166012348D01*
X243723014Y-165955349D01*
X243749231Y-165902263D01*
X243785296Y-165854851D01*
X243830230Y-165815590D01*
X243880838Y-165786243D01*
X243936076Y-165767461D01*
X243994770Y-165760026D01*
X244001488Y-165760026D01*
X244115420Y-165783765D01*
X244209528Y-165848133D01*
X244273961Y-165943349D01*
X244299396Y-166060086D01*
X244298026Y-166099738D01*
X244291309Y-166137954D01*
X244280287Y-166175062D01*
X244264374Y-166210475D01*
X245266422Y-167202545D01*
X245479745Y-166989222D01*
X245399463Y-166966918D01*
X245334312Y-166918463D01*
X245290487Y-166850181D01*
X245273466Y-166768074D01*
X245289052Y-166679249D01*
X245335030Y-166606011D01*
X245404420Y-166555469D01*
X245490375Y-166535643D01*
X245576330Y-166552599D01*
X245647089Y-166598968D01*
X245695936Y-166667967D01*
X245716480Y-166752878D01*
X246334925Y-166134368D01*
X246208275Y-166177541D01*
X246076669Y-166209431D01*
X245940823Y-166229192D01*
X245801000Y-166235909D01*
X245664111Y-166229583D01*
X245530744Y-166210801D01*
X245401224Y-166180410D01*
X245276661Y-166138998D01*
X245157446Y-166086629D01*
X245043839Y-166024348D01*
X244937015Y-165952871D01*
X244836843Y-165872198D01*
X244744496Y-165783048D01*
X244659976Y-165686071D01*
X244584260Y-165582051D01*
X244517348Y-165471314D01*
X244460741Y-165354577D01*
X244414046Y-165232492D01*
X244378698Y-165105125D01*
X244354242Y-164973518D01*
X244120768Y-164985192D01*
X244094225Y-165035408D01*
X244055617Y-165074016D01*
X244007488Y-165098733D01*
X243952706Y-165107277D01*
X243881881Y-165092733D01*
X243824230Y-165052756D01*
X243784970Y-164993344D01*
X243770818Y-164920758D01*
X243784970Y-164847912D01*
X243824230Y-164788108D01*
X243881881Y-164748131D01*
X243952706Y-164733261D01*
X244003966Y-164741022D01*
X244049617Y-164762609D01*
X244087834Y-164796586D01*
X244116138Y-164841912D01*
X244341851Y-164830238D01*
X244339047Y-164774282D01*
X244341851Y-164683045D01*
X244350395Y-164593177D01*
X244364155Y-164505070D01*
X244382938Y-164419050D01*
X244407002Y-164334855D01*
X244435632Y-164252748D01*
X244469219Y-164172793D01*
X244507109Y-164095316D01*
X244391416Y-164100599D01*
X244360634Y-164157924D01*
X244315308Y-164201814D01*
X244259418Y-164230118D01*
X244196093Y-164240357D01*
X244114703Y-164223401D01*
X244048183Y-164177749D01*
X244003249Y-164109859D01*
X243987010Y-164026709D01*
X244003249Y-163943166D01*
X244048183Y-163874885D01*
X244114703Y-163828908D01*
X244196093Y-163812277D01*
X244260527Y-163822516D01*
X244317134Y-163852255D01*
X244362721Y-163897515D01*
X244393568Y-163955949D01*
X244596260Y-163946688D01*
X244765757Y-163742887D01*
X244863777Y-163653411D01*
X244969232Y-163573064D01*
X245082447Y-163502305D01*
X245201662Y-163441784D01*
X245327269Y-163392285D01*
X245458158Y-163354394D01*
X248277783Y-160447771D01*
X247972440Y-160256687D01*
X247906246Y-160309447D01*
X244804691Y-163506544D01*
X243597799Y-163565630D01*
X243561017Y-163647737D01*
X243501931Y-163712105D01*
X243425824Y-163754235D01*
X243338825Y-163769430D01*
X243234414Y-163747844D01*
X243148785Y-163688432D01*
X243091134Y-163600651D01*
X243069873Y-163493109D01*
X243091134Y-163385894D01*
X243148785Y-163298178D01*
X243234414Y-163239092D01*
X243338825Y-163217505D01*
X243426867Y-163232374D01*
X243502975Y-163274113D01*
X243561343Y-163338481D01*
X243597799Y-163421306D01*
X244741692Y-163365024D01*
X247253496Y-160776135D01*
X246876285Y-160656528D01*
X244814604Y-162781600D01*
X244824843Y-162806708D01*
X244832278Y-162832208D01*
X244836843Y-162858359D01*
X244838277Y-162884511D01*
X244819886Y-162977966D01*
X244769670Y-163054725D01*
X244694997Y-163106051D01*
X244604086Y-163125159D01*
X244512783Y-163106051D01*
X244438502Y-163054725D01*
X244387894Y-162977966D01*
X244369503Y-162884511D01*
X244387894Y-162791121D01*
X244438502Y-162714688D01*
X244512783Y-162663428D01*
X244604086Y-162644320D01*
X244633433Y-162646406D01*
X244662063Y-162652080D01*
X244690367Y-162661993D01*
X244717301Y-162675428D01*
X246713571Y-160617985D01*
X246419185Y-160561377D01*
X246375620Y-160450640D01*
X244555956Y-162326586D01*
X244543174Y-162327303D01*
X243806165Y-162351368D01*
X243774731Y-162405824D01*
X243730123Y-162447953D01*
X243675602Y-162474822D01*
X243614429Y-162484409D01*
X243533757Y-162467779D01*
X243467953Y-162422128D01*
X243423346Y-162354498D01*
X243407107Y-162271739D01*
X243423346Y-162188914D01*
X243467953Y-162121024D01*
X243533757Y-162075373D01*
X243614429Y-162058743D01*
X243679906Y-162069308D01*
X243736840Y-162099764D01*
X243782491Y-162146850D01*
X243811839Y-162206979D01*
X244494001Y-162184675D01*
X246318686Y-160304165D01*
X246163341Y-159906737D01*
X244405242Y-161718705D01*
X244392459Y-161718705D01*
X243218827Y-161737487D01*
X243186284Y-161786661D01*
X243142785Y-161824160D01*
X243090743Y-161848225D01*
X243033091Y-161856703D01*
X242952419Y-161839747D01*
X242886290Y-161794095D01*
X242842008Y-161726466D01*
X242825378Y-161643706D01*
X242842008Y-161560882D01*
X242886290Y-161493318D01*
X242952419Y-161447666D01*
X243033091Y-161431036D01*
X243094982Y-161440623D01*
X243149829Y-161467818D01*
X243194436Y-161510339D01*
X243225545Y-161565512D01*
X244333047Y-161548491D01*
X246062517Y-159766000D01*
X245005296Y-159814847D01*
X244757605Y-160638854D01*
X244497914Y-160711375D01*
X244245266Y-160799808D01*
X244000053Y-160903176D01*
X243762992Y-161021348D01*
X243035896Y-160569138D01*
X242183911Y-161270409D01*
X242479014Y-162078895D01*
X242369320Y-162218653D01*
X242265300Y-162363694D01*
X242167672Y-162512713D01*
X242075652Y-162666232D01*
X241217993Y-162669036D01*
X240868433Y-163715692D01*
X241548117Y-164244270D01*
X241533248Y-164377311D01*
X241522292Y-164511396D01*
X241515574Y-164646589D01*
X241513096Y-164782826D01*
X241513422Y-164825934D01*
X241514466Y-164869107D01*
X241515900Y-164912280D01*
X241517661Y-164955779D01*
X240792000Y-165412945D01*
X241051365Y-166485753D01*
X241906872Y-166573142D01*
X241985392Y-166734096D01*
X242070369Y-166891202D01*
X242161607Y-167044069D01*
X242258909Y-167193023D01*
X241887437Y-167965444D01*
X242676424Y-168737083D01*
X243448454Y-168356742D01*
X243870207Y-168598759D01*
X244207049Y-168262244D01*
X242787552Y-166884876D01*
G37*
X242787552Y-166884876D02*
X242684576Y-166909593D01*
X242596469Y-166891920D01*
X242524666Y-166843464D01*
X242476145Y-166771596D01*
X242458145Y-166683488D01*
X242476145Y-166595773D01*
X242524666Y-166523969D01*
X242596469Y-166475122D01*
X242684576Y-166457449D01*
X242772683Y-166475122D01*
X242844486Y-166523969D01*
X242893007Y-166595773D01*
X242910681Y-166683488D01*
X242905007Y-166734096D01*
X242887659Y-166782226D01*
X244308265Y-168160702D01*
X244775279Y-167693688D01*
X242755009Y-165677984D01*
X242720314Y-165694614D01*
X242683532Y-165707005D01*
X242645316Y-165714049D01*
X242606381Y-165716527D01*
X242488210Y-165692788D01*
X242391624Y-165627376D01*
X242326147Y-165530791D01*
X242302082Y-165412619D01*
X242326147Y-165294056D01*
X242391624Y-165197471D01*
X242488210Y-165131994D01*
X242606381Y-165108320D01*
X242724945Y-165131994D01*
X242821530Y-165197471D01*
X242886942Y-165294056D01*
X242910681Y-165412619D01*
X242907485Y-165456836D01*
X242897572Y-165499618D01*
X242881659Y-165540704D01*
X242859355Y-165579573D01*
X244876168Y-167592864D01*
X245165207Y-167303760D01*
X244169224Y-166317690D01*
X244131333Y-166340647D01*
X244091747Y-166357668D01*
X244050335Y-166368298D01*
X244007488Y-166372863D01*
X244001162Y-166372863D01*
X243886837Y-166349125D01*
X243792730Y-166284756D01*
X243727971Y-166189214D01*
X243702862Y-166072086D01*
X243707493Y-166012348D01*
X243723014Y-165955349D01*
X243749231Y-165902263D01*
X243785296Y-165854851D01*
X243830230Y-165815590D01*
X243880838Y-165786243D01*
X243936076Y-165767461D01*
X243994770Y-165760026D01*
X244001488Y-165760026D01*
X244115420Y-165783765D01*
X244209528Y-165848133D01*
X244273961Y-165943349D01*
X244299396Y-166060086D01*
X244298026Y-166099738D01*
X244291309Y-166137954D01*
X244280287Y-166175062D01*
X244264374Y-166210475D01*
X245266422Y-167202545D01*
X245479745Y-166989222D01*
X245399463Y-166966918D01*
X245334312Y-166918463D01*
X245290487Y-166850181D01*
X245273466Y-166768074D01*
X245289052Y-166679249D01*
X245335030Y-166606011D01*
X245404420Y-166555469D01*
X245490375Y-166535643D01*
X245576330Y-166552599D01*
X245647089Y-166598968D01*
X245695936Y-166667967D01*
X245716480Y-166752878D01*
X246334925Y-166134368D01*
X246208275Y-166177541D01*
X246076669Y-166209431D01*
X245940823Y-166229192D01*
X245801000Y-166235909D01*
X245664111Y-166229583D01*
X245530744Y-166210801D01*
X245401224Y-166180410D01*
X245276661Y-166138998D01*
X245157446Y-166086629D01*
X245043839Y-166024348D01*
X244937015Y-165952871D01*
X244836843Y-165872198D01*
X244744496Y-165783048D01*
X244659976Y-165686071D01*
X244584260Y-165582051D01*
X244517348Y-165471314D01*
X244460741Y-165354577D01*
X244414046Y-165232492D01*
X244378698Y-165105125D01*
X244354242Y-164973518D01*
X244120768Y-164985192D01*
X244094225Y-165035408D01*
X244055617Y-165074016D01*
X244007488Y-165098733D01*
X243952706Y-165107277D01*
X243881881Y-165092733D01*
X243824230Y-165052756D01*
X243784970Y-164993344D01*
X243770818Y-164920758D01*
X243784970Y-164847912D01*
X243824230Y-164788108D01*
X243881881Y-164748131D01*
X243952706Y-164733261D01*
X244003966Y-164741022D01*
X244049617Y-164762609D01*
X244087834Y-164796586D01*
X244116138Y-164841912D01*
X244341851Y-164830238D01*
X244339047Y-164774282D01*
X244341851Y-164683045D01*
X244350395Y-164593177D01*
X244364155Y-164505070D01*
X244382938Y-164419050D01*
X244407002Y-164334855D01*
X244435632Y-164252748D01*
X244469219Y-164172793D01*
X244507109Y-164095316D01*
X244391416Y-164100599D01*
X244360634Y-164157924D01*
X244315308Y-164201814D01*
X244259418Y-164230118D01*
X244196093Y-164240357D01*
X244114703Y-164223401D01*
X244048183Y-164177749D01*
X244003249Y-164109859D01*
X243987010Y-164026709D01*
X244003249Y-163943166D01*
X244048183Y-163874885D01*
X244114703Y-163828908D01*
X244196093Y-163812277D01*
X244260527Y-163822516D01*
X244317134Y-163852255D01*
X244362721Y-163897515D01*
X244393568Y-163955949D01*
X244596260Y-163946688D01*
X244765757Y-163742887D01*
X244863777Y-163653411D01*
X244969232Y-163573064D01*
X245082447Y-163502305D01*
X245201662Y-163441784D01*
X245327269Y-163392285D01*
X245458158Y-163354394D01*
X248277783Y-160447771D01*
X247972440Y-160256687D01*
X247906246Y-160309447D01*
X244804691Y-163506544D01*
X243597799Y-163565630D01*
X243561017Y-163647737D01*
X243501931Y-163712105D01*
X243425824Y-163754235D01*
X243338825Y-163769430D01*
X243234414Y-163747844D01*
X243148785Y-163688432D01*
X243091134Y-163600651D01*
X243069873Y-163493109D01*
X243091134Y-163385894D01*
X243148785Y-163298178D01*
X243234414Y-163239092D01*
X243338825Y-163217505D01*
X243426867Y-163232374D01*
X243502975Y-163274113D01*
X243561343Y-163338481D01*
X243597799Y-163421306D01*
X244741692Y-163365024D01*
X247253496Y-160776135D01*
X246876285Y-160656528D01*
X244814604Y-162781600D01*
X244824843Y-162806708D01*
X244832278Y-162832208D01*
X244836843Y-162858359D01*
X244838277Y-162884511D01*
X244819886Y-162977966D01*
X244769670Y-163054725D01*
X244694997Y-163106051D01*
X244604086Y-163125159D01*
X244512783Y-163106051D01*
X244438502Y-163054725D01*
X244387894Y-162977966D01*
X244369503Y-162884511D01*
X244387894Y-162791121D01*
X244438502Y-162714688D01*
X244512783Y-162663428D01*
X244604086Y-162644320D01*
X244633433Y-162646406D01*
X244662063Y-162652080D01*
X244690367Y-162661993D01*
X244717301Y-162675428D01*
X246713571Y-160617985D01*
X246419185Y-160561377D01*
X246375620Y-160450640D01*
X244555956Y-162326586D01*
X244543174Y-162327303D01*
X243806165Y-162351368D01*
X243774731Y-162405824D01*
X243730123Y-162447953D01*
X243675602Y-162474822D01*
X243614429Y-162484409D01*
X243533757Y-162467779D01*
X243467953Y-162422128D01*
X243423346Y-162354498D01*
X243407107Y-162271739D01*
X243423346Y-162188914D01*
X243467953Y-162121024D01*
X243533757Y-162075373D01*
X243614429Y-162058743D01*
X243679906Y-162069308D01*
X243736840Y-162099764D01*
X243782491Y-162146850D01*
X243811839Y-162206979D01*
X244494001Y-162184675D01*
X246318686Y-160304165D01*
X246163341Y-159906737D01*
X244405242Y-161718705D01*
X244392459Y-161718705D01*
X243218827Y-161737487D01*
X243186284Y-161786661D01*
X243142785Y-161824160D01*
X243090743Y-161848225D01*
X243033091Y-161856703D01*
X242952419Y-161839747D01*
X242886290Y-161794095D01*
X242842008Y-161726466D01*
X242825378Y-161643706D01*
X242842008Y-161560882D01*
X242886290Y-161493318D01*
X242952419Y-161447666D01*
X243033091Y-161431036D01*
X243094982Y-161440623D01*
X243149829Y-161467818D01*
X243194436Y-161510339D01*
X243225545Y-161565512D01*
X244333047Y-161548491D01*
X246062517Y-159766000D01*
X245005296Y-159814847D01*
X244757605Y-160638854D01*
X244497914Y-160711375D01*
X244245266Y-160799808D01*
X244000053Y-160903176D01*
X243762992Y-161021348D01*
X243035896Y-160569138D01*
X242183911Y-161270409D01*
X242479014Y-162078895D01*
X242369320Y-162218653D01*
X242265300Y-162363694D01*
X242167672Y-162512713D01*
X242075652Y-162666232D01*
X241217993Y-162669036D01*
X240868433Y-163715692D01*
X241548117Y-164244270D01*
X241533248Y-164377311D01*
X241522292Y-164511396D01*
X241515574Y-164646589D01*
X241513096Y-164782826D01*
X241513422Y-164825934D01*
X241514466Y-164869107D01*
X241515900Y-164912280D01*
X241517661Y-164955779D01*
X240792000Y-165412945D01*
X241051365Y-166485753D01*
X241906872Y-166573142D01*
X241985392Y-166734096D01*
X242070369Y-166891202D01*
X242161607Y-167044069D01*
X242258909Y-167193023D01*
X241887437Y-167965444D01*
X242676424Y-168737083D01*
X243448454Y-168356742D01*
X243870207Y-168598759D01*
X244207049Y-168262244D01*
X242787552Y-166884876D01*
G36*
X247247823Y-164575112D02*
X249596847Y-162159567D01*
X249185006Y-162206653D01*
X248961706Y-161935941D01*
X247007892Y-163949884D01*
X247093912Y-164092512D01*
X247162911Y-164244987D01*
X247214562Y-164406332D01*
X247247823Y-164575112D01*
G37*
X247247823Y-164575112D02*
X249596847Y-162159567D01*
X249185006Y-162206653D01*
X248961706Y-161935941D01*
X247007892Y-163949884D01*
X247093912Y-164092512D01*
X247162911Y-164244987D01*
X247214562Y-164406332D01*
X247247823Y-164575112D01*
G36*
X246397924Y-163440414D02*
X246545443Y-163516848D01*
X246682398Y-163608803D01*
X246807678Y-163714975D01*
X246920502Y-163834581D01*
X248863686Y-161831203D01*
X248709058Y-161676967D01*
X248904055Y-160857133D01*
X246397924Y-163440414D01*
G37*
X246397924Y-163440414D02*
X246545443Y-163516848D01*
X246682398Y-163608803D01*
X246807678Y-163714975D01*
X246920502Y-163834581D01*
X248863686Y-161831203D01*
X248709058Y-161676967D01*
X248904055Y-160857133D01*
X246397924Y-163440414D01*
G36*
X245801000Y-163311938D02*
X245918128Y-163316895D01*
X246032778Y-163330721D01*
X246144624Y-163353351D01*
X246253209Y-163384133D01*
X248790448Y-160769026D01*
X248402346Y-160525965D01*
X245693850Y-163317612D01*
X245720719Y-163315525D01*
X245747262Y-163313699D01*
X245774131Y-163312656D01*
X245801000Y-163311938D01*
G37*
X245801000Y-163311938D02*
X245918128Y-163316895D01*
X246032778Y-163330721D01*
X246144624Y-163353351D01*
X246253209Y-163384133D01*
X248790448Y-160769026D01*
X248402346Y-160525965D01*
X245693850Y-163317612D01*
X245720719Y-163315525D01*
X245747262Y-163313699D01*
X245774131Y-163312656D01*
X245801000Y-163311938D01*
G36*
X250451702Y-165518400D02*
X250417007Y-165516248D01*
X250382638Y-165509204D01*
X250349769Y-165497531D01*
X250317878Y-165481227D01*
X249106095Y-166729531D01*
X249143203Y-166773748D01*
X249170463Y-166823964D01*
X249187093Y-166878485D01*
X249193093Y-166936136D01*
X249191006Y-166968027D01*
X249185658Y-166999461D01*
X249176854Y-167030243D01*
X249164137Y-167060373D01*
X249171898Y-167068134D01*
X249179332Y-167075895D01*
X249186767Y-167083329D01*
X249194202Y-167091090D01*
X249615955Y-166656293D01*
X249856147Y-166059369D01*
X250288922Y-165963110D01*
X250622503Y-165619224D01*
X250719153Y-165619224D01*
X250752022Y-165312838D01*
X250712110Y-165312838D01*
X250675263Y-165396315D01*
X250616568Y-165461075D01*
X250540070Y-165503531D01*
X250451702Y-165518400D01*
G37*
X250451702Y-165518400D02*
X250417007Y-165516248D01*
X250382638Y-165509204D01*
X250349769Y-165497531D01*
X250317878Y-165481227D01*
X249106095Y-166729531D01*
X249143203Y-166773748D01*
X249170463Y-166823964D01*
X249187093Y-166878485D01*
X249193093Y-166936136D01*
X249191006Y-166968027D01*
X249185658Y-166999461D01*
X249176854Y-167030243D01*
X249164137Y-167060373D01*
X249171898Y-167068134D01*
X249179332Y-167075895D01*
X249186767Y-167083329D01*
X249194202Y-167091090D01*
X249615955Y-166656293D01*
X249856147Y-166059369D01*
X250288922Y-165963110D01*
X250622503Y-165619224D01*
X250719153Y-165619224D01*
X250752022Y-165312838D01*
X250712110Y-165312838D01*
X250675263Y-165396315D01*
X250616568Y-165461075D01*
X250540070Y-165503531D01*
X250451702Y-165518400D01*
G36*
X248911815Y-167079416D02*
X248965619Y-167068134D01*
X249009509Y-167037352D01*
X249039183Y-166992027D01*
X249050139Y-166936136D01*
X249041661Y-166886963D01*
X249019031Y-166845225D01*
X248984336Y-166813725D01*
X248941163Y-166795660D01*
X248777013Y-166959875D01*
X248792926Y-167006896D01*
X248822991Y-167045113D01*
X248863686Y-167070221D01*
X248911815Y-167079416D01*
G37*
X248911815Y-167079416D02*
X248965619Y-167068134D01*
X249009509Y-167037352D01*
X249039183Y-166992027D01*
X249050139Y-166936136D01*
X249041661Y-166886963D01*
X249019031Y-166845225D01*
X248984336Y-166813725D01*
X248941163Y-166795660D01*
X248777013Y-166959875D01*
X248792926Y-167006896D01*
X248822991Y-167045113D01*
X248863686Y-167070221D01*
X248911815Y-167079416D01*
G36*
X248762144Y-168099855D02*
X249305982Y-168292700D01*
X248580647Y-167545060D01*
X248555148Y-167557125D01*
X248528605Y-167565603D01*
X248501018Y-167570560D01*
X248473106Y-167572321D01*
X248413302Y-167564560D01*
X248359173Y-167541865D01*
X248312804Y-167506518D01*
X248275631Y-167460866D01*
X248257240Y-167479648D01*
X248201023Y-167535865D01*
X248762144Y-168099855D01*
G37*
X248762144Y-168099855D02*
X249305982Y-168292700D01*
X248580647Y-167545060D01*
X248555148Y-167557125D01*
X248528605Y-167565603D01*
X248501018Y-167570560D01*
X248473106Y-167572321D01*
X248413302Y-167564560D01*
X248359173Y-167541865D01*
X248312804Y-167506518D01*
X248275631Y-167460866D01*
X248257240Y-167479648D01*
X248201023Y-167535865D01*
X248762144Y-168099855D01*
G36*
X250665024Y-165071538D02*
X250712110Y-165168450D01*
X250768000Y-165168450D01*
X250792000Y-164944823D01*
X250665024Y-165071538D01*
G37*
X250665024Y-165071538D02*
X250712110Y-165168450D01*
X250768000Y-165168450D01*
X250792000Y-164944823D01*
X250665024Y-165071538D01*
G36*
X248708015Y-167330629D02*
X248706580Y-167360042D01*
X248701297Y-167388672D01*
X248692819Y-167416258D01*
X248681471Y-167442801D01*
X249436545Y-168221549D01*
X250046904Y-167445997D01*
X249944254Y-167284326D01*
X249562478Y-167677384D01*
X249072117Y-167171828D01*
X249035335Y-167194066D01*
X248995683Y-167210371D01*
X248954271Y-167220283D01*
X248911815Y-167223805D01*
X248835056Y-167212849D01*
X248766383Y-167181349D01*
X248709058Y-167133220D01*
X248665559Y-167070938D01*
X248650689Y-167086199D01*
X248620299Y-167116590D01*
X248605429Y-167131785D01*
X248647494Y-167169284D01*
X248680102Y-167216370D01*
X248700971Y-167270891D01*
X248708015Y-167330629D01*
G37*
X248708015Y-167330629D02*
X248706580Y-167360042D01*
X248701297Y-167388672D01*
X248692819Y-167416258D01*
X248681471Y-167442801D01*
X249436545Y-168221549D01*
X250046904Y-167445997D01*
X249944254Y-167284326D01*
X249562478Y-167677384D01*
X249072117Y-167171828D01*
X249035335Y-167194066D01*
X248995683Y-167210371D01*
X248954271Y-167220283D01*
X248911815Y-167223805D01*
X248835056Y-167212849D01*
X248766383Y-167181349D01*
X248709058Y-167133220D01*
X248665559Y-167070938D01*
X248650689Y-167086199D01*
X248620299Y-167116590D01*
X248605429Y-167131785D01*
X248647494Y-167169284D01*
X248680102Y-167216370D01*
X248700971Y-167270891D01*
X248708015Y-167330629D01*
G36*
X248007135Y-164461897D02*
X250144924Y-162324108D01*
X250040578Y-162108959D01*
X249821517Y-162134068D01*
X247262692Y-164765087D01*
X247262692Y-164769717D01*
X247263018Y-164771804D01*
X247263018Y-164773956D01*
X247256301Y-164913389D01*
X247236866Y-165048843D01*
X247205367Y-165180123D01*
X247162520Y-165306447D01*
X248007135Y-164461897D01*
G37*
X248007135Y-164461897D02*
X250144924Y-162324108D01*
X250040578Y-162108959D01*
X249821517Y-162134068D01*
X247262692Y-164765087D01*
X247262692Y-164769717D01*
X247263018Y-164771804D01*
X247263018Y-164773956D01*
X247256301Y-164913389D01*
X247236866Y-165048843D01*
X247205367Y-165180123D01*
X247162520Y-165306447D01*
X248007135Y-164461897D01*
D12*
X207910000Y-163830000D03*
X207910000Y-165430000D03*
X206710000Y-164630000D03*
X207910000Y-162230000D03*
X206710000Y-163030000D03*
D13*
X207010000Y-160280000D03*
X207010000Y-167380000D03*
D14*
X202360000Y-167380000D03*
X202360000Y-160280000D03*
D15*
X208661000Y-133604000D03*
X217551000Y-133604000D03*
X210820000Y-137160000D03*
D16*
X210820000Y-139700000D03*
D10*
G36*
X219075000Y-168236835D02*
X217952114Y-167113949D01*
X219075000Y-165991063D01*
X220197886Y-167113949D01*
X219075000Y-168236835D01*
X219075000Y-168236835D01*
G37*
D15*
X217278949Y-168910000D03*
X219075000Y-170706051D03*
X238125000Y-151130000D03*
X240665000Y-151130000D03*
D16*
X252744000Y-148640013D03*
D15*
X255284000Y-148640013D03*
X252744000Y-151180013D03*
X255284000Y-151180013D03*
X252744000Y-153720013D03*
X255284000Y-153720013D03*
D16*
X230886000Y-128270000D03*
D15*
X228346000Y-128270000D03*
X225806000Y-128270000D03*
X223266000Y-128270000D03*
X220726000Y-128270000D03*
X218186000Y-128270000D03*
X215646000Y-128270000D03*
X213106000Y-128270000D03*
X210566000Y-128270000D03*
X208026000Y-128270000D03*
D16*
X240030000Y-176530000D03*
D15*
X242570000Y-176530000D03*
X245110000Y-176530000D03*
X247650000Y-176530000D03*
X250190000Y-176530000D03*
X252730000Y-176530000D03*
D16*
X217170000Y-176530000D03*
D15*
X219710000Y-176530000D03*
X222250000Y-176530000D03*
X224790000Y-176530000D03*
X227330000Y-176530000D03*
X229870000Y-176530000D03*
X232410000Y-176530000D03*
X234950000Y-176530000D03*
D17*
X221361000Y-148590000D03*
D18*
X221361000Y-153670000D03*
X221361000Y-151130000D03*
D19*
X204851000Y-151130000D03*
D20*
X215265000Y-162560000D03*
X215265000Y-160020000D03*
X217805000Y-162560000D03*
X217805000Y-160020000D03*
X236855000Y-133350000D03*
X234315000Y-133350000D03*
X238125000Y-148590000D03*
X240665000Y-148590000D03*
X253492000Y-158750000D03*
X253492000Y-161290000D03*
D21*
X212725000Y-160020000D03*
D20*
X212725000Y-162560000D03*
D21*
X252730000Y-128270000D03*
D20*
X250190000Y-128270000D03*
X247650000Y-128270000D03*
X245110000Y-128270000D03*
X242570000Y-128270000D03*
X240030000Y-128270000D03*
X237490000Y-128270000D03*
X234950000Y-128270000D03*
D21*
X259334000Y-154940000D03*
D20*
X259334000Y-157480000D03*
X259334000Y-160020000D03*
X259334000Y-162560000D03*
X259334000Y-165100000D03*
X259334000Y-167640000D03*
D21*
X225425000Y-168275000D03*
D20*
X227965000Y-168275000D03*
X230505000Y-168275000D03*
X233045000Y-168275000D03*
X235585000Y-168275000D03*
X238125000Y-168275000D03*
X251460000Y-133350000D03*
X242570000Y-133350000D03*
X248920000Y-149225000D03*
X248920000Y-158115000D03*
D22*
X201295000Y-135255000D03*
X206375000Y-135255000D03*
X201295000Y-142875000D03*
X206375000Y-142875000D03*
D23*
X221615000Y-165100000D03*
D22*
X224155000Y-165100000D03*
X226695000Y-165100000D03*
X229235000Y-165100000D03*
X231775000Y-165100000D03*
X234315000Y-165100000D03*
X236855000Y-165100000D03*
X236855000Y-157480000D03*
X234315000Y-157480000D03*
X231775000Y-157480000D03*
X229235000Y-157480000D03*
X226695000Y-157480000D03*
X224155000Y-157480000D03*
X221615000Y-157480000D03*
X249555000Y-138430000D03*
X247015000Y-138430000D03*
X244475000Y-138430000D03*
X241935000Y-138430000D03*
X239395000Y-138430000D03*
X236855000Y-138430000D03*
X234315000Y-138430000D03*
X231775000Y-138430000D03*
X229235000Y-138430000D03*
X226695000Y-138430000D03*
X224155000Y-138430000D03*
X221615000Y-138430000D03*
X219075000Y-138430000D03*
D23*
X252095000Y-138430000D03*
D22*
X219075000Y-146050000D03*
X221615000Y-146050000D03*
X224155000Y-146050000D03*
X226695000Y-146050000D03*
X229235000Y-146050000D03*
X231775000Y-146050000D03*
X234315000Y-146050000D03*
X236855000Y-146050000D03*
X239395000Y-146050000D03*
X241935000Y-146050000D03*
X244475000Y-146050000D03*
X247015000Y-146050000D03*
X249555000Y-146050000D03*
X252095000Y-146050000D03*
D24*
X203708000Y-130556000D03*
X257048000Y-130556000D03*
X203708000Y-174244000D03*
X257048000Y-174244000D03*
D25*
X224155000Y-153035000D03*
D26*
X224155000Y-150495000D03*
D25*
X210820000Y-165100000D03*
D26*
X213360000Y-165100000D03*
D27*
X209423000Y-143637000D03*
X214503000Y-143637000D03*
M02*
