G04 #@! TF.FileFunction,Copper,L1,Top,Signal*
%FSLAX46Y46*%
G04 Gerber Fmt 4.6, Leading zero omitted, Abs format (unit mm)*
G04 Created by KiCad (PCBNEW 4.0.2-stable) date 2016 March 27, Sunday 01:25:21*
%MOMM*%
G01*
G04 APERTURE LIST*
%ADD10C,0.150000*%
%ADD11C,1.100000*%
%ADD12O,2.600000X2.300000*%
%ADD13O,2.800000X2.600000*%
%ADD14C,1.588000*%
%ADD15R,1.588000X1.588000*%
%ADD16R,2.540000X1.750000*%
%ADD17O,2.540000X1.750000*%
%ADD18R,8.890000X8.890000*%
%ADD19C,1.397000*%
%ADD20R,1.397000X1.397000*%
%ADD21O,1.574800X2.286000*%
%ADD22R,1.574800X2.286000*%
%ADD23C,6.000000*%
%ADD24R,1.651000X1.651000*%
%ADD25C,1.651000*%
%ADD26R,1.780000X3.500000*%
%ADD27C,0.889000*%
%ADD28C,1.270000*%
%ADD29C,0.254000*%
%ADD30C,0.508000*%
G04 APERTURE END LIST*
D10*
D11*
X207910000Y-163830000D03*
X207910000Y-165430000D03*
X206710000Y-164630000D03*
X207910000Y-162230000D03*
X206710000Y-163030000D03*
D12*
X207010000Y-160280000D03*
X207010000Y-167380000D03*
D13*
X202360000Y-167380000D03*
X202360000Y-160280000D03*
D14*
X208661000Y-133604000D03*
X217551000Y-133604000D03*
X210820000Y-137160000D03*
D15*
X210820000Y-139700000D03*
D10*
G36*
X219075000Y-168236835D02*
X217952114Y-167113949D01*
X219075000Y-165991063D01*
X220197886Y-167113949D01*
X219075000Y-168236835D01*
X219075000Y-168236835D01*
G37*
D14*
X217278949Y-168910000D03*
X219075000Y-170706051D03*
X238125000Y-151130000D03*
X240665000Y-151130000D03*
D15*
X252744000Y-148640013D03*
D14*
X255284000Y-148640013D03*
X252744000Y-151180013D03*
X255284000Y-151180013D03*
X252744000Y-153720013D03*
X255284000Y-153720013D03*
D15*
X230886000Y-128270000D03*
D14*
X228346000Y-128270000D03*
X225806000Y-128270000D03*
X223266000Y-128270000D03*
X220726000Y-128270000D03*
X218186000Y-128270000D03*
X215646000Y-128270000D03*
X213106000Y-128270000D03*
X210566000Y-128270000D03*
X208026000Y-128270000D03*
D15*
X240030000Y-176530000D03*
D14*
X242570000Y-176530000D03*
X245110000Y-176530000D03*
X247650000Y-176530000D03*
X250190000Y-176530000D03*
X252730000Y-176530000D03*
D15*
X217170000Y-176530000D03*
D14*
X219710000Y-176530000D03*
X222250000Y-176530000D03*
X224790000Y-176530000D03*
X227330000Y-176530000D03*
X229870000Y-176530000D03*
X232410000Y-176530000D03*
X234950000Y-176530000D03*
D16*
X221361000Y-148590000D03*
D17*
X221361000Y-153670000D03*
X221361000Y-151130000D03*
D18*
X204851000Y-151130000D03*
D19*
X215265000Y-162560000D03*
X215265000Y-160020000D03*
X217805000Y-162560000D03*
X217805000Y-160020000D03*
X236855000Y-133350000D03*
X234315000Y-133350000D03*
X238125000Y-148590000D03*
X240665000Y-148590000D03*
X253492000Y-158750000D03*
X253492000Y-161290000D03*
D20*
X212725000Y-160020000D03*
D19*
X212725000Y-162560000D03*
D20*
X252730000Y-128270000D03*
D19*
X250190000Y-128270000D03*
X247650000Y-128270000D03*
X245110000Y-128270000D03*
X242570000Y-128270000D03*
X240030000Y-128270000D03*
X237490000Y-128270000D03*
X234950000Y-128270000D03*
D20*
X259334000Y-154940000D03*
D19*
X259334000Y-157480000D03*
X259334000Y-160020000D03*
X259334000Y-162560000D03*
X259334000Y-165100000D03*
X259334000Y-167640000D03*
D20*
X225425000Y-168275000D03*
D19*
X227965000Y-168275000D03*
X230505000Y-168275000D03*
X233045000Y-168275000D03*
X235585000Y-168275000D03*
X238125000Y-168275000D03*
X251460000Y-133350000D03*
X242570000Y-133350000D03*
X248920000Y-149225000D03*
X248920000Y-158115000D03*
D21*
X201295000Y-135255000D03*
X206375000Y-135255000D03*
X201295000Y-142875000D03*
X206375000Y-142875000D03*
D22*
X221615000Y-165100000D03*
D21*
X224155000Y-165100000D03*
X226695000Y-165100000D03*
X229235000Y-165100000D03*
X231775000Y-165100000D03*
X234315000Y-165100000D03*
X236855000Y-165100000D03*
X236855000Y-157480000D03*
X234315000Y-157480000D03*
X231775000Y-157480000D03*
X229235000Y-157480000D03*
X226695000Y-157480000D03*
X224155000Y-157480000D03*
X221615000Y-157480000D03*
X249555000Y-138430000D03*
X247015000Y-138430000D03*
X244475000Y-138430000D03*
X241935000Y-138430000D03*
X239395000Y-138430000D03*
X236855000Y-138430000D03*
X234315000Y-138430000D03*
X231775000Y-138430000D03*
X229235000Y-138430000D03*
X226695000Y-138430000D03*
X224155000Y-138430000D03*
X221615000Y-138430000D03*
X219075000Y-138430000D03*
D22*
X252095000Y-138430000D03*
D21*
X219075000Y-146050000D03*
X221615000Y-146050000D03*
X224155000Y-146050000D03*
X226695000Y-146050000D03*
X229235000Y-146050000D03*
X231775000Y-146050000D03*
X234315000Y-146050000D03*
X236855000Y-146050000D03*
X239395000Y-146050000D03*
X241935000Y-146050000D03*
X244475000Y-146050000D03*
X247015000Y-146050000D03*
X249555000Y-146050000D03*
X252095000Y-146050000D03*
D23*
X203708000Y-130556000D03*
X257048000Y-130556000D03*
X203708000Y-174244000D03*
X257048000Y-174244000D03*
D24*
X224155000Y-153035000D03*
D25*
X224155000Y-150495000D03*
D24*
X210820000Y-165100000D03*
D25*
X213360000Y-165100000D03*
D26*
X209423000Y-143637000D03*
X214503000Y-143637000D03*
D27*
X221615000Y-170307000D03*
X227330000Y-170307000D03*
X246380000Y-157480000D03*
X225425000Y-131445000D03*
X227330000Y-132080000D03*
X243840000Y-152400000D03*
X243840000Y-149860000D03*
X229235000Y-132715000D03*
X231140000Y-133350000D03*
X250825000Y-134620000D03*
X253492000Y-132969000D03*
X232410000Y-133985000D03*
X241300000Y-157480000D03*
X241300000Y-170180000D03*
X254000000Y-165735000D03*
X214630000Y-153670000D03*
X234950000Y-173990000D03*
X214630000Y-157480000D03*
X213360000Y-171450000D03*
X211328000Y-149860000D03*
X251206000Y-175260000D03*
X251206000Y-158750000D03*
X223901000Y-175260000D03*
X254000000Y-141732000D03*
X230505000Y-171958000D03*
X232410000Y-171958000D03*
X256540000Y-167640000D03*
X256540000Y-155575000D03*
X241300000Y-155575000D03*
X214503000Y-148463000D03*
X226695000Y-153924000D03*
X217805000Y-151638000D03*
X223520000Y-168275000D03*
D28*
X217278949Y-168910000D02*
X215900000Y-167531051D01*
X215900000Y-167531051D02*
X215900000Y-165100000D01*
X227330000Y-170307000D02*
X221615000Y-170307000D01*
X259334000Y-154940000D02*
X259334000Y-150749000D01*
X257225013Y-148640013D02*
X255284000Y-148640013D01*
X259334000Y-150749000D02*
X257225013Y-148640013D01*
X255284000Y-148640013D02*
X255284000Y-146064000D01*
X251460000Y-142240000D02*
X234315000Y-142240000D01*
X255284000Y-146064000D02*
X251460000Y-142240000D01*
X221615000Y-165100000D02*
X219710000Y-165100000D01*
X219710000Y-165100000D02*
X215900000Y-165100000D01*
X215900000Y-165100000D02*
X215265000Y-165100000D01*
X215265000Y-165100000D02*
X215265000Y-162560000D01*
X238125000Y-151130000D02*
X236220000Y-151130000D01*
X236855000Y-139065000D02*
X236855000Y-139700000D01*
X236855000Y-139700000D02*
X234315000Y-142240000D01*
X234315000Y-142240000D02*
X231775000Y-144780000D01*
X231775000Y-146685000D02*
X231775000Y-146050000D01*
X236220000Y-151130000D02*
X231775000Y-146685000D01*
X231775000Y-144780000D02*
X231775000Y-145415000D01*
D29*
X250952000Y-157480000D02*
X250444000Y-156972000D01*
X246380000Y-157480000D02*
X247142000Y-157480000D01*
X250952000Y-157480000D02*
X259334000Y-157480000D01*
X247396000Y-157480000D02*
X247142000Y-157480000D01*
X247904000Y-156972000D02*
X247396000Y-157480000D01*
X250444000Y-156972000D02*
X247904000Y-156972000D01*
X238760000Y-158750000D02*
X236855000Y-160655000D01*
X243205000Y-157480000D02*
X241935000Y-158750000D01*
X241935000Y-158750000D02*
X238760000Y-158750000D01*
X246380000Y-157480000D02*
X243205000Y-157480000D01*
X231775000Y-163195000D02*
X231775000Y-165100000D01*
X234315000Y-160655000D02*
X231775000Y-163195000D01*
X236855000Y-160655000D02*
X234315000Y-160655000D01*
X246380000Y-157480000D02*
X246380000Y-157480000D01*
X225806000Y-129540000D02*
X225806000Y-131064000D01*
X225425000Y-131445000D02*
X225425000Y-131445000D01*
X225806000Y-131064000D02*
X225425000Y-131445000D01*
X225806000Y-128270000D02*
X225806000Y-129540000D01*
X225806000Y-129540000D02*
X225806000Y-129794000D01*
X255284000Y-151180013D02*
X255219987Y-151180013D01*
X224155000Y-146685000D02*
X224155000Y-146050000D01*
X224155000Y-146685000D02*
X231140000Y-153670000D01*
X243840000Y-153670000D02*
X231140000Y-153670000D01*
X245110000Y-153670000D02*
X243840000Y-153670000D01*
X246380000Y-152400000D02*
X245110000Y-153670000D01*
X254000000Y-152400000D02*
X246380000Y-152400000D01*
X255219987Y-151180013D02*
X254000000Y-152400000D01*
X223266000Y-128270000D02*
X223266000Y-131064000D01*
X226695000Y-132715000D02*
X227330000Y-132080000D01*
X224917000Y-132715000D02*
X226695000Y-132715000D01*
X223266000Y-131064000D02*
X224917000Y-132715000D01*
X252744000Y-148640013D02*
X252679987Y-148640013D01*
X251206000Y-150622000D02*
X244602000Y-150622000D01*
X244602000Y-150622000D02*
X243840000Y-149860000D01*
X252679987Y-148640013D02*
X251206000Y-150622000D01*
X243205000Y-153035000D02*
X243840000Y-152400000D01*
X243205000Y-153035000D02*
X233045000Y-153035000D01*
X226695000Y-146685000D02*
X233045000Y-153035000D01*
X226695000Y-146050000D02*
X226695000Y-146685000D01*
X220726000Y-128270000D02*
X220726000Y-129540000D01*
X220726000Y-129540000D02*
X222631000Y-131445000D01*
X224536000Y-133350000D02*
X224536000Y-133350000D01*
X228600000Y-133350000D02*
X224536000Y-133350000D01*
X229235000Y-132715000D02*
X228600000Y-133350000D01*
X224536000Y-133350000D02*
X222631000Y-131445000D01*
X252744000Y-151180013D02*
X243789987Y-151180013D01*
X229235000Y-146685000D02*
X229235000Y-146050000D01*
X229235000Y-146685000D02*
X234950000Y-152400000D01*
X242570000Y-152400000D02*
X234950000Y-152400000D01*
X243789987Y-151180013D02*
X242570000Y-152400000D01*
X222885000Y-133985000D02*
X230505000Y-133985000D01*
X230505000Y-133985000D02*
X230632000Y-133858000D01*
X220726000Y-131826000D02*
X222885000Y-133985000D01*
X222885000Y-133985000D02*
X222758000Y-133858000D01*
X231140000Y-133350000D02*
X230505000Y-133985000D01*
X218186000Y-128270000D02*
X218186000Y-129286000D01*
X218186000Y-129286000D02*
X220726000Y-131826000D01*
X210566000Y-128270000D02*
X210566000Y-128651000D01*
X210566000Y-128651000D02*
X217170000Y-135255000D01*
X250190000Y-135255000D02*
X250825000Y-134620000D01*
X231775000Y-135255000D02*
X217170000Y-135255000D01*
X250190000Y-135255000D02*
X231775000Y-135255000D01*
X210566000Y-128270000D02*
X210566000Y-128651000D01*
X249555000Y-135890000D02*
X252730000Y-135890000D01*
X252730000Y-135890000D02*
X253492000Y-132969000D01*
X245745000Y-135890000D02*
X215265000Y-135890000D01*
X208026000Y-128651000D02*
X215265000Y-135890000D01*
X208026000Y-128270000D02*
X208026000Y-128651000D01*
X245745000Y-135890000D02*
X249555000Y-135890000D01*
X213106000Y-128270000D02*
X216027000Y-131191000D01*
X217932000Y-131191000D02*
X221361000Y-134620000D01*
X216027000Y-131191000D02*
X217932000Y-131191000D01*
X238125000Y-148590000D02*
X236220000Y-148590000D01*
X232410000Y-133985000D02*
X231775000Y-134620000D01*
X231775000Y-134620000D02*
X221361000Y-134620000D01*
X213106000Y-128651000D02*
X213106000Y-128270000D01*
X234315000Y-146685000D02*
X234315000Y-146050000D01*
X236220000Y-148590000D02*
X234315000Y-146685000D01*
X207910000Y-163830000D02*
X208534000Y-163830000D01*
X208534000Y-163830000D02*
X209042000Y-163322000D01*
X209042000Y-157988000D02*
X211328000Y-155702000D01*
X209042000Y-163322000D02*
X209042000Y-157988000D01*
X211328000Y-155702000D02*
X217170000Y-155702000D01*
X217170000Y-155702000D02*
X222377000Y-155702000D01*
X222377000Y-155702000D02*
X224155000Y-157480000D01*
X217170000Y-155702000D02*
X217297000Y-155702000D01*
X224155000Y-157099000D02*
X224155000Y-157480000D01*
X224790000Y-155702000D02*
X224917000Y-155702000D01*
X224917000Y-155702000D02*
X226695000Y-157480000D01*
X222758000Y-155067000D02*
X222885000Y-155067000D01*
X222885000Y-155067000D02*
X223520000Y-155702000D01*
X223520000Y-155702000D02*
X224790000Y-155702000D01*
X224790000Y-155702000D02*
X224818222Y-155702000D01*
X224818222Y-155702000D02*
X224663000Y-155702000D01*
X211074000Y-155194000D02*
X211201000Y-155067000D01*
X211201000Y-155067000D02*
X222758000Y-155067000D01*
X226695000Y-157480000D02*
X226695000Y-157099000D01*
X206210000Y-163030000D02*
X205105000Y-161925000D01*
X205105000Y-159385000D02*
X205105000Y-161925000D01*
X205803500Y-158686500D02*
X205105000Y-159385000D01*
X210566000Y-155702000D02*
X211074000Y-155194000D01*
X226695000Y-157099000D02*
X226695000Y-157480000D01*
X206710000Y-163030000D02*
X206210000Y-163030000D01*
X207581500Y-158686500D02*
X210566000Y-155702000D01*
X205803500Y-158686500D02*
X207581500Y-158686500D01*
X259334000Y-165100000D02*
X255905000Y-165100000D01*
X250190000Y-170815000D02*
X241935000Y-170815000D01*
X241935000Y-170815000D02*
X241300000Y-170180000D01*
X255905000Y-165100000D02*
X250190000Y-170815000D01*
X241300000Y-157480000D02*
X240030000Y-157480000D01*
X240030000Y-157480000D02*
X236220000Y-157480000D01*
X236855000Y-165100000D02*
X237490000Y-165100000D01*
X249555000Y-170180000D02*
X242570000Y-170180000D01*
X242570000Y-170180000D02*
X238125000Y-165735000D01*
X249555000Y-170180000D02*
X254000000Y-165735000D01*
X237490000Y-165100000D02*
X238125000Y-165735000D01*
X257175000Y-162560000D02*
X259334000Y-162560000D01*
X254000000Y-165735000D02*
X257175000Y-162560000D01*
X248920000Y-158750000D02*
X243205000Y-158750000D01*
X241935000Y-160020000D02*
X243205000Y-158750000D01*
X259334000Y-160020000D02*
X250190000Y-160020000D01*
X250190000Y-160020000D02*
X248920000Y-158750000D01*
X236855000Y-161925000D02*
X238760000Y-160020000D01*
X238760000Y-160020000D02*
X241935000Y-160020000D01*
X235585000Y-161925000D02*
X236855000Y-161925000D01*
X234315000Y-163195000D02*
X235585000Y-161925000D01*
X234315000Y-163195000D02*
X234315000Y-164465000D01*
D28*
X221615000Y-153670000D02*
X214630000Y-153670000D01*
X234823000Y-173863000D02*
X224028000Y-173863000D01*
X234950000Y-173990000D02*
X234823000Y-173863000D01*
X224028000Y-173863000D02*
X215773000Y-173863000D01*
D30*
X213309200Y-158800800D02*
X214630000Y-157480000D01*
X213995000Y-158115000D02*
X214630000Y-157480000D01*
D28*
X215773000Y-173863000D02*
X213360000Y-171450000D01*
D30*
X213995000Y-164465000D02*
X213995000Y-158115000D01*
X213360000Y-165100000D02*
X211836000Y-163576000D01*
X211836000Y-163576000D02*
X210693000Y-162433000D01*
X210693000Y-162433000D02*
X210693000Y-159766000D01*
X213995000Y-164465000D02*
X213360000Y-165100000D01*
X211658200Y-158800800D02*
X213309200Y-158800800D01*
X210693000Y-159766000D02*
X211658200Y-158800800D01*
D28*
X209423000Y-145542000D02*
X209423000Y-143637000D01*
X211328000Y-147447000D02*
X209423000Y-145542000D01*
X211328000Y-149860000D02*
X211328000Y-147447000D01*
D29*
X215900000Y-136525000D02*
X214249000Y-136525000D01*
X252095000Y-137160000D02*
X251460000Y-136525000D01*
X251460000Y-136525000D02*
X215900000Y-136525000D01*
X252095000Y-138430000D02*
X252095000Y-137160000D01*
X204470000Y-138430000D02*
X201295000Y-135255000D01*
X212344000Y-138430000D02*
X204470000Y-138430000D01*
X214249000Y-136525000D02*
X212344000Y-138430000D01*
X231267000Y-175260000D02*
X223901000Y-175260000D01*
X231267000Y-175260000D02*
X251206000Y-175260000D01*
X253492000Y-158750000D02*
X251206000Y-158750000D01*
X252095000Y-139827000D02*
X252095000Y-138430000D01*
X254000000Y-141732000D02*
X252095000Y-139827000D01*
X201295000Y-135255000D02*
X201295000Y-136525000D01*
D28*
X210820000Y-165100000D02*
X210820000Y-167513000D01*
X210820000Y-167513000D02*
X213233000Y-167513000D01*
X224663000Y-171958000D02*
X217678000Y-171958000D01*
X229870000Y-171958000D02*
X224663000Y-171958000D01*
X217678000Y-171958000D02*
X213233000Y-167513000D01*
X230505000Y-171958000D02*
X229870000Y-171958000D01*
X229870000Y-171958000D02*
X232410000Y-171958000D01*
X232410000Y-171958000D02*
X247142000Y-171958000D01*
X250952000Y-171958000D02*
X247142000Y-171958000D01*
X255270000Y-167640000D02*
X256540000Y-167640000D01*
X255270000Y-167640000D02*
X250952000Y-171958000D01*
D29*
X221361000Y-151130000D02*
X222250000Y-151130000D01*
D28*
X217805000Y-160020000D02*
X219075000Y-160020000D01*
X219075000Y-160020000D02*
X221615000Y-157480000D01*
X232410000Y-176530000D02*
X229870000Y-176530000D01*
X241300000Y-155575000D02*
X256540000Y-155575000D01*
X259334000Y-167640000D02*
X256540000Y-167640000D01*
X229235000Y-157480000D02*
X229235000Y-159385000D01*
X226060000Y-162560000D02*
X217805000Y-162560000D01*
X229235000Y-159385000D02*
X226060000Y-162560000D01*
D29*
X208661000Y-133604000D02*
X208661000Y-135001000D01*
X208661000Y-135001000D02*
X210820000Y-137160000D01*
D28*
X214503000Y-148463000D02*
X214503000Y-148336000D01*
X214503000Y-143637000D02*
X214503000Y-148336000D01*
X214503000Y-148336000D02*
X217805000Y-151638000D01*
D29*
X225425000Y-151765000D02*
X226060000Y-152400000D01*
X226060000Y-152400000D02*
X226695000Y-153924000D01*
X217805000Y-151638000D02*
X219329000Y-152400000D01*
X219329000Y-152400000D02*
X222377000Y-152400000D01*
X222377000Y-152400000D02*
X223012000Y-151765000D01*
X223012000Y-151765000D02*
X225425000Y-151765000D01*
D28*
X220236051Y-168275000D02*
X219075000Y-167113949D01*
X223520000Y-168275000D02*
X220236051Y-168275000D01*
D29*
G36*
X232603748Y-176515858D02*
X232589605Y-176530000D01*
X233413398Y-177353793D01*
X233658896Y-177280396D01*
X233812234Y-176853303D01*
X233953302Y-177194715D01*
X234283547Y-177525536D01*
X234518266Y-177623000D01*
X233207005Y-177623000D01*
X233233793Y-177533398D01*
X232410000Y-176709605D01*
X231586207Y-177533398D01*
X231612995Y-177623000D01*
X230667005Y-177623000D01*
X230693793Y-177533398D01*
X229870000Y-176709605D01*
X229046207Y-177533398D01*
X229072995Y-177623000D01*
X227761646Y-177623000D01*
X227994715Y-177526698D01*
X228325536Y-177196453D01*
X228456248Y-176881663D01*
X228456288Y-176882493D01*
X228621104Y-177280396D01*
X228866602Y-177353793D01*
X229690395Y-176530000D01*
X229676253Y-176515858D01*
X229855858Y-176336253D01*
X229870000Y-176350395D01*
X229884143Y-176336253D01*
X230063748Y-176515858D01*
X230049605Y-176530000D01*
X230873398Y-177353793D01*
X231118896Y-177280396D01*
X231138494Y-177225810D01*
X231161104Y-177280396D01*
X231406602Y-177353793D01*
X232230395Y-176530000D01*
X232216253Y-176515858D01*
X232395858Y-176336253D01*
X232410000Y-176350395D01*
X232424143Y-176336253D01*
X232603748Y-176515858D01*
X232603748Y-176515858D01*
G37*
X232603748Y-176515858D02*
X232589605Y-176530000D01*
X233413398Y-177353793D01*
X233658896Y-177280396D01*
X233812234Y-176853303D01*
X233953302Y-177194715D01*
X234283547Y-177525536D01*
X234518266Y-177623000D01*
X233207005Y-177623000D01*
X233233793Y-177533398D01*
X232410000Y-176709605D01*
X231586207Y-177533398D01*
X231612995Y-177623000D01*
X230667005Y-177623000D01*
X230693793Y-177533398D01*
X229870000Y-176709605D01*
X229046207Y-177533398D01*
X229072995Y-177623000D01*
X227761646Y-177623000D01*
X227994715Y-177526698D01*
X228325536Y-177196453D01*
X228456248Y-176881663D01*
X228456288Y-176882493D01*
X228621104Y-177280396D01*
X228866602Y-177353793D01*
X229690395Y-176530000D01*
X229676253Y-176515858D01*
X229855858Y-176336253D01*
X229870000Y-176350395D01*
X229884143Y-176336253D01*
X230063748Y-176515858D01*
X230049605Y-176530000D01*
X230873398Y-177353793D01*
X231118896Y-177280396D01*
X231138494Y-177225810D01*
X231161104Y-177280396D01*
X231406602Y-177353793D01*
X232230395Y-176530000D01*
X232216253Y-176515858D01*
X232395858Y-176336253D01*
X232410000Y-176350395D01*
X232424143Y-176336253D01*
X232603748Y-176515858D01*
G36*
X227681285Y-127273302D02*
X227350464Y-127603547D01*
X227171204Y-128035253D01*
X227170796Y-128502697D01*
X227349302Y-128934715D01*
X227679547Y-129265536D01*
X228111253Y-129444796D01*
X228578697Y-129445204D01*
X229010715Y-129266698D01*
X229341536Y-128936453D01*
X229520796Y-128504747D01*
X229521204Y-128037303D01*
X229342698Y-127605285D01*
X229012453Y-127274464D01*
X228777734Y-127177000D01*
X229853065Y-127177000D01*
X229821135Y-127197546D01*
X229734141Y-127324866D01*
X229703536Y-127476000D01*
X229703536Y-129064000D01*
X229730103Y-129205190D01*
X229813546Y-129334865D01*
X229940866Y-129421859D01*
X230092000Y-129452464D01*
X231680000Y-129452464D01*
X231821190Y-129425897D01*
X231950865Y-129342454D01*
X232037859Y-129215134D01*
X232068464Y-129064000D01*
X232068464Y-128483784D01*
X233870313Y-128483784D01*
X234034311Y-128880689D01*
X234337714Y-129184622D01*
X234734332Y-129349313D01*
X235163784Y-129349687D01*
X235560689Y-129185689D01*
X235864622Y-128882286D01*
X236029313Y-128485668D01*
X236029314Y-128483784D01*
X236410313Y-128483784D01*
X236574311Y-128880689D01*
X236877714Y-129184622D01*
X237274332Y-129349313D01*
X237703784Y-129349687D01*
X238100689Y-129185689D01*
X238404622Y-128882286D01*
X238569313Y-128485668D01*
X238569314Y-128483784D01*
X238950313Y-128483784D01*
X239114311Y-128880689D01*
X239417714Y-129184622D01*
X239814332Y-129349313D01*
X240243784Y-129349687D01*
X240640689Y-129185689D01*
X240944622Y-128882286D01*
X241109313Y-128485668D01*
X241109314Y-128483784D01*
X241490313Y-128483784D01*
X241654311Y-128880689D01*
X241957714Y-129184622D01*
X242354332Y-129349313D01*
X242783784Y-129349687D01*
X243180689Y-129185689D01*
X243484622Y-128882286D01*
X243649313Y-128485668D01*
X243649314Y-128483784D01*
X244030313Y-128483784D01*
X244194311Y-128880689D01*
X244497714Y-129184622D01*
X244894332Y-129349313D01*
X245323784Y-129349687D01*
X245720689Y-129185689D01*
X246024622Y-128882286D01*
X246189313Y-128485668D01*
X246189314Y-128483784D01*
X246570313Y-128483784D01*
X246734311Y-128880689D01*
X247037714Y-129184622D01*
X247434332Y-129349313D01*
X247863784Y-129349687D01*
X248260689Y-129185689D01*
X248564622Y-128882286D01*
X248729313Y-128485668D01*
X248729314Y-128483784D01*
X249110313Y-128483784D01*
X249274311Y-128880689D01*
X249577714Y-129184622D01*
X249974332Y-129349313D01*
X250403784Y-129349687D01*
X250800689Y-129185689D01*
X251104622Y-128882286D01*
X251269313Y-128485668D01*
X251269687Y-128056216D01*
X251105689Y-127659311D01*
X251018032Y-127571500D01*
X251643036Y-127571500D01*
X251643036Y-128968500D01*
X251669603Y-129109690D01*
X251753046Y-129239365D01*
X251880366Y-129326359D01*
X252031500Y-129356964D01*
X253428500Y-129356964D01*
X253569690Y-129330397D01*
X253699365Y-129246954D01*
X253786359Y-129119634D01*
X253816964Y-128968500D01*
X253816964Y-127571500D01*
X253790397Y-127430310D01*
X253706954Y-127300635D01*
X253579634Y-127213641D01*
X253428500Y-127183036D01*
X252031500Y-127183036D01*
X251890310Y-127209603D01*
X251760635Y-127293046D01*
X251673641Y-127420366D01*
X251643036Y-127571500D01*
X251018032Y-127571500D01*
X250802286Y-127355378D01*
X250405668Y-127190687D01*
X249976216Y-127190313D01*
X249579311Y-127354311D01*
X249275378Y-127657714D01*
X249110687Y-128054332D01*
X249110313Y-128483784D01*
X248729314Y-128483784D01*
X248729687Y-128056216D01*
X248565689Y-127659311D01*
X248262286Y-127355378D01*
X247865668Y-127190687D01*
X247436216Y-127190313D01*
X247039311Y-127354311D01*
X246735378Y-127657714D01*
X246570687Y-128054332D01*
X246570313Y-128483784D01*
X246189314Y-128483784D01*
X246189687Y-128056216D01*
X246025689Y-127659311D01*
X245722286Y-127355378D01*
X245325668Y-127190687D01*
X244896216Y-127190313D01*
X244499311Y-127354311D01*
X244195378Y-127657714D01*
X244030687Y-128054332D01*
X244030313Y-128483784D01*
X243649314Y-128483784D01*
X243649687Y-128056216D01*
X243485689Y-127659311D01*
X243182286Y-127355378D01*
X242785668Y-127190687D01*
X242356216Y-127190313D01*
X241959311Y-127354311D01*
X241655378Y-127657714D01*
X241490687Y-128054332D01*
X241490313Y-128483784D01*
X241109314Y-128483784D01*
X241109687Y-128056216D01*
X240945689Y-127659311D01*
X240642286Y-127355378D01*
X240245668Y-127190687D01*
X239816216Y-127190313D01*
X239419311Y-127354311D01*
X239115378Y-127657714D01*
X238950687Y-128054332D01*
X238950313Y-128483784D01*
X238569314Y-128483784D01*
X238569687Y-128056216D01*
X238405689Y-127659311D01*
X238102286Y-127355378D01*
X237705668Y-127190687D01*
X237276216Y-127190313D01*
X236879311Y-127354311D01*
X236575378Y-127657714D01*
X236410687Y-128054332D01*
X236410313Y-128483784D01*
X236029314Y-128483784D01*
X236029687Y-128056216D01*
X235865689Y-127659311D01*
X235562286Y-127355378D01*
X235165668Y-127190687D01*
X234736216Y-127190313D01*
X234339311Y-127354311D01*
X234035378Y-127657714D01*
X233870687Y-128054332D01*
X233870313Y-128483784D01*
X232068464Y-128483784D01*
X232068464Y-127476000D01*
X232041897Y-127334810D01*
X231958454Y-127205135D01*
X231917277Y-127177000D01*
X256372169Y-127177000D01*
X255135319Y-127688056D01*
X254183399Y-128638317D01*
X253667588Y-129880527D01*
X253666414Y-131225572D01*
X254180056Y-132468681D01*
X255130317Y-133420601D01*
X256372527Y-133936412D01*
X257717572Y-133937586D01*
X258960681Y-133423944D01*
X259912601Y-132473683D01*
X260427000Y-131234873D01*
X260427000Y-166926974D01*
X260268188Y-166885417D01*
X259513605Y-167640000D01*
X260268188Y-168394583D01*
X260427000Y-168353026D01*
X260427000Y-173568169D01*
X259915944Y-172331319D01*
X258965683Y-171379399D01*
X257723473Y-170863588D01*
X256378428Y-170862414D01*
X255135319Y-171376056D01*
X254183399Y-172326317D01*
X253667588Y-173568527D01*
X253666414Y-174913572D01*
X254180056Y-176156681D01*
X255130317Y-177108601D01*
X256369127Y-177623000D01*
X253161646Y-177623000D01*
X253394715Y-177526698D01*
X253725536Y-177196453D01*
X253904796Y-176764747D01*
X253905204Y-176297303D01*
X253726698Y-175865285D01*
X253396453Y-175534464D01*
X252964747Y-175355204D01*
X252497303Y-175354796D01*
X252065285Y-175533302D01*
X251930472Y-175667880D01*
X252031357Y-175424923D01*
X252031643Y-175096518D01*
X251906233Y-174793002D01*
X251674219Y-174560583D01*
X251370923Y-174434643D01*
X251042518Y-174434357D01*
X250739002Y-174559767D01*
X250546433Y-174752000D01*
X235603198Y-174752000D01*
X235668420Y-174708420D01*
X235888662Y-174378807D01*
X235965999Y-173990000D01*
X235888662Y-173601193D01*
X235668420Y-173271579D01*
X235541420Y-173144580D01*
X235211807Y-172924338D01*
X235147300Y-172911507D01*
X234823000Y-172847000D01*
X216193841Y-172847000D01*
X214405385Y-171058544D01*
X217661287Y-171058544D01*
X217903793Y-171572717D01*
X218324605Y-171954947D01*
X218722507Y-172119764D01*
X218948000Y-171998070D01*
X218948000Y-170833051D01*
X219202000Y-170833051D01*
X219202000Y-171998070D01*
X219427493Y-172119764D01*
X219941666Y-171877258D01*
X220323896Y-171456446D01*
X220488713Y-171058544D01*
X220367019Y-170833051D01*
X219202000Y-170833051D01*
X218948000Y-170833051D01*
X217782981Y-170833051D01*
X217661287Y-171058544D01*
X214405385Y-171058544D01*
X214078420Y-170731580D01*
X213748807Y-170511338D01*
X213360000Y-170434001D01*
X212971193Y-170511338D01*
X212641580Y-170731580D01*
X212421338Y-171061193D01*
X212344001Y-171450000D01*
X212421338Y-171838807D01*
X212641580Y-172168420D01*
X215054579Y-174581420D01*
X215176578Y-174662937D01*
X215384194Y-174801662D01*
X215773000Y-174879000D01*
X223165366Y-174879000D01*
X223075643Y-175095077D01*
X223075357Y-175423482D01*
X223200767Y-175726998D01*
X223432781Y-175959417D01*
X223707319Y-176073416D01*
X223615204Y-176295253D01*
X223614796Y-176762697D01*
X223793302Y-177194715D01*
X224123547Y-177525536D01*
X224358266Y-177623000D01*
X222681646Y-177623000D01*
X222914715Y-177526698D01*
X223245536Y-177196453D01*
X223424796Y-176764747D01*
X223425204Y-176297303D01*
X223246698Y-175865285D01*
X222916453Y-175534464D01*
X222484747Y-175355204D01*
X222017303Y-175354796D01*
X221585285Y-175533302D01*
X221254464Y-175863547D01*
X221075204Y-176295253D01*
X221074796Y-176762697D01*
X221253302Y-177194715D01*
X221583547Y-177525536D01*
X221818266Y-177623000D01*
X220141646Y-177623000D01*
X220374715Y-177526698D01*
X220705536Y-177196453D01*
X220884796Y-176764747D01*
X220885204Y-176297303D01*
X220706698Y-175865285D01*
X220376453Y-175534464D01*
X219944747Y-175355204D01*
X219477303Y-175354796D01*
X219045285Y-175533302D01*
X218714464Y-175863547D01*
X218535204Y-176295253D01*
X218534796Y-176762697D01*
X218713302Y-177194715D01*
X219043547Y-177525536D01*
X219278266Y-177623000D01*
X218202935Y-177623000D01*
X218234865Y-177602454D01*
X218321859Y-177475134D01*
X218352464Y-177324000D01*
X218352464Y-175736000D01*
X218325897Y-175594810D01*
X218242454Y-175465135D01*
X218115134Y-175378141D01*
X217964000Y-175347536D01*
X216376000Y-175347536D01*
X216234810Y-175374103D01*
X216105135Y-175457546D01*
X216018141Y-175584866D01*
X215987536Y-175736000D01*
X215987536Y-177324000D01*
X216014103Y-177465190D01*
X216097546Y-177594865D01*
X216138723Y-177623000D01*
X204383831Y-177623000D01*
X205620681Y-177111944D01*
X206572601Y-176161683D01*
X207088412Y-174919473D01*
X207089586Y-173574428D01*
X206575944Y-172331319D01*
X205625683Y-171379399D01*
X204383473Y-170863588D01*
X203038428Y-170862414D01*
X201795319Y-171376056D01*
X200843399Y-172326317D01*
X200329000Y-173565127D01*
X200329000Y-167380000D01*
X200544108Y-167380000D01*
X200672067Y-168023291D01*
X201036462Y-168568646D01*
X201581817Y-168933041D01*
X202225108Y-169061000D01*
X202494892Y-169061000D01*
X203138183Y-168933041D01*
X203683538Y-168568646D01*
X204047933Y-168023291D01*
X204175892Y-167380000D01*
X204047933Y-166736709D01*
X203683538Y-166191354D01*
X203138183Y-165826959D01*
X202494892Y-165699000D01*
X202225108Y-165699000D01*
X201581817Y-165826959D01*
X201036462Y-166191354D01*
X200672067Y-166736709D01*
X200544108Y-167380000D01*
X200329000Y-167380000D01*
X200329000Y-160280000D01*
X200544108Y-160280000D01*
X200672067Y-160923291D01*
X201036462Y-161468646D01*
X201581817Y-161833041D01*
X202225108Y-161961000D01*
X202494892Y-161961000D01*
X203138183Y-161833041D01*
X203683538Y-161468646D01*
X204047933Y-160923291D01*
X204175892Y-160280000D01*
X204047933Y-159636709D01*
X203879747Y-159385000D01*
X204597000Y-159385000D01*
X204597000Y-161925000D01*
X204635669Y-162119403D01*
X204745790Y-162284210D01*
X205850790Y-163389210D01*
X205851190Y-163389477D01*
X205920277Y-163556680D01*
X206181943Y-163818803D01*
X206208551Y-163829852D01*
X206183320Y-163840277D01*
X205921197Y-164101943D01*
X205779162Y-164444000D01*
X205778839Y-164814375D01*
X205920277Y-165156680D01*
X206181943Y-165418803D01*
X206524000Y-165560838D01*
X206731076Y-165561019D01*
X206743137Y-165743396D01*
X206789939Y-165856385D01*
X206241179Y-165965540D01*
X205744487Y-166297420D01*
X205412607Y-166794112D01*
X205296067Y-167380000D01*
X205412607Y-167965888D01*
X205744487Y-168462580D01*
X206241179Y-168794460D01*
X206827067Y-168911000D01*
X207192933Y-168911000D01*
X207778821Y-168794460D01*
X208275513Y-168462580D01*
X208607393Y-167965888D01*
X208723933Y-167380000D01*
X208607393Y-166794112D01*
X208420925Y-166515044D01*
X208513492Y-166476701D01*
X208556828Y-166256433D01*
X207910000Y-165609605D01*
X207895858Y-165623748D01*
X207716253Y-165444143D01*
X207730395Y-165430000D01*
X208089605Y-165430000D01*
X208736433Y-166076828D01*
X208956701Y-166033492D01*
X209107972Y-165586999D01*
X209094663Y-165385750D01*
X209359500Y-165385750D01*
X209359500Y-166051810D01*
X209456173Y-166285199D01*
X209634802Y-166463827D01*
X209868191Y-166560500D01*
X210534250Y-166560500D01*
X210693000Y-166401750D01*
X210693000Y-165227000D01*
X209518250Y-165227000D01*
X209359500Y-165385750D01*
X209094663Y-165385750D01*
X209076863Y-165116604D01*
X208956701Y-164826508D01*
X208736433Y-164783172D01*
X208089605Y-165430000D01*
X207730395Y-165430000D01*
X207716253Y-165415858D01*
X207895858Y-165236253D01*
X207910000Y-165250395D01*
X208556828Y-164603567D01*
X208539761Y-164516821D01*
X208698803Y-164358057D01*
X208722719Y-164300462D01*
X208728403Y-164299331D01*
X208893210Y-164189210D01*
X208934230Y-164148190D01*
X209359500Y-164148190D01*
X209359500Y-164814250D01*
X209518250Y-164973000D01*
X210693000Y-164973000D01*
X210693000Y-163798250D01*
X210534250Y-163639500D01*
X209868191Y-163639500D01*
X209634802Y-163736173D01*
X209456173Y-163914801D01*
X209359500Y-164148190D01*
X208934230Y-164148190D01*
X209401210Y-163681211D01*
X209476497Y-163568536D01*
X209511331Y-163516403D01*
X209550000Y-163322000D01*
X209550000Y-159766000D01*
X210058000Y-159766000D01*
X210058000Y-162433000D01*
X210106336Y-162676004D01*
X210243987Y-162882013D01*
X211053612Y-163691638D01*
X210947000Y-163798250D01*
X210947000Y-164973000D01*
X210967000Y-164973000D01*
X210967000Y-165227000D01*
X210947000Y-165227000D01*
X210947000Y-166401750D01*
X211105750Y-166560500D01*
X211771809Y-166560500D01*
X212005198Y-166463827D01*
X212183827Y-166285199D01*
X212280500Y-166051810D01*
X212280500Y-165646806D01*
X212336582Y-165782535D01*
X212675680Y-166122225D01*
X213118959Y-166306290D01*
X213598935Y-166306709D01*
X214042535Y-166123418D01*
X214382225Y-165784320D01*
X214436484Y-165653650D01*
X214546580Y-165818420D01*
X214876194Y-166038662D01*
X214884000Y-166040215D01*
X214884000Y-167531051D01*
X214938846Y-167806781D01*
X214961338Y-167919858D01*
X215181580Y-168249471D01*
X216124122Y-169192014D01*
X216282251Y-169574715D01*
X216612496Y-169905536D01*
X217044202Y-170084796D01*
X217511646Y-170085204D01*
X217826661Y-169955042D01*
X217826104Y-169955656D01*
X217661287Y-170353558D01*
X217782981Y-170579051D01*
X218768392Y-170579051D01*
X218881251Y-170691910D01*
X219060859Y-170512302D01*
X218948000Y-170399443D01*
X218948000Y-169414032D01*
X219202000Y-169414032D01*
X219202000Y-170579051D01*
X220367019Y-170579051D01*
X220488713Y-170353558D01*
X220246207Y-169839385D01*
X219825395Y-169457155D01*
X219427493Y-169292338D01*
X219202000Y-169414032D01*
X218948000Y-169414032D01*
X218722507Y-169292338D01*
X218312081Y-169485913D01*
X218453745Y-169144747D01*
X218454153Y-168677303D01*
X218275647Y-168245285D01*
X217945402Y-167914464D01*
X217560378Y-167754588D01*
X216916000Y-167110211D01*
X216916000Y-166116000D01*
X218400691Y-166116000D01*
X217677428Y-166839263D01*
X217596378Y-166957885D01*
X217563687Y-167108582D01*
X217592202Y-167260125D01*
X217677428Y-167388635D01*
X218800314Y-168511521D01*
X218918936Y-168592571D01*
X219069633Y-168625262D01*
X219136829Y-168612618D01*
X219517630Y-168993420D01*
X219847244Y-169213662D01*
X219911751Y-169226493D01*
X220236051Y-169291000D01*
X221615000Y-169291000D01*
X221226194Y-169368338D01*
X220896580Y-169588580D01*
X220676338Y-169918194D01*
X220599000Y-170307000D01*
X220676338Y-170695806D01*
X220896580Y-171025420D01*
X221226194Y-171245662D01*
X221615000Y-171323000D01*
X227330000Y-171323000D01*
X227718806Y-171245662D01*
X228048420Y-171025420D01*
X228268662Y-170695806D01*
X228346000Y-170307000D01*
X228268662Y-169918194D01*
X228048420Y-169588580D01*
X227718806Y-169368338D01*
X227330000Y-169291000D01*
X226333685Y-169291000D01*
X226394365Y-169251954D01*
X226481359Y-169124634D01*
X226511964Y-168973500D01*
X226511964Y-168488784D01*
X226885313Y-168488784D01*
X227049311Y-168885689D01*
X227352714Y-169189622D01*
X227749332Y-169354313D01*
X228178784Y-169354687D01*
X228530918Y-169209188D01*
X229750417Y-169209188D01*
X229812071Y-169444800D01*
X230312480Y-169620927D01*
X230842199Y-169592148D01*
X231197929Y-169444800D01*
X231259583Y-169209188D01*
X230505000Y-168454605D01*
X229750417Y-169209188D01*
X228530918Y-169209188D01*
X228575689Y-169190689D01*
X228879622Y-168887286D01*
X229044313Y-168490668D01*
X229044668Y-168082480D01*
X229159073Y-168082480D01*
X229187852Y-168612199D01*
X229335200Y-168967929D01*
X229570812Y-169029583D01*
X230325395Y-168275000D01*
X230684605Y-168275000D01*
X231439188Y-169029583D01*
X231674800Y-168967929D01*
X231843442Y-168488784D01*
X231965313Y-168488784D01*
X232129311Y-168885689D01*
X232432714Y-169189622D01*
X232829332Y-169354313D01*
X233258784Y-169354687D01*
X233655689Y-169190689D01*
X233959622Y-168887286D01*
X234124313Y-168490668D01*
X234124314Y-168488784D01*
X234505313Y-168488784D01*
X234669311Y-168885689D01*
X234972714Y-169189622D01*
X235369332Y-169354313D01*
X235798784Y-169354687D01*
X236195689Y-169190689D01*
X236499622Y-168887286D01*
X236664313Y-168490668D01*
X236664314Y-168488784D01*
X237045313Y-168488784D01*
X237209311Y-168885689D01*
X237512714Y-169189622D01*
X237909332Y-169354313D01*
X238338784Y-169354687D01*
X238735689Y-169190689D01*
X239039622Y-168887286D01*
X239204313Y-168490668D01*
X239204687Y-168061216D01*
X239040689Y-167664311D01*
X238737286Y-167360378D01*
X238340668Y-167195687D01*
X237911216Y-167195313D01*
X237514311Y-167359311D01*
X237210378Y-167662714D01*
X237045687Y-168059332D01*
X237045313Y-168488784D01*
X236664314Y-168488784D01*
X236664687Y-168061216D01*
X236500689Y-167664311D01*
X236197286Y-167360378D01*
X235800668Y-167195687D01*
X235371216Y-167195313D01*
X234974311Y-167359311D01*
X234670378Y-167662714D01*
X234505687Y-168059332D01*
X234505313Y-168488784D01*
X234124314Y-168488784D01*
X234124687Y-168061216D01*
X233960689Y-167664311D01*
X233657286Y-167360378D01*
X233260668Y-167195687D01*
X232831216Y-167195313D01*
X232434311Y-167359311D01*
X232130378Y-167662714D01*
X231965687Y-168059332D01*
X231965313Y-168488784D01*
X231843442Y-168488784D01*
X231850927Y-168467520D01*
X231822148Y-167937801D01*
X231674800Y-167582071D01*
X231439188Y-167520417D01*
X230684605Y-168275000D01*
X230325395Y-168275000D01*
X229570812Y-167520417D01*
X229335200Y-167582071D01*
X229159073Y-168082480D01*
X229044668Y-168082480D01*
X229044687Y-168061216D01*
X228880689Y-167664311D01*
X228577286Y-167360378D01*
X228530167Y-167340812D01*
X229750417Y-167340812D01*
X230505000Y-168095395D01*
X231259583Y-167340812D01*
X231197929Y-167105200D01*
X230697520Y-166929073D01*
X230167801Y-166957852D01*
X229812071Y-167105200D01*
X229750417Y-167340812D01*
X228530167Y-167340812D01*
X228180668Y-167195687D01*
X227751216Y-167195313D01*
X227354311Y-167359311D01*
X227050378Y-167662714D01*
X226885687Y-168059332D01*
X226885313Y-168488784D01*
X226511964Y-168488784D01*
X226511964Y-167576500D01*
X226485397Y-167435310D01*
X226401954Y-167305635D01*
X226274634Y-167218641D01*
X226123500Y-167188036D01*
X224726500Y-167188036D01*
X224585310Y-167214603D01*
X224455635Y-167298046D01*
X224368641Y-167425366D01*
X224338036Y-167576500D01*
X224338036Y-167705665D01*
X224238420Y-167556580D01*
X223908806Y-167336338D01*
X223520000Y-167259000D01*
X220656892Y-167259000D01*
X220573994Y-167176103D01*
X220586313Y-167119316D01*
X220557798Y-166967773D01*
X220472572Y-166839263D01*
X219749309Y-166116000D01*
X220439136Y-166116000D01*
X220439136Y-166243000D01*
X220465703Y-166384190D01*
X220549146Y-166513865D01*
X220676466Y-166600859D01*
X220827600Y-166631464D01*
X222402400Y-166631464D01*
X222543590Y-166604897D01*
X222673265Y-166521454D01*
X222760259Y-166394134D01*
X222790864Y-166243000D01*
X222790864Y-163957000D01*
X222764297Y-163815810D01*
X222680854Y-163686135D01*
X222553534Y-163599141D01*
X222439259Y-163576000D01*
X224004899Y-163576000D01*
X223707873Y-163635082D01*
X223328816Y-163888359D01*
X223075539Y-164267416D01*
X222986600Y-164714543D01*
X222986600Y-165485457D01*
X223075539Y-165932584D01*
X223328816Y-166311641D01*
X223707873Y-166564918D01*
X224155000Y-166653857D01*
X224602127Y-166564918D01*
X224981184Y-166311641D01*
X225234461Y-165932584D01*
X225323400Y-165485457D01*
X225323400Y-164714543D01*
X225526600Y-164714543D01*
X225526600Y-165485457D01*
X225615539Y-165932584D01*
X225868816Y-166311641D01*
X226247873Y-166564918D01*
X226695000Y-166653857D01*
X227142127Y-166564918D01*
X227521184Y-166311641D01*
X227774461Y-165932584D01*
X227863400Y-165485457D01*
X227863400Y-164714543D01*
X228066600Y-164714543D01*
X228066600Y-165485457D01*
X228155539Y-165932584D01*
X228408816Y-166311641D01*
X228787873Y-166564918D01*
X229235000Y-166653857D01*
X229682127Y-166564918D01*
X230061184Y-166311641D01*
X230314461Y-165932584D01*
X230403400Y-165485457D01*
X230403400Y-164714543D01*
X230606600Y-164714543D01*
X230606600Y-165485457D01*
X230695539Y-165932584D01*
X230948816Y-166311641D01*
X231327873Y-166564918D01*
X231775000Y-166653857D01*
X232222127Y-166564918D01*
X232601184Y-166311641D01*
X232854461Y-165932584D01*
X232943400Y-165485457D01*
X232943400Y-164714543D01*
X232854461Y-164267416D01*
X232601184Y-163888359D01*
X232283000Y-163675756D01*
X232283000Y-163405420D01*
X234525421Y-161163000D01*
X236855000Y-161163000D01*
X236909401Y-161152179D01*
X236644580Y-161417000D01*
X235585000Y-161417000D01*
X235422850Y-161449254D01*
X235390596Y-161455669D01*
X235225790Y-161565790D01*
X233955790Y-162835790D01*
X233845669Y-163000597D01*
X233807000Y-163195000D01*
X233807000Y-163675756D01*
X233488816Y-163888359D01*
X233235539Y-164267416D01*
X233146600Y-164714543D01*
X233146600Y-165485457D01*
X233235539Y-165932584D01*
X233488816Y-166311641D01*
X233867873Y-166564918D01*
X234315000Y-166653857D01*
X234762127Y-166564918D01*
X235141184Y-166311641D01*
X235394461Y-165932584D01*
X235483400Y-165485457D01*
X235483400Y-164714543D01*
X235686600Y-164714543D01*
X235686600Y-165485457D01*
X235775539Y-165932584D01*
X236028816Y-166311641D01*
X236407873Y-166564918D01*
X236855000Y-166653857D01*
X237302127Y-166564918D01*
X237681184Y-166311641D01*
X237802163Y-166130583D01*
X241058269Y-169386689D01*
X240833002Y-169479767D01*
X240600583Y-169711781D01*
X240474643Y-170015077D01*
X240474357Y-170343482D01*
X240599767Y-170646998D01*
X240831781Y-170879417D01*
X241135077Y-171005357D01*
X241407173Y-171005594D01*
X241575790Y-171174211D01*
X241740597Y-171284331D01*
X241935000Y-171323000D01*
X250190000Y-171323000D01*
X250384403Y-171284331D01*
X250549210Y-171174210D01*
X253149232Y-168574188D01*
X258579417Y-168574188D01*
X258641071Y-168809800D01*
X259141480Y-168985927D01*
X259671199Y-168957148D01*
X260026929Y-168809800D01*
X260088583Y-168574188D01*
X259334000Y-167819605D01*
X258579417Y-168574188D01*
X253149232Y-168574188D01*
X254275940Y-167447480D01*
X257988073Y-167447480D01*
X258016852Y-167977199D01*
X258164200Y-168332929D01*
X258399812Y-168394583D01*
X259154395Y-167640000D01*
X258399812Y-166885417D01*
X258164200Y-166947071D01*
X257988073Y-167447480D01*
X254275940Y-167447480D01*
X255017608Y-166705812D01*
X258579417Y-166705812D01*
X259334000Y-167460395D01*
X260088583Y-166705812D01*
X260026929Y-166470200D01*
X259526520Y-166294073D01*
X258996801Y-166322852D01*
X258641071Y-166470200D01*
X258579417Y-166705812D01*
X255017608Y-166705812D01*
X256115421Y-165608000D01*
X258375881Y-165608000D01*
X258418311Y-165710689D01*
X258721714Y-166014622D01*
X259118332Y-166179313D01*
X259547784Y-166179687D01*
X259944689Y-166015689D01*
X260248622Y-165712286D01*
X260413313Y-165315668D01*
X260413687Y-164886216D01*
X260249689Y-164489311D01*
X259946286Y-164185378D01*
X259549668Y-164020687D01*
X259120216Y-164020313D01*
X258723311Y-164184311D01*
X258419378Y-164487714D01*
X258376074Y-164592000D01*
X255905000Y-164592000D01*
X255850599Y-164602821D01*
X257385420Y-163068000D01*
X258375881Y-163068000D01*
X258418311Y-163170689D01*
X258721714Y-163474622D01*
X259118332Y-163639313D01*
X259547784Y-163639687D01*
X259944689Y-163475689D01*
X260248622Y-163172286D01*
X260413313Y-162775668D01*
X260413687Y-162346216D01*
X260249689Y-161949311D01*
X259946286Y-161645378D01*
X259549668Y-161480687D01*
X259120216Y-161480313D01*
X258723311Y-161644311D01*
X258419378Y-161947714D01*
X258376074Y-162052000D01*
X257175000Y-162052000D01*
X256980597Y-162090669D01*
X256815790Y-162200790D01*
X254106987Y-164909593D01*
X253836518Y-164909357D01*
X253533002Y-165034767D01*
X253300583Y-165266781D01*
X253174643Y-165570077D01*
X253174406Y-165842174D01*
X249344580Y-169672000D01*
X242780420Y-169672000D01*
X238484213Y-165375793D01*
X238484211Y-165375790D01*
X238023400Y-164914980D01*
X238023400Y-164714543D01*
X237934461Y-164267416D01*
X237681184Y-163888359D01*
X237302127Y-163635082D01*
X236855000Y-163546143D01*
X236407873Y-163635082D01*
X236028816Y-163888359D01*
X235775539Y-164267416D01*
X235686600Y-164714543D01*
X235483400Y-164714543D01*
X235394461Y-164267416D01*
X235141184Y-163888359D01*
X234823000Y-163675756D01*
X234823000Y-163405420D01*
X235795420Y-162433000D01*
X236855000Y-162433000D01*
X237049403Y-162394331D01*
X237214210Y-162284210D01*
X238970420Y-160528000D01*
X241935000Y-160528000D01*
X242129403Y-160489331D01*
X242294210Y-160379210D01*
X243415420Y-159258000D01*
X248709580Y-159258000D01*
X249830790Y-160379210D01*
X249995596Y-160489331D01*
X250027850Y-160495746D01*
X250190000Y-160528000D01*
X252727354Y-160528000D01*
X252577378Y-160677714D01*
X252412687Y-161074332D01*
X252412313Y-161503784D01*
X252576311Y-161900689D01*
X252879714Y-162204622D01*
X253276332Y-162369313D01*
X253705784Y-162369687D01*
X254102689Y-162205689D01*
X254406622Y-161902286D01*
X254571313Y-161505668D01*
X254571687Y-161076216D01*
X254407689Y-160679311D01*
X254256642Y-160528000D01*
X258375881Y-160528000D01*
X258418311Y-160630689D01*
X258721714Y-160934622D01*
X259118332Y-161099313D01*
X259547784Y-161099687D01*
X259944689Y-160935689D01*
X260248622Y-160632286D01*
X260413313Y-160235668D01*
X260413687Y-159806216D01*
X260249689Y-159409311D01*
X259946286Y-159105378D01*
X259549668Y-158940687D01*
X259120216Y-158940313D01*
X258723311Y-159104311D01*
X258419378Y-159407714D01*
X258376074Y-159512000D01*
X254256646Y-159512000D01*
X254406622Y-159362286D01*
X254571313Y-158965668D01*
X254571687Y-158536216D01*
X254407689Y-158139311D01*
X254256642Y-157988000D01*
X258375881Y-157988000D01*
X258418311Y-158090689D01*
X258721714Y-158394622D01*
X259118332Y-158559313D01*
X259547784Y-158559687D01*
X259944689Y-158395689D01*
X260248622Y-158092286D01*
X260413313Y-157695668D01*
X260413687Y-157266216D01*
X260249689Y-156869311D01*
X259946286Y-156565378D01*
X259549668Y-156400687D01*
X259120216Y-156400313D01*
X258723311Y-156564311D01*
X258419378Y-156867714D01*
X258376074Y-156972000D01*
X251162421Y-156972000D01*
X250803210Y-156612790D01*
X250638403Y-156502669D01*
X250444000Y-156464000D01*
X247904000Y-156464000D01*
X247709597Y-156502669D01*
X247709595Y-156502670D01*
X247709596Y-156502670D01*
X247544789Y-156612790D01*
X247185580Y-156972000D01*
X247039302Y-156972000D01*
X246848219Y-156780583D01*
X246544923Y-156654643D01*
X246216518Y-156654357D01*
X245913002Y-156779767D01*
X245720433Y-156972000D01*
X243205000Y-156972000D01*
X243042850Y-157004254D01*
X243010596Y-157010669D01*
X242845790Y-157120790D01*
X241724580Y-158242000D01*
X241617510Y-158242000D01*
X241766998Y-158180233D01*
X241999417Y-157948219D01*
X242125357Y-157644923D01*
X242125643Y-157316518D01*
X242000233Y-157013002D01*
X241768219Y-156780583D01*
X241464923Y-156654643D01*
X241136518Y-156654357D01*
X240833002Y-156779767D01*
X240640433Y-156972000D01*
X237999025Y-156972000D01*
X237934461Y-156647416D01*
X237681184Y-156268359D01*
X237302127Y-156015082D01*
X236855000Y-155926143D01*
X236407873Y-156015082D01*
X236028816Y-156268359D01*
X235775539Y-156647416D01*
X235686600Y-157094543D01*
X235686600Y-157865457D01*
X235775539Y-158312584D01*
X236028816Y-158691641D01*
X236407873Y-158944918D01*
X236855000Y-159033857D01*
X237302127Y-158944918D01*
X237681184Y-158691641D01*
X237934461Y-158312584D01*
X237999025Y-157988000D01*
X240640698Y-157988000D01*
X240831781Y-158179417D01*
X240982497Y-158242000D01*
X238760000Y-158242000D01*
X238565597Y-158280669D01*
X238400790Y-158390790D01*
X236644580Y-160147000D01*
X234315000Y-160147000D01*
X234120597Y-160185669D01*
X234083715Y-160210313D01*
X233955789Y-160295790D01*
X231415790Y-162835790D01*
X231305669Y-163000597D01*
X231267000Y-163195000D01*
X231267000Y-163675756D01*
X230948816Y-163888359D01*
X230695539Y-164267416D01*
X230606600Y-164714543D01*
X230403400Y-164714543D01*
X230314461Y-164267416D01*
X230061184Y-163888359D01*
X229682127Y-163635082D01*
X229235000Y-163546143D01*
X228787873Y-163635082D01*
X228408816Y-163888359D01*
X228155539Y-164267416D01*
X228066600Y-164714543D01*
X227863400Y-164714543D01*
X227774461Y-164267416D01*
X227521184Y-163888359D01*
X227142127Y-163635082D01*
X226695000Y-163546143D01*
X226247873Y-163635082D01*
X225868816Y-163888359D01*
X225615539Y-164267416D01*
X225526600Y-164714543D01*
X225323400Y-164714543D01*
X225234461Y-164267416D01*
X224981184Y-163888359D01*
X224602127Y-163635082D01*
X224305101Y-163576000D01*
X226060000Y-163576000D01*
X226384300Y-163511493D01*
X226448807Y-163498662D01*
X226778420Y-163278420D01*
X229953420Y-160103421D01*
X230173662Y-159773807D01*
X230212331Y-159579403D01*
X230251000Y-159385000D01*
X230251000Y-158407560D01*
X230314461Y-158312584D01*
X230403400Y-157865457D01*
X230403400Y-157094543D01*
X230606600Y-157094543D01*
X230606600Y-157865457D01*
X230695539Y-158312584D01*
X230948816Y-158691641D01*
X231327873Y-158944918D01*
X231775000Y-159033857D01*
X232222127Y-158944918D01*
X232601184Y-158691641D01*
X232854461Y-158312584D01*
X232943400Y-157865457D01*
X232943400Y-157094543D01*
X233146600Y-157094543D01*
X233146600Y-157865457D01*
X233235539Y-158312584D01*
X233488816Y-158691641D01*
X233867873Y-158944918D01*
X234315000Y-159033857D01*
X234762127Y-158944918D01*
X235141184Y-158691641D01*
X235394461Y-158312584D01*
X235483400Y-157865457D01*
X235483400Y-157094543D01*
X235394461Y-156647416D01*
X235141184Y-156268359D01*
X234762127Y-156015082D01*
X234315000Y-155926143D01*
X233867873Y-156015082D01*
X233488816Y-156268359D01*
X233235539Y-156647416D01*
X233146600Y-157094543D01*
X232943400Y-157094543D01*
X232854461Y-156647416D01*
X232601184Y-156268359D01*
X232222127Y-156015082D01*
X231775000Y-155926143D01*
X231327873Y-156015082D01*
X230948816Y-156268359D01*
X230695539Y-156647416D01*
X230606600Y-157094543D01*
X230403400Y-157094543D01*
X230314461Y-156647416D01*
X230061184Y-156268359D01*
X229682127Y-156015082D01*
X229235000Y-155926143D01*
X228787873Y-156015082D01*
X228408816Y-156268359D01*
X228155539Y-156647416D01*
X228066600Y-157094543D01*
X228066600Y-157865457D01*
X228155539Y-158312584D01*
X228219000Y-158407560D01*
X228219000Y-158964159D01*
X225639160Y-161544000D01*
X218173142Y-161544000D01*
X218020668Y-161480687D01*
X217591216Y-161480313D01*
X217194311Y-161644311D01*
X216890378Y-161947714D01*
X216725687Y-162344332D01*
X216725313Y-162773784D01*
X216889311Y-163170689D01*
X217192714Y-163474622D01*
X217589332Y-163639313D01*
X218018784Y-163639687D01*
X218172918Y-163576000D01*
X220787933Y-163576000D01*
X220686410Y-163595103D01*
X220556735Y-163678546D01*
X220469741Y-163805866D01*
X220439136Y-163957000D01*
X220439136Y-164084000D01*
X216281000Y-164084000D01*
X216281000Y-162928142D01*
X216344313Y-162775668D01*
X216344687Y-162346216D01*
X216180689Y-161949311D01*
X215877286Y-161645378D01*
X215480668Y-161480687D01*
X215051216Y-161480313D01*
X214654311Y-161644311D01*
X214630000Y-161668580D01*
X214630000Y-161210189D01*
X215072480Y-161365927D01*
X215602199Y-161337148D01*
X215957929Y-161189800D01*
X216019583Y-160954188D01*
X217050417Y-160954188D01*
X217112071Y-161189800D01*
X217612480Y-161365927D01*
X218142199Y-161337148D01*
X218497929Y-161189800D01*
X218559583Y-160954188D01*
X217805000Y-160199605D01*
X217050417Y-160954188D01*
X216019583Y-160954188D01*
X215265000Y-160199605D01*
X215250858Y-160213748D01*
X215071253Y-160034143D01*
X215085395Y-160020000D01*
X215444605Y-160020000D01*
X216199188Y-160774583D01*
X216434800Y-160712929D01*
X216526859Y-160451371D01*
X216635200Y-160712929D01*
X216870812Y-160774583D01*
X217625395Y-160020000D01*
X217984605Y-160020000D01*
X218739188Y-160774583D01*
X218974800Y-160712929D01*
X219150927Y-160212520D01*
X219122148Y-159682801D01*
X218974800Y-159327071D01*
X218739188Y-159265417D01*
X217984605Y-160020000D01*
X217625395Y-160020000D01*
X216870812Y-159265417D01*
X216635200Y-159327071D01*
X216543141Y-159588629D01*
X216434800Y-159327071D01*
X216199188Y-159265417D01*
X215444605Y-160020000D01*
X215085395Y-160020000D01*
X215071253Y-160005858D01*
X215250858Y-159826253D01*
X215265000Y-159840395D01*
X216019583Y-159085812D01*
X217050417Y-159085812D01*
X217805000Y-159840395D01*
X218559583Y-159085812D01*
X218497929Y-158850200D01*
X217997520Y-158674073D01*
X217467801Y-158702852D01*
X217112071Y-158850200D01*
X217050417Y-159085812D01*
X216019583Y-159085812D01*
X215957929Y-158850200D01*
X215457520Y-158674073D01*
X214927801Y-158702852D01*
X214630000Y-158826205D01*
X214630000Y-158378026D01*
X214702462Y-158305564D01*
X214793482Y-158305643D01*
X215096998Y-158180233D01*
X215329417Y-157948219D01*
X215455357Y-157644923D01*
X215455390Y-157607000D01*
X220192600Y-157607000D01*
X220192600Y-157962600D01*
X220349475Y-158497262D01*
X220699014Y-158931191D01*
X221188004Y-159198327D01*
X221267940Y-159215010D01*
X221488000Y-159092852D01*
X221488000Y-157607000D01*
X220192600Y-157607000D01*
X215455390Y-157607000D01*
X215455643Y-157316518D01*
X215330233Y-157013002D01*
X215098219Y-156780583D01*
X214794923Y-156654643D01*
X214466518Y-156654357D01*
X214163002Y-156779767D01*
X213930583Y-157011781D01*
X213804643Y-157315077D01*
X213804563Y-157407411D01*
X213046174Y-158165800D01*
X211658200Y-158165800D01*
X211415196Y-158214136D01*
X211209187Y-158351787D01*
X210243987Y-159316987D01*
X210106336Y-159522996D01*
X210058000Y-159766000D01*
X209550000Y-159766000D01*
X209550000Y-158198420D01*
X211538420Y-156210000D01*
X220553061Y-156210000D01*
X220349475Y-156462738D01*
X220192600Y-156997400D01*
X220192600Y-157353000D01*
X221488000Y-157353000D01*
X221488000Y-157333000D01*
X221742000Y-157333000D01*
X221742000Y-157353000D01*
X221762000Y-157353000D01*
X221762000Y-157607000D01*
X221742000Y-157607000D01*
X221742000Y-159092852D01*
X221962060Y-159215010D01*
X222041996Y-159198327D01*
X222530986Y-158931191D01*
X222880525Y-158497262D01*
X223018641Y-158026536D01*
X223075539Y-158312584D01*
X223328816Y-158691641D01*
X223707873Y-158944918D01*
X224155000Y-159033857D01*
X224602127Y-158944918D01*
X224981184Y-158691641D01*
X225234461Y-158312584D01*
X225323400Y-157865457D01*
X225323400Y-157094543D01*
X225256924Y-156760344D01*
X225537305Y-157040725D01*
X225526600Y-157094543D01*
X225526600Y-157865457D01*
X225615539Y-158312584D01*
X225868816Y-158691641D01*
X226247873Y-158944918D01*
X226695000Y-159033857D01*
X227142127Y-158944918D01*
X227521184Y-158691641D01*
X227774461Y-158312584D01*
X227863400Y-157865457D01*
X227863400Y-157094543D01*
X227774461Y-156647416D01*
X227521184Y-156268359D01*
X227142127Y-156015082D01*
X226695000Y-155926143D01*
X226247873Y-156015082D01*
X226068413Y-156134993D01*
X225276210Y-155342790D01*
X225111403Y-155232669D01*
X224917000Y-155194000D01*
X223730421Y-155194000D01*
X223244210Y-154707790D01*
X223079403Y-154597669D01*
X222885000Y-154559000D01*
X222675163Y-154559000D01*
X222676471Y-154558126D01*
X222857769Y-154286794D01*
X222969801Y-154398827D01*
X223203190Y-154495500D01*
X223869250Y-154495500D01*
X224028000Y-154336750D01*
X224028000Y-153162000D01*
X224282000Y-153162000D01*
X224282000Y-154336750D01*
X224440750Y-154495500D01*
X225106810Y-154495500D01*
X225340199Y-154398827D01*
X225518827Y-154220198D01*
X225615500Y-153986809D01*
X225615500Y-153320750D01*
X225456750Y-153162000D01*
X224282000Y-153162000D01*
X224028000Y-153162000D01*
X224008000Y-153162000D01*
X224008000Y-152908000D01*
X224028000Y-152908000D01*
X224028000Y-152888000D01*
X224282000Y-152888000D01*
X224282000Y-152908000D01*
X225456750Y-152908000D01*
X225615500Y-152749250D01*
X225615500Y-152673921D01*
X225629729Y-152688150D01*
X225972619Y-153511085D01*
X225869643Y-153759077D01*
X225869357Y-154087482D01*
X225994767Y-154390998D01*
X226226781Y-154623417D01*
X226530077Y-154749357D01*
X226858482Y-154749643D01*
X227161998Y-154624233D01*
X227394417Y-154392219D01*
X227520357Y-154088923D01*
X227520643Y-153760518D01*
X227395233Y-153457002D01*
X227163219Y-153224583D01*
X226910119Y-153119486D01*
X226528923Y-152204615D01*
X226474028Y-152122830D01*
X226419211Y-152040790D01*
X225784210Y-151405790D01*
X225619403Y-151295669D01*
X225425000Y-151257000D01*
X225099409Y-151257000D01*
X225177225Y-151179320D01*
X225361290Y-150736041D01*
X225361709Y-150256065D01*
X225178418Y-149812465D01*
X224839320Y-149472775D01*
X224396041Y-149288710D01*
X223916065Y-149288291D01*
X223472465Y-149471582D01*
X223132775Y-149810680D01*
X222957788Y-150232097D01*
X222913534Y-150152072D01*
X222538906Y-149853464D01*
X222631000Y-149853464D01*
X222772190Y-149826897D01*
X222901865Y-149743454D01*
X222988859Y-149616134D01*
X223019464Y-149465000D01*
X223019464Y-147715000D01*
X222992897Y-147573810D01*
X222909454Y-147444135D01*
X222782134Y-147357141D01*
X222631000Y-147326536D01*
X222344061Y-147326536D01*
X222441184Y-147261641D01*
X222694461Y-146882584D01*
X222783400Y-146435457D01*
X222783400Y-145664543D01*
X222694461Y-145217416D01*
X222441184Y-144838359D01*
X222062127Y-144585082D01*
X221615000Y-144496143D01*
X221167873Y-144585082D01*
X220788816Y-144838359D01*
X220535539Y-145217416D01*
X220446600Y-145664543D01*
X220446600Y-146435457D01*
X220535539Y-146882584D01*
X220788816Y-147261641D01*
X220885939Y-147326536D01*
X220091000Y-147326536D01*
X219949810Y-147353103D01*
X219820135Y-147436546D01*
X219733141Y-147563866D01*
X219702536Y-147715000D01*
X219702536Y-149465000D01*
X219729103Y-149606190D01*
X219812546Y-149735865D01*
X219939866Y-149822859D01*
X220091000Y-149853464D01*
X220183094Y-149853464D01*
X219808466Y-150152072D01*
X219522341Y-150669481D01*
X219499742Y-150769184D01*
X219620731Y-151003000D01*
X221234000Y-151003000D01*
X221234000Y-150983000D01*
X221488000Y-150983000D01*
X221488000Y-151003000D01*
X221508000Y-151003000D01*
X221508000Y-151257000D01*
X221488000Y-151257000D01*
X221488000Y-151277000D01*
X221234000Y-151277000D01*
X221234000Y-151257000D01*
X219620731Y-151257000D01*
X219499742Y-151490816D01*
X219522341Y-151590519D01*
X219689059Y-151892000D01*
X219448923Y-151892000D01*
X218807755Y-151571416D01*
X218743661Y-151249193D01*
X218523420Y-150919579D01*
X215519000Y-147915160D01*
X215519000Y-145751755D01*
X215534190Y-145748897D01*
X215663865Y-145665454D01*
X215664487Y-145664543D01*
X217906600Y-145664543D01*
X217906600Y-146435457D01*
X217995539Y-146882584D01*
X218248816Y-147261641D01*
X218627873Y-147514918D01*
X219075000Y-147603857D01*
X219522127Y-147514918D01*
X219901184Y-147261641D01*
X220154461Y-146882584D01*
X220243400Y-146435457D01*
X220243400Y-145664543D01*
X220154461Y-145217416D01*
X219901184Y-144838359D01*
X219522127Y-144585082D01*
X219075000Y-144496143D01*
X218627873Y-144585082D01*
X218248816Y-144838359D01*
X217995539Y-145217416D01*
X217906600Y-145664543D01*
X215664487Y-145664543D01*
X215750859Y-145538134D01*
X215781464Y-145387000D01*
X215781464Y-141887000D01*
X215754897Y-141745810D01*
X215671454Y-141616135D01*
X215544134Y-141529141D01*
X215393000Y-141498536D01*
X213613000Y-141498536D01*
X213471810Y-141525103D01*
X213342135Y-141608546D01*
X213255141Y-141735866D01*
X213224536Y-141887000D01*
X213224536Y-145387000D01*
X213251103Y-145528190D01*
X213334546Y-145657865D01*
X213461866Y-145744859D01*
X213487000Y-145749949D01*
X213487000Y-148463000D01*
X213564338Y-148851806D01*
X213784580Y-149181420D01*
X214114194Y-149401662D01*
X214136199Y-149406039D01*
X217086579Y-152356420D01*
X217416193Y-152576661D01*
X217805000Y-152653999D01*
X218193807Y-152576661D01*
X218344722Y-152475822D01*
X218701078Y-152654000D01*
X214630000Y-152654000D01*
X214241194Y-152731338D01*
X213911580Y-152951580D01*
X213691338Y-153281194D01*
X213614000Y-153670000D01*
X213691338Y-154058806D01*
X213911580Y-154388420D01*
X214166870Y-154559000D01*
X211201000Y-154559000D01*
X211006596Y-154597669D01*
X210841790Y-154707790D01*
X210714792Y-154834788D01*
X210714789Y-154834790D01*
X210206792Y-155342788D01*
X210206789Y-155342790D01*
X207371080Y-158178500D01*
X205803500Y-158178500D01*
X205609096Y-158217169D01*
X205444290Y-158327290D01*
X204745790Y-159025790D01*
X204635669Y-159190597D01*
X204597000Y-159385000D01*
X203879747Y-159385000D01*
X203683538Y-159091354D01*
X203138183Y-158726959D01*
X202494892Y-158599000D01*
X202225108Y-158599000D01*
X201581817Y-158726959D01*
X201036462Y-159091354D01*
X200672067Y-159636709D01*
X200544108Y-160280000D01*
X200329000Y-160280000D01*
X200329000Y-155947871D01*
X200406000Y-155963464D01*
X209296000Y-155963464D01*
X209437190Y-155936897D01*
X209566865Y-155853454D01*
X209653859Y-155726134D01*
X209684464Y-155575000D01*
X209684464Y-147240305D01*
X210312000Y-147867841D01*
X210312000Y-149860000D01*
X210389338Y-150248806D01*
X210609580Y-150578420D01*
X210939194Y-150798662D01*
X211328000Y-150876000D01*
X211716806Y-150798662D01*
X212046420Y-150578420D01*
X212266662Y-150248806D01*
X212344000Y-149860000D01*
X212344000Y-147447000D01*
X212279493Y-147122700D01*
X212266662Y-147058193D01*
X212046421Y-146728580D01*
X210701464Y-145383624D01*
X210701464Y-141887000D01*
X210674897Y-141745810D01*
X210591454Y-141616135D01*
X210464134Y-141529141D01*
X210313000Y-141498536D01*
X208533000Y-141498536D01*
X208391810Y-141525103D01*
X208262135Y-141608546D01*
X208175141Y-141735866D01*
X208144536Y-141887000D01*
X208144536Y-145387000D01*
X208171103Y-145528190D01*
X208254546Y-145657865D01*
X208381866Y-145744859D01*
X208450099Y-145758676D01*
X208459076Y-145803806D01*
X208484338Y-145930807D01*
X208704580Y-146260420D01*
X208740696Y-146296536D01*
X200406000Y-146296536D01*
X200329000Y-146311025D01*
X200329000Y-143877391D01*
X200468816Y-144086641D01*
X200847873Y-144339918D01*
X201295000Y-144428857D01*
X201742127Y-144339918D01*
X202121184Y-144086641D01*
X202374461Y-143707584D01*
X202463400Y-143260457D01*
X202463400Y-143002000D01*
X204952600Y-143002000D01*
X204952600Y-143357600D01*
X205109475Y-143892262D01*
X205459014Y-144326191D01*
X205948004Y-144593327D01*
X206027940Y-144610010D01*
X206248000Y-144487852D01*
X206248000Y-143002000D01*
X206502000Y-143002000D01*
X206502000Y-144487852D01*
X206722060Y-144610010D01*
X206801996Y-144593327D01*
X207290986Y-144326191D01*
X207640525Y-143892262D01*
X207797400Y-143357600D01*
X207797400Y-143002000D01*
X206502000Y-143002000D01*
X206248000Y-143002000D01*
X204952600Y-143002000D01*
X202463400Y-143002000D01*
X202463400Y-142489543D01*
X202444078Y-142392400D01*
X204952600Y-142392400D01*
X204952600Y-142748000D01*
X206248000Y-142748000D01*
X206248000Y-141262148D01*
X206502000Y-141262148D01*
X206502000Y-142748000D01*
X207797400Y-142748000D01*
X207797400Y-142392400D01*
X207640525Y-141857738D01*
X207290986Y-141423809D01*
X206801996Y-141156673D01*
X206722060Y-141139990D01*
X206502000Y-141262148D01*
X206248000Y-141262148D01*
X206027940Y-141139990D01*
X205948004Y-141156673D01*
X205459014Y-141423809D01*
X205109475Y-141857738D01*
X204952600Y-142392400D01*
X202444078Y-142392400D01*
X202374461Y-142042416D01*
X202121184Y-141663359D01*
X201742127Y-141410082D01*
X201295000Y-141321143D01*
X200847873Y-141410082D01*
X200468816Y-141663359D01*
X200329000Y-141872609D01*
X200329000Y-139985750D01*
X209391000Y-139985750D01*
X209391000Y-140620309D01*
X209487673Y-140853698D01*
X209666301Y-141032327D01*
X209899690Y-141129000D01*
X210534250Y-141129000D01*
X210693000Y-140970250D01*
X210693000Y-139827000D01*
X210947000Y-139827000D01*
X210947000Y-140970250D01*
X211105750Y-141129000D01*
X211740310Y-141129000D01*
X211973699Y-141032327D01*
X212152327Y-140853698D01*
X212249000Y-140620309D01*
X212249000Y-139985750D01*
X212090250Y-139827000D01*
X210947000Y-139827000D01*
X210693000Y-139827000D01*
X209549750Y-139827000D01*
X209391000Y-139985750D01*
X200329000Y-139985750D01*
X200329000Y-136257391D01*
X200468816Y-136466641D01*
X200822384Y-136702887D01*
X200825669Y-136719403D01*
X200935790Y-136884210D01*
X201100597Y-136994331D01*
X201295000Y-137033000D01*
X201489403Y-136994331D01*
X201654210Y-136884210D01*
X201764331Y-136719403D01*
X201767616Y-136702887D01*
X201921587Y-136600007D01*
X204110790Y-138789210D01*
X204275597Y-138899331D01*
X204470000Y-138938000D01*
X209391000Y-138938000D01*
X209391000Y-139414250D01*
X209549750Y-139573000D01*
X210693000Y-139573000D01*
X210693000Y-139553000D01*
X210947000Y-139553000D01*
X210947000Y-139573000D01*
X212090250Y-139573000D01*
X212249000Y-139414250D01*
X212249000Y-138938000D01*
X212344000Y-138938000D01*
X212538403Y-138899331D01*
X212703210Y-138789210D01*
X214459420Y-137033000D01*
X218526226Y-137033000D01*
X218248816Y-137218359D01*
X217995539Y-137597416D01*
X217906600Y-138044543D01*
X217906600Y-138815457D01*
X217995539Y-139262584D01*
X218248816Y-139641641D01*
X218627873Y-139894918D01*
X219075000Y-139983857D01*
X219522127Y-139894918D01*
X219901184Y-139641641D01*
X220154461Y-139262584D01*
X220243400Y-138815457D01*
X220243400Y-138044543D01*
X220154461Y-137597416D01*
X219901184Y-137218359D01*
X219623774Y-137033000D01*
X221066226Y-137033000D01*
X220788816Y-137218359D01*
X220535539Y-137597416D01*
X220446600Y-138044543D01*
X220446600Y-138815457D01*
X220535539Y-139262584D01*
X220788816Y-139641641D01*
X221167873Y-139894918D01*
X221615000Y-139983857D01*
X222062127Y-139894918D01*
X222441184Y-139641641D01*
X222694461Y-139262584D01*
X222783400Y-138815457D01*
X222783400Y-138044543D01*
X222694461Y-137597416D01*
X222441184Y-137218359D01*
X222163774Y-137033000D01*
X223606226Y-137033000D01*
X223328816Y-137218359D01*
X223075539Y-137597416D01*
X222986600Y-138044543D01*
X222986600Y-138815457D01*
X223075539Y-139262584D01*
X223328816Y-139641641D01*
X223707873Y-139894918D01*
X224155000Y-139983857D01*
X224602127Y-139894918D01*
X224981184Y-139641641D01*
X225234461Y-139262584D01*
X225323400Y-138815457D01*
X225323400Y-138044543D01*
X225234461Y-137597416D01*
X224981184Y-137218359D01*
X224703774Y-137033000D01*
X226146226Y-137033000D01*
X225868816Y-137218359D01*
X225615539Y-137597416D01*
X225526600Y-138044543D01*
X225526600Y-138815457D01*
X225615539Y-139262584D01*
X225868816Y-139641641D01*
X226247873Y-139894918D01*
X226695000Y-139983857D01*
X227142127Y-139894918D01*
X227521184Y-139641641D01*
X227774461Y-139262584D01*
X227863400Y-138815457D01*
X227863400Y-138044543D01*
X227774461Y-137597416D01*
X227521184Y-137218359D01*
X227243774Y-137033000D01*
X228686226Y-137033000D01*
X228408816Y-137218359D01*
X228155539Y-137597416D01*
X228066600Y-138044543D01*
X228066600Y-138815457D01*
X228155539Y-139262584D01*
X228408816Y-139641641D01*
X228787873Y-139894918D01*
X229235000Y-139983857D01*
X229682127Y-139894918D01*
X230061184Y-139641641D01*
X230314461Y-139262584D01*
X230403400Y-138815457D01*
X230403400Y-138044543D01*
X230314461Y-137597416D01*
X230061184Y-137218359D01*
X229783774Y-137033000D01*
X231226226Y-137033000D01*
X230948816Y-137218359D01*
X230695539Y-137597416D01*
X230606600Y-138044543D01*
X230606600Y-138815457D01*
X230695539Y-139262584D01*
X230948816Y-139641641D01*
X231327873Y-139894918D01*
X231775000Y-139983857D01*
X232222127Y-139894918D01*
X232601184Y-139641641D01*
X232854461Y-139262584D01*
X232911359Y-138976536D01*
X233049475Y-139447262D01*
X233399014Y-139881191D01*
X233888004Y-140148327D01*
X233967940Y-140165010D01*
X234188000Y-140042852D01*
X234188000Y-138557000D01*
X234168000Y-138557000D01*
X234168000Y-138303000D01*
X234188000Y-138303000D01*
X234188000Y-138283000D01*
X234442000Y-138283000D01*
X234442000Y-138303000D01*
X234462000Y-138303000D01*
X234462000Y-138557000D01*
X234442000Y-138557000D01*
X234442000Y-140042852D01*
X234662060Y-140165010D01*
X234741996Y-140148327D01*
X235230986Y-139881191D01*
X235580525Y-139447262D01*
X235718641Y-138976536D01*
X235775539Y-139262584D01*
X235807597Y-139310562D01*
X233596582Y-141521578D01*
X233596579Y-141521580D01*
X231056580Y-144061580D01*
X230836338Y-144391193D01*
X230836338Y-144391194D01*
X230759000Y-144780000D01*
X230759000Y-145122440D01*
X230695539Y-145217416D01*
X230606600Y-145664543D01*
X230606600Y-146435457D01*
X230695539Y-146882584D01*
X230948816Y-147261641D01*
X230972355Y-147277369D01*
X231056580Y-147403420D01*
X235501579Y-151848420D01*
X235566801Y-151892000D01*
X235160421Y-151892000D01*
X230248989Y-146980569D01*
X230314461Y-146882584D01*
X230403400Y-146435457D01*
X230403400Y-145664543D01*
X230314461Y-145217416D01*
X230061184Y-144838359D01*
X229682127Y-144585082D01*
X229235000Y-144496143D01*
X228787873Y-144585082D01*
X228408816Y-144838359D01*
X228155539Y-145217416D01*
X228066600Y-145664543D01*
X228066600Y-146435457D01*
X228155539Y-146882584D01*
X228408816Y-147261641D01*
X228787873Y-147514918D01*
X229235000Y-147603857D01*
X229402182Y-147570602D01*
X234358579Y-152527000D01*
X233255420Y-152527000D01*
X227708989Y-146980569D01*
X227774461Y-146882584D01*
X227863400Y-146435457D01*
X227863400Y-145664543D01*
X227774461Y-145217416D01*
X227521184Y-144838359D01*
X227142127Y-144585082D01*
X226695000Y-144496143D01*
X226247873Y-144585082D01*
X225868816Y-144838359D01*
X225615539Y-145217416D01*
X225526600Y-145664543D01*
X225526600Y-146435457D01*
X225615539Y-146882584D01*
X225868816Y-147261641D01*
X226247873Y-147514918D01*
X226695000Y-147603857D01*
X226862182Y-147570602D01*
X232453580Y-153162000D01*
X231350420Y-153162000D01*
X225168989Y-146980569D01*
X225234461Y-146882584D01*
X225323400Y-146435457D01*
X225323400Y-145664543D01*
X225234461Y-145217416D01*
X224981184Y-144838359D01*
X224602127Y-144585082D01*
X224155000Y-144496143D01*
X223707873Y-144585082D01*
X223328816Y-144838359D01*
X223075539Y-145217416D01*
X222986600Y-145664543D01*
X222986600Y-146435457D01*
X223075539Y-146882584D01*
X223328816Y-147261641D01*
X223707873Y-147514918D01*
X224155000Y-147603857D01*
X224322182Y-147570602D01*
X230780790Y-154029210D01*
X230945597Y-154139331D01*
X231140000Y-154178000D01*
X245110000Y-154178000D01*
X245304403Y-154139331D01*
X245469210Y-154029210D01*
X246590420Y-152908000D01*
X251894278Y-152908000D01*
X251748464Y-153053560D01*
X251569204Y-153485266D01*
X251568796Y-153952710D01*
X251747302Y-154384728D01*
X252077547Y-154715549D01*
X252509253Y-154894809D01*
X252976697Y-154895217D01*
X253392499Y-154723411D01*
X254460207Y-154723411D01*
X254533604Y-154968909D01*
X255068657Y-155161007D01*
X255636493Y-155133725D01*
X256034396Y-154968909D01*
X256107793Y-154723411D01*
X255284000Y-153899618D01*
X254460207Y-154723411D01*
X253392499Y-154723411D01*
X253408715Y-154716711D01*
X253739536Y-154386466D01*
X253870248Y-154071676D01*
X253870288Y-154072506D01*
X254035104Y-154470409D01*
X254280602Y-154543806D01*
X255104395Y-153720013D01*
X255463605Y-153720013D01*
X256287398Y-154543806D01*
X256532896Y-154470409D01*
X256724994Y-153935356D01*
X256697712Y-153367520D01*
X256532896Y-152969617D01*
X256287398Y-152896220D01*
X255463605Y-153720013D01*
X255104395Y-153720013D01*
X255090253Y-153705871D01*
X255269858Y-153526266D01*
X255284000Y-153540408D01*
X256107793Y-152716615D01*
X256034396Y-152471117D01*
X255607303Y-152317779D01*
X255948715Y-152176711D01*
X256279536Y-151846466D01*
X256458796Y-151414760D01*
X256459204Y-150947316D01*
X256280698Y-150515298D01*
X255950453Y-150184477D01*
X255518747Y-150005217D01*
X255051303Y-150004809D01*
X254619285Y-150183315D01*
X254288464Y-150513560D01*
X254109204Y-150945266D01*
X254108796Y-151412710D01*
X254155599Y-151525981D01*
X253789580Y-151892000D01*
X253693923Y-151892000D01*
X253739536Y-151846466D01*
X253918796Y-151414760D01*
X253919204Y-150947316D01*
X253740698Y-150515298D01*
X253410453Y-150184477D01*
X252978747Y-150005217D01*
X252511303Y-150004809D01*
X252203498Y-150131991D01*
X252433681Y-149822477D01*
X253538000Y-149822477D01*
X253679190Y-149795910D01*
X253808865Y-149712467D01*
X253895859Y-149585147D01*
X253926464Y-149434013D01*
X253926464Y-147846013D01*
X253899897Y-147704823D01*
X253816454Y-147575148D01*
X253689134Y-147488154D01*
X253538000Y-147457549D01*
X252627986Y-147457549D01*
X252921184Y-147261641D01*
X253174461Y-146882584D01*
X253263400Y-146435457D01*
X253263400Y-145664543D01*
X253217637Y-145434478D01*
X254268000Y-146484841D01*
X254268000Y-148022843D01*
X254109204Y-148405266D01*
X254108796Y-148872710D01*
X254287302Y-149304728D01*
X254617547Y-149635549D01*
X255049253Y-149814809D01*
X255516697Y-149815217D01*
X255902001Y-149656013D01*
X256804173Y-149656013D01*
X258318000Y-151169841D01*
X258318000Y-154031299D01*
X258277641Y-154090366D01*
X258247036Y-154241500D01*
X258247036Y-155638500D01*
X258273603Y-155779690D01*
X258357046Y-155909365D01*
X258484366Y-155996359D01*
X258635500Y-156026964D01*
X260032500Y-156026964D01*
X260173690Y-156000397D01*
X260303365Y-155916954D01*
X260390359Y-155789634D01*
X260420964Y-155638500D01*
X260420964Y-154241500D01*
X260394397Y-154100310D01*
X260350000Y-154031315D01*
X260350000Y-150749000D01*
X260272662Y-150360194D01*
X260272662Y-150360193D01*
X260052420Y-150030579D01*
X257943433Y-147921593D01*
X257613820Y-147701351D01*
X257549313Y-147688520D01*
X257225013Y-147624013D01*
X256300000Y-147624013D01*
X256300000Y-146064000D01*
X256273506Y-145930806D01*
X256222662Y-145675193D01*
X256002421Y-145345580D01*
X252178420Y-141521580D01*
X251848807Y-141301338D01*
X251784300Y-141288507D01*
X251460000Y-141224000D01*
X236767841Y-141224000D01*
X237573420Y-140418421D01*
X237793661Y-140088807D01*
X237793662Y-140088806D01*
X237871000Y-139700000D01*
X237871000Y-139357560D01*
X237934461Y-139262584D01*
X238023400Y-138815457D01*
X238023400Y-138044543D01*
X237934461Y-137597416D01*
X237681184Y-137218359D01*
X237403774Y-137033000D01*
X238846226Y-137033000D01*
X238568816Y-137218359D01*
X238315539Y-137597416D01*
X238226600Y-138044543D01*
X238226600Y-138815457D01*
X238315539Y-139262584D01*
X238568816Y-139641641D01*
X238947873Y-139894918D01*
X239395000Y-139983857D01*
X239842127Y-139894918D01*
X240221184Y-139641641D01*
X240474461Y-139262584D01*
X240563400Y-138815457D01*
X240563400Y-138044543D01*
X240474461Y-137597416D01*
X240221184Y-137218359D01*
X239943774Y-137033000D01*
X241386226Y-137033000D01*
X241108816Y-137218359D01*
X240855539Y-137597416D01*
X240766600Y-138044543D01*
X240766600Y-138815457D01*
X240855539Y-139262584D01*
X241108816Y-139641641D01*
X241487873Y-139894918D01*
X241935000Y-139983857D01*
X242382127Y-139894918D01*
X242761184Y-139641641D01*
X243014461Y-139262584D01*
X243103400Y-138815457D01*
X243103400Y-138044543D01*
X243014461Y-137597416D01*
X242761184Y-137218359D01*
X242483774Y-137033000D01*
X243926226Y-137033000D01*
X243648816Y-137218359D01*
X243395539Y-137597416D01*
X243306600Y-138044543D01*
X243306600Y-138815457D01*
X243395539Y-139262584D01*
X243648816Y-139641641D01*
X244027873Y-139894918D01*
X244475000Y-139983857D01*
X244922127Y-139894918D01*
X245301184Y-139641641D01*
X245554461Y-139262584D01*
X245643400Y-138815457D01*
X245643400Y-138044543D01*
X245554461Y-137597416D01*
X245301184Y-137218359D01*
X245023774Y-137033000D01*
X246466226Y-137033000D01*
X246188816Y-137218359D01*
X245935539Y-137597416D01*
X245846600Y-138044543D01*
X245846600Y-138815457D01*
X245935539Y-139262584D01*
X246188816Y-139641641D01*
X246567873Y-139894918D01*
X247015000Y-139983857D01*
X247462127Y-139894918D01*
X247841184Y-139641641D01*
X248094461Y-139262584D01*
X248183400Y-138815457D01*
X248183400Y-138044543D01*
X248094461Y-137597416D01*
X247841184Y-137218359D01*
X247563774Y-137033000D01*
X249006226Y-137033000D01*
X248728816Y-137218359D01*
X248475539Y-137597416D01*
X248386600Y-138044543D01*
X248386600Y-138815457D01*
X248475539Y-139262584D01*
X248728816Y-139641641D01*
X249107873Y-139894918D01*
X249555000Y-139983857D01*
X250002127Y-139894918D01*
X250381184Y-139641641D01*
X250634461Y-139262584D01*
X250723400Y-138815457D01*
X250723400Y-138044543D01*
X250634461Y-137597416D01*
X250381184Y-137218359D01*
X250103774Y-137033000D01*
X251020026Y-137033000D01*
X250949741Y-137135866D01*
X250919136Y-137287000D01*
X250919136Y-139573000D01*
X250945703Y-139714190D01*
X251029146Y-139843865D01*
X251156466Y-139930859D01*
X251307600Y-139961464D01*
X251613746Y-139961464D01*
X251625669Y-140021403D01*
X251735790Y-140186210D01*
X253174593Y-141625013D01*
X253174357Y-141895482D01*
X253299767Y-142198998D01*
X253531781Y-142431417D01*
X253835077Y-142557357D01*
X254163482Y-142557643D01*
X254466998Y-142432233D01*
X254699417Y-142200219D01*
X254825357Y-141896923D01*
X254825643Y-141568518D01*
X254700233Y-141265002D01*
X254468219Y-141032583D01*
X254164923Y-140906643D01*
X253892826Y-140906406D01*
X252937514Y-139951094D01*
X253023590Y-139934897D01*
X253153265Y-139851454D01*
X253240259Y-139724134D01*
X253270864Y-139573000D01*
X253270864Y-137287000D01*
X253244297Y-137145810D01*
X253160854Y-137016135D01*
X253033534Y-136929141D01*
X252882400Y-136898536D01*
X252519522Y-136898536D01*
X252509950Y-136884210D01*
X252454211Y-136800790D01*
X252051420Y-136398000D01*
X252730000Y-136398000D01*
X252764512Y-136391135D01*
X252799638Y-136393204D01*
X252860850Y-136371972D01*
X252924403Y-136359331D01*
X252953663Y-136339780D01*
X252986905Y-136328250D01*
X253035334Y-136285209D01*
X253089210Y-136249210D01*
X253108759Y-136219953D01*
X253135061Y-136196577D01*
X253163334Y-136138277D01*
X253199331Y-136084403D01*
X253206196Y-136049892D01*
X253221550Y-136018230D01*
X253819271Y-133726967D01*
X253958998Y-133669233D01*
X254191417Y-133437219D01*
X254317357Y-133133923D01*
X254317643Y-132805518D01*
X254192233Y-132502002D01*
X253960219Y-132269583D01*
X253656923Y-132143643D01*
X253328518Y-132143357D01*
X253025002Y-132268767D01*
X252792583Y-132500781D01*
X252666643Y-132804077D01*
X252666357Y-133132482D01*
X252791767Y-133435998D01*
X252834109Y-133478414D01*
X252337521Y-135382000D01*
X251142510Y-135382000D01*
X251291998Y-135320233D01*
X251524417Y-135088219D01*
X251650357Y-134784923D01*
X251650643Y-134456518D01*
X251639544Y-134429657D01*
X251673784Y-134429687D01*
X252070689Y-134265689D01*
X252374622Y-133962286D01*
X252539313Y-133565668D01*
X252539687Y-133136216D01*
X252375689Y-132739311D01*
X252072286Y-132435378D01*
X251675668Y-132270687D01*
X251246216Y-132270313D01*
X250849311Y-132434311D01*
X250545378Y-132737714D01*
X250380687Y-133134332D01*
X250380313Y-133563784D01*
X250502699Y-133859980D01*
X250358002Y-133919767D01*
X250125583Y-134151781D01*
X249999643Y-134455077D01*
X249999406Y-134727174D01*
X249979580Y-134747000D01*
X232727510Y-134747000D01*
X232876998Y-134685233D01*
X233109417Y-134453219D01*
X233179605Y-134284188D01*
X233560417Y-134284188D01*
X233622071Y-134519800D01*
X234122480Y-134695927D01*
X234652199Y-134667148D01*
X235007929Y-134519800D01*
X235069583Y-134284188D01*
X234315000Y-133529605D01*
X233560417Y-134284188D01*
X233179605Y-134284188D01*
X233235357Y-134149923D01*
X233235430Y-134066540D01*
X233380812Y-134104583D01*
X234135395Y-133350000D01*
X234494605Y-133350000D01*
X235249188Y-134104583D01*
X235484800Y-134042929D01*
X235653442Y-133563784D01*
X235775313Y-133563784D01*
X235939311Y-133960689D01*
X236242714Y-134264622D01*
X236639332Y-134429313D01*
X237068784Y-134429687D01*
X237465689Y-134265689D01*
X237769622Y-133962286D01*
X237934313Y-133565668D01*
X237934314Y-133563784D01*
X241490313Y-133563784D01*
X241654311Y-133960689D01*
X241957714Y-134264622D01*
X242354332Y-134429313D01*
X242783784Y-134429687D01*
X243180689Y-134265689D01*
X243484622Y-133962286D01*
X243649313Y-133565668D01*
X243649687Y-133136216D01*
X243485689Y-132739311D01*
X243182286Y-132435378D01*
X242785668Y-132270687D01*
X242356216Y-132270313D01*
X241959311Y-132434311D01*
X241655378Y-132737714D01*
X241490687Y-133134332D01*
X241490313Y-133563784D01*
X237934314Y-133563784D01*
X237934687Y-133136216D01*
X237770689Y-132739311D01*
X237467286Y-132435378D01*
X237070668Y-132270687D01*
X236641216Y-132270313D01*
X236244311Y-132434311D01*
X235940378Y-132737714D01*
X235775687Y-133134332D01*
X235775313Y-133563784D01*
X235653442Y-133563784D01*
X235660927Y-133542520D01*
X235632148Y-133012801D01*
X235484800Y-132657071D01*
X235249188Y-132595417D01*
X234494605Y-133350000D01*
X234135395Y-133350000D01*
X233380812Y-132595417D01*
X233145200Y-132657071D01*
X232969073Y-133157480D01*
X232981662Y-133389207D01*
X232878219Y-133285583D01*
X232574923Y-133159643D01*
X232246518Y-133159357D01*
X231965566Y-133275444D01*
X231965643Y-133186518D01*
X231840233Y-132883002D01*
X231608219Y-132650583D01*
X231304923Y-132524643D01*
X230976518Y-132524357D01*
X230673002Y-132649767D01*
X230440583Y-132881781D01*
X230314643Y-133185077D01*
X230314406Y-133457174D01*
X230294580Y-133477000D01*
X229552510Y-133477000D01*
X229701998Y-133415233D01*
X229934417Y-133183219D01*
X230060357Y-132879923D01*
X230060643Y-132551518D01*
X230004571Y-132415812D01*
X233560417Y-132415812D01*
X234315000Y-133170395D01*
X235069583Y-132415812D01*
X235007929Y-132180200D01*
X234507520Y-132004073D01*
X233977801Y-132032852D01*
X233622071Y-132180200D01*
X233560417Y-132415812D01*
X230004571Y-132415812D01*
X229935233Y-132248002D01*
X229703219Y-132015583D01*
X229399923Y-131889643D01*
X229071518Y-131889357D01*
X228768002Y-132014767D01*
X228535583Y-132246781D01*
X228409643Y-132550077D01*
X228409406Y-132822174D01*
X228389580Y-132842000D01*
X227647510Y-132842000D01*
X227796998Y-132780233D01*
X228029417Y-132548219D01*
X228155357Y-132244923D01*
X228155643Y-131916518D01*
X228030233Y-131613002D01*
X227798219Y-131380583D01*
X227494923Y-131254643D01*
X227166518Y-131254357D01*
X226863002Y-131379767D01*
X226630583Y-131611781D01*
X226504643Y-131915077D01*
X226504406Y-132187174D01*
X226484580Y-132207000D01*
X225742510Y-132207000D01*
X225891998Y-132145233D01*
X226124417Y-131913219D01*
X226250357Y-131609923D01*
X226250631Y-131295370D01*
X226275331Y-131258404D01*
X226288738Y-131191000D01*
X226314000Y-131064000D01*
X226314000Y-129331451D01*
X226470715Y-129266698D01*
X226801536Y-128936453D01*
X226980796Y-128504747D01*
X226981204Y-128037303D01*
X226802698Y-127605285D01*
X226472453Y-127274464D01*
X226237734Y-127177000D01*
X227914354Y-127177000D01*
X227681285Y-127273302D01*
X227681285Y-127273302D01*
G37*
X227681285Y-127273302D02*
X227350464Y-127603547D01*
X227171204Y-128035253D01*
X227170796Y-128502697D01*
X227349302Y-128934715D01*
X227679547Y-129265536D01*
X228111253Y-129444796D01*
X228578697Y-129445204D01*
X229010715Y-129266698D01*
X229341536Y-128936453D01*
X229520796Y-128504747D01*
X229521204Y-128037303D01*
X229342698Y-127605285D01*
X229012453Y-127274464D01*
X228777734Y-127177000D01*
X229853065Y-127177000D01*
X229821135Y-127197546D01*
X229734141Y-127324866D01*
X229703536Y-127476000D01*
X229703536Y-129064000D01*
X229730103Y-129205190D01*
X229813546Y-129334865D01*
X229940866Y-129421859D01*
X230092000Y-129452464D01*
X231680000Y-129452464D01*
X231821190Y-129425897D01*
X231950865Y-129342454D01*
X232037859Y-129215134D01*
X232068464Y-129064000D01*
X232068464Y-128483784D01*
X233870313Y-128483784D01*
X234034311Y-128880689D01*
X234337714Y-129184622D01*
X234734332Y-129349313D01*
X235163784Y-129349687D01*
X235560689Y-129185689D01*
X235864622Y-128882286D01*
X236029313Y-128485668D01*
X236029314Y-128483784D01*
X236410313Y-128483784D01*
X236574311Y-128880689D01*
X236877714Y-129184622D01*
X237274332Y-129349313D01*
X237703784Y-129349687D01*
X238100689Y-129185689D01*
X238404622Y-128882286D01*
X238569313Y-128485668D01*
X238569314Y-128483784D01*
X238950313Y-128483784D01*
X239114311Y-128880689D01*
X239417714Y-129184622D01*
X239814332Y-129349313D01*
X240243784Y-129349687D01*
X240640689Y-129185689D01*
X240944622Y-128882286D01*
X241109313Y-128485668D01*
X241109314Y-128483784D01*
X241490313Y-128483784D01*
X241654311Y-128880689D01*
X241957714Y-129184622D01*
X242354332Y-129349313D01*
X242783784Y-129349687D01*
X243180689Y-129185689D01*
X243484622Y-128882286D01*
X243649313Y-128485668D01*
X243649314Y-128483784D01*
X244030313Y-128483784D01*
X244194311Y-128880689D01*
X244497714Y-129184622D01*
X244894332Y-129349313D01*
X245323784Y-129349687D01*
X245720689Y-129185689D01*
X246024622Y-128882286D01*
X246189313Y-128485668D01*
X246189314Y-128483784D01*
X246570313Y-128483784D01*
X246734311Y-128880689D01*
X247037714Y-129184622D01*
X247434332Y-129349313D01*
X247863784Y-129349687D01*
X248260689Y-129185689D01*
X248564622Y-128882286D01*
X248729313Y-128485668D01*
X248729314Y-128483784D01*
X249110313Y-128483784D01*
X249274311Y-128880689D01*
X249577714Y-129184622D01*
X249974332Y-129349313D01*
X250403784Y-129349687D01*
X250800689Y-129185689D01*
X251104622Y-128882286D01*
X251269313Y-128485668D01*
X251269687Y-128056216D01*
X251105689Y-127659311D01*
X251018032Y-127571500D01*
X251643036Y-127571500D01*
X251643036Y-128968500D01*
X251669603Y-129109690D01*
X251753046Y-129239365D01*
X251880366Y-129326359D01*
X252031500Y-129356964D01*
X253428500Y-129356964D01*
X253569690Y-129330397D01*
X253699365Y-129246954D01*
X253786359Y-129119634D01*
X253816964Y-128968500D01*
X253816964Y-127571500D01*
X253790397Y-127430310D01*
X253706954Y-127300635D01*
X253579634Y-127213641D01*
X253428500Y-127183036D01*
X252031500Y-127183036D01*
X251890310Y-127209603D01*
X251760635Y-127293046D01*
X251673641Y-127420366D01*
X251643036Y-127571500D01*
X251018032Y-127571500D01*
X250802286Y-127355378D01*
X250405668Y-127190687D01*
X249976216Y-127190313D01*
X249579311Y-127354311D01*
X249275378Y-127657714D01*
X249110687Y-128054332D01*
X249110313Y-128483784D01*
X248729314Y-128483784D01*
X248729687Y-128056216D01*
X248565689Y-127659311D01*
X248262286Y-127355378D01*
X247865668Y-127190687D01*
X247436216Y-127190313D01*
X247039311Y-127354311D01*
X246735378Y-127657714D01*
X246570687Y-128054332D01*
X246570313Y-128483784D01*
X246189314Y-128483784D01*
X246189687Y-128056216D01*
X246025689Y-127659311D01*
X245722286Y-127355378D01*
X245325668Y-127190687D01*
X244896216Y-127190313D01*
X244499311Y-127354311D01*
X244195378Y-127657714D01*
X244030687Y-128054332D01*
X244030313Y-128483784D01*
X243649314Y-128483784D01*
X243649687Y-128056216D01*
X243485689Y-127659311D01*
X243182286Y-127355378D01*
X242785668Y-127190687D01*
X242356216Y-127190313D01*
X241959311Y-127354311D01*
X241655378Y-127657714D01*
X241490687Y-128054332D01*
X241490313Y-128483784D01*
X241109314Y-128483784D01*
X241109687Y-128056216D01*
X240945689Y-127659311D01*
X240642286Y-127355378D01*
X240245668Y-127190687D01*
X239816216Y-127190313D01*
X239419311Y-127354311D01*
X239115378Y-127657714D01*
X238950687Y-128054332D01*
X238950313Y-128483784D01*
X238569314Y-128483784D01*
X238569687Y-128056216D01*
X238405689Y-127659311D01*
X238102286Y-127355378D01*
X237705668Y-127190687D01*
X237276216Y-127190313D01*
X236879311Y-127354311D01*
X236575378Y-127657714D01*
X236410687Y-128054332D01*
X236410313Y-128483784D01*
X236029314Y-128483784D01*
X236029687Y-128056216D01*
X235865689Y-127659311D01*
X235562286Y-127355378D01*
X235165668Y-127190687D01*
X234736216Y-127190313D01*
X234339311Y-127354311D01*
X234035378Y-127657714D01*
X233870687Y-128054332D01*
X233870313Y-128483784D01*
X232068464Y-128483784D01*
X232068464Y-127476000D01*
X232041897Y-127334810D01*
X231958454Y-127205135D01*
X231917277Y-127177000D01*
X256372169Y-127177000D01*
X255135319Y-127688056D01*
X254183399Y-128638317D01*
X253667588Y-129880527D01*
X253666414Y-131225572D01*
X254180056Y-132468681D01*
X255130317Y-133420601D01*
X256372527Y-133936412D01*
X257717572Y-133937586D01*
X258960681Y-133423944D01*
X259912601Y-132473683D01*
X260427000Y-131234873D01*
X260427000Y-166926974D01*
X260268188Y-166885417D01*
X259513605Y-167640000D01*
X260268188Y-168394583D01*
X260427000Y-168353026D01*
X260427000Y-173568169D01*
X259915944Y-172331319D01*
X258965683Y-171379399D01*
X257723473Y-170863588D01*
X256378428Y-170862414D01*
X255135319Y-171376056D01*
X254183399Y-172326317D01*
X253667588Y-173568527D01*
X253666414Y-174913572D01*
X254180056Y-176156681D01*
X255130317Y-177108601D01*
X256369127Y-177623000D01*
X253161646Y-177623000D01*
X253394715Y-177526698D01*
X253725536Y-177196453D01*
X253904796Y-176764747D01*
X253905204Y-176297303D01*
X253726698Y-175865285D01*
X253396453Y-175534464D01*
X252964747Y-175355204D01*
X252497303Y-175354796D01*
X252065285Y-175533302D01*
X251930472Y-175667880D01*
X252031357Y-175424923D01*
X252031643Y-175096518D01*
X251906233Y-174793002D01*
X251674219Y-174560583D01*
X251370923Y-174434643D01*
X251042518Y-174434357D01*
X250739002Y-174559767D01*
X250546433Y-174752000D01*
X235603198Y-174752000D01*
X235668420Y-174708420D01*
X235888662Y-174378807D01*
X235965999Y-173990000D01*
X235888662Y-173601193D01*
X235668420Y-173271579D01*
X235541420Y-173144580D01*
X235211807Y-172924338D01*
X235147300Y-172911507D01*
X234823000Y-172847000D01*
X216193841Y-172847000D01*
X214405385Y-171058544D01*
X217661287Y-171058544D01*
X217903793Y-171572717D01*
X218324605Y-171954947D01*
X218722507Y-172119764D01*
X218948000Y-171998070D01*
X218948000Y-170833051D01*
X219202000Y-170833051D01*
X219202000Y-171998070D01*
X219427493Y-172119764D01*
X219941666Y-171877258D01*
X220323896Y-171456446D01*
X220488713Y-171058544D01*
X220367019Y-170833051D01*
X219202000Y-170833051D01*
X218948000Y-170833051D01*
X217782981Y-170833051D01*
X217661287Y-171058544D01*
X214405385Y-171058544D01*
X214078420Y-170731580D01*
X213748807Y-170511338D01*
X213360000Y-170434001D01*
X212971193Y-170511338D01*
X212641580Y-170731580D01*
X212421338Y-171061193D01*
X212344001Y-171450000D01*
X212421338Y-171838807D01*
X212641580Y-172168420D01*
X215054579Y-174581420D01*
X215176578Y-174662937D01*
X215384194Y-174801662D01*
X215773000Y-174879000D01*
X223165366Y-174879000D01*
X223075643Y-175095077D01*
X223075357Y-175423482D01*
X223200767Y-175726998D01*
X223432781Y-175959417D01*
X223707319Y-176073416D01*
X223615204Y-176295253D01*
X223614796Y-176762697D01*
X223793302Y-177194715D01*
X224123547Y-177525536D01*
X224358266Y-177623000D01*
X222681646Y-177623000D01*
X222914715Y-177526698D01*
X223245536Y-177196453D01*
X223424796Y-176764747D01*
X223425204Y-176297303D01*
X223246698Y-175865285D01*
X222916453Y-175534464D01*
X222484747Y-175355204D01*
X222017303Y-175354796D01*
X221585285Y-175533302D01*
X221254464Y-175863547D01*
X221075204Y-176295253D01*
X221074796Y-176762697D01*
X221253302Y-177194715D01*
X221583547Y-177525536D01*
X221818266Y-177623000D01*
X220141646Y-177623000D01*
X220374715Y-177526698D01*
X220705536Y-177196453D01*
X220884796Y-176764747D01*
X220885204Y-176297303D01*
X220706698Y-175865285D01*
X220376453Y-175534464D01*
X219944747Y-175355204D01*
X219477303Y-175354796D01*
X219045285Y-175533302D01*
X218714464Y-175863547D01*
X218535204Y-176295253D01*
X218534796Y-176762697D01*
X218713302Y-177194715D01*
X219043547Y-177525536D01*
X219278266Y-177623000D01*
X218202935Y-177623000D01*
X218234865Y-177602454D01*
X218321859Y-177475134D01*
X218352464Y-177324000D01*
X218352464Y-175736000D01*
X218325897Y-175594810D01*
X218242454Y-175465135D01*
X218115134Y-175378141D01*
X217964000Y-175347536D01*
X216376000Y-175347536D01*
X216234810Y-175374103D01*
X216105135Y-175457546D01*
X216018141Y-175584866D01*
X215987536Y-175736000D01*
X215987536Y-177324000D01*
X216014103Y-177465190D01*
X216097546Y-177594865D01*
X216138723Y-177623000D01*
X204383831Y-177623000D01*
X205620681Y-177111944D01*
X206572601Y-176161683D01*
X207088412Y-174919473D01*
X207089586Y-173574428D01*
X206575944Y-172331319D01*
X205625683Y-171379399D01*
X204383473Y-170863588D01*
X203038428Y-170862414D01*
X201795319Y-171376056D01*
X200843399Y-172326317D01*
X200329000Y-173565127D01*
X200329000Y-167380000D01*
X200544108Y-167380000D01*
X200672067Y-168023291D01*
X201036462Y-168568646D01*
X201581817Y-168933041D01*
X202225108Y-169061000D01*
X202494892Y-169061000D01*
X203138183Y-168933041D01*
X203683538Y-168568646D01*
X204047933Y-168023291D01*
X204175892Y-167380000D01*
X204047933Y-166736709D01*
X203683538Y-166191354D01*
X203138183Y-165826959D01*
X202494892Y-165699000D01*
X202225108Y-165699000D01*
X201581817Y-165826959D01*
X201036462Y-166191354D01*
X200672067Y-166736709D01*
X200544108Y-167380000D01*
X200329000Y-167380000D01*
X200329000Y-160280000D01*
X200544108Y-160280000D01*
X200672067Y-160923291D01*
X201036462Y-161468646D01*
X201581817Y-161833041D01*
X202225108Y-161961000D01*
X202494892Y-161961000D01*
X203138183Y-161833041D01*
X203683538Y-161468646D01*
X204047933Y-160923291D01*
X204175892Y-160280000D01*
X204047933Y-159636709D01*
X203879747Y-159385000D01*
X204597000Y-159385000D01*
X204597000Y-161925000D01*
X204635669Y-162119403D01*
X204745790Y-162284210D01*
X205850790Y-163389210D01*
X205851190Y-163389477D01*
X205920277Y-163556680D01*
X206181943Y-163818803D01*
X206208551Y-163829852D01*
X206183320Y-163840277D01*
X205921197Y-164101943D01*
X205779162Y-164444000D01*
X205778839Y-164814375D01*
X205920277Y-165156680D01*
X206181943Y-165418803D01*
X206524000Y-165560838D01*
X206731076Y-165561019D01*
X206743137Y-165743396D01*
X206789939Y-165856385D01*
X206241179Y-165965540D01*
X205744487Y-166297420D01*
X205412607Y-166794112D01*
X205296067Y-167380000D01*
X205412607Y-167965888D01*
X205744487Y-168462580D01*
X206241179Y-168794460D01*
X206827067Y-168911000D01*
X207192933Y-168911000D01*
X207778821Y-168794460D01*
X208275513Y-168462580D01*
X208607393Y-167965888D01*
X208723933Y-167380000D01*
X208607393Y-166794112D01*
X208420925Y-166515044D01*
X208513492Y-166476701D01*
X208556828Y-166256433D01*
X207910000Y-165609605D01*
X207895858Y-165623748D01*
X207716253Y-165444143D01*
X207730395Y-165430000D01*
X208089605Y-165430000D01*
X208736433Y-166076828D01*
X208956701Y-166033492D01*
X209107972Y-165586999D01*
X209094663Y-165385750D01*
X209359500Y-165385750D01*
X209359500Y-166051810D01*
X209456173Y-166285199D01*
X209634802Y-166463827D01*
X209868191Y-166560500D01*
X210534250Y-166560500D01*
X210693000Y-166401750D01*
X210693000Y-165227000D01*
X209518250Y-165227000D01*
X209359500Y-165385750D01*
X209094663Y-165385750D01*
X209076863Y-165116604D01*
X208956701Y-164826508D01*
X208736433Y-164783172D01*
X208089605Y-165430000D01*
X207730395Y-165430000D01*
X207716253Y-165415858D01*
X207895858Y-165236253D01*
X207910000Y-165250395D01*
X208556828Y-164603567D01*
X208539761Y-164516821D01*
X208698803Y-164358057D01*
X208722719Y-164300462D01*
X208728403Y-164299331D01*
X208893210Y-164189210D01*
X208934230Y-164148190D01*
X209359500Y-164148190D01*
X209359500Y-164814250D01*
X209518250Y-164973000D01*
X210693000Y-164973000D01*
X210693000Y-163798250D01*
X210534250Y-163639500D01*
X209868191Y-163639500D01*
X209634802Y-163736173D01*
X209456173Y-163914801D01*
X209359500Y-164148190D01*
X208934230Y-164148190D01*
X209401210Y-163681211D01*
X209476497Y-163568536D01*
X209511331Y-163516403D01*
X209550000Y-163322000D01*
X209550000Y-159766000D01*
X210058000Y-159766000D01*
X210058000Y-162433000D01*
X210106336Y-162676004D01*
X210243987Y-162882013D01*
X211053612Y-163691638D01*
X210947000Y-163798250D01*
X210947000Y-164973000D01*
X210967000Y-164973000D01*
X210967000Y-165227000D01*
X210947000Y-165227000D01*
X210947000Y-166401750D01*
X211105750Y-166560500D01*
X211771809Y-166560500D01*
X212005198Y-166463827D01*
X212183827Y-166285199D01*
X212280500Y-166051810D01*
X212280500Y-165646806D01*
X212336582Y-165782535D01*
X212675680Y-166122225D01*
X213118959Y-166306290D01*
X213598935Y-166306709D01*
X214042535Y-166123418D01*
X214382225Y-165784320D01*
X214436484Y-165653650D01*
X214546580Y-165818420D01*
X214876194Y-166038662D01*
X214884000Y-166040215D01*
X214884000Y-167531051D01*
X214938846Y-167806781D01*
X214961338Y-167919858D01*
X215181580Y-168249471D01*
X216124122Y-169192014D01*
X216282251Y-169574715D01*
X216612496Y-169905536D01*
X217044202Y-170084796D01*
X217511646Y-170085204D01*
X217826661Y-169955042D01*
X217826104Y-169955656D01*
X217661287Y-170353558D01*
X217782981Y-170579051D01*
X218768392Y-170579051D01*
X218881251Y-170691910D01*
X219060859Y-170512302D01*
X218948000Y-170399443D01*
X218948000Y-169414032D01*
X219202000Y-169414032D01*
X219202000Y-170579051D01*
X220367019Y-170579051D01*
X220488713Y-170353558D01*
X220246207Y-169839385D01*
X219825395Y-169457155D01*
X219427493Y-169292338D01*
X219202000Y-169414032D01*
X218948000Y-169414032D01*
X218722507Y-169292338D01*
X218312081Y-169485913D01*
X218453745Y-169144747D01*
X218454153Y-168677303D01*
X218275647Y-168245285D01*
X217945402Y-167914464D01*
X217560378Y-167754588D01*
X216916000Y-167110211D01*
X216916000Y-166116000D01*
X218400691Y-166116000D01*
X217677428Y-166839263D01*
X217596378Y-166957885D01*
X217563687Y-167108582D01*
X217592202Y-167260125D01*
X217677428Y-167388635D01*
X218800314Y-168511521D01*
X218918936Y-168592571D01*
X219069633Y-168625262D01*
X219136829Y-168612618D01*
X219517630Y-168993420D01*
X219847244Y-169213662D01*
X219911751Y-169226493D01*
X220236051Y-169291000D01*
X221615000Y-169291000D01*
X221226194Y-169368338D01*
X220896580Y-169588580D01*
X220676338Y-169918194D01*
X220599000Y-170307000D01*
X220676338Y-170695806D01*
X220896580Y-171025420D01*
X221226194Y-171245662D01*
X221615000Y-171323000D01*
X227330000Y-171323000D01*
X227718806Y-171245662D01*
X228048420Y-171025420D01*
X228268662Y-170695806D01*
X228346000Y-170307000D01*
X228268662Y-169918194D01*
X228048420Y-169588580D01*
X227718806Y-169368338D01*
X227330000Y-169291000D01*
X226333685Y-169291000D01*
X226394365Y-169251954D01*
X226481359Y-169124634D01*
X226511964Y-168973500D01*
X226511964Y-168488784D01*
X226885313Y-168488784D01*
X227049311Y-168885689D01*
X227352714Y-169189622D01*
X227749332Y-169354313D01*
X228178784Y-169354687D01*
X228530918Y-169209188D01*
X229750417Y-169209188D01*
X229812071Y-169444800D01*
X230312480Y-169620927D01*
X230842199Y-169592148D01*
X231197929Y-169444800D01*
X231259583Y-169209188D01*
X230505000Y-168454605D01*
X229750417Y-169209188D01*
X228530918Y-169209188D01*
X228575689Y-169190689D01*
X228879622Y-168887286D01*
X229044313Y-168490668D01*
X229044668Y-168082480D01*
X229159073Y-168082480D01*
X229187852Y-168612199D01*
X229335200Y-168967929D01*
X229570812Y-169029583D01*
X230325395Y-168275000D01*
X230684605Y-168275000D01*
X231439188Y-169029583D01*
X231674800Y-168967929D01*
X231843442Y-168488784D01*
X231965313Y-168488784D01*
X232129311Y-168885689D01*
X232432714Y-169189622D01*
X232829332Y-169354313D01*
X233258784Y-169354687D01*
X233655689Y-169190689D01*
X233959622Y-168887286D01*
X234124313Y-168490668D01*
X234124314Y-168488784D01*
X234505313Y-168488784D01*
X234669311Y-168885689D01*
X234972714Y-169189622D01*
X235369332Y-169354313D01*
X235798784Y-169354687D01*
X236195689Y-169190689D01*
X236499622Y-168887286D01*
X236664313Y-168490668D01*
X236664314Y-168488784D01*
X237045313Y-168488784D01*
X237209311Y-168885689D01*
X237512714Y-169189622D01*
X237909332Y-169354313D01*
X238338784Y-169354687D01*
X238735689Y-169190689D01*
X239039622Y-168887286D01*
X239204313Y-168490668D01*
X239204687Y-168061216D01*
X239040689Y-167664311D01*
X238737286Y-167360378D01*
X238340668Y-167195687D01*
X237911216Y-167195313D01*
X237514311Y-167359311D01*
X237210378Y-167662714D01*
X237045687Y-168059332D01*
X237045313Y-168488784D01*
X236664314Y-168488784D01*
X236664687Y-168061216D01*
X236500689Y-167664311D01*
X236197286Y-167360378D01*
X235800668Y-167195687D01*
X235371216Y-167195313D01*
X234974311Y-167359311D01*
X234670378Y-167662714D01*
X234505687Y-168059332D01*
X234505313Y-168488784D01*
X234124314Y-168488784D01*
X234124687Y-168061216D01*
X233960689Y-167664311D01*
X233657286Y-167360378D01*
X233260668Y-167195687D01*
X232831216Y-167195313D01*
X232434311Y-167359311D01*
X232130378Y-167662714D01*
X231965687Y-168059332D01*
X231965313Y-168488784D01*
X231843442Y-168488784D01*
X231850927Y-168467520D01*
X231822148Y-167937801D01*
X231674800Y-167582071D01*
X231439188Y-167520417D01*
X230684605Y-168275000D01*
X230325395Y-168275000D01*
X229570812Y-167520417D01*
X229335200Y-167582071D01*
X229159073Y-168082480D01*
X229044668Y-168082480D01*
X229044687Y-168061216D01*
X228880689Y-167664311D01*
X228577286Y-167360378D01*
X228530167Y-167340812D01*
X229750417Y-167340812D01*
X230505000Y-168095395D01*
X231259583Y-167340812D01*
X231197929Y-167105200D01*
X230697520Y-166929073D01*
X230167801Y-166957852D01*
X229812071Y-167105200D01*
X229750417Y-167340812D01*
X228530167Y-167340812D01*
X228180668Y-167195687D01*
X227751216Y-167195313D01*
X227354311Y-167359311D01*
X227050378Y-167662714D01*
X226885687Y-168059332D01*
X226885313Y-168488784D01*
X226511964Y-168488784D01*
X226511964Y-167576500D01*
X226485397Y-167435310D01*
X226401954Y-167305635D01*
X226274634Y-167218641D01*
X226123500Y-167188036D01*
X224726500Y-167188036D01*
X224585310Y-167214603D01*
X224455635Y-167298046D01*
X224368641Y-167425366D01*
X224338036Y-167576500D01*
X224338036Y-167705665D01*
X224238420Y-167556580D01*
X223908806Y-167336338D01*
X223520000Y-167259000D01*
X220656892Y-167259000D01*
X220573994Y-167176103D01*
X220586313Y-167119316D01*
X220557798Y-166967773D01*
X220472572Y-166839263D01*
X219749309Y-166116000D01*
X220439136Y-166116000D01*
X220439136Y-166243000D01*
X220465703Y-166384190D01*
X220549146Y-166513865D01*
X220676466Y-166600859D01*
X220827600Y-166631464D01*
X222402400Y-166631464D01*
X222543590Y-166604897D01*
X222673265Y-166521454D01*
X222760259Y-166394134D01*
X222790864Y-166243000D01*
X222790864Y-163957000D01*
X222764297Y-163815810D01*
X222680854Y-163686135D01*
X222553534Y-163599141D01*
X222439259Y-163576000D01*
X224004899Y-163576000D01*
X223707873Y-163635082D01*
X223328816Y-163888359D01*
X223075539Y-164267416D01*
X222986600Y-164714543D01*
X222986600Y-165485457D01*
X223075539Y-165932584D01*
X223328816Y-166311641D01*
X223707873Y-166564918D01*
X224155000Y-166653857D01*
X224602127Y-166564918D01*
X224981184Y-166311641D01*
X225234461Y-165932584D01*
X225323400Y-165485457D01*
X225323400Y-164714543D01*
X225526600Y-164714543D01*
X225526600Y-165485457D01*
X225615539Y-165932584D01*
X225868816Y-166311641D01*
X226247873Y-166564918D01*
X226695000Y-166653857D01*
X227142127Y-166564918D01*
X227521184Y-166311641D01*
X227774461Y-165932584D01*
X227863400Y-165485457D01*
X227863400Y-164714543D01*
X228066600Y-164714543D01*
X228066600Y-165485457D01*
X228155539Y-165932584D01*
X228408816Y-166311641D01*
X228787873Y-166564918D01*
X229235000Y-166653857D01*
X229682127Y-166564918D01*
X230061184Y-166311641D01*
X230314461Y-165932584D01*
X230403400Y-165485457D01*
X230403400Y-164714543D01*
X230606600Y-164714543D01*
X230606600Y-165485457D01*
X230695539Y-165932584D01*
X230948816Y-166311641D01*
X231327873Y-166564918D01*
X231775000Y-166653857D01*
X232222127Y-166564918D01*
X232601184Y-166311641D01*
X232854461Y-165932584D01*
X232943400Y-165485457D01*
X232943400Y-164714543D01*
X232854461Y-164267416D01*
X232601184Y-163888359D01*
X232283000Y-163675756D01*
X232283000Y-163405420D01*
X234525421Y-161163000D01*
X236855000Y-161163000D01*
X236909401Y-161152179D01*
X236644580Y-161417000D01*
X235585000Y-161417000D01*
X235422850Y-161449254D01*
X235390596Y-161455669D01*
X235225790Y-161565790D01*
X233955790Y-162835790D01*
X233845669Y-163000597D01*
X233807000Y-163195000D01*
X233807000Y-163675756D01*
X233488816Y-163888359D01*
X233235539Y-164267416D01*
X233146600Y-164714543D01*
X233146600Y-165485457D01*
X233235539Y-165932584D01*
X233488816Y-166311641D01*
X233867873Y-166564918D01*
X234315000Y-166653857D01*
X234762127Y-166564918D01*
X235141184Y-166311641D01*
X235394461Y-165932584D01*
X235483400Y-165485457D01*
X235483400Y-164714543D01*
X235686600Y-164714543D01*
X235686600Y-165485457D01*
X235775539Y-165932584D01*
X236028816Y-166311641D01*
X236407873Y-166564918D01*
X236855000Y-166653857D01*
X237302127Y-166564918D01*
X237681184Y-166311641D01*
X237802163Y-166130583D01*
X241058269Y-169386689D01*
X240833002Y-169479767D01*
X240600583Y-169711781D01*
X240474643Y-170015077D01*
X240474357Y-170343482D01*
X240599767Y-170646998D01*
X240831781Y-170879417D01*
X241135077Y-171005357D01*
X241407173Y-171005594D01*
X241575790Y-171174211D01*
X241740597Y-171284331D01*
X241935000Y-171323000D01*
X250190000Y-171323000D01*
X250384403Y-171284331D01*
X250549210Y-171174210D01*
X253149232Y-168574188D01*
X258579417Y-168574188D01*
X258641071Y-168809800D01*
X259141480Y-168985927D01*
X259671199Y-168957148D01*
X260026929Y-168809800D01*
X260088583Y-168574188D01*
X259334000Y-167819605D01*
X258579417Y-168574188D01*
X253149232Y-168574188D01*
X254275940Y-167447480D01*
X257988073Y-167447480D01*
X258016852Y-167977199D01*
X258164200Y-168332929D01*
X258399812Y-168394583D01*
X259154395Y-167640000D01*
X258399812Y-166885417D01*
X258164200Y-166947071D01*
X257988073Y-167447480D01*
X254275940Y-167447480D01*
X255017608Y-166705812D01*
X258579417Y-166705812D01*
X259334000Y-167460395D01*
X260088583Y-166705812D01*
X260026929Y-166470200D01*
X259526520Y-166294073D01*
X258996801Y-166322852D01*
X258641071Y-166470200D01*
X258579417Y-166705812D01*
X255017608Y-166705812D01*
X256115421Y-165608000D01*
X258375881Y-165608000D01*
X258418311Y-165710689D01*
X258721714Y-166014622D01*
X259118332Y-166179313D01*
X259547784Y-166179687D01*
X259944689Y-166015689D01*
X260248622Y-165712286D01*
X260413313Y-165315668D01*
X260413687Y-164886216D01*
X260249689Y-164489311D01*
X259946286Y-164185378D01*
X259549668Y-164020687D01*
X259120216Y-164020313D01*
X258723311Y-164184311D01*
X258419378Y-164487714D01*
X258376074Y-164592000D01*
X255905000Y-164592000D01*
X255850599Y-164602821D01*
X257385420Y-163068000D01*
X258375881Y-163068000D01*
X258418311Y-163170689D01*
X258721714Y-163474622D01*
X259118332Y-163639313D01*
X259547784Y-163639687D01*
X259944689Y-163475689D01*
X260248622Y-163172286D01*
X260413313Y-162775668D01*
X260413687Y-162346216D01*
X260249689Y-161949311D01*
X259946286Y-161645378D01*
X259549668Y-161480687D01*
X259120216Y-161480313D01*
X258723311Y-161644311D01*
X258419378Y-161947714D01*
X258376074Y-162052000D01*
X257175000Y-162052000D01*
X256980597Y-162090669D01*
X256815790Y-162200790D01*
X254106987Y-164909593D01*
X253836518Y-164909357D01*
X253533002Y-165034767D01*
X253300583Y-165266781D01*
X253174643Y-165570077D01*
X253174406Y-165842174D01*
X249344580Y-169672000D01*
X242780420Y-169672000D01*
X238484213Y-165375793D01*
X238484211Y-165375790D01*
X238023400Y-164914980D01*
X238023400Y-164714543D01*
X237934461Y-164267416D01*
X237681184Y-163888359D01*
X237302127Y-163635082D01*
X236855000Y-163546143D01*
X236407873Y-163635082D01*
X236028816Y-163888359D01*
X235775539Y-164267416D01*
X235686600Y-164714543D01*
X235483400Y-164714543D01*
X235394461Y-164267416D01*
X235141184Y-163888359D01*
X234823000Y-163675756D01*
X234823000Y-163405420D01*
X235795420Y-162433000D01*
X236855000Y-162433000D01*
X237049403Y-162394331D01*
X237214210Y-162284210D01*
X238970420Y-160528000D01*
X241935000Y-160528000D01*
X242129403Y-160489331D01*
X242294210Y-160379210D01*
X243415420Y-159258000D01*
X248709580Y-159258000D01*
X249830790Y-160379210D01*
X249995596Y-160489331D01*
X250027850Y-160495746D01*
X250190000Y-160528000D01*
X252727354Y-160528000D01*
X252577378Y-160677714D01*
X252412687Y-161074332D01*
X252412313Y-161503784D01*
X252576311Y-161900689D01*
X252879714Y-162204622D01*
X253276332Y-162369313D01*
X253705784Y-162369687D01*
X254102689Y-162205689D01*
X254406622Y-161902286D01*
X254571313Y-161505668D01*
X254571687Y-161076216D01*
X254407689Y-160679311D01*
X254256642Y-160528000D01*
X258375881Y-160528000D01*
X258418311Y-160630689D01*
X258721714Y-160934622D01*
X259118332Y-161099313D01*
X259547784Y-161099687D01*
X259944689Y-160935689D01*
X260248622Y-160632286D01*
X260413313Y-160235668D01*
X260413687Y-159806216D01*
X260249689Y-159409311D01*
X259946286Y-159105378D01*
X259549668Y-158940687D01*
X259120216Y-158940313D01*
X258723311Y-159104311D01*
X258419378Y-159407714D01*
X258376074Y-159512000D01*
X254256646Y-159512000D01*
X254406622Y-159362286D01*
X254571313Y-158965668D01*
X254571687Y-158536216D01*
X254407689Y-158139311D01*
X254256642Y-157988000D01*
X258375881Y-157988000D01*
X258418311Y-158090689D01*
X258721714Y-158394622D01*
X259118332Y-158559313D01*
X259547784Y-158559687D01*
X259944689Y-158395689D01*
X260248622Y-158092286D01*
X260413313Y-157695668D01*
X260413687Y-157266216D01*
X260249689Y-156869311D01*
X259946286Y-156565378D01*
X259549668Y-156400687D01*
X259120216Y-156400313D01*
X258723311Y-156564311D01*
X258419378Y-156867714D01*
X258376074Y-156972000D01*
X251162421Y-156972000D01*
X250803210Y-156612790D01*
X250638403Y-156502669D01*
X250444000Y-156464000D01*
X247904000Y-156464000D01*
X247709597Y-156502669D01*
X247709595Y-156502670D01*
X247709596Y-156502670D01*
X247544789Y-156612790D01*
X247185580Y-156972000D01*
X247039302Y-156972000D01*
X246848219Y-156780583D01*
X246544923Y-156654643D01*
X246216518Y-156654357D01*
X245913002Y-156779767D01*
X245720433Y-156972000D01*
X243205000Y-156972000D01*
X243042850Y-157004254D01*
X243010596Y-157010669D01*
X242845790Y-157120790D01*
X241724580Y-158242000D01*
X241617510Y-158242000D01*
X241766998Y-158180233D01*
X241999417Y-157948219D01*
X242125357Y-157644923D01*
X242125643Y-157316518D01*
X242000233Y-157013002D01*
X241768219Y-156780583D01*
X241464923Y-156654643D01*
X241136518Y-156654357D01*
X240833002Y-156779767D01*
X240640433Y-156972000D01*
X237999025Y-156972000D01*
X237934461Y-156647416D01*
X237681184Y-156268359D01*
X237302127Y-156015082D01*
X236855000Y-155926143D01*
X236407873Y-156015082D01*
X236028816Y-156268359D01*
X235775539Y-156647416D01*
X235686600Y-157094543D01*
X235686600Y-157865457D01*
X235775539Y-158312584D01*
X236028816Y-158691641D01*
X236407873Y-158944918D01*
X236855000Y-159033857D01*
X237302127Y-158944918D01*
X237681184Y-158691641D01*
X237934461Y-158312584D01*
X237999025Y-157988000D01*
X240640698Y-157988000D01*
X240831781Y-158179417D01*
X240982497Y-158242000D01*
X238760000Y-158242000D01*
X238565597Y-158280669D01*
X238400790Y-158390790D01*
X236644580Y-160147000D01*
X234315000Y-160147000D01*
X234120597Y-160185669D01*
X234083715Y-160210313D01*
X233955789Y-160295790D01*
X231415790Y-162835790D01*
X231305669Y-163000597D01*
X231267000Y-163195000D01*
X231267000Y-163675756D01*
X230948816Y-163888359D01*
X230695539Y-164267416D01*
X230606600Y-164714543D01*
X230403400Y-164714543D01*
X230314461Y-164267416D01*
X230061184Y-163888359D01*
X229682127Y-163635082D01*
X229235000Y-163546143D01*
X228787873Y-163635082D01*
X228408816Y-163888359D01*
X228155539Y-164267416D01*
X228066600Y-164714543D01*
X227863400Y-164714543D01*
X227774461Y-164267416D01*
X227521184Y-163888359D01*
X227142127Y-163635082D01*
X226695000Y-163546143D01*
X226247873Y-163635082D01*
X225868816Y-163888359D01*
X225615539Y-164267416D01*
X225526600Y-164714543D01*
X225323400Y-164714543D01*
X225234461Y-164267416D01*
X224981184Y-163888359D01*
X224602127Y-163635082D01*
X224305101Y-163576000D01*
X226060000Y-163576000D01*
X226384300Y-163511493D01*
X226448807Y-163498662D01*
X226778420Y-163278420D01*
X229953420Y-160103421D01*
X230173662Y-159773807D01*
X230212331Y-159579403D01*
X230251000Y-159385000D01*
X230251000Y-158407560D01*
X230314461Y-158312584D01*
X230403400Y-157865457D01*
X230403400Y-157094543D01*
X230606600Y-157094543D01*
X230606600Y-157865457D01*
X230695539Y-158312584D01*
X230948816Y-158691641D01*
X231327873Y-158944918D01*
X231775000Y-159033857D01*
X232222127Y-158944918D01*
X232601184Y-158691641D01*
X232854461Y-158312584D01*
X232943400Y-157865457D01*
X232943400Y-157094543D01*
X233146600Y-157094543D01*
X233146600Y-157865457D01*
X233235539Y-158312584D01*
X233488816Y-158691641D01*
X233867873Y-158944918D01*
X234315000Y-159033857D01*
X234762127Y-158944918D01*
X235141184Y-158691641D01*
X235394461Y-158312584D01*
X235483400Y-157865457D01*
X235483400Y-157094543D01*
X235394461Y-156647416D01*
X235141184Y-156268359D01*
X234762127Y-156015082D01*
X234315000Y-155926143D01*
X233867873Y-156015082D01*
X233488816Y-156268359D01*
X233235539Y-156647416D01*
X233146600Y-157094543D01*
X232943400Y-157094543D01*
X232854461Y-156647416D01*
X232601184Y-156268359D01*
X232222127Y-156015082D01*
X231775000Y-155926143D01*
X231327873Y-156015082D01*
X230948816Y-156268359D01*
X230695539Y-156647416D01*
X230606600Y-157094543D01*
X230403400Y-157094543D01*
X230314461Y-156647416D01*
X230061184Y-156268359D01*
X229682127Y-156015082D01*
X229235000Y-155926143D01*
X228787873Y-156015082D01*
X228408816Y-156268359D01*
X228155539Y-156647416D01*
X228066600Y-157094543D01*
X228066600Y-157865457D01*
X228155539Y-158312584D01*
X228219000Y-158407560D01*
X228219000Y-158964159D01*
X225639160Y-161544000D01*
X218173142Y-161544000D01*
X218020668Y-161480687D01*
X217591216Y-161480313D01*
X217194311Y-161644311D01*
X216890378Y-161947714D01*
X216725687Y-162344332D01*
X216725313Y-162773784D01*
X216889311Y-163170689D01*
X217192714Y-163474622D01*
X217589332Y-163639313D01*
X218018784Y-163639687D01*
X218172918Y-163576000D01*
X220787933Y-163576000D01*
X220686410Y-163595103D01*
X220556735Y-163678546D01*
X220469741Y-163805866D01*
X220439136Y-163957000D01*
X220439136Y-164084000D01*
X216281000Y-164084000D01*
X216281000Y-162928142D01*
X216344313Y-162775668D01*
X216344687Y-162346216D01*
X216180689Y-161949311D01*
X215877286Y-161645378D01*
X215480668Y-161480687D01*
X215051216Y-161480313D01*
X214654311Y-161644311D01*
X214630000Y-161668580D01*
X214630000Y-161210189D01*
X215072480Y-161365927D01*
X215602199Y-161337148D01*
X215957929Y-161189800D01*
X216019583Y-160954188D01*
X217050417Y-160954188D01*
X217112071Y-161189800D01*
X217612480Y-161365927D01*
X218142199Y-161337148D01*
X218497929Y-161189800D01*
X218559583Y-160954188D01*
X217805000Y-160199605D01*
X217050417Y-160954188D01*
X216019583Y-160954188D01*
X215265000Y-160199605D01*
X215250858Y-160213748D01*
X215071253Y-160034143D01*
X215085395Y-160020000D01*
X215444605Y-160020000D01*
X216199188Y-160774583D01*
X216434800Y-160712929D01*
X216526859Y-160451371D01*
X216635200Y-160712929D01*
X216870812Y-160774583D01*
X217625395Y-160020000D01*
X217984605Y-160020000D01*
X218739188Y-160774583D01*
X218974800Y-160712929D01*
X219150927Y-160212520D01*
X219122148Y-159682801D01*
X218974800Y-159327071D01*
X218739188Y-159265417D01*
X217984605Y-160020000D01*
X217625395Y-160020000D01*
X216870812Y-159265417D01*
X216635200Y-159327071D01*
X216543141Y-159588629D01*
X216434800Y-159327071D01*
X216199188Y-159265417D01*
X215444605Y-160020000D01*
X215085395Y-160020000D01*
X215071253Y-160005858D01*
X215250858Y-159826253D01*
X215265000Y-159840395D01*
X216019583Y-159085812D01*
X217050417Y-159085812D01*
X217805000Y-159840395D01*
X218559583Y-159085812D01*
X218497929Y-158850200D01*
X217997520Y-158674073D01*
X217467801Y-158702852D01*
X217112071Y-158850200D01*
X217050417Y-159085812D01*
X216019583Y-159085812D01*
X215957929Y-158850200D01*
X215457520Y-158674073D01*
X214927801Y-158702852D01*
X214630000Y-158826205D01*
X214630000Y-158378026D01*
X214702462Y-158305564D01*
X214793482Y-158305643D01*
X215096998Y-158180233D01*
X215329417Y-157948219D01*
X215455357Y-157644923D01*
X215455390Y-157607000D01*
X220192600Y-157607000D01*
X220192600Y-157962600D01*
X220349475Y-158497262D01*
X220699014Y-158931191D01*
X221188004Y-159198327D01*
X221267940Y-159215010D01*
X221488000Y-159092852D01*
X221488000Y-157607000D01*
X220192600Y-157607000D01*
X215455390Y-157607000D01*
X215455643Y-157316518D01*
X215330233Y-157013002D01*
X215098219Y-156780583D01*
X214794923Y-156654643D01*
X214466518Y-156654357D01*
X214163002Y-156779767D01*
X213930583Y-157011781D01*
X213804643Y-157315077D01*
X213804563Y-157407411D01*
X213046174Y-158165800D01*
X211658200Y-158165800D01*
X211415196Y-158214136D01*
X211209187Y-158351787D01*
X210243987Y-159316987D01*
X210106336Y-159522996D01*
X210058000Y-159766000D01*
X209550000Y-159766000D01*
X209550000Y-158198420D01*
X211538420Y-156210000D01*
X220553061Y-156210000D01*
X220349475Y-156462738D01*
X220192600Y-156997400D01*
X220192600Y-157353000D01*
X221488000Y-157353000D01*
X221488000Y-157333000D01*
X221742000Y-157333000D01*
X221742000Y-157353000D01*
X221762000Y-157353000D01*
X221762000Y-157607000D01*
X221742000Y-157607000D01*
X221742000Y-159092852D01*
X221962060Y-159215010D01*
X222041996Y-159198327D01*
X222530986Y-158931191D01*
X222880525Y-158497262D01*
X223018641Y-158026536D01*
X223075539Y-158312584D01*
X223328816Y-158691641D01*
X223707873Y-158944918D01*
X224155000Y-159033857D01*
X224602127Y-158944918D01*
X224981184Y-158691641D01*
X225234461Y-158312584D01*
X225323400Y-157865457D01*
X225323400Y-157094543D01*
X225256924Y-156760344D01*
X225537305Y-157040725D01*
X225526600Y-157094543D01*
X225526600Y-157865457D01*
X225615539Y-158312584D01*
X225868816Y-158691641D01*
X226247873Y-158944918D01*
X226695000Y-159033857D01*
X227142127Y-158944918D01*
X227521184Y-158691641D01*
X227774461Y-158312584D01*
X227863400Y-157865457D01*
X227863400Y-157094543D01*
X227774461Y-156647416D01*
X227521184Y-156268359D01*
X227142127Y-156015082D01*
X226695000Y-155926143D01*
X226247873Y-156015082D01*
X226068413Y-156134993D01*
X225276210Y-155342790D01*
X225111403Y-155232669D01*
X224917000Y-155194000D01*
X223730421Y-155194000D01*
X223244210Y-154707790D01*
X223079403Y-154597669D01*
X222885000Y-154559000D01*
X222675163Y-154559000D01*
X222676471Y-154558126D01*
X222857769Y-154286794D01*
X222969801Y-154398827D01*
X223203190Y-154495500D01*
X223869250Y-154495500D01*
X224028000Y-154336750D01*
X224028000Y-153162000D01*
X224282000Y-153162000D01*
X224282000Y-154336750D01*
X224440750Y-154495500D01*
X225106810Y-154495500D01*
X225340199Y-154398827D01*
X225518827Y-154220198D01*
X225615500Y-153986809D01*
X225615500Y-153320750D01*
X225456750Y-153162000D01*
X224282000Y-153162000D01*
X224028000Y-153162000D01*
X224008000Y-153162000D01*
X224008000Y-152908000D01*
X224028000Y-152908000D01*
X224028000Y-152888000D01*
X224282000Y-152888000D01*
X224282000Y-152908000D01*
X225456750Y-152908000D01*
X225615500Y-152749250D01*
X225615500Y-152673921D01*
X225629729Y-152688150D01*
X225972619Y-153511085D01*
X225869643Y-153759077D01*
X225869357Y-154087482D01*
X225994767Y-154390998D01*
X226226781Y-154623417D01*
X226530077Y-154749357D01*
X226858482Y-154749643D01*
X227161998Y-154624233D01*
X227394417Y-154392219D01*
X227520357Y-154088923D01*
X227520643Y-153760518D01*
X227395233Y-153457002D01*
X227163219Y-153224583D01*
X226910119Y-153119486D01*
X226528923Y-152204615D01*
X226474028Y-152122830D01*
X226419211Y-152040790D01*
X225784210Y-151405790D01*
X225619403Y-151295669D01*
X225425000Y-151257000D01*
X225099409Y-151257000D01*
X225177225Y-151179320D01*
X225361290Y-150736041D01*
X225361709Y-150256065D01*
X225178418Y-149812465D01*
X224839320Y-149472775D01*
X224396041Y-149288710D01*
X223916065Y-149288291D01*
X223472465Y-149471582D01*
X223132775Y-149810680D01*
X222957788Y-150232097D01*
X222913534Y-150152072D01*
X222538906Y-149853464D01*
X222631000Y-149853464D01*
X222772190Y-149826897D01*
X222901865Y-149743454D01*
X222988859Y-149616134D01*
X223019464Y-149465000D01*
X223019464Y-147715000D01*
X222992897Y-147573810D01*
X222909454Y-147444135D01*
X222782134Y-147357141D01*
X222631000Y-147326536D01*
X222344061Y-147326536D01*
X222441184Y-147261641D01*
X222694461Y-146882584D01*
X222783400Y-146435457D01*
X222783400Y-145664543D01*
X222694461Y-145217416D01*
X222441184Y-144838359D01*
X222062127Y-144585082D01*
X221615000Y-144496143D01*
X221167873Y-144585082D01*
X220788816Y-144838359D01*
X220535539Y-145217416D01*
X220446600Y-145664543D01*
X220446600Y-146435457D01*
X220535539Y-146882584D01*
X220788816Y-147261641D01*
X220885939Y-147326536D01*
X220091000Y-147326536D01*
X219949810Y-147353103D01*
X219820135Y-147436546D01*
X219733141Y-147563866D01*
X219702536Y-147715000D01*
X219702536Y-149465000D01*
X219729103Y-149606190D01*
X219812546Y-149735865D01*
X219939866Y-149822859D01*
X220091000Y-149853464D01*
X220183094Y-149853464D01*
X219808466Y-150152072D01*
X219522341Y-150669481D01*
X219499742Y-150769184D01*
X219620731Y-151003000D01*
X221234000Y-151003000D01*
X221234000Y-150983000D01*
X221488000Y-150983000D01*
X221488000Y-151003000D01*
X221508000Y-151003000D01*
X221508000Y-151257000D01*
X221488000Y-151257000D01*
X221488000Y-151277000D01*
X221234000Y-151277000D01*
X221234000Y-151257000D01*
X219620731Y-151257000D01*
X219499742Y-151490816D01*
X219522341Y-151590519D01*
X219689059Y-151892000D01*
X219448923Y-151892000D01*
X218807755Y-151571416D01*
X218743661Y-151249193D01*
X218523420Y-150919579D01*
X215519000Y-147915160D01*
X215519000Y-145751755D01*
X215534190Y-145748897D01*
X215663865Y-145665454D01*
X215664487Y-145664543D01*
X217906600Y-145664543D01*
X217906600Y-146435457D01*
X217995539Y-146882584D01*
X218248816Y-147261641D01*
X218627873Y-147514918D01*
X219075000Y-147603857D01*
X219522127Y-147514918D01*
X219901184Y-147261641D01*
X220154461Y-146882584D01*
X220243400Y-146435457D01*
X220243400Y-145664543D01*
X220154461Y-145217416D01*
X219901184Y-144838359D01*
X219522127Y-144585082D01*
X219075000Y-144496143D01*
X218627873Y-144585082D01*
X218248816Y-144838359D01*
X217995539Y-145217416D01*
X217906600Y-145664543D01*
X215664487Y-145664543D01*
X215750859Y-145538134D01*
X215781464Y-145387000D01*
X215781464Y-141887000D01*
X215754897Y-141745810D01*
X215671454Y-141616135D01*
X215544134Y-141529141D01*
X215393000Y-141498536D01*
X213613000Y-141498536D01*
X213471810Y-141525103D01*
X213342135Y-141608546D01*
X213255141Y-141735866D01*
X213224536Y-141887000D01*
X213224536Y-145387000D01*
X213251103Y-145528190D01*
X213334546Y-145657865D01*
X213461866Y-145744859D01*
X213487000Y-145749949D01*
X213487000Y-148463000D01*
X213564338Y-148851806D01*
X213784580Y-149181420D01*
X214114194Y-149401662D01*
X214136199Y-149406039D01*
X217086579Y-152356420D01*
X217416193Y-152576661D01*
X217805000Y-152653999D01*
X218193807Y-152576661D01*
X218344722Y-152475822D01*
X218701078Y-152654000D01*
X214630000Y-152654000D01*
X214241194Y-152731338D01*
X213911580Y-152951580D01*
X213691338Y-153281194D01*
X213614000Y-153670000D01*
X213691338Y-154058806D01*
X213911580Y-154388420D01*
X214166870Y-154559000D01*
X211201000Y-154559000D01*
X211006596Y-154597669D01*
X210841790Y-154707790D01*
X210714792Y-154834788D01*
X210714789Y-154834790D01*
X210206792Y-155342788D01*
X210206789Y-155342790D01*
X207371080Y-158178500D01*
X205803500Y-158178500D01*
X205609096Y-158217169D01*
X205444290Y-158327290D01*
X204745790Y-159025790D01*
X204635669Y-159190597D01*
X204597000Y-159385000D01*
X203879747Y-159385000D01*
X203683538Y-159091354D01*
X203138183Y-158726959D01*
X202494892Y-158599000D01*
X202225108Y-158599000D01*
X201581817Y-158726959D01*
X201036462Y-159091354D01*
X200672067Y-159636709D01*
X200544108Y-160280000D01*
X200329000Y-160280000D01*
X200329000Y-155947871D01*
X200406000Y-155963464D01*
X209296000Y-155963464D01*
X209437190Y-155936897D01*
X209566865Y-155853454D01*
X209653859Y-155726134D01*
X209684464Y-155575000D01*
X209684464Y-147240305D01*
X210312000Y-147867841D01*
X210312000Y-149860000D01*
X210389338Y-150248806D01*
X210609580Y-150578420D01*
X210939194Y-150798662D01*
X211328000Y-150876000D01*
X211716806Y-150798662D01*
X212046420Y-150578420D01*
X212266662Y-150248806D01*
X212344000Y-149860000D01*
X212344000Y-147447000D01*
X212279493Y-147122700D01*
X212266662Y-147058193D01*
X212046421Y-146728580D01*
X210701464Y-145383624D01*
X210701464Y-141887000D01*
X210674897Y-141745810D01*
X210591454Y-141616135D01*
X210464134Y-141529141D01*
X210313000Y-141498536D01*
X208533000Y-141498536D01*
X208391810Y-141525103D01*
X208262135Y-141608546D01*
X208175141Y-141735866D01*
X208144536Y-141887000D01*
X208144536Y-145387000D01*
X208171103Y-145528190D01*
X208254546Y-145657865D01*
X208381866Y-145744859D01*
X208450099Y-145758676D01*
X208459076Y-145803806D01*
X208484338Y-145930807D01*
X208704580Y-146260420D01*
X208740696Y-146296536D01*
X200406000Y-146296536D01*
X200329000Y-146311025D01*
X200329000Y-143877391D01*
X200468816Y-144086641D01*
X200847873Y-144339918D01*
X201295000Y-144428857D01*
X201742127Y-144339918D01*
X202121184Y-144086641D01*
X202374461Y-143707584D01*
X202463400Y-143260457D01*
X202463400Y-143002000D01*
X204952600Y-143002000D01*
X204952600Y-143357600D01*
X205109475Y-143892262D01*
X205459014Y-144326191D01*
X205948004Y-144593327D01*
X206027940Y-144610010D01*
X206248000Y-144487852D01*
X206248000Y-143002000D01*
X206502000Y-143002000D01*
X206502000Y-144487852D01*
X206722060Y-144610010D01*
X206801996Y-144593327D01*
X207290986Y-144326191D01*
X207640525Y-143892262D01*
X207797400Y-143357600D01*
X207797400Y-143002000D01*
X206502000Y-143002000D01*
X206248000Y-143002000D01*
X204952600Y-143002000D01*
X202463400Y-143002000D01*
X202463400Y-142489543D01*
X202444078Y-142392400D01*
X204952600Y-142392400D01*
X204952600Y-142748000D01*
X206248000Y-142748000D01*
X206248000Y-141262148D01*
X206502000Y-141262148D01*
X206502000Y-142748000D01*
X207797400Y-142748000D01*
X207797400Y-142392400D01*
X207640525Y-141857738D01*
X207290986Y-141423809D01*
X206801996Y-141156673D01*
X206722060Y-141139990D01*
X206502000Y-141262148D01*
X206248000Y-141262148D01*
X206027940Y-141139990D01*
X205948004Y-141156673D01*
X205459014Y-141423809D01*
X205109475Y-141857738D01*
X204952600Y-142392400D01*
X202444078Y-142392400D01*
X202374461Y-142042416D01*
X202121184Y-141663359D01*
X201742127Y-141410082D01*
X201295000Y-141321143D01*
X200847873Y-141410082D01*
X200468816Y-141663359D01*
X200329000Y-141872609D01*
X200329000Y-139985750D01*
X209391000Y-139985750D01*
X209391000Y-140620309D01*
X209487673Y-140853698D01*
X209666301Y-141032327D01*
X209899690Y-141129000D01*
X210534250Y-141129000D01*
X210693000Y-140970250D01*
X210693000Y-139827000D01*
X210947000Y-139827000D01*
X210947000Y-140970250D01*
X211105750Y-141129000D01*
X211740310Y-141129000D01*
X211973699Y-141032327D01*
X212152327Y-140853698D01*
X212249000Y-140620309D01*
X212249000Y-139985750D01*
X212090250Y-139827000D01*
X210947000Y-139827000D01*
X210693000Y-139827000D01*
X209549750Y-139827000D01*
X209391000Y-139985750D01*
X200329000Y-139985750D01*
X200329000Y-136257391D01*
X200468816Y-136466641D01*
X200822384Y-136702887D01*
X200825669Y-136719403D01*
X200935790Y-136884210D01*
X201100597Y-136994331D01*
X201295000Y-137033000D01*
X201489403Y-136994331D01*
X201654210Y-136884210D01*
X201764331Y-136719403D01*
X201767616Y-136702887D01*
X201921587Y-136600007D01*
X204110790Y-138789210D01*
X204275597Y-138899331D01*
X204470000Y-138938000D01*
X209391000Y-138938000D01*
X209391000Y-139414250D01*
X209549750Y-139573000D01*
X210693000Y-139573000D01*
X210693000Y-139553000D01*
X210947000Y-139553000D01*
X210947000Y-139573000D01*
X212090250Y-139573000D01*
X212249000Y-139414250D01*
X212249000Y-138938000D01*
X212344000Y-138938000D01*
X212538403Y-138899331D01*
X212703210Y-138789210D01*
X214459420Y-137033000D01*
X218526226Y-137033000D01*
X218248816Y-137218359D01*
X217995539Y-137597416D01*
X217906600Y-138044543D01*
X217906600Y-138815457D01*
X217995539Y-139262584D01*
X218248816Y-139641641D01*
X218627873Y-139894918D01*
X219075000Y-139983857D01*
X219522127Y-139894918D01*
X219901184Y-139641641D01*
X220154461Y-139262584D01*
X220243400Y-138815457D01*
X220243400Y-138044543D01*
X220154461Y-137597416D01*
X219901184Y-137218359D01*
X219623774Y-137033000D01*
X221066226Y-137033000D01*
X220788816Y-137218359D01*
X220535539Y-137597416D01*
X220446600Y-138044543D01*
X220446600Y-138815457D01*
X220535539Y-139262584D01*
X220788816Y-139641641D01*
X221167873Y-139894918D01*
X221615000Y-139983857D01*
X222062127Y-139894918D01*
X222441184Y-139641641D01*
X222694461Y-139262584D01*
X222783400Y-138815457D01*
X222783400Y-138044543D01*
X222694461Y-137597416D01*
X222441184Y-137218359D01*
X222163774Y-137033000D01*
X223606226Y-137033000D01*
X223328816Y-137218359D01*
X223075539Y-137597416D01*
X222986600Y-138044543D01*
X222986600Y-138815457D01*
X223075539Y-139262584D01*
X223328816Y-139641641D01*
X223707873Y-139894918D01*
X224155000Y-139983857D01*
X224602127Y-139894918D01*
X224981184Y-139641641D01*
X225234461Y-139262584D01*
X225323400Y-138815457D01*
X225323400Y-138044543D01*
X225234461Y-137597416D01*
X224981184Y-137218359D01*
X224703774Y-137033000D01*
X226146226Y-137033000D01*
X225868816Y-137218359D01*
X225615539Y-137597416D01*
X225526600Y-138044543D01*
X225526600Y-138815457D01*
X225615539Y-139262584D01*
X225868816Y-139641641D01*
X226247873Y-139894918D01*
X226695000Y-139983857D01*
X227142127Y-139894918D01*
X227521184Y-139641641D01*
X227774461Y-139262584D01*
X227863400Y-138815457D01*
X227863400Y-138044543D01*
X227774461Y-137597416D01*
X227521184Y-137218359D01*
X227243774Y-137033000D01*
X228686226Y-137033000D01*
X228408816Y-137218359D01*
X228155539Y-137597416D01*
X228066600Y-138044543D01*
X228066600Y-138815457D01*
X228155539Y-139262584D01*
X228408816Y-139641641D01*
X228787873Y-139894918D01*
X229235000Y-139983857D01*
X229682127Y-139894918D01*
X230061184Y-139641641D01*
X230314461Y-139262584D01*
X230403400Y-138815457D01*
X230403400Y-138044543D01*
X230314461Y-137597416D01*
X230061184Y-137218359D01*
X229783774Y-137033000D01*
X231226226Y-137033000D01*
X230948816Y-137218359D01*
X230695539Y-137597416D01*
X230606600Y-138044543D01*
X230606600Y-138815457D01*
X230695539Y-139262584D01*
X230948816Y-139641641D01*
X231327873Y-139894918D01*
X231775000Y-139983857D01*
X232222127Y-139894918D01*
X232601184Y-139641641D01*
X232854461Y-139262584D01*
X232911359Y-138976536D01*
X233049475Y-139447262D01*
X233399014Y-139881191D01*
X233888004Y-140148327D01*
X233967940Y-140165010D01*
X234188000Y-140042852D01*
X234188000Y-138557000D01*
X234168000Y-138557000D01*
X234168000Y-138303000D01*
X234188000Y-138303000D01*
X234188000Y-138283000D01*
X234442000Y-138283000D01*
X234442000Y-138303000D01*
X234462000Y-138303000D01*
X234462000Y-138557000D01*
X234442000Y-138557000D01*
X234442000Y-140042852D01*
X234662060Y-140165010D01*
X234741996Y-140148327D01*
X235230986Y-139881191D01*
X235580525Y-139447262D01*
X235718641Y-138976536D01*
X235775539Y-139262584D01*
X235807597Y-139310562D01*
X233596582Y-141521578D01*
X233596579Y-141521580D01*
X231056580Y-144061580D01*
X230836338Y-144391193D01*
X230836338Y-144391194D01*
X230759000Y-144780000D01*
X230759000Y-145122440D01*
X230695539Y-145217416D01*
X230606600Y-145664543D01*
X230606600Y-146435457D01*
X230695539Y-146882584D01*
X230948816Y-147261641D01*
X230972355Y-147277369D01*
X231056580Y-147403420D01*
X235501579Y-151848420D01*
X235566801Y-151892000D01*
X235160421Y-151892000D01*
X230248989Y-146980569D01*
X230314461Y-146882584D01*
X230403400Y-146435457D01*
X230403400Y-145664543D01*
X230314461Y-145217416D01*
X230061184Y-144838359D01*
X229682127Y-144585082D01*
X229235000Y-144496143D01*
X228787873Y-144585082D01*
X228408816Y-144838359D01*
X228155539Y-145217416D01*
X228066600Y-145664543D01*
X228066600Y-146435457D01*
X228155539Y-146882584D01*
X228408816Y-147261641D01*
X228787873Y-147514918D01*
X229235000Y-147603857D01*
X229402182Y-147570602D01*
X234358579Y-152527000D01*
X233255420Y-152527000D01*
X227708989Y-146980569D01*
X227774461Y-146882584D01*
X227863400Y-146435457D01*
X227863400Y-145664543D01*
X227774461Y-145217416D01*
X227521184Y-144838359D01*
X227142127Y-144585082D01*
X226695000Y-144496143D01*
X226247873Y-144585082D01*
X225868816Y-144838359D01*
X225615539Y-145217416D01*
X225526600Y-145664543D01*
X225526600Y-146435457D01*
X225615539Y-146882584D01*
X225868816Y-147261641D01*
X226247873Y-147514918D01*
X226695000Y-147603857D01*
X226862182Y-147570602D01*
X232453580Y-153162000D01*
X231350420Y-153162000D01*
X225168989Y-146980569D01*
X225234461Y-146882584D01*
X225323400Y-146435457D01*
X225323400Y-145664543D01*
X225234461Y-145217416D01*
X224981184Y-144838359D01*
X224602127Y-144585082D01*
X224155000Y-144496143D01*
X223707873Y-144585082D01*
X223328816Y-144838359D01*
X223075539Y-145217416D01*
X222986600Y-145664543D01*
X222986600Y-146435457D01*
X223075539Y-146882584D01*
X223328816Y-147261641D01*
X223707873Y-147514918D01*
X224155000Y-147603857D01*
X224322182Y-147570602D01*
X230780790Y-154029210D01*
X230945597Y-154139331D01*
X231140000Y-154178000D01*
X245110000Y-154178000D01*
X245304403Y-154139331D01*
X245469210Y-154029210D01*
X246590420Y-152908000D01*
X251894278Y-152908000D01*
X251748464Y-153053560D01*
X251569204Y-153485266D01*
X251568796Y-153952710D01*
X251747302Y-154384728D01*
X252077547Y-154715549D01*
X252509253Y-154894809D01*
X252976697Y-154895217D01*
X253392499Y-154723411D01*
X254460207Y-154723411D01*
X254533604Y-154968909D01*
X255068657Y-155161007D01*
X255636493Y-155133725D01*
X256034396Y-154968909D01*
X256107793Y-154723411D01*
X255284000Y-153899618D01*
X254460207Y-154723411D01*
X253392499Y-154723411D01*
X253408715Y-154716711D01*
X253739536Y-154386466D01*
X253870248Y-154071676D01*
X253870288Y-154072506D01*
X254035104Y-154470409D01*
X254280602Y-154543806D01*
X255104395Y-153720013D01*
X255463605Y-153720013D01*
X256287398Y-154543806D01*
X256532896Y-154470409D01*
X256724994Y-153935356D01*
X256697712Y-153367520D01*
X256532896Y-152969617D01*
X256287398Y-152896220D01*
X255463605Y-153720013D01*
X255104395Y-153720013D01*
X255090253Y-153705871D01*
X255269858Y-153526266D01*
X255284000Y-153540408D01*
X256107793Y-152716615D01*
X256034396Y-152471117D01*
X255607303Y-152317779D01*
X255948715Y-152176711D01*
X256279536Y-151846466D01*
X256458796Y-151414760D01*
X256459204Y-150947316D01*
X256280698Y-150515298D01*
X255950453Y-150184477D01*
X255518747Y-150005217D01*
X255051303Y-150004809D01*
X254619285Y-150183315D01*
X254288464Y-150513560D01*
X254109204Y-150945266D01*
X254108796Y-151412710D01*
X254155599Y-151525981D01*
X253789580Y-151892000D01*
X253693923Y-151892000D01*
X253739536Y-151846466D01*
X253918796Y-151414760D01*
X253919204Y-150947316D01*
X253740698Y-150515298D01*
X253410453Y-150184477D01*
X252978747Y-150005217D01*
X252511303Y-150004809D01*
X252203498Y-150131991D01*
X252433681Y-149822477D01*
X253538000Y-149822477D01*
X253679190Y-149795910D01*
X253808865Y-149712467D01*
X253895859Y-149585147D01*
X253926464Y-149434013D01*
X253926464Y-147846013D01*
X253899897Y-147704823D01*
X253816454Y-147575148D01*
X253689134Y-147488154D01*
X253538000Y-147457549D01*
X252627986Y-147457549D01*
X252921184Y-147261641D01*
X253174461Y-146882584D01*
X253263400Y-146435457D01*
X253263400Y-145664543D01*
X253217637Y-145434478D01*
X254268000Y-146484841D01*
X254268000Y-148022843D01*
X254109204Y-148405266D01*
X254108796Y-148872710D01*
X254287302Y-149304728D01*
X254617547Y-149635549D01*
X255049253Y-149814809D01*
X255516697Y-149815217D01*
X255902001Y-149656013D01*
X256804173Y-149656013D01*
X258318000Y-151169841D01*
X258318000Y-154031299D01*
X258277641Y-154090366D01*
X258247036Y-154241500D01*
X258247036Y-155638500D01*
X258273603Y-155779690D01*
X258357046Y-155909365D01*
X258484366Y-155996359D01*
X258635500Y-156026964D01*
X260032500Y-156026964D01*
X260173690Y-156000397D01*
X260303365Y-155916954D01*
X260390359Y-155789634D01*
X260420964Y-155638500D01*
X260420964Y-154241500D01*
X260394397Y-154100310D01*
X260350000Y-154031315D01*
X260350000Y-150749000D01*
X260272662Y-150360194D01*
X260272662Y-150360193D01*
X260052420Y-150030579D01*
X257943433Y-147921593D01*
X257613820Y-147701351D01*
X257549313Y-147688520D01*
X257225013Y-147624013D01*
X256300000Y-147624013D01*
X256300000Y-146064000D01*
X256273506Y-145930806D01*
X256222662Y-145675193D01*
X256002421Y-145345580D01*
X252178420Y-141521580D01*
X251848807Y-141301338D01*
X251784300Y-141288507D01*
X251460000Y-141224000D01*
X236767841Y-141224000D01*
X237573420Y-140418421D01*
X237793661Y-140088807D01*
X237793662Y-140088806D01*
X237871000Y-139700000D01*
X237871000Y-139357560D01*
X237934461Y-139262584D01*
X238023400Y-138815457D01*
X238023400Y-138044543D01*
X237934461Y-137597416D01*
X237681184Y-137218359D01*
X237403774Y-137033000D01*
X238846226Y-137033000D01*
X238568816Y-137218359D01*
X238315539Y-137597416D01*
X238226600Y-138044543D01*
X238226600Y-138815457D01*
X238315539Y-139262584D01*
X238568816Y-139641641D01*
X238947873Y-139894918D01*
X239395000Y-139983857D01*
X239842127Y-139894918D01*
X240221184Y-139641641D01*
X240474461Y-139262584D01*
X240563400Y-138815457D01*
X240563400Y-138044543D01*
X240474461Y-137597416D01*
X240221184Y-137218359D01*
X239943774Y-137033000D01*
X241386226Y-137033000D01*
X241108816Y-137218359D01*
X240855539Y-137597416D01*
X240766600Y-138044543D01*
X240766600Y-138815457D01*
X240855539Y-139262584D01*
X241108816Y-139641641D01*
X241487873Y-139894918D01*
X241935000Y-139983857D01*
X242382127Y-139894918D01*
X242761184Y-139641641D01*
X243014461Y-139262584D01*
X243103400Y-138815457D01*
X243103400Y-138044543D01*
X243014461Y-137597416D01*
X242761184Y-137218359D01*
X242483774Y-137033000D01*
X243926226Y-137033000D01*
X243648816Y-137218359D01*
X243395539Y-137597416D01*
X243306600Y-138044543D01*
X243306600Y-138815457D01*
X243395539Y-139262584D01*
X243648816Y-139641641D01*
X244027873Y-139894918D01*
X244475000Y-139983857D01*
X244922127Y-139894918D01*
X245301184Y-139641641D01*
X245554461Y-139262584D01*
X245643400Y-138815457D01*
X245643400Y-138044543D01*
X245554461Y-137597416D01*
X245301184Y-137218359D01*
X245023774Y-137033000D01*
X246466226Y-137033000D01*
X246188816Y-137218359D01*
X245935539Y-137597416D01*
X245846600Y-138044543D01*
X245846600Y-138815457D01*
X245935539Y-139262584D01*
X246188816Y-139641641D01*
X246567873Y-139894918D01*
X247015000Y-139983857D01*
X247462127Y-139894918D01*
X247841184Y-139641641D01*
X248094461Y-139262584D01*
X248183400Y-138815457D01*
X248183400Y-138044543D01*
X248094461Y-137597416D01*
X247841184Y-137218359D01*
X247563774Y-137033000D01*
X249006226Y-137033000D01*
X248728816Y-137218359D01*
X248475539Y-137597416D01*
X248386600Y-138044543D01*
X248386600Y-138815457D01*
X248475539Y-139262584D01*
X248728816Y-139641641D01*
X249107873Y-139894918D01*
X249555000Y-139983857D01*
X250002127Y-139894918D01*
X250381184Y-139641641D01*
X250634461Y-139262584D01*
X250723400Y-138815457D01*
X250723400Y-138044543D01*
X250634461Y-137597416D01*
X250381184Y-137218359D01*
X250103774Y-137033000D01*
X251020026Y-137033000D01*
X250949741Y-137135866D01*
X250919136Y-137287000D01*
X250919136Y-139573000D01*
X250945703Y-139714190D01*
X251029146Y-139843865D01*
X251156466Y-139930859D01*
X251307600Y-139961464D01*
X251613746Y-139961464D01*
X251625669Y-140021403D01*
X251735790Y-140186210D01*
X253174593Y-141625013D01*
X253174357Y-141895482D01*
X253299767Y-142198998D01*
X253531781Y-142431417D01*
X253835077Y-142557357D01*
X254163482Y-142557643D01*
X254466998Y-142432233D01*
X254699417Y-142200219D01*
X254825357Y-141896923D01*
X254825643Y-141568518D01*
X254700233Y-141265002D01*
X254468219Y-141032583D01*
X254164923Y-140906643D01*
X253892826Y-140906406D01*
X252937514Y-139951094D01*
X253023590Y-139934897D01*
X253153265Y-139851454D01*
X253240259Y-139724134D01*
X253270864Y-139573000D01*
X253270864Y-137287000D01*
X253244297Y-137145810D01*
X253160854Y-137016135D01*
X253033534Y-136929141D01*
X252882400Y-136898536D01*
X252519522Y-136898536D01*
X252509950Y-136884210D01*
X252454211Y-136800790D01*
X252051420Y-136398000D01*
X252730000Y-136398000D01*
X252764512Y-136391135D01*
X252799638Y-136393204D01*
X252860850Y-136371972D01*
X252924403Y-136359331D01*
X252953663Y-136339780D01*
X252986905Y-136328250D01*
X253035334Y-136285209D01*
X253089210Y-136249210D01*
X253108759Y-136219953D01*
X253135061Y-136196577D01*
X253163334Y-136138277D01*
X253199331Y-136084403D01*
X253206196Y-136049892D01*
X253221550Y-136018230D01*
X253819271Y-133726967D01*
X253958998Y-133669233D01*
X254191417Y-133437219D01*
X254317357Y-133133923D01*
X254317643Y-132805518D01*
X254192233Y-132502002D01*
X253960219Y-132269583D01*
X253656923Y-132143643D01*
X253328518Y-132143357D01*
X253025002Y-132268767D01*
X252792583Y-132500781D01*
X252666643Y-132804077D01*
X252666357Y-133132482D01*
X252791767Y-133435998D01*
X252834109Y-133478414D01*
X252337521Y-135382000D01*
X251142510Y-135382000D01*
X251291998Y-135320233D01*
X251524417Y-135088219D01*
X251650357Y-134784923D01*
X251650643Y-134456518D01*
X251639544Y-134429657D01*
X251673784Y-134429687D01*
X252070689Y-134265689D01*
X252374622Y-133962286D01*
X252539313Y-133565668D01*
X252539687Y-133136216D01*
X252375689Y-132739311D01*
X252072286Y-132435378D01*
X251675668Y-132270687D01*
X251246216Y-132270313D01*
X250849311Y-132434311D01*
X250545378Y-132737714D01*
X250380687Y-133134332D01*
X250380313Y-133563784D01*
X250502699Y-133859980D01*
X250358002Y-133919767D01*
X250125583Y-134151781D01*
X249999643Y-134455077D01*
X249999406Y-134727174D01*
X249979580Y-134747000D01*
X232727510Y-134747000D01*
X232876998Y-134685233D01*
X233109417Y-134453219D01*
X233179605Y-134284188D01*
X233560417Y-134284188D01*
X233622071Y-134519800D01*
X234122480Y-134695927D01*
X234652199Y-134667148D01*
X235007929Y-134519800D01*
X235069583Y-134284188D01*
X234315000Y-133529605D01*
X233560417Y-134284188D01*
X233179605Y-134284188D01*
X233235357Y-134149923D01*
X233235430Y-134066540D01*
X233380812Y-134104583D01*
X234135395Y-133350000D01*
X234494605Y-133350000D01*
X235249188Y-134104583D01*
X235484800Y-134042929D01*
X235653442Y-133563784D01*
X235775313Y-133563784D01*
X235939311Y-133960689D01*
X236242714Y-134264622D01*
X236639332Y-134429313D01*
X237068784Y-134429687D01*
X237465689Y-134265689D01*
X237769622Y-133962286D01*
X237934313Y-133565668D01*
X237934314Y-133563784D01*
X241490313Y-133563784D01*
X241654311Y-133960689D01*
X241957714Y-134264622D01*
X242354332Y-134429313D01*
X242783784Y-134429687D01*
X243180689Y-134265689D01*
X243484622Y-133962286D01*
X243649313Y-133565668D01*
X243649687Y-133136216D01*
X243485689Y-132739311D01*
X243182286Y-132435378D01*
X242785668Y-132270687D01*
X242356216Y-132270313D01*
X241959311Y-132434311D01*
X241655378Y-132737714D01*
X241490687Y-133134332D01*
X241490313Y-133563784D01*
X237934314Y-133563784D01*
X237934687Y-133136216D01*
X237770689Y-132739311D01*
X237467286Y-132435378D01*
X237070668Y-132270687D01*
X236641216Y-132270313D01*
X236244311Y-132434311D01*
X235940378Y-132737714D01*
X235775687Y-133134332D01*
X235775313Y-133563784D01*
X235653442Y-133563784D01*
X235660927Y-133542520D01*
X235632148Y-133012801D01*
X235484800Y-132657071D01*
X235249188Y-132595417D01*
X234494605Y-133350000D01*
X234135395Y-133350000D01*
X233380812Y-132595417D01*
X233145200Y-132657071D01*
X232969073Y-133157480D01*
X232981662Y-133389207D01*
X232878219Y-133285583D01*
X232574923Y-133159643D01*
X232246518Y-133159357D01*
X231965566Y-133275444D01*
X231965643Y-133186518D01*
X231840233Y-132883002D01*
X231608219Y-132650583D01*
X231304923Y-132524643D01*
X230976518Y-132524357D01*
X230673002Y-132649767D01*
X230440583Y-132881781D01*
X230314643Y-133185077D01*
X230314406Y-133457174D01*
X230294580Y-133477000D01*
X229552510Y-133477000D01*
X229701998Y-133415233D01*
X229934417Y-133183219D01*
X230060357Y-132879923D01*
X230060643Y-132551518D01*
X230004571Y-132415812D01*
X233560417Y-132415812D01*
X234315000Y-133170395D01*
X235069583Y-132415812D01*
X235007929Y-132180200D01*
X234507520Y-132004073D01*
X233977801Y-132032852D01*
X233622071Y-132180200D01*
X233560417Y-132415812D01*
X230004571Y-132415812D01*
X229935233Y-132248002D01*
X229703219Y-132015583D01*
X229399923Y-131889643D01*
X229071518Y-131889357D01*
X228768002Y-132014767D01*
X228535583Y-132246781D01*
X228409643Y-132550077D01*
X228409406Y-132822174D01*
X228389580Y-132842000D01*
X227647510Y-132842000D01*
X227796998Y-132780233D01*
X228029417Y-132548219D01*
X228155357Y-132244923D01*
X228155643Y-131916518D01*
X228030233Y-131613002D01*
X227798219Y-131380583D01*
X227494923Y-131254643D01*
X227166518Y-131254357D01*
X226863002Y-131379767D01*
X226630583Y-131611781D01*
X226504643Y-131915077D01*
X226504406Y-132187174D01*
X226484580Y-132207000D01*
X225742510Y-132207000D01*
X225891998Y-132145233D01*
X226124417Y-131913219D01*
X226250357Y-131609923D01*
X226250631Y-131295370D01*
X226275331Y-131258404D01*
X226288738Y-131191000D01*
X226314000Y-131064000D01*
X226314000Y-129331451D01*
X226470715Y-129266698D01*
X226801536Y-128936453D01*
X226980796Y-128504747D01*
X226981204Y-128037303D01*
X226802698Y-127605285D01*
X226472453Y-127274464D01*
X226237734Y-127177000D01*
X227914354Y-127177000D01*
X227681285Y-127273302D01*
G36*
X211550250Y-159893000D02*
X212598000Y-159893000D01*
X212598000Y-159873000D01*
X212852000Y-159873000D01*
X212852000Y-159893000D01*
X212872000Y-159893000D01*
X212872000Y-160147000D01*
X212852000Y-160147000D01*
X212852000Y-161194750D01*
X213010750Y-161353500D01*
X213360000Y-161353500D01*
X213360000Y-161668132D01*
X213337286Y-161645378D01*
X212940668Y-161480687D01*
X212511216Y-161480313D01*
X212114311Y-161644311D01*
X211810378Y-161947714D01*
X211645687Y-162344332D01*
X211645562Y-162487536D01*
X211328000Y-162169974D01*
X211328000Y-160305750D01*
X211391500Y-160305750D01*
X211391500Y-160844809D01*
X211488173Y-161078198D01*
X211666801Y-161256827D01*
X211900190Y-161353500D01*
X212439250Y-161353500D01*
X212598000Y-161194750D01*
X212598000Y-160147000D01*
X211550250Y-160147000D01*
X211391500Y-160305750D01*
X211328000Y-160305750D01*
X211328000Y-160029026D01*
X211507138Y-159849888D01*
X211550250Y-159893000D01*
X211550250Y-159893000D01*
G37*
X211550250Y-159893000D02*
X212598000Y-159893000D01*
X212598000Y-159873000D01*
X212852000Y-159873000D01*
X212852000Y-159893000D01*
X212872000Y-159893000D01*
X212872000Y-160147000D01*
X212852000Y-160147000D01*
X212852000Y-161194750D01*
X213010750Y-161353500D01*
X213360000Y-161353500D01*
X213360000Y-161668132D01*
X213337286Y-161645378D01*
X212940668Y-161480687D01*
X212511216Y-161480313D01*
X212114311Y-161644311D01*
X211810378Y-161947714D01*
X211645687Y-162344332D01*
X211645562Y-162487536D01*
X211328000Y-162169974D01*
X211328000Y-160305750D01*
X211391500Y-160305750D01*
X211391500Y-160844809D01*
X211488173Y-161078198D01*
X211666801Y-161256827D01*
X211900190Y-161353500D01*
X212439250Y-161353500D01*
X212598000Y-161194750D01*
X212598000Y-160147000D01*
X211550250Y-160147000D01*
X211391500Y-160305750D01*
X211328000Y-160305750D01*
X211328000Y-160029026D01*
X211507138Y-159849888D01*
X211550250Y-159893000D01*
G36*
X252325065Y-144541906D02*
X252095000Y-144496143D01*
X251647873Y-144585082D01*
X251268816Y-144838359D01*
X251015539Y-145217416D01*
X250926600Y-145664543D01*
X250926600Y-146435457D01*
X251015539Y-146882584D01*
X251268816Y-147261641D01*
X251647873Y-147514918D01*
X251734243Y-147532098D01*
X251679135Y-147567559D01*
X251592141Y-147694879D01*
X251561536Y-147846013D01*
X251561536Y-149292660D01*
X250950713Y-150114000D01*
X249557425Y-150114000D01*
X249834622Y-149837286D01*
X249999313Y-149440668D01*
X249999687Y-149011216D01*
X249835689Y-148614311D01*
X249532286Y-148310378D01*
X249135668Y-148145687D01*
X248706216Y-148145313D01*
X248309311Y-148309311D01*
X248005378Y-148612714D01*
X247840687Y-149009332D01*
X247840313Y-149438784D01*
X248004311Y-149835689D01*
X248282137Y-150114000D01*
X244812420Y-150114000D01*
X244665407Y-149966987D01*
X244665643Y-149696518D01*
X244540233Y-149393002D01*
X244308219Y-149160583D01*
X244004923Y-149034643D01*
X243676518Y-149034357D01*
X243373002Y-149159767D01*
X243140583Y-149391781D01*
X243014643Y-149695077D01*
X243014357Y-150023482D01*
X243139767Y-150326998D01*
X243371781Y-150559417D01*
X243675077Y-150685357D01*
X243722693Y-150685398D01*
X243595583Y-150710682D01*
X243430777Y-150820803D01*
X242359580Y-151892000D01*
X241875083Y-151892000D01*
X241913896Y-151880396D01*
X242105994Y-151345343D01*
X242078712Y-150777507D01*
X241913896Y-150379604D01*
X241668398Y-150306207D01*
X240844605Y-151130000D01*
X240858748Y-151144143D01*
X240679143Y-151323748D01*
X240665000Y-151309605D01*
X240650858Y-151323748D01*
X240471253Y-151144143D01*
X240485395Y-151130000D01*
X239661602Y-150306207D01*
X239416104Y-150379604D01*
X239262766Y-150806697D01*
X239121698Y-150465285D01*
X238791453Y-150134464D01*
X238772520Y-150126602D01*
X239841207Y-150126602D01*
X240665000Y-150950395D01*
X241488793Y-150126602D01*
X241415396Y-149881104D01*
X241227734Y-149813728D01*
X241357929Y-149759800D01*
X241419583Y-149524188D01*
X240665000Y-148769605D01*
X239910417Y-149524188D01*
X239972071Y-149759800D01*
X240099327Y-149804590D01*
X239914604Y-149881104D01*
X239841207Y-150126602D01*
X238772520Y-150126602D01*
X238359747Y-149955204D01*
X237892303Y-149954796D01*
X237506999Y-150114000D01*
X236640841Y-150114000D01*
X234084935Y-147558094D01*
X234315000Y-147603857D01*
X234482182Y-147570602D01*
X235860790Y-148949210D01*
X236025597Y-149059331D01*
X236220000Y-149098000D01*
X237166881Y-149098000D01*
X237209311Y-149200689D01*
X237512714Y-149504622D01*
X237909332Y-149669313D01*
X238338784Y-149669687D01*
X238735689Y-149505689D01*
X239039622Y-149202286D01*
X239204313Y-148805668D01*
X239204668Y-148397480D01*
X239319073Y-148397480D01*
X239347852Y-148927199D01*
X239495200Y-149282929D01*
X239730812Y-149344583D01*
X240485395Y-148590000D01*
X240844605Y-148590000D01*
X241599188Y-149344583D01*
X241834800Y-149282929D01*
X242010927Y-148782520D01*
X241982148Y-148252801D01*
X241834800Y-147897071D01*
X241599188Y-147835417D01*
X240844605Y-148590000D01*
X240485395Y-148590000D01*
X239730812Y-147835417D01*
X239495200Y-147897071D01*
X239319073Y-148397480D01*
X239204668Y-148397480D01*
X239204687Y-148376216D01*
X239040689Y-147979311D01*
X238737286Y-147675378D01*
X238340668Y-147510687D01*
X237911216Y-147510313D01*
X237514311Y-147674311D01*
X237210378Y-147977714D01*
X237167074Y-148082000D01*
X236430420Y-148082000D01*
X235328989Y-146980569D01*
X235394461Y-146882584D01*
X235451359Y-146596536D01*
X235589475Y-147067262D01*
X235939014Y-147501191D01*
X236428004Y-147768327D01*
X236507940Y-147785010D01*
X236728000Y-147662852D01*
X236728000Y-146177000D01*
X236708000Y-146177000D01*
X236708000Y-145923000D01*
X236728000Y-145923000D01*
X236728000Y-144437148D01*
X236982000Y-144437148D01*
X236982000Y-145923000D01*
X237002000Y-145923000D01*
X237002000Y-146177000D01*
X236982000Y-146177000D01*
X236982000Y-147662852D01*
X237202060Y-147785010D01*
X237281996Y-147768327D01*
X237770986Y-147501191D01*
X238120525Y-147067262D01*
X238258641Y-146596536D01*
X238315539Y-146882584D01*
X238568816Y-147261641D01*
X238947873Y-147514918D01*
X239395000Y-147603857D01*
X239842127Y-147514918D01*
X239969568Y-147429765D01*
X239910417Y-147655812D01*
X240665000Y-148410395D01*
X241419583Y-147655812D01*
X241360432Y-147429765D01*
X241487873Y-147514918D01*
X241935000Y-147603857D01*
X242382127Y-147514918D01*
X242761184Y-147261641D01*
X243014461Y-146882584D01*
X243103400Y-146435457D01*
X243103400Y-145664543D01*
X243306600Y-145664543D01*
X243306600Y-146435457D01*
X243395539Y-146882584D01*
X243648816Y-147261641D01*
X244027873Y-147514918D01*
X244475000Y-147603857D01*
X244922127Y-147514918D01*
X245301184Y-147261641D01*
X245554461Y-146882584D01*
X245643400Y-146435457D01*
X245643400Y-145664543D01*
X245846600Y-145664543D01*
X245846600Y-146435457D01*
X245935539Y-146882584D01*
X246188816Y-147261641D01*
X246567873Y-147514918D01*
X247015000Y-147603857D01*
X247462127Y-147514918D01*
X247841184Y-147261641D01*
X248094461Y-146882584D01*
X248183400Y-146435457D01*
X248183400Y-145664543D01*
X248386600Y-145664543D01*
X248386600Y-146435457D01*
X248475539Y-146882584D01*
X248728816Y-147261641D01*
X249107873Y-147514918D01*
X249555000Y-147603857D01*
X250002127Y-147514918D01*
X250381184Y-147261641D01*
X250634461Y-146882584D01*
X250723400Y-146435457D01*
X250723400Y-145664543D01*
X250634461Y-145217416D01*
X250381184Y-144838359D01*
X250002127Y-144585082D01*
X249555000Y-144496143D01*
X249107873Y-144585082D01*
X248728816Y-144838359D01*
X248475539Y-145217416D01*
X248386600Y-145664543D01*
X248183400Y-145664543D01*
X248094461Y-145217416D01*
X247841184Y-144838359D01*
X247462127Y-144585082D01*
X247015000Y-144496143D01*
X246567873Y-144585082D01*
X246188816Y-144838359D01*
X245935539Y-145217416D01*
X245846600Y-145664543D01*
X245643400Y-145664543D01*
X245554461Y-145217416D01*
X245301184Y-144838359D01*
X244922127Y-144585082D01*
X244475000Y-144496143D01*
X244027873Y-144585082D01*
X243648816Y-144838359D01*
X243395539Y-145217416D01*
X243306600Y-145664543D01*
X243103400Y-145664543D01*
X243014461Y-145217416D01*
X242761184Y-144838359D01*
X242382127Y-144585082D01*
X241935000Y-144496143D01*
X241487873Y-144585082D01*
X241108816Y-144838359D01*
X240855539Y-145217416D01*
X240766600Y-145664543D01*
X240766600Y-146435457D01*
X240855539Y-146882584D01*
X241108816Y-147261641D01*
X241332969Y-147411415D01*
X240857520Y-147244073D01*
X240327801Y-147272852D01*
X240003148Y-147407327D01*
X240221184Y-147261641D01*
X240474461Y-146882584D01*
X240563400Y-146435457D01*
X240563400Y-145664543D01*
X240474461Y-145217416D01*
X240221184Y-144838359D01*
X239842127Y-144585082D01*
X239395000Y-144496143D01*
X238947873Y-144585082D01*
X238568816Y-144838359D01*
X238315539Y-145217416D01*
X238258641Y-145503464D01*
X238120525Y-145032738D01*
X237770986Y-144598809D01*
X237281996Y-144331673D01*
X237202060Y-144314990D01*
X236982000Y-144437148D01*
X236728000Y-144437148D01*
X236507940Y-144314990D01*
X236428004Y-144331673D01*
X235939014Y-144598809D01*
X235589475Y-145032738D01*
X235451359Y-145503464D01*
X235394461Y-145217416D01*
X235141184Y-144838359D01*
X234762127Y-144585082D01*
X234315000Y-144496143D01*
X233867873Y-144585082D01*
X233488816Y-144838359D01*
X233235539Y-145217416D01*
X233146600Y-145664543D01*
X233146600Y-146435457D01*
X233192363Y-146665523D01*
X232943400Y-146416560D01*
X232943400Y-145664543D01*
X232854461Y-145217416D01*
X232822403Y-145169437D01*
X234735841Y-143256000D01*
X251039160Y-143256000D01*
X252325065Y-144541906D01*
X252325065Y-144541906D01*
G37*
X252325065Y-144541906D02*
X252095000Y-144496143D01*
X251647873Y-144585082D01*
X251268816Y-144838359D01*
X251015539Y-145217416D01*
X250926600Y-145664543D01*
X250926600Y-146435457D01*
X251015539Y-146882584D01*
X251268816Y-147261641D01*
X251647873Y-147514918D01*
X251734243Y-147532098D01*
X251679135Y-147567559D01*
X251592141Y-147694879D01*
X251561536Y-147846013D01*
X251561536Y-149292660D01*
X250950713Y-150114000D01*
X249557425Y-150114000D01*
X249834622Y-149837286D01*
X249999313Y-149440668D01*
X249999687Y-149011216D01*
X249835689Y-148614311D01*
X249532286Y-148310378D01*
X249135668Y-148145687D01*
X248706216Y-148145313D01*
X248309311Y-148309311D01*
X248005378Y-148612714D01*
X247840687Y-149009332D01*
X247840313Y-149438784D01*
X248004311Y-149835689D01*
X248282137Y-150114000D01*
X244812420Y-150114000D01*
X244665407Y-149966987D01*
X244665643Y-149696518D01*
X244540233Y-149393002D01*
X244308219Y-149160583D01*
X244004923Y-149034643D01*
X243676518Y-149034357D01*
X243373002Y-149159767D01*
X243140583Y-149391781D01*
X243014643Y-149695077D01*
X243014357Y-150023482D01*
X243139767Y-150326998D01*
X243371781Y-150559417D01*
X243675077Y-150685357D01*
X243722693Y-150685398D01*
X243595583Y-150710682D01*
X243430777Y-150820803D01*
X242359580Y-151892000D01*
X241875083Y-151892000D01*
X241913896Y-151880396D01*
X242105994Y-151345343D01*
X242078712Y-150777507D01*
X241913896Y-150379604D01*
X241668398Y-150306207D01*
X240844605Y-151130000D01*
X240858748Y-151144143D01*
X240679143Y-151323748D01*
X240665000Y-151309605D01*
X240650858Y-151323748D01*
X240471253Y-151144143D01*
X240485395Y-151130000D01*
X239661602Y-150306207D01*
X239416104Y-150379604D01*
X239262766Y-150806697D01*
X239121698Y-150465285D01*
X238791453Y-150134464D01*
X238772520Y-150126602D01*
X239841207Y-150126602D01*
X240665000Y-150950395D01*
X241488793Y-150126602D01*
X241415396Y-149881104D01*
X241227734Y-149813728D01*
X241357929Y-149759800D01*
X241419583Y-149524188D01*
X240665000Y-148769605D01*
X239910417Y-149524188D01*
X239972071Y-149759800D01*
X240099327Y-149804590D01*
X239914604Y-149881104D01*
X239841207Y-150126602D01*
X238772520Y-150126602D01*
X238359747Y-149955204D01*
X237892303Y-149954796D01*
X237506999Y-150114000D01*
X236640841Y-150114000D01*
X234084935Y-147558094D01*
X234315000Y-147603857D01*
X234482182Y-147570602D01*
X235860790Y-148949210D01*
X236025597Y-149059331D01*
X236220000Y-149098000D01*
X237166881Y-149098000D01*
X237209311Y-149200689D01*
X237512714Y-149504622D01*
X237909332Y-149669313D01*
X238338784Y-149669687D01*
X238735689Y-149505689D01*
X239039622Y-149202286D01*
X239204313Y-148805668D01*
X239204668Y-148397480D01*
X239319073Y-148397480D01*
X239347852Y-148927199D01*
X239495200Y-149282929D01*
X239730812Y-149344583D01*
X240485395Y-148590000D01*
X240844605Y-148590000D01*
X241599188Y-149344583D01*
X241834800Y-149282929D01*
X242010927Y-148782520D01*
X241982148Y-148252801D01*
X241834800Y-147897071D01*
X241599188Y-147835417D01*
X240844605Y-148590000D01*
X240485395Y-148590000D01*
X239730812Y-147835417D01*
X239495200Y-147897071D01*
X239319073Y-148397480D01*
X239204668Y-148397480D01*
X239204687Y-148376216D01*
X239040689Y-147979311D01*
X238737286Y-147675378D01*
X238340668Y-147510687D01*
X237911216Y-147510313D01*
X237514311Y-147674311D01*
X237210378Y-147977714D01*
X237167074Y-148082000D01*
X236430420Y-148082000D01*
X235328989Y-146980569D01*
X235394461Y-146882584D01*
X235451359Y-146596536D01*
X235589475Y-147067262D01*
X235939014Y-147501191D01*
X236428004Y-147768327D01*
X236507940Y-147785010D01*
X236728000Y-147662852D01*
X236728000Y-146177000D01*
X236708000Y-146177000D01*
X236708000Y-145923000D01*
X236728000Y-145923000D01*
X236728000Y-144437148D01*
X236982000Y-144437148D01*
X236982000Y-145923000D01*
X237002000Y-145923000D01*
X237002000Y-146177000D01*
X236982000Y-146177000D01*
X236982000Y-147662852D01*
X237202060Y-147785010D01*
X237281996Y-147768327D01*
X237770986Y-147501191D01*
X238120525Y-147067262D01*
X238258641Y-146596536D01*
X238315539Y-146882584D01*
X238568816Y-147261641D01*
X238947873Y-147514918D01*
X239395000Y-147603857D01*
X239842127Y-147514918D01*
X239969568Y-147429765D01*
X239910417Y-147655812D01*
X240665000Y-148410395D01*
X241419583Y-147655812D01*
X241360432Y-147429765D01*
X241487873Y-147514918D01*
X241935000Y-147603857D01*
X242382127Y-147514918D01*
X242761184Y-147261641D01*
X243014461Y-146882584D01*
X243103400Y-146435457D01*
X243103400Y-145664543D01*
X243306600Y-145664543D01*
X243306600Y-146435457D01*
X243395539Y-146882584D01*
X243648816Y-147261641D01*
X244027873Y-147514918D01*
X244475000Y-147603857D01*
X244922127Y-147514918D01*
X245301184Y-147261641D01*
X245554461Y-146882584D01*
X245643400Y-146435457D01*
X245643400Y-145664543D01*
X245846600Y-145664543D01*
X245846600Y-146435457D01*
X245935539Y-146882584D01*
X246188816Y-147261641D01*
X246567873Y-147514918D01*
X247015000Y-147603857D01*
X247462127Y-147514918D01*
X247841184Y-147261641D01*
X248094461Y-146882584D01*
X248183400Y-146435457D01*
X248183400Y-145664543D01*
X248386600Y-145664543D01*
X248386600Y-146435457D01*
X248475539Y-146882584D01*
X248728816Y-147261641D01*
X249107873Y-147514918D01*
X249555000Y-147603857D01*
X250002127Y-147514918D01*
X250381184Y-147261641D01*
X250634461Y-146882584D01*
X250723400Y-146435457D01*
X250723400Y-145664543D01*
X250634461Y-145217416D01*
X250381184Y-144838359D01*
X250002127Y-144585082D01*
X249555000Y-144496143D01*
X249107873Y-144585082D01*
X248728816Y-144838359D01*
X248475539Y-145217416D01*
X248386600Y-145664543D01*
X248183400Y-145664543D01*
X248094461Y-145217416D01*
X247841184Y-144838359D01*
X247462127Y-144585082D01*
X247015000Y-144496143D01*
X246567873Y-144585082D01*
X246188816Y-144838359D01*
X245935539Y-145217416D01*
X245846600Y-145664543D01*
X245643400Y-145664543D01*
X245554461Y-145217416D01*
X245301184Y-144838359D01*
X244922127Y-144585082D01*
X244475000Y-144496143D01*
X244027873Y-144585082D01*
X243648816Y-144838359D01*
X243395539Y-145217416D01*
X243306600Y-145664543D01*
X243103400Y-145664543D01*
X243014461Y-145217416D01*
X242761184Y-144838359D01*
X242382127Y-144585082D01*
X241935000Y-144496143D01*
X241487873Y-144585082D01*
X241108816Y-144838359D01*
X240855539Y-145217416D01*
X240766600Y-145664543D01*
X240766600Y-146435457D01*
X240855539Y-146882584D01*
X241108816Y-147261641D01*
X241332969Y-147411415D01*
X240857520Y-147244073D01*
X240327801Y-147272852D01*
X240003148Y-147407327D01*
X240221184Y-147261641D01*
X240474461Y-146882584D01*
X240563400Y-146435457D01*
X240563400Y-145664543D01*
X240474461Y-145217416D01*
X240221184Y-144838359D01*
X239842127Y-144585082D01*
X239395000Y-144496143D01*
X238947873Y-144585082D01*
X238568816Y-144838359D01*
X238315539Y-145217416D01*
X238258641Y-145503464D01*
X238120525Y-145032738D01*
X237770986Y-144598809D01*
X237281996Y-144331673D01*
X237202060Y-144314990D01*
X236982000Y-144437148D01*
X236728000Y-144437148D01*
X236507940Y-144314990D01*
X236428004Y-144331673D01*
X235939014Y-144598809D01*
X235589475Y-145032738D01*
X235451359Y-145503464D01*
X235394461Y-145217416D01*
X235141184Y-144838359D01*
X234762127Y-144585082D01*
X234315000Y-144496143D01*
X233867873Y-144585082D01*
X233488816Y-144838359D01*
X233235539Y-145217416D01*
X233146600Y-145664543D01*
X233146600Y-146435457D01*
X233192363Y-146665523D01*
X232943400Y-146416560D01*
X232943400Y-145664543D01*
X232854461Y-145217416D01*
X232822403Y-145169437D01*
X234735841Y-143256000D01*
X251039160Y-143256000D01*
X252325065Y-144541906D01*
G36*
X207361285Y-127273302D02*
X207030464Y-127603547D01*
X206851204Y-128035253D01*
X206850796Y-128502697D01*
X207029302Y-128934715D01*
X207359547Y-129265536D01*
X207791253Y-129444796D01*
X208101647Y-129445067D01*
X214673580Y-136017000D01*
X214249000Y-136017000D01*
X214054597Y-136055669D01*
X213889790Y-136165790D01*
X212133580Y-137922000D01*
X211719822Y-137922000D01*
X211815536Y-137826453D01*
X211994796Y-137394747D01*
X211995204Y-136927303D01*
X211816698Y-136495285D01*
X211486453Y-136164464D01*
X211054747Y-135985204D01*
X210587303Y-135984796D01*
X210428735Y-136050315D01*
X209169000Y-134790580D01*
X209169000Y-134665451D01*
X209325715Y-134600698D01*
X209656536Y-134270453D01*
X209835796Y-133838747D01*
X209836204Y-133371303D01*
X209657698Y-132939285D01*
X209327453Y-132608464D01*
X208895747Y-132429204D01*
X208428303Y-132428796D01*
X207996285Y-132607302D01*
X207665464Y-132937547D01*
X207486204Y-133369253D01*
X207485796Y-133836697D01*
X207664302Y-134268715D01*
X207994547Y-134599536D01*
X208153000Y-134665331D01*
X208153000Y-135001000D01*
X208191669Y-135195403D01*
X208301790Y-135360210D01*
X209710231Y-136768651D01*
X209645204Y-136925253D01*
X209644796Y-137392697D01*
X209823302Y-137824715D01*
X209920418Y-137922000D01*
X204680420Y-137922000D01*
X202452695Y-135694275D01*
X202463400Y-135640457D01*
X202463400Y-135382000D01*
X204952600Y-135382000D01*
X204952600Y-135737600D01*
X205109475Y-136272262D01*
X205459014Y-136706191D01*
X205948004Y-136973327D01*
X206027940Y-136990010D01*
X206248000Y-136867852D01*
X206248000Y-135382000D01*
X206502000Y-135382000D01*
X206502000Y-136867852D01*
X206722060Y-136990010D01*
X206801996Y-136973327D01*
X207290986Y-136706191D01*
X207640525Y-136272262D01*
X207797400Y-135737600D01*
X207797400Y-135382000D01*
X206502000Y-135382000D01*
X206248000Y-135382000D01*
X204952600Y-135382000D01*
X202463400Y-135382000D01*
X202463400Y-134869543D01*
X202444078Y-134772400D01*
X204952600Y-134772400D01*
X204952600Y-135128000D01*
X206248000Y-135128000D01*
X206248000Y-133642148D01*
X206502000Y-133642148D01*
X206502000Y-135128000D01*
X207797400Y-135128000D01*
X207797400Y-134772400D01*
X207640525Y-134237738D01*
X207290986Y-133803809D01*
X206801996Y-133536673D01*
X206722060Y-133519990D01*
X206502000Y-133642148D01*
X206248000Y-133642148D01*
X206027940Y-133519990D01*
X205948004Y-133536673D01*
X205459014Y-133803809D01*
X205109475Y-134237738D01*
X204952600Y-134772400D01*
X202444078Y-134772400D01*
X202374461Y-134422416D01*
X202121184Y-134043359D01*
X201742127Y-133790082D01*
X201295000Y-133701143D01*
X200847873Y-133790082D01*
X200468816Y-134043359D01*
X200329000Y-134252609D01*
X200329000Y-131231831D01*
X200840056Y-132468681D01*
X201790317Y-133420601D01*
X203032527Y-133936412D01*
X204377572Y-133937586D01*
X205620681Y-133423944D01*
X206572601Y-132473683D01*
X207088412Y-131231473D01*
X207089586Y-129886428D01*
X206575944Y-128643319D01*
X205625683Y-127691399D01*
X204386873Y-127177000D01*
X207594354Y-127177000D01*
X207361285Y-127273302D01*
X207361285Y-127273302D01*
G37*
X207361285Y-127273302D02*
X207030464Y-127603547D01*
X206851204Y-128035253D01*
X206850796Y-128502697D01*
X207029302Y-128934715D01*
X207359547Y-129265536D01*
X207791253Y-129444796D01*
X208101647Y-129445067D01*
X214673580Y-136017000D01*
X214249000Y-136017000D01*
X214054597Y-136055669D01*
X213889790Y-136165790D01*
X212133580Y-137922000D01*
X211719822Y-137922000D01*
X211815536Y-137826453D01*
X211994796Y-137394747D01*
X211995204Y-136927303D01*
X211816698Y-136495285D01*
X211486453Y-136164464D01*
X211054747Y-135985204D01*
X210587303Y-135984796D01*
X210428735Y-136050315D01*
X209169000Y-134790580D01*
X209169000Y-134665451D01*
X209325715Y-134600698D01*
X209656536Y-134270453D01*
X209835796Y-133838747D01*
X209836204Y-133371303D01*
X209657698Y-132939285D01*
X209327453Y-132608464D01*
X208895747Y-132429204D01*
X208428303Y-132428796D01*
X207996285Y-132607302D01*
X207665464Y-132937547D01*
X207486204Y-133369253D01*
X207485796Y-133836697D01*
X207664302Y-134268715D01*
X207994547Y-134599536D01*
X208153000Y-134665331D01*
X208153000Y-135001000D01*
X208191669Y-135195403D01*
X208301790Y-135360210D01*
X209710231Y-136768651D01*
X209645204Y-136925253D01*
X209644796Y-137392697D01*
X209823302Y-137824715D01*
X209920418Y-137922000D01*
X204680420Y-137922000D01*
X202452695Y-135694275D01*
X202463400Y-135640457D01*
X202463400Y-135382000D01*
X204952600Y-135382000D01*
X204952600Y-135737600D01*
X205109475Y-136272262D01*
X205459014Y-136706191D01*
X205948004Y-136973327D01*
X206027940Y-136990010D01*
X206248000Y-136867852D01*
X206248000Y-135382000D01*
X206502000Y-135382000D01*
X206502000Y-136867852D01*
X206722060Y-136990010D01*
X206801996Y-136973327D01*
X207290986Y-136706191D01*
X207640525Y-136272262D01*
X207797400Y-135737600D01*
X207797400Y-135382000D01*
X206502000Y-135382000D01*
X206248000Y-135382000D01*
X204952600Y-135382000D01*
X202463400Y-135382000D01*
X202463400Y-134869543D01*
X202444078Y-134772400D01*
X204952600Y-134772400D01*
X204952600Y-135128000D01*
X206248000Y-135128000D01*
X206248000Y-133642148D01*
X206502000Y-133642148D01*
X206502000Y-135128000D01*
X207797400Y-135128000D01*
X207797400Y-134772400D01*
X207640525Y-134237738D01*
X207290986Y-133803809D01*
X206801996Y-133536673D01*
X206722060Y-133519990D01*
X206502000Y-133642148D01*
X206248000Y-133642148D01*
X206027940Y-133519990D01*
X205948004Y-133536673D01*
X205459014Y-133803809D01*
X205109475Y-134237738D01*
X204952600Y-134772400D01*
X202444078Y-134772400D01*
X202374461Y-134422416D01*
X202121184Y-134043359D01*
X201742127Y-133790082D01*
X201295000Y-133701143D01*
X200847873Y-133790082D01*
X200468816Y-134043359D01*
X200329000Y-134252609D01*
X200329000Y-131231831D01*
X200840056Y-132468681D01*
X201790317Y-133420601D01*
X203032527Y-133936412D01*
X204377572Y-133937586D01*
X205620681Y-133423944D01*
X206572601Y-132473683D01*
X207088412Y-131231473D01*
X207089586Y-129886428D01*
X206575944Y-128643319D01*
X205625683Y-127691399D01*
X204386873Y-127177000D01*
X207594354Y-127177000D01*
X207361285Y-127273302D01*
G36*
X214822207Y-127266602D02*
X215646000Y-128090395D01*
X216469793Y-127266602D01*
X216443005Y-127177000D01*
X217754354Y-127177000D01*
X217521285Y-127273302D01*
X217190464Y-127603547D01*
X217059752Y-127918337D01*
X217059712Y-127917507D01*
X216894896Y-127519604D01*
X216649398Y-127446207D01*
X215825605Y-128270000D01*
X216649398Y-129093793D01*
X216894896Y-129020396D01*
X217048234Y-128593303D01*
X217189302Y-128934715D01*
X217519547Y-129265536D01*
X217687829Y-129335413D01*
X217716669Y-129480403D01*
X217826790Y-129645210D01*
X220366789Y-132185210D01*
X220366792Y-132185212D01*
X222293580Y-134112000D01*
X221571420Y-134112000D01*
X218291210Y-130831790D01*
X218126403Y-130721669D01*
X217932000Y-130683000D01*
X216237420Y-130683000D01*
X215172857Y-129618437D01*
X215430657Y-129710994D01*
X215998493Y-129683712D01*
X216396396Y-129518896D01*
X216469793Y-129273398D01*
X215646000Y-128449605D01*
X215631858Y-128463748D01*
X215452253Y-128284143D01*
X215466395Y-128270000D01*
X214642602Y-127446207D01*
X214397104Y-127519604D01*
X214243766Y-127946697D01*
X214102698Y-127605285D01*
X213772453Y-127274464D01*
X213537734Y-127177000D01*
X214848995Y-127177000D01*
X214822207Y-127266602D01*
X214822207Y-127266602D01*
G37*
X214822207Y-127266602D02*
X215646000Y-128090395D01*
X216469793Y-127266602D01*
X216443005Y-127177000D01*
X217754354Y-127177000D01*
X217521285Y-127273302D01*
X217190464Y-127603547D01*
X217059752Y-127918337D01*
X217059712Y-127917507D01*
X216894896Y-127519604D01*
X216649398Y-127446207D01*
X215825605Y-128270000D01*
X216649398Y-129093793D01*
X216894896Y-129020396D01*
X217048234Y-128593303D01*
X217189302Y-128934715D01*
X217519547Y-129265536D01*
X217687829Y-129335413D01*
X217716669Y-129480403D01*
X217826790Y-129645210D01*
X220366789Y-132185210D01*
X220366792Y-132185212D01*
X222293580Y-134112000D01*
X221571420Y-134112000D01*
X218291210Y-130831790D01*
X218126403Y-130721669D01*
X217932000Y-130683000D01*
X216237420Y-130683000D01*
X215172857Y-129618437D01*
X215430657Y-129710994D01*
X215998493Y-129683712D01*
X216396396Y-129518896D01*
X216469793Y-129273398D01*
X215646000Y-128449605D01*
X215631858Y-128463748D01*
X215452253Y-128284143D01*
X215466395Y-128270000D01*
X214642602Y-127446207D01*
X214397104Y-127519604D01*
X214243766Y-127946697D01*
X214102698Y-127605285D01*
X213772453Y-127274464D01*
X213537734Y-127177000D01*
X214848995Y-127177000D01*
X214822207Y-127266602D01*
M02*
