G04 #@! TF.FileFunction,Legend,Bot*
%FSLAX46Y46*%
G04 Gerber Fmt 4.6, Leading zero omitted, Abs format (unit mm)*
G04 Created by KiCad (PCBNEW 4.0.2-stable) date 2016 March 27, Sunday 01:25:21*
%MOMM*%
G01*
G04 APERTURE LIST*
%ADD10C,0.150000*%
%ADD11C,0.300000*%
%ADD12C,1.000000*%
%ADD13C,0.187500*%
%ADD14C,0.500000*%
%ADD15C,0.200000*%
%ADD16C,0.000120*%
%ADD17R,1.540000X1.540000*%
%ADD18C,1.100000*%
%ADD19O,2.600000X2.300000*%
%ADD20O,2.800000X2.600000*%
%ADD21C,1.588000*%
%ADD22R,1.588000X1.588000*%
%ADD23R,2.540000X1.750000*%
%ADD24O,2.540000X1.750000*%
%ADD25R,8.890000X8.890000*%
%ADD26C,1.397000*%
%ADD27R,1.397000X1.397000*%
%ADD28O,1.574800X2.286000*%
%ADD29R,1.574800X2.286000*%
%ADD30C,6.000000*%
%ADD31R,1.651000X1.651000*%
%ADD32C,1.651000*%
G04 APERTURE END LIST*
D10*
D11*
X247587143Y-162927143D02*
X247372857Y-162998571D01*
X247015714Y-162998571D01*
X246872857Y-162927143D01*
X246801428Y-162855714D01*
X246730000Y-162712857D01*
X246730000Y-162570000D01*
X246801428Y-162427143D01*
X246872857Y-162355714D01*
X247015714Y-162284286D01*
X247301428Y-162212857D01*
X247444286Y-162141429D01*
X247515714Y-162070000D01*
X247587143Y-161927143D01*
X247587143Y-161784286D01*
X247515714Y-161641429D01*
X247444286Y-161570000D01*
X247301428Y-161498571D01*
X246944286Y-161498571D01*
X246730000Y-161570000D01*
X245015715Y-161427143D02*
X246301429Y-163355714D01*
X244515714Y-162998571D02*
X244515714Y-161498571D01*
X243658571Y-162998571D01*
X243658571Y-161498571D01*
X242944285Y-162855714D02*
X242872857Y-162927143D01*
X242944285Y-162998571D01*
X243015714Y-162927143D01*
X242944285Y-162855714D01*
X242944285Y-162998571D01*
X242944285Y-162070000D02*
X242872857Y-162141429D01*
X242944285Y-162212857D01*
X243015714Y-162141429D01*
X242944285Y-162070000D01*
X242944285Y-162212857D01*
D12*
X240230000Y-164070000D02*
X240230000Y-171070000D01*
X240730000Y-164070000D02*
X240730000Y-171070000D01*
X241230000Y-164070000D02*
X241230000Y-171070000D01*
X241730000Y-164070000D02*
X241730000Y-171070000D01*
X242230000Y-164070000D02*
X242230000Y-171070000D01*
X242730000Y-164070000D02*
X242730000Y-171070000D01*
X243230000Y-164070000D02*
X243230000Y-171070000D01*
X243730000Y-164070000D02*
X243730000Y-171070000D01*
X244230000Y-164070000D02*
X244230000Y-171070000D01*
X244730000Y-164070000D02*
X244730000Y-171070000D01*
X245230000Y-164070000D02*
X245230000Y-171070000D01*
X245730000Y-164070000D02*
X245730000Y-171070000D01*
X246230000Y-164070000D02*
X246230000Y-171070000D01*
X246730000Y-164070000D02*
X246730000Y-171070000D01*
X247230000Y-164070000D02*
X247230000Y-171070000D01*
X247730000Y-164070000D02*
X247730000Y-171070000D01*
X248230000Y-164070000D02*
X248230000Y-171070000D01*
X248730000Y-164070000D02*
X248730000Y-171070000D01*
X249230000Y-164070000D02*
X249230000Y-171070000D01*
X249730000Y-164070000D02*
X249730000Y-171070000D01*
X250230000Y-164070000D02*
X250230000Y-171070000D01*
X240230000Y-164070000D02*
X250230000Y-164070000D01*
X240230000Y-171070000D02*
X250230000Y-171070000D01*
D13*
X256018536Y-163137571D02*
X256625679Y-163137571D01*
X256697107Y-163173286D01*
X256732821Y-163209000D01*
X256768536Y-163280429D01*
X256768536Y-163423286D01*
X256732821Y-163494714D01*
X256697107Y-163530429D01*
X256625679Y-163566143D01*
X256018536Y-163566143D01*
X256732821Y-163887571D02*
X256768536Y-163994714D01*
X256768536Y-164173285D01*
X256732821Y-164244714D01*
X256697107Y-164280428D01*
X256625679Y-164316143D01*
X256554250Y-164316143D01*
X256482821Y-164280428D01*
X256447107Y-164244714D01*
X256411393Y-164173285D01*
X256375679Y-164030428D01*
X256339964Y-163959000D01*
X256304250Y-163923285D01*
X256232821Y-163887571D01*
X256161393Y-163887571D01*
X256089964Y-163923285D01*
X256054250Y-163959000D01*
X256018536Y-164030428D01*
X256018536Y-164209000D01*
X256054250Y-164316143D01*
X256375679Y-164887571D02*
X256411393Y-164994714D01*
X256447107Y-165030429D01*
X256518536Y-165066143D01*
X256625679Y-165066143D01*
X256697107Y-165030429D01*
X256732821Y-164994714D01*
X256768536Y-164923286D01*
X256768536Y-164637571D01*
X256018536Y-164637571D01*
X256018536Y-164887571D01*
X256054250Y-164959000D01*
X256089964Y-164994714D01*
X256161393Y-165030429D01*
X256232821Y-165030429D01*
X256304250Y-164994714D01*
X256339964Y-164959000D01*
X256375679Y-164887571D01*
X256375679Y-164637571D01*
X258006036Y-162869714D02*
X257506036Y-162869714D01*
X257648893Y-162869714D02*
X257577464Y-162905429D01*
X257541750Y-162941143D01*
X257506036Y-163012572D01*
X257506036Y-163084000D01*
X257970321Y-163619715D02*
X258006036Y-163548286D01*
X258006036Y-163405429D01*
X257970321Y-163334000D01*
X257898893Y-163298286D01*
X257613179Y-163298286D01*
X257541750Y-163334000D01*
X257506036Y-163405429D01*
X257506036Y-163548286D01*
X257541750Y-163619715D01*
X257613179Y-163655429D01*
X257684607Y-163655429D01*
X257756036Y-163298286D01*
X257970321Y-163941143D02*
X258006036Y-164012572D01*
X258006036Y-164155429D01*
X257970321Y-164226857D01*
X257898893Y-164262572D01*
X257863179Y-164262572D01*
X257791750Y-164226857D01*
X257756036Y-164155429D01*
X257756036Y-164048286D01*
X257720321Y-163976857D01*
X257648893Y-163941143D01*
X257613179Y-163941143D01*
X257541750Y-163976857D01*
X257506036Y-164048286D01*
X257506036Y-164155429D01*
X257541750Y-164226857D01*
X257970321Y-164869715D02*
X258006036Y-164798286D01*
X258006036Y-164655429D01*
X257970321Y-164584000D01*
X257898893Y-164548286D01*
X257613179Y-164548286D01*
X257541750Y-164584000D01*
X257506036Y-164655429D01*
X257506036Y-164798286D01*
X257541750Y-164869715D01*
X257613179Y-164905429D01*
X257684607Y-164905429D01*
X257756036Y-164548286D01*
X257506036Y-165119715D02*
X257506036Y-165405429D01*
X257256036Y-165226857D02*
X257898893Y-165226857D01*
X257970321Y-165262572D01*
X258006036Y-165334000D01*
X258006036Y-165405429D01*
X226808536Y-159897142D02*
X226951393Y-159897142D01*
X226808536Y-160182856D02*
X226951393Y-160182856D01*
X227558536Y-160504285D02*
X226808536Y-160504285D01*
X226808536Y-160790000D01*
X226844250Y-160861428D01*
X226879964Y-160897143D01*
X226951393Y-160932857D01*
X227058536Y-160932857D01*
X227129964Y-160897143D01*
X227165679Y-160861428D01*
X227201393Y-160790000D01*
X227201393Y-160504285D01*
X226808536Y-161147143D02*
X226808536Y-161575714D01*
X227558536Y-161361428D02*
X226808536Y-161361428D01*
X227558536Y-162182857D02*
X227558536Y-161825714D01*
X226808536Y-161825714D01*
X226808536Y-162397143D02*
X226951393Y-162397143D01*
X226808536Y-162682857D02*
X226951393Y-162682857D01*
X228796036Y-159968572D02*
X228296036Y-159968572D01*
X228367464Y-159968572D02*
X228331750Y-160004287D01*
X228296036Y-160075715D01*
X228296036Y-160182858D01*
X228331750Y-160254287D01*
X228403179Y-160290001D01*
X228796036Y-160290001D01*
X228403179Y-160290001D02*
X228331750Y-160325715D01*
X228296036Y-160397144D01*
X228296036Y-160504287D01*
X228331750Y-160575715D01*
X228403179Y-160611430D01*
X228796036Y-160611430D01*
X228796036Y-161075715D02*
X228760321Y-161004287D01*
X228724607Y-160968572D01*
X228653179Y-160932858D01*
X228438893Y-160932858D01*
X228367464Y-160968572D01*
X228331750Y-161004287D01*
X228296036Y-161075715D01*
X228296036Y-161182858D01*
X228331750Y-161254287D01*
X228367464Y-161290001D01*
X228438893Y-161325715D01*
X228653179Y-161325715D01*
X228724607Y-161290001D01*
X228760321Y-161254287D01*
X228796036Y-161182858D01*
X228796036Y-161075715D01*
X228796036Y-161968572D02*
X228046036Y-161968572D01*
X228760321Y-161968572D02*
X228796036Y-161897143D01*
X228796036Y-161754286D01*
X228760321Y-161682858D01*
X228724607Y-161647143D01*
X228653179Y-161611429D01*
X228438893Y-161611429D01*
X228367464Y-161647143D01*
X228331750Y-161682858D01*
X228296036Y-161754286D01*
X228296036Y-161897143D01*
X228331750Y-161968572D01*
X228760321Y-162611429D02*
X228796036Y-162540000D01*
X228796036Y-162397143D01*
X228760321Y-162325714D01*
X228688893Y-162290000D01*
X228403179Y-162290000D01*
X228331750Y-162325714D01*
X228296036Y-162397143D01*
X228296036Y-162540000D01*
X228331750Y-162611429D01*
X228403179Y-162647143D01*
X228474607Y-162647143D01*
X228546036Y-162290000D01*
D14*
X226568000Y-144018000D02*
X227076000Y-144018000D01*
X227838000Y-143256000D02*
X228346000Y-143256000D01*
D15*
X227838000Y-142748000D02*
X228346000Y-142748000D01*
X228346000Y-142748000D02*
X228600000Y-143002000D01*
X228600000Y-143002000D02*
X227584000Y-143002000D01*
X227584000Y-143002000D02*
X227838000Y-142748000D01*
X227584000Y-143510000D02*
X228600000Y-143510000D01*
X228600000Y-143510000D02*
X228600000Y-143764000D01*
X228600000Y-143764000D02*
X227584000Y-143764000D01*
X227584000Y-143764000D02*
X227584000Y-143510000D01*
X227584000Y-144272000D02*
X228600000Y-144272000D01*
X228600000Y-144272000D02*
X228346000Y-144526000D01*
X228346000Y-144526000D02*
X227838000Y-144526000D01*
X227838000Y-144526000D02*
X227584000Y-144272000D01*
X226568000Y-144526000D02*
X226314000Y-144272000D01*
X227076000Y-144526000D02*
X226568000Y-144526000D01*
X227330000Y-144272000D02*
X227076000Y-144526000D01*
X226314000Y-144272000D02*
X227330000Y-144272000D01*
X226314000Y-143764000D02*
X226314000Y-143510000D01*
X227330000Y-143764000D02*
X226314000Y-143764000D01*
X227330000Y-143510000D02*
X227330000Y-143764000D01*
X226314000Y-143510000D02*
X227330000Y-143510000D01*
X226314000Y-143002000D02*
X226568000Y-142748000D01*
X227330000Y-143002000D02*
X226314000Y-143002000D01*
X227076000Y-142748000D02*
X227330000Y-143002000D01*
X226568000Y-142748000D02*
X227076000Y-142748000D01*
D13*
X227681286Y-140529715D02*
X228431286Y-140779715D01*
X227681286Y-141029715D01*
X228431286Y-141279714D02*
X227931286Y-141279714D01*
X227681286Y-141279714D02*
X227717000Y-141244000D01*
X227752714Y-141279714D01*
X227717000Y-141315429D01*
X227681286Y-141279714D01*
X227752714Y-141279714D01*
X227931286Y-141636857D02*
X228431286Y-141636857D01*
X228002714Y-141636857D02*
X227967000Y-141672572D01*
X227931286Y-141744000D01*
X227931286Y-141851143D01*
X227967000Y-141922572D01*
X228038429Y-141958286D01*
X228431286Y-141958286D01*
X228359857Y-142315428D02*
X228395571Y-142351143D01*
X228431286Y-142315428D01*
X228395571Y-142279714D01*
X228359857Y-142315428D01*
X228431286Y-142315428D01*
X227967000Y-142315428D02*
X228002714Y-142351143D01*
X228038429Y-142315428D01*
X228002714Y-142279714D01*
X227967000Y-142315428D01*
X228038429Y-142315428D01*
X226411286Y-140065428D02*
X227018429Y-140065428D01*
X227089857Y-140101143D01*
X227125571Y-140136857D01*
X227161286Y-140208286D01*
X227161286Y-140351143D01*
X227125571Y-140422571D01*
X227089857Y-140458286D01*
X227018429Y-140494000D01*
X226411286Y-140494000D01*
X227125571Y-140815428D02*
X227161286Y-140922571D01*
X227161286Y-141101142D01*
X227125571Y-141172571D01*
X227089857Y-141208285D01*
X227018429Y-141244000D01*
X226947000Y-141244000D01*
X226875571Y-141208285D01*
X226839857Y-141172571D01*
X226804143Y-141101142D01*
X226768429Y-140958285D01*
X226732714Y-140886857D01*
X226697000Y-140851142D01*
X226625571Y-140815428D01*
X226554143Y-140815428D01*
X226482714Y-140851142D01*
X226447000Y-140886857D01*
X226411286Y-140958285D01*
X226411286Y-141136857D01*
X226447000Y-141244000D01*
X226768429Y-141815428D02*
X226804143Y-141922571D01*
X226839857Y-141958286D01*
X226911286Y-141994000D01*
X227018429Y-141994000D01*
X227089857Y-141958286D01*
X227125571Y-141922571D01*
X227161286Y-141851143D01*
X227161286Y-141565428D01*
X226411286Y-141565428D01*
X226411286Y-141815428D01*
X226447000Y-141886857D01*
X226482714Y-141922571D01*
X226554143Y-141958286D01*
X226625571Y-141958286D01*
X226697000Y-141922571D01*
X226732714Y-141886857D01*
X226768429Y-141815428D01*
X226768429Y-141565428D01*
X227089857Y-142315428D02*
X227125571Y-142351143D01*
X227161286Y-142315428D01*
X227125571Y-142279714D01*
X227089857Y-142315428D01*
X227161286Y-142315428D01*
X226697000Y-142315428D02*
X226732714Y-142351143D01*
X226768429Y-142315428D01*
X226732714Y-142279714D01*
X226697000Y-142315428D01*
X226768429Y-142315428D01*
X223502536Y-140793572D02*
X224252536Y-140793572D01*
X223538250Y-140793572D02*
X223502536Y-140865001D01*
X223502536Y-141007858D01*
X223538250Y-141079287D01*
X223573964Y-141115001D01*
X223645393Y-141150715D01*
X223859679Y-141150715D01*
X223931107Y-141115001D01*
X223966821Y-141079287D01*
X224002536Y-141007858D01*
X224002536Y-140865001D01*
X223966821Y-140793572D01*
X224002536Y-141579286D02*
X223966821Y-141507858D01*
X223931107Y-141472143D01*
X223859679Y-141436429D01*
X223645393Y-141436429D01*
X223573964Y-141472143D01*
X223538250Y-141507858D01*
X223502536Y-141579286D01*
X223502536Y-141686429D01*
X223538250Y-141757858D01*
X223573964Y-141793572D01*
X223645393Y-141829286D01*
X223859679Y-141829286D01*
X223931107Y-141793572D01*
X223966821Y-141757858D01*
X224002536Y-141686429D01*
X224002536Y-141579286D01*
X223502536Y-142079286D02*
X224002536Y-142222143D01*
X223645393Y-142365000D01*
X224002536Y-142507857D01*
X223502536Y-142650714D01*
X223966821Y-143222143D02*
X224002536Y-143150714D01*
X224002536Y-143007857D01*
X223966821Y-142936428D01*
X223895393Y-142900714D01*
X223609679Y-142900714D01*
X223538250Y-142936428D01*
X223502536Y-143007857D01*
X223502536Y-143150714D01*
X223538250Y-143222143D01*
X223609679Y-143257857D01*
X223681107Y-143257857D01*
X223752536Y-142900714D01*
X224002536Y-143579285D02*
X223502536Y-143579285D01*
X223645393Y-143579285D02*
X223573964Y-143615000D01*
X223538250Y-143650714D01*
X223502536Y-143722143D01*
X223502536Y-143793571D01*
X225204321Y-139847144D02*
X225240036Y-139918573D01*
X225240036Y-140061430D01*
X225204321Y-140132858D01*
X225132893Y-140168573D01*
X225097179Y-140168573D01*
X225025750Y-140132858D01*
X224990036Y-140061430D01*
X224990036Y-139954287D01*
X224954321Y-139882858D01*
X224882893Y-139847144D01*
X224847179Y-139847144D01*
X224775750Y-139882858D01*
X224740036Y-139954287D01*
X224740036Y-140061430D01*
X224775750Y-140132858D01*
X225204321Y-140775716D02*
X225240036Y-140704287D01*
X225240036Y-140561430D01*
X225204321Y-140490001D01*
X225132893Y-140454287D01*
X224847179Y-140454287D01*
X224775750Y-140490001D01*
X224740036Y-140561430D01*
X224740036Y-140704287D01*
X224775750Y-140775716D01*
X224847179Y-140811430D01*
X224918607Y-140811430D01*
X224990036Y-140454287D01*
X225240036Y-141240001D02*
X225204321Y-141168573D01*
X225132893Y-141132858D01*
X224490036Y-141132858D01*
X225204321Y-141811430D02*
X225240036Y-141740001D01*
X225240036Y-141597144D01*
X225204321Y-141525715D01*
X225132893Y-141490001D01*
X224847179Y-141490001D01*
X224775750Y-141525715D01*
X224740036Y-141597144D01*
X224740036Y-141740001D01*
X224775750Y-141811430D01*
X224847179Y-141847144D01*
X224918607Y-141847144D01*
X224990036Y-141490001D01*
X225204321Y-142490001D02*
X225240036Y-142418572D01*
X225240036Y-142275715D01*
X225204321Y-142204287D01*
X225168607Y-142168572D01*
X225097179Y-142132858D01*
X224882893Y-142132858D01*
X224811464Y-142168572D01*
X224775750Y-142204287D01*
X224740036Y-142275715D01*
X224740036Y-142418572D01*
X224775750Y-142490001D01*
X224740036Y-142704287D02*
X224740036Y-142990001D01*
X224490036Y-142811429D02*
X225132893Y-142811429D01*
X225204321Y-142847144D01*
X225240036Y-142918572D01*
X225240036Y-142990001D01*
X225240036Y-143240000D02*
X224740036Y-143240000D01*
X224490036Y-143240000D02*
X224525750Y-143204286D01*
X224561464Y-143240000D01*
X224525750Y-143275715D01*
X224490036Y-143240000D01*
X224561464Y-143240000D01*
X225240036Y-143704286D02*
X225204321Y-143632858D01*
X225168607Y-143597143D01*
X225097179Y-143561429D01*
X224882893Y-143561429D01*
X224811464Y-143597143D01*
X224775750Y-143632858D01*
X224740036Y-143704286D01*
X224740036Y-143811429D01*
X224775750Y-143882858D01*
X224811464Y-143918572D01*
X224882893Y-143954286D01*
X225097179Y-143954286D01*
X225168607Y-143918572D01*
X225204321Y-143882858D01*
X225240036Y-143811429D01*
X225240036Y-143704286D01*
X224740036Y-144275714D02*
X225240036Y-144275714D01*
X224811464Y-144275714D02*
X224775750Y-144311429D01*
X224740036Y-144382857D01*
X224740036Y-144490000D01*
X224775750Y-144561429D01*
X224847179Y-144597143D01*
X225240036Y-144597143D01*
D15*
X222885000Y-147066000D02*
X222885000Y-144272000D01*
X225425000Y-149606000D02*
X222885000Y-147066000D01*
D11*
X252480000Y-174720286D02*
X252480000Y-174006000D01*
X252051429Y-174863143D02*
X253551429Y-174363143D01*
X252051429Y-173863143D01*
X253551429Y-172648857D02*
X253551429Y-173363143D01*
X252837143Y-173434572D01*
X252908571Y-173363143D01*
X252980000Y-173220286D01*
X252980000Y-172863143D01*
X252908571Y-172720286D01*
X252837143Y-172648857D01*
X252694286Y-172577429D01*
X252337143Y-172577429D01*
X252194286Y-172648857D01*
X252122857Y-172720286D01*
X252051429Y-172863143D01*
X252051429Y-173220286D01*
X252122857Y-173363143D01*
X252194286Y-173434572D01*
X249940000Y-174720286D02*
X249940000Y-174006000D01*
X249511429Y-174863143D02*
X251011429Y-174363143D01*
X249511429Y-173863143D01*
X250511429Y-172720286D02*
X249511429Y-172720286D01*
X251082857Y-173077429D02*
X250011429Y-173434572D01*
X250011429Y-172506000D01*
X247400000Y-174720286D02*
X247400000Y-174006000D01*
X246971429Y-174863143D02*
X248471429Y-174363143D01*
X246971429Y-173863143D01*
X248471429Y-173506000D02*
X248471429Y-172577429D01*
X247900000Y-173077429D01*
X247900000Y-172863143D01*
X247828571Y-172720286D01*
X247757143Y-172648857D01*
X247614286Y-172577429D01*
X247257143Y-172577429D01*
X247114286Y-172648857D01*
X247042857Y-172720286D01*
X246971429Y-172863143D01*
X246971429Y-173291715D01*
X247042857Y-173434572D01*
X247114286Y-173506000D01*
X244860000Y-174720286D02*
X244860000Y-174006000D01*
X244431429Y-174863143D02*
X245931429Y-174363143D01*
X244431429Y-173863143D01*
X245788571Y-173434572D02*
X245860000Y-173363143D01*
X245931429Y-173220286D01*
X245931429Y-172863143D01*
X245860000Y-172720286D01*
X245788571Y-172648857D01*
X245645714Y-172577429D01*
X245502857Y-172577429D01*
X245288571Y-172648857D01*
X244431429Y-173506000D01*
X244431429Y-172577429D01*
X242320000Y-174720286D02*
X242320000Y-174006000D01*
X241891429Y-174863143D02*
X243391429Y-174363143D01*
X241891429Y-173863143D01*
X241891429Y-172577429D02*
X241891429Y-173434572D01*
X241891429Y-173006000D02*
X243391429Y-173006000D01*
X243177143Y-173148857D01*
X243034286Y-173291715D01*
X242962857Y-173434572D01*
X239780000Y-174720286D02*
X239780000Y-174006000D01*
X239351429Y-174863143D02*
X240851429Y-174363143D01*
X239351429Y-173863143D01*
X240851429Y-173077429D02*
X240851429Y-172934572D01*
X240780000Y-172791715D01*
X240708571Y-172720286D01*
X240565714Y-172648857D01*
X240280000Y-172577429D01*
X239922857Y-172577429D01*
X239637143Y-172648857D01*
X239494286Y-172720286D01*
X239422857Y-172791715D01*
X239351429Y-172934572D01*
X239351429Y-173077429D01*
X239422857Y-173220286D01*
X239494286Y-173291715D01*
X239637143Y-173363143D01*
X239922857Y-173434572D01*
X240280000Y-173434572D01*
X240565714Y-173363143D01*
X240708571Y-173291715D01*
X240780000Y-173220286D01*
X240851429Y-173077429D01*
X235771429Y-174863143D02*
X234271429Y-174363143D01*
X235771429Y-173863143D01*
X234271429Y-173363143D02*
X235271429Y-173363143D01*
X235771429Y-173363143D02*
X235700000Y-173434572D01*
X235628571Y-173363143D01*
X235700000Y-173291715D01*
X235771429Y-173363143D01*
X235628571Y-173363143D01*
X235271429Y-172648857D02*
X234271429Y-172648857D01*
X235128571Y-172648857D02*
X235200000Y-172577429D01*
X235271429Y-172434571D01*
X235271429Y-172220286D01*
X235200000Y-172077429D01*
X235057143Y-172006000D01*
X234271429Y-172006000D01*
X233160000Y-173863143D02*
X233231429Y-174006000D01*
X233231429Y-174220286D01*
X233160000Y-174434571D01*
X233017143Y-174577429D01*
X232874286Y-174648857D01*
X232588571Y-174720286D01*
X232374286Y-174720286D01*
X232088571Y-174648857D01*
X231945714Y-174577429D01*
X231802857Y-174434571D01*
X231731429Y-174220286D01*
X231731429Y-174077429D01*
X231802857Y-173863143D01*
X231874286Y-173791714D01*
X232374286Y-173791714D01*
X232374286Y-174077429D01*
X231731429Y-173148857D02*
X233231429Y-173148857D01*
X231731429Y-172291714D01*
X233231429Y-172291714D01*
X231731429Y-171577428D02*
X233231429Y-171577428D01*
X233231429Y-171220285D01*
X233160000Y-171006000D01*
X233017143Y-170863142D01*
X232874286Y-170791714D01*
X232588571Y-170720285D01*
X232374286Y-170720285D01*
X232088571Y-170791714D01*
X231945714Y-170863142D01*
X231802857Y-171006000D01*
X231731429Y-171220285D01*
X231731429Y-171577428D01*
X230620000Y-173863143D02*
X230691429Y-174006000D01*
X230691429Y-174220286D01*
X230620000Y-174434571D01*
X230477143Y-174577429D01*
X230334286Y-174648857D01*
X230048571Y-174720286D01*
X229834286Y-174720286D01*
X229548571Y-174648857D01*
X229405714Y-174577429D01*
X229262857Y-174434571D01*
X229191429Y-174220286D01*
X229191429Y-174077429D01*
X229262857Y-173863143D01*
X229334286Y-173791714D01*
X229834286Y-173791714D01*
X229834286Y-174077429D01*
X229191429Y-173148857D02*
X230691429Y-173148857D01*
X229191429Y-172291714D01*
X230691429Y-172291714D01*
X229191429Y-171577428D02*
X230691429Y-171577428D01*
X230691429Y-171220285D01*
X230620000Y-171006000D01*
X230477143Y-170863142D01*
X230334286Y-170791714D01*
X230048571Y-170720285D01*
X229834286Y-170720285D01*
X229548571Y-170791714D01*
X229405714Y-170863142D01*
X229262857Y-171006000D01*
X229191429Y-171220285D01*
X229191429Y-171577428D01*
X228151429Y-173934571D02*
X228151429Y-174648857D01*
X227437143Y-174720286D01*
X227508571Y-174648857D01*
X227580000Y-174506000D01*
X227580000Y-174148857D01*
X227508571Y-174006000D01*
X227437143Y-173934571D01*
X227294286Y-173863143D01*
X226937143Y-173863143D01*
X226794286Y-173934571D01*
X226722857Y-174006000D01*
X226651429Y-174148857D01*
X226651429Y-174506000D01*
X226722857Y-174648857D01*
X226794286Y-174720286D01*
X228151429Y-173434572D02*
X226651429Y-172934572D01*
X228151429Y-172434572D01*
X225611429Y-174791714D02*
X225611429Y-173863143D01*
X225040000Y-174363143D01*
X225040000Y-174148857D01*
X224968571Y-174006000D01*
X224897143Y-173934571D01*
X224754286Y-173863143D01*
X224397143Y-173863143D01*
X224254286Y-173934571D01*
X224182857Y-174006000D01*
X224111429Y-174148857D01*
X224111429Y-174577429D01*
X224182857Y-174720286D01*
X224254286Y-174791714D01*
X224254286Y-173220286D02*
X224182857Y-173148858D01*
X224111429Y-173220286D01*
X224182857Y-173291715D01*
X224254286Y-173220286D01*
X224111429Y-173220286D01*
X225611429Y-172648857D02*
X225611429Y-171720286D01*
X225040000Y-172220286D01*
X225040000Y-172006000D01*
X224968571Y-171863143D01*
X224897143Y-171791714D01*
X224754286Y-171720286D01*
X224397143Y-171720286D01*
X224254286Y-171791714D01*
X224182857Y-171863143D01*
X224111429Y-172006000D01*
X224111429Y-172434572D01*
X224182857Y-172577429D01*
X224254286Y-172648857D01*
X225611429Y-171291715D02*
X224111429Y-170791715D01*
X225611429Y-170291715D01*
X221571429Y-173791714D02*
X222285714Y-174291714D01*
X221571429Y-174648857D02*
X223071429Y-174648857D01*
X223071429Y-174077429D01*
X223000000Y-173934571D01*
X222928571Y-173863143D01*
X222785714Y-173791714D01*
X222571429Y-173791714D01*
X222428571Y-173863143D01*
X222357143Y-173934571D01*
X222285714Y-174077429D01*
X222285714Y-174648857D01*
X221642857Y-173220286D02*
X221571429Y-173006000D01*
X221571429Y-172648857D01*
X221642857Y-172506000D01*
X221714286Y-172434571D01*
X221857143Y-172363143D01*
X222000000Y-172363143D01*
X222142857Y-172434571D01*
X222214286Y-172506000D01*
X222285714Y-172648857D01*
X222357143Y-172934571D01*
X222428571Y-173077429D01*
X222500000Y-173148857D01*
X222642857Y-173220286D01*
X222785714Y-173220286D01*
X222928571Y-173148857D01*
X223000000Y-173077429D01*
X223071429Y-172934571D01*
X223071429Y-172577429D01*
X223000000Y-172363143D01*
X223071429Y-171934572D02*
X223071429Y-171077429D01*
X221571429Y-171506000D02*
X223071429Y-171506000D01*
X223330000Y-175006000D02*
X223330000Y-170934572D01*
X220531429Y-173934571D02*
X220531429Y-174648857D01*
X219817143Y-174720286D01*
X219888571Y-174648857D01*
X219960000Y-174506000D01*
X219960000Y-174148857D01*
X219888571Y-174006000D01*
X219817143Y-173934571D01*
X219674286Y-173863143D01*
X219317143Y-173863143D01*
X219174286Y-173934571D01*
X219102857Y-174006000D01*
X219031429Y-174148857D01*
X219031429Y-174506000D01*
X219102857Y-174648857D01*
X219174286Y-174720286D01*
X220531429Y-173434572D02*
X219031429Y-172934572D01*
X220531429Y-172434572D01*
X216491429Y-174639928D02*
X217991429Y-174452428D01*
X216491429Y-173782785D01*
X217991429Y-173595285D01*
X216634286Y-172193499D02*
X216562857Y-172273857D01*
X216491429Y-172497071D01*
X216491429Y-172639928D01*
X216562857Y-172845285D01*
X216705714Y-172970286D01*
X216848571Y-173023857D01*
X217134286Y-173059571D01*
X217348571Y-173032786D01*
X217634286Y-172925642D01*
X217777143Y-172836357D01*
X217920000Y-172675642D01*
X217991429Y-172452428D01*
X217991429Y-172309571D01*
X217920000Y-172104214D01*
X217848571Y-172041714D01*
X253551429Y-130579714D02*
X253551429Y-130436857D01*
X253480000Y-130294000D01*
X253408571Y-130222571D01*
X253265714Y-130151142D01*
X252980000Y-130079714D01*
X252622857Y-130079714D01*
X252337143Y-130151142D01*
X252194286Y-130222571D01*
X252122857Y-130294000D01*
X252051429Y-130436857D01*
X252051429Y-130579714D01*
X252122857Y-130722571D01*
X252194286Y-130794000D01*
X252337143Y-130865428D01*
X252622857Y-130936857D01*
X252980000Y-130936857D01*
X253265714Y-130865428D01*
X253408571Y-130794000D01*
X253480000Y-130722571D01*
X253551429Y-130579714D01*
X249511429Y-130079714D02*
X249511429Y-130936857D01*
X249511429Y-130508285D02*
X251011429Y-130508285D01*
X250797143Y-130651142D01*
X250654286Y-130794000D01*
X250582857Y-130936857D01*
X248328571Y-130936857D02*
X248400000Y-130865428D01*
X248471429Y-130722571D01*
X248471429Y-130365428D01*
X248400000Y-130222571D01*
X248328571Y-130151142D01*
X248185714Y-130079714D01*
X248042857Y-130079714D01*
X247828571Y-130151142D01*
X246971429Y-131008285D01*
X246971429Y-130079714D01*
X245931429Y-131008285D02*
X245931429Y-130079714D01*
X245360000Y-130579714D01*
X245360000Y-130365428D01*
X245288571Y-130222571D01*
X245217143Y-130151142D01*
X245074286Y-130079714D01*
X244717143Y-130079714D01*
X244574286Y-130151142D01*
X244502857Y-130222571D01*
X244431429Y-130365428D01*
X244431429Y-130794000D01*
X244502857Y-130936857D01*
X244574286Y-131008285D01*
X242891429Y-130222571D02*
X241891429Y-130222571D01*
X243462857Y-130579714D02*
X242391429Y-130936857D01*
X242391429Y-130008285D01*
X240851429Y-130151142D02*
X240851429Y-130865428D01*
X240137143Y-130936857D01*
X240208571Y-130865428D01*
X240280000Y-130722571D01*
X240280000Y-130365428D01*
X240208571Y-130222571D01*
X240137143Y-130151142D01*
X239994286Y-130079714D01*
X239637143Y-130079714D01*
X239494286Y-130151142D01*
X239422857Y-130222571D01*
X239351429Y-130365428D01*
X239351429Y-130722571D01*
X239422857Y-130865428D01*
X239494286Y-130936857D01*
X238311429Y-130222571D02*
X238311429Y-130508285D01*
X238240000Y-130651142D01*
X238168571Y-130722571D01*
X237954286Y-130865428D01*
X237668571Y-130936857D01*
X237097143Y-130936857D01*
X236954286Y-130865428D01*
X236882857Y-130794000D01*
X236811429Y-130651142D01*
X236811429Y-130365428D01*
X236882857Y-130222571D01*
X236954286Y-130151142D01*
X237097143Y-130079714D01*
X237454286Y-130079714D01*
X237597143Y-130151142D01*
X237668571Y-130222571D01*
X237740000Y-130365428D01*
X237740000Y-130651142D01*
X237668571Y-130794000D01*
X237597143Y-130865428D01*
X237454286Y-130936857D01*
X235771429Y-131008285D02*
X235771429Y-130008285D01*
X234271429Y-130651142D01*
X231064571Y-130651142D02*
X231136000Y-130794000D01*
X231207429Y-130865428D01*
X231350286Y-130936857D01*
X231421714Y-130936857D01*
X231564571Y-130865428D01*
X231636000Y-130794000D01*
X231707429Y-130651142D01*
X231707429Y-130365428D01*
X231636000Y-130222571D01*
X231564571Y-130151142D01*
X231421714Y-130079714D01*
X231350286Y-130079714D01*
X231207429Y-130151142D01*
X231136000Y-130222571D01*
X231064571Y-130365428D01*
X231064571Y-130651142D01*
X230993143Y-130794000D01*
X230921714Y-130865428D01*
X230778857Y-130936857D01*
X230493143Y-130936857D01*
X230350286Y-130865428D01*
X230278857Y-130794000D01*
X230207429Y-130651142D01*
X230207429Y-130365428D01*
X230278857Y-130222571D01*
X230350286Y-130151142D01*
X230493143Y-130079714D01*
X230778857Y-130079714D01*
X230921714Y-130151142D01*
X230993143Y-130222571D01*
X231064571Y-130365428D01*
X227667429Y-130794000D02*
X227667429Y-130508285D01*
X227738857Y-130365428D01*
X227810286Y-130294000D01*
X228024571Y-130151142D01*
X228310286Y-130079714D01*
X228881714Y-130079714D01*
X229024571Y-130151142D01*
X229096000Y-130222571D01*
X229167429Y-130365428D01*
X229167429Y-130651142D01*
X229096000Y-130794000D01*
X229024571Y-130865428D01*
X228881714Y-130936857D01*
X228524571Y-130936857D01*
X228381714Y-130865428D01*
X228310286Y-130794000D01*
X228238857Y-130651142D01*
X228238857Y-130365428D01*
X228310286Y-130222571D01*
X228381714Y-130151142D01*
X228524571Y-130079714D01*
X225127429Y-131508285D02*
X225127429Y-132365428D01*
X225127429Y-131936856D02*
X226627429Y-131936856D01*
X226413143Y-132079713D01*
X226270286Y-132222571D01*
X226198857Y-132365428D01*
X226627429Y-130579714D02*
X226627429Y-130436857D01*
X226556000Y-130294000D01*
X226484571Y-130222571D01*
X226341714Y-130151142D01*
X226056000Y-130079714D01*
X225698857Y-130079714D01*
X225413143Y-130151142D01*
X225270286Y-130222571D01*
X225198857Y-130294000D01*
X225127429Y-130436857D01*
X225127429Y-130579714D01*
X225198857Y-130722571D01*
X225270286Y-130794000D01*
X225413143Y-130865428D01*
X225698857Y-130936857D01*
X226056000Y-130936857D01*
X226341714Y-130865428D01*
X226484571Y-130794000D01*
X226556000Y-130722571D01*
X226627429Y-130579714D01*
X222587429Y-131508285D02*
X222587429Y-132365428D01*
X222587429Y-131936856D02*
X224087429Y-131936856D01*
X223873143Y-132079713D01*
X223730286Y-132222571D01*
X223658857Y-132365428D01*
X222587429Y-130079714D02*
X222587429Y-130936857D01*
X222587429Y-130508285D02*
X224087429Y-130508285D01*
X223873143Y-130651142D01*
X223730286Y-130794000D01*
X223658857Y-130936857D01*
X220047429Y-131508285D02*
X220047429Y-132365428D01*
X220047429Y-131936856D02*
X221547429Y-131936856D01*
X221333143Y-132079713D01*
X221190286Y-132222571D01*
X221118857Y-132365428D01*
X221404571Y-130936857D02*
X221476000Y-130865428D01*
X221547429Y-130722571D01*
X221547429Y-130365428D01*
X221476000Y-130222571D01*
X221404571Y-130151142D01*
X221261714Y-130079714D01*
X221118857Y-130079714D01*
X220904571Y-130151142D01*
X220047429Y-131008285D01*
X220047429Y-130079714D01*
X217507429Y-131508285D02*
X217507429Y-132365428D01*
X217507429Y-131936856D02*
X219007429Y-131936856D01*
X218793143Y-132079713D01*
X218650286Y-132222571D01*
X218578857Y-132365428D01*
X219007429Y-131008285D02*
X219007429Y-130079714D01*
X218436000Y-130579714D01*
X218436000Y-130365428D01*
X218364571Y-130222571D01*
X218293143Y-130151142D01*
X218150286Y-130079714D01*
X217793143Y-130079714D01*
X217650286Y-130151142D01*
X217578857Y-130222571D01*
X217507429Y-130365428D01*
X217507429Y-130794000D01*
X217578857Y-130936857D01*
X217650286Y-131008285D01*
X216396000Y-133222572D02*
X216467429Y-133365429D01*
X216467429Y-133579715D01*
X216396000Y-133794000D01*
X216253143Y-133936858D01*
X216110286Y-134008286D01*
X215824571Y-134079715D01*
X215610286Y-134079715D01*
X215324571Y-134008286D01*
X215181714Y-133936858D01*
X215038857Y-133794000D01*
X214967429Y-133579715D01*
X214967429Y-133436858D01*
X215038857Y-133222572D01*
X215110286Y-133151143D01*
X215610286Y-133151143D01*
X215610286Y-133436858D01*
X214967429Y-132508286D02*
X216467429Y-132508286D01*
X214967429Y-131651143D01*
X216467429Y-131651143D01*
X214967429Y-130936857D02*
X216467429Y-130936857D01*
X216467429Y-130579714D01*
X216396000Y-130365429D01*
X216253143Y-130222571D01*
X216110286Y-130151143D01*
X215824571Y-130079714D01*
X215610286Y-130079714D01*
X215324571Y-130151143D01*
X215181714Y-130222571D01*
X215038857Y-130365429D01*
X214967429Y-130579714D01*
X214967429Y-130936857D01*
X212856000Y-134936857D02*
X212856000Y-134222571D01*
X212427429Y-135079714D02*
X213927429Y-134579714D01*
X212427429Y-134079714D01*
X212427429Y-132722571D02*
X213141714Y-133222571D01*
X212427429Y-133579714D02*
X213927429Y-133579714D01*
X213927429Y-133008286D01*
X213856000Y-132865428D01*
X213784571Y-132794000D01*
X213641714Y-132722571D01*
X213427429Y-132722571D01*
X213284571Y-132794000D01*
X213213143Y-132865428D01*
X213141714Y-133008286D01*
X213141714Y-133579714D01*
X213213143Y-132079714D02*
X213213143Y-131579714D01*
X212427429Y-131365428D02*
X212427429Y-132079714D01*
X213927429Y-132079714D01*
X213927429Y-131365428D01*
X213213143Y-130222571D02*
X213213143Y-130722571D01*
X212427429Y-130722571D02*
X213927429Y-130722571D01*
X213927429Y-130008285D01*
X209887429Y-131508285D02*
X209887429Y-132365428D01*
X209887429Y-131936856D02*
X211387429Y-131936856D01*
X211173143Y-132079713D01*
X211030286Y-132222571D01*
X210958857Y-132365428D01*
X210744571Y-130651142D02*
X210816000Y-130794000D01*
X210887429Y-130865428D01*
X211030286Y-130936857D01*
X211101714Y-130936857D01*
X211244571Y-130865428D01*
X211316000Y-130794000D01*
X211387429Y-130651142D01*
X211387429Y-130365428D01*
X211316000Y-130222571D01*
X211244571Y-130151142D01*
X211101714Y-130079714D01*
X211030286Y-130079714D01*
X210887429Y-130151142D01*
X210816000Y-130222571D01*
X210744571Y-130365428D01*
X210744571Y-130651142D01*
X210673143Y-130794000D01*
X210601714Y-130865428D01*
X210458857Y-130936857D01*
X210173143Y-130936857D01*
X210030286Y-130865428D01*
X209958857Y-130794000D01*
X209887429Y-130651142D01*
X209887429Y-130365428D01*
X209958857Y-130222571D01*
X210030286Y-130151142D01*
X210173143Y-130079714D01*
X210458857Y-130079714D01*
X210601714Y-130151142D01*
X210673143Y-130222571D01*
X210744571Y-130365428D01*
X207347429Y-131508285D02*
X207347429Y-132365428D01*
X207347429Y-131936856D02*
X208847429Y-131936856D01*
X208633143Y-132079713D01*
X208490286Y-132222571D01*
X208418857Y-132365428D01*
X207347429Y-130794000D02*
X207347429Y-130508285D01*
X207418857Y-130365428D01*
X207490286Y-130294000D01*
X207704571Y-130151142D01*
X207990286Y-130079714D01*
X208561714Y-130079714D01*
X208704571Y-130151142D01*
X208776000Y-130222571D01*
X208847429Y-130365428D01*
X208847429Y-130651142D01*
X208776000Y-130794000D01*
X208704571Y-130865428D01*
X208561714Y-130936857D01*
X208204571Y-130936857D01*
X208061714Y-130865428D01*
X207990286Y-130794000D01*
X207918857Y-130651142D01*
X207918857Y-130365428D01*
X207990286Y-130222571D01*
X208061714Y-130151142D01*
X208204571Y-130079714D01*
D16*
G36*
X246865991Y-150326608D02*
X240875944Y-144336428D01*
X241064110Y-143949239D01*
X241508106Y-144000219D01*
X246704442Y-149343009D01*
X246703647Y-149361018D01*
X246746021Y-149856657D01*
X246865991Y-150326608D01*
G37*
X246865991Y-150326608D02*
X240875944Y-144336428D01*
X241064110Y-143949239D01*
X241508106Y-144000219D01*
X246704442Y-149343009D01*
X246703647Y-149361018D01*
X246746021Y-149856657D01*
X246865991Y-150326608D01*
G36*
X255790151Y-153646320D02*
X255892112Y-153683662D01*
X255999238Y-153696639D01*
X256091930Y-153687237D01*
X256178134Y-153659959D01*
X256256393Y-153618380D01*
X256324588Y-153562235D01*
X256380734Y-153494039D01*
X256423107Y-153416443D01*
X256449723Y-153330239D01*
X256458992Y-153237546D01*
X256449723Y-153144854D01*
X256423107Y-153058650D01*
X256380734Y-152981053D01*
X256324588Y-152912858D01*
X256256393Y-152856845D01*
X256178134Y-152814472D01*
X256091930Y-152787856D01*
X255999238Y-152778454D01*
X255907208Y-152787856D01*
X255821004Y-152814472D01*
X255743407Y-152856845D01*
X255675212Y-152912858D01*
X255619199Y-152981053D01*
X255576826Y-153058650D01*
X255550210Y-153144854D01*
X255540146Y-153237546D01*
X255586889Y-153438027D01*
X252739776Y-156200260D01*
X251791533Y-155252017D01*
X255856227Y-151195798D01*
X256002151Y-151254062D01*
X256158007Y-151274189D01*
X256283009Y-151261212D01*
X256398610Y-151225327D01*
X256503485Y-151167858D01*
X256594721Y-151092380D01*
X256670199Y-151001144D01*
X256727668Y-150896269D01*
X256763553Y-150780536D01*
X256775868Y-150656990D01*
X256763553Y-150531988D01*
X256727668Y-150416387D01*
X256670199Y-150311512D01*
X256594721Y-150220276D01*
X256503485Y-150144798D01*
X256398610Y-150087329D01*
X256283009Y-150051444D01*
X256158007Y-150039261D01*
X256033667Y-150051444D01*
X255918066Y-150087329D01*
X255813191Y-150144798D01*
X255721955Y-150220276D01*
X255646477Y-150311512D01*
X255589008Y-150416387D01*
X255553123Y-150531988D01*
X255540146Y-150656990D01*
X255566762Y-150833106D01*
X255645021Y-150996774D01*
X251586021Y-155046505D01*
X250999807Y-154460292D01*
X252985411Y-152494683D01*
X253142856Y-152575193D01*
X253313012Y-152606841D01*
X253326651Y-152606841D01*
X253446754Y-152593864D01*
X253558780Y-152558641D01*
X253660741Y-152501966D01*
X253749858Y-152427150D01*
X253824542Y-152337371D01*
X253881349Y-152233158D01*
X253918029Y-152119014D01*
X253931668Y-151996130D01*
X253923061Y-151874041D01*
X253891413Y-151758308D01*
X253838181Y-151651315D01*
X253764292Y-151555047D01*
X253673718Y-151474537D01*
X253570962Y-151414949D01*
X253458142Y-151376813D01*
X253338966Y-151362512D01*
X253325989Y-151362512D01*
X253206813Y-151374694D01*
X253094656Y-151409917D01*
X252992694Y-151465930D01*
X252903577Y-151540613D01*
X252829555Y-151631187D01*
X252772086Y-151734605D01*
X252735539Y-151848882D01*
X252720311Y-151972428D01*
X252736863Y-152129740D01*
X252792214Y-152276988D01*
X250794295Y-154254779D01*
X250388435Y-153848919D01*
X250528533Y-153789993D01*
X250639896Y-153691607D01*
X250714580Y-153561573D01*
X250743314Y-153409292D01*
X250736164Y-153315938D01*
X250711667Y-153228939D01*
X250672206Y-153149224D01*
X250618312Y-153079572D01*
X250552898Y-153021970D01*
X250477552Y-152977478D01*
X250393467Y-152948743D01*
X250302893Y-152937223D01*
X250143462Y-152965296D01*
X250008396Y-153045011D01*
X249908553Y-153163525D01*
X249851746Y-153312230D01*
X248705141Y-152165757D01*
X249175754Y-152286390D01*
X249671393Y-152328764D01*
X249950132Y-152315787D01*
X250221059Y-152277783D01*
X250483908Y-152215944D01*
X250736826Y-152131196D01*
X250979018Y-152025660D01*
X251209557Y-151899201D01*
X251426457Y-151753276D01*
X251629851Y-151589476D01*
X251818017Y-151409255D01*
X251989100Y-151212350D01*
X252142837Y-151001144D01*
X252278565Y-150776298D01*
X252393504Y-150539271D01*
X252488315Y-150290590D01*
X252560218Y-150032773D01*
X252609080Y-149765422D01*
X253083135Y-149789124D01*
X253137824Y-149890424D01*
X253216083Y-149969477D01*
X253313807Y-150019796D01*
X253424376Y-150037805D01*
X253568843Y-150007614D01*
X253685901Y-149926442D01*
X253765616Y-149805677D01*
X253794351Y-149658428D01*
X253765616Y-149510385D01*
X253685901Y-149389753D01*
X253568843Y-149307786D01*
X253424376Y-149278389D01*
X253320958Y-149293485D01*
X253227603Y-149337315D01*
X253150668Y-149406305D01*
X253093199Y-149498203D01*
X252634239Y-149474500D01*
X252639933Y-149361018D01*
X252617687Y-148993162D01*
X252550816Y-148639739D01*
X252444485Y-148301411D01*
X252299355Y-147983079D01*
X252534264Y-147993143D01*
X252597560Y-148108876D01*
X252688795Y-148198655D01*
X252802277Y-148256125D01*
X252930855Y-148276914D01*
X253016397Y-148267645D01*
X253096112Y-148242486D01*
X253168677Y-148202231D01*
X253231178Y-148148999D01*
X253282954Y-148085173D01*
X253322414Y-148011152D01*
X253346779Y-147929980D01*
X253355519Y-147842981D01*
X253346779Y-147755321D01*
X253322414Y-147673487D01*
X253282954Y-147599465D01*
X253231178Y-147534845D01*
X253168677Y-147481613D01*
X253096112Y-147441358D01*
X253016397Y-147416199D01*
X252930855Y-147407592D01*
X252800821Y-147428514D01*
X252685220Y-147488896D01*
X252592528Y-147580794D01*
X252530027Y-147700103D01*
X252117678Y-147681299D01*
X251955334Y-147465856D01*
X251774186Y-147266832D01*
X251575295Y-147085155D01*
X251361175Y-146922016D01*
X251131960Y-146778343D01*
X250889106Y-146655459D01*
X250634070Y-146554822D01*
X250368307Y-146478020D01*
X244642566Y-140576957D01*
X245263207Y-140188443D01*
X245397611Y-140295437D01*
X251695265Y-146786950D01*
X254145655Y-146906921D01*
X254220471Y-147072840D01*
X254340441Y-147204331D01*
X254494840Y-147289873D01*
X254671618Y-147320726D01*
X254781525Y-147309206D01*
X254884281Y-147276234D01*
X254976973Y-147224458D01*
X255057351Y-147156263D01*
X255124222Y-147072840D01*
X255175203Y-146977367D01*
X255206851Y-146872492D01*
X255217576Y-146759672D01*
X255206851Y-146646852D01*
X255175203Y-146541977D01*
X255124222Y-146446372D01*
X255057351Y-146363743D01*
X254976973Y-146295548D01*
X254884281Y-146243773D01*
X254781525Y-146210801D01*
X254671618Y-146199942D01*
X254492722Y-146229472D01*
X254338985Y-146314219D01*
X254219676Y-146444915D01*
X254145655Y-146613748D01*
X251823048Y-146499604D01*
X246723113Y-141243680D01*
X247488884Y-141000164D01*
X251675138Y-145314862D01*
X251626938Y-145523950D01*
X251637001Y-145622336D01*
X251665074Y-145713572D01*
X251708904Y-145796995D01*
X251767036Y-145869560D01*
X251837482Y-145928486D01*
X251917859Y-145973641D01*
X252006977Y-146002375D01*
X252102582Y-146012439D01*
X252198850Y-146002375D01*
X252287967Y-145973641D01*
X252368345Y-145928486D01*
X252438791Y-145869560D01*
X252496922Y-145796995D01*
X252540752Y-145713572D01*
X252568825Y-145622336D01*
X252578094Y-145523950D01*
X252568825Y-145425564D01*
X252540752Y-145334328D01*
X252496922Y-145251037D01*
X252438791Y-145179134D01*
X252368345Y-145119546D01*
X252287967Y-145074259D01*
X252198850Y-145045525D01*
X252102582Y-145036123D01*
X251984730Y-145052013D01*
X251871911Y-145099419D01*
X247818604Y-140921773D01*
X248416338Y-140807628D01*
X248504793Y-140581989D01*
X252200306Y-144390984D01*
X252226128Y-144392441D01*
X253722580Y-144441303D01*
X253786538Y-144552004D01*
X253876979Y-144637413D01*
X253987681Y-144692102D01*
X254111888Y-144711435D01*
X254275689Y-144677006D01*
X254409299Y-144584314D01*
X254499872Y-144447129D01*
X254532182Y-144279753D01*
X254499872Y-144110921D01*
X254409299Y-143973603D01*
X254275689Y-143880911D01*
X254111888Y-143847145D01*
X253979736Y-143868729D01*
X253863340Y-143930568D01*
X253771443Y-144025379D01*
X253710398Y-144148262D01*
X252325971Y-144102976D01*
X248621188Y-140284579D01*
X248936475Y-139477757D01*
X252506324Y-143156851D01*
X252532145Y-143156851D01*
X254915134Y-143194855D01*
X254981211Y-143294698D01*
X255069533Y-143370838D01*
X255175203Y-143419700D01*
X255291598Y-143437047D01*
X255456061Y-143402486D01*
X255589670Y-143309793D01*
X255680244Y-143172609D01*
X255713348Y-143004571D01*
X255680244Y-142835738D01*
X255589670Y-142698421D01*
X255456061Y-142605729D01*
X255291598Y-142571962D01*
X255166596Y-142591427D01*
X255055232Y-142646778D01*
X254964659Y-142732982D01*
X254901495Y-142845007D01*
X252652116Y-142811241D01*
X249141193Y-139192000D01*
X251287816Y-139291048D01*
X251790738Y-140964146D01*
X252318026Y-141111527D01*
X252831012Y-141291086D01*
X253328903Y-141500835D01*
X253809446Y-141740776D01*
X255286566Y-140822724D01*
X257015809Y-142246612D01*
X256416619Y-143887400D01*
X256851214Y-144465800D01*
X257236284Y-145080748D01*
X258977048Y-145085780D01*
X259686806Y-147210819D01*
X258306749Y-148284859D01*
X258359981Y-148826448D01*
X258377857Y-149378232D01*
X258369250Y-149729536D01*
X259842000Y-150657785D01*
X259316169Y-152835923D01*
X257578319Y-153013363D01*
X257246348Y-153658502D01*
X256863528Y-154272126D01*
X257617780Y-155840349D01*
X256016452Y-157407248D01*
X254448229Y-156634193D01*
X254051638Y-156877709D01*
X253639952Y-157101230D01*
X252945951Y-156406435D01*
X255790151Y-153646320D01*
G37*
X255790151Y-153646320D02*
X255892112Y-153683662D01*
X255999238Y-153696639D01*
X256091930Y-153687237D01*
X256178134Y-153659959D01*
X256256393Y-153618380D01*
X256324588Y-153562235D01*
X256380734Y-153494039D01*
X256423107Y-153416443D01*
X256449723Y-153330239D01*
X256458992Y-153237546D01*
X256449723Y-153144854D01*
X256423107Y-153058650D01*
X256380734Y-152981053D01*
X256324588Y-152912858D01*
X256256393Y-152856845D01*
X256178134Y-152814472D01*
X256091930Y-152787856D01*
X255999238Y-152778454D01*
X255907208Y-152787856D01*
X255821004Y-152814472D01*
X255743407Y-152856845D01*
X255675212Y-152912858D01*
X255619199Y-152981053D01*
X255576826Y-153058650D01*
X255550210Y-153144854D01*
X255540146Y-153237546D01*
X255586889Y-153438027D01*
X252739776Y-156200260D01*
X251791533Y-155252017D01*
X255856227Y-151195798D01*
X256002151Y-151254062D01*
X256158007Y-151274189D01*
X256283009Y-151261212D01*
X256398610Y-151225327D01*
X256503485Y-151167858D01*
X256594721Y-151092380D01*
X256670199Y-151001144D01*
X256727668Y-150896269D01*
X256763553Y-150780536D01*
X256775868Y-150656990D01*
X256763553Y-150531988D01*
X256727668Y-150416387D01*
X256670199Y-150311512D01*
X256594721Y-150220276D01*
X256503485Y-150144798D01*
X256398610Y-150087329D01*
X256283009Y-150051444D01*
X256158007Y-150039261D01*
X256033667Y-150051444D01*
X255918066Y-150087329D01*
X255813191Y-150144798D01*
X255721955Y-150220276D01*
X255646477Y-150311512D01*
X255589008Y-150416387D01*
X255553123Y-150531988D01*
X255540146Y-150656990D01*
X255566762Y-150833106D01*
X255645021Y-150996774D01*
X251586021Y-155046505D01*
X250999807Y-154460292D01*
X252985411Y-152494683D01*
X253142856Y-152575193D01*
X253313012Y-152606841D01*
X253326651Y-152606841D01*
X253446754Y-152593864D01*
X253558780Y-152558641D01*
X253660741Y-152501966D01*
X253749858Y-152427150D01*
X253824542Y-152337371D01*
X253881349Y-152233158D01*
X253918029Y-152119014D01*
X253931668Y-151996130D01*
X253923061Y-151874041D01*
X253891413Y-151758308D01*
X253838181Y-151651315D01*
X253764292Y-151555047D01*
X253673718Y-151474537D01*
X253570962Y-151414949D01*
X253458142Y-151376813D01*
X253338966Y-151362512D01*
X253325989Y-151362512D01*
X253206813Y-151374694D01*
X253094656Y-151409917D01*
X252992694Y-151465930D01*
X252903577Y-151540613D01*
X252829555Y-151631187D01*
X252772086Y-151734605D01*
X252735539Y-151848882D01*
X252720311Y-151972428D01*
X252736863Y-152129740D01*
X252792214Y-152276988D01*
X250794295Y-154254779D01*
X250388435Y-153848919D01*
X250528533Y-153789993D01*
X250639896Y-153691607D01*
X250714580Y-153561573D01*
X250743314Y-153409292D01*
X250736164Y-153315938D01*
X250711667Y-153228939D01*
X250672206Y-153149224D01*
X250618312Y-153079572D01*
X250552898Y-153021970D01*
X250477552Y-152977478D01*
X250393467Y-152948743D01*
X250302893Y-152937223D01*
X250143462Y-152965296D01*
X250008396Y-153045011D01*
X249908553Y-153163525D01*
X249851746Y-153312230D01*
X248705141Y-152165757D01*
X249175754Y-152286390D01*
X249671393Y-152328764D01*
X249950132Y-152315787D01*
X250221059Y-152277783D01*
X250483908Y-152215944D01*
X250736826Y-152131196D01*
X250979018Y-152025660D01*
X251209557Y-151899201D01*
X251426457Y-151753276D01*
X251629851Y-151589476D01*
X251818017Y-151409255D01*
X251989100Y-151212350D01*
X252142837Y-151001144D01*
X252278565Y-150776298D01*
X252393504Y-150539271D01*
X252488315Y-150290590D01*
X252560218Y-150032773D01*
X252609080Y-149765422D01*
X253083135Y-149789124D01*
X253137824Y-149890424D01*
X253216083Y-149969477D01*
X253313807Y-150019796D01*
X253424376Y-150037805D01*
X253568843Y-150007614D01*
X253685901Y-149926442D01*
X253765616Y-149805677D01*
X253794351Y-149658428D01*
X253765616Y-149510385D01*
X253685901Y-149389753D01*
X253568843Y-149307786D01*
X253424376Y-149278389D01*
X253320958Y-149293485D01*
X253227603Y-149337315D01*
X253150668Y-149406305D01*
X253093199Y-149498203D01*
X252634239Y-149474500D01*
X252639933Y-149361018D01*
X252617687Y-148993162D01*
X252550816Y-148639739D01*
X252444485Y-148301411D01*
X252299355Y-147983079D01*
X252534264Y-147993143D01*
X252597560Y-148108876D01*
X252688795Y-148198655D01*
X252802277Y-148256125D01*
X252930855Y-148276914D01*
X253016397Y-148267645D01*
X253096112Y-148242486D01*
X253168677Y-148202231D01*
X253231178Y-148148999D01*
X253282954Y-148085173D01*
X253322414Y-148011152D01*
X253346779Y-147929980D01*
X253355519Y-147842981D01*
X253346779Y-147755321D01*
X253322414Y-147673487D01*
X253282954Y-147599465D01*
X253231178Y-147534845D01*
X253168677Y-147481613D01*
X253096112Y-147441358D01*
X253016397Y-147416199D01*
X252930855Y-147407592D01*
X252800821Y-147428514D01*
X252685220Y-147488896D01*
X252592528Y-147580794D01*
X252530027Y-147700103D01*
X252117678Y-147681299D01*
X251955334Y-147465856D01*
X251774186Y-147266832D01*
X251575295Y-147085155D01*
X251361175Y-146922016D01*
X251131960Y-146778343D01*
X250889106Y-146655459D01*
X250634070Y-146554822D01*
X250368307Y-146478020D01*
X244642566Y-140576957D01*
X245263207Y-140188443D01*
X245397611Y-140295437D01*
X251695265Y-146786950D01*
X254145655Y-146906921D01*
X254220471Y-147072840D01*
X254340441Y-147204331D01*
X254494840Y-147289873D01*
X254671618Y-147320726D01*
X254781525Y-147309206D01*
X254884281Y-147276234D01*
X254976973Y-147224458D01*
X255057351Y-147156263D01*
X255124222Y-147072840D01*
X255175203Y-146977367D01*
X255206851Y-146872492D01*
X255217576Y-146759672D01*
X255206851Y-146646852D01*
X255175203Y-146541977D01*
X255124222Y-146446372D01*
X255057351Y-146363743D01*
X254976973Y-146295548D01*
X254884281Y-146243773D01*
X254781525Y-146210801D01*
X254671618Y-146199942D01*
X254492722Y-146229472D01*
X254338985Y-146314219D01*
X254219676Y-146444915D01*
X254145655Y-146613748D01*
X251823048Y-146499604D01*
X246723113Y-141243680D01*
X247488884Y-141000164D01*
X251675138Y-145314862D01*
X251626938Y-145523950D01*
X251637001Y-145622336D01*
X251665074Y-145713572D01*
X251708904Y-145796995D01*
X251767036Y-145869560D01*
X251837482Y-145928486D01*
X251917859Y-145973641D01*
X252006977Y-146002375D01*
X252102582Y-146012439D01*
X252198850Y-146002375D01*
X252287967Y-145973641D01*
X252368345Y-145928486D01*
X252438791Y-145869560D01*
X252496922Y-145796995D01*
X252540752Y-145713572D01*
X252568825Y-145622336D01*
X252578094Y-145523950D01*
X252568825Y-145425564D01*
X252540752Y-145334328D01*
X252496922Y-145251037D01*
X252438791Y-145179134D01*
X252368345Y-145119546D01*
X252287967Y-145074259D01*
X252198850Y-145045525D01*
X252102582Y-145036123D01*
X251984730Y-145052013D01*
X251871911Y-145099419D01*
X247818604Y-140921773D01*
X248416338Y-140807628D01*
X248504793Y-140581989D01*
X252200306Y-144390984D01*
X252226128Y-144392441D01*
X253722580Y-144441303D01*
X253786538Y-144552004D01*
X253876979Y-144637413D01*
X253987681Y-144692102D01*
X254111888Y-144711435D01*
X254275689Y-144677006D01*
X254409299Y-144584314D01*
X254499872Y-144447129D01*
X254532182Y-144279753D01*
X254499872Y-144110921D01*
X254409299Y-143973603D01*
X254275689Y-143880911D01*
X254111888Y-143847145D01*
X253979736Y-143868729D01*
X253863340Y-143930568D01*
X253771443Y-144025379D01*
X253710398Y-144148262D01*
X252325971Y-144102976D01*
X248621188Y-140284579D01*
X248936475Y-139477757D01*
X252506324Y-143156851D01*
X252532145Y-143156851D01*
X254915134Y-143194855D01*
X254981211Y-143294698D01*
X255069533Y-143370838D01*
X255175203Y-143419700D01*
X255291598Y-143437047D01*
X255456061Y-143402486D01*
X255589670Y-143309793D01*
X255680244Y-143172609D01*
X255713348Y-143004571D01*
X255680244Y-142835738D01*
X255589670Y-142698421D01*
X255456061Y-142605729D01*
X255291598Y-142571962D01*
X255166596Y-142591427D01*
X255055232Y-142646778D01*
X254964659Y-142732982D01*
X254901495Y-142845007D01*
X252652116Y-142811241D01*
X249141193Y-139192000D01*
X251287816Y-139291048D01*
X251790738Y-140964146D01*
X252318026Y-141111527D01*
X252831012Y-141291086D01*
X253328903Y-141500835D01*
X253809446Y-141740776D01*
X255286566Y-140822724D01*
X257015809Y-142246612D01*
X256416619Y-143887400D01*
X256851214Y-144465800D01*
X257236284Y-145080748D01*
X258977048Y-145085780D01*
X259686806Y-147210819D01*
X258306749Y-148284859D01*
X258359981Y-148826448D01*
X258377857Y-149378232D01*
X258369250Y-149729536D01*
X259842000Y-150657785D01*
X259316169Y-152835923D01*
X257578319Y-153013363D01*
X257246348Y-153658502D01*
X256863528Y-154272126D01*
X257617780Y-155840349D01*
X256016452Y-157407248D01*
X254448229Y-156634193D01*
X254051638Y-156877709D01*
X253639952Y-157101230D01*
X252945951Y-156406435D01*
X255790151Y-153646320D01*
G36*
X247399105Y-147453673D02*
X243452925Y-143385934D01*
X243767549Y-143072766D01*
X243370958Y-141407481D01*
X248459506Y-146652546D01*
X248160639Y-146807078D01*
X247882562Y-146993787D01*
X247628320Y-147210025D01*
X247399105Y-147453673D01*
G37*
X247399105Y-147453673D02*
X243452925Y-143385934D01*
X243767549Y-143072766D01*
X243370958Y-141407481D01*
X248459506Y-146652546D01*
X248160639Y-146807078D01*
X247882562Y-146993787D01*
X247628320Y-147210025D01*
X247399105Y-147453673D01*
G36*
X241964285Y-144051995D02*
X242800503Y-144147468D01*
X243253901Y-143598597D01*
X247220871Y-147687126D01*
X247047139Y-147975929D01*
X246906246Y-148285521D01*
X246801372Y-148613917D01*
X246733839Y-148957276D01*
X241964285Y-144051995D01*
G37*
X241964285Y-144051995D02*
X242800503Y-144147468D01*
X243253901Y-143598597D01*
X247220871Y-147687126D01*
X247047139Y-147975929D01*
X246906246Y-148285521D01*
X246801372Y-148613917D01*
X246733839Y-148957276D01*
X241964285Y-144051995D01*
G36*
X248754003Y-146538402D02*
X243601630Y-141228584D01*
X244389648Y-140735064D01*
X249889088Y-146403336D01*
X249671393Y-146392478D01*
X249200913Y-146429952D01*
X248754003Y-146538402D01*
G37*
X248754003Y-146538402D02*
X243601630Y-141228584D01*
X244389648Y-140735064D01*
X249889088Y-146403336D01*
X249671393Y-146392478D01*
X249200913Y-146429952D01*
X248754003Y-146538402D01*
G36*
X253325989Y-151600334D02*
X253334597Y-151560741D01*
X253333934Y-151600334D01*
X253475489Y-151631849D01*
X253591752Y-151717391D01*
X253671600Y-151843850D01*
X253695964Y-151992555D01*
X253665111Y-152139141D01*
X253585396Y-152258317D01*
X253468206Y-152338827D01*
X253325989Y-152369019D01*
X253204562Y-152345978D01*
X253097569Y-152284933D01*
X253001301Y-152167082D01*
X252967535Y-152076640D01*
X252955352Y-151976797D01*
X252987662Y-151830211D01*
X253068040Y-151710903D01*
X253185229Y-151629731D01*
X253325989Y-151600334D01*
G37*
X253325989Y-151600334D02*
X253334597Y-151560741D01*
X253333934Y-151600334D01*
X253475489Y-151631849D01*
X253591752Y-151717391D01*
X253671600Y-151843850D01*
X253695964Y-151992555D01*
X253665111Y-152139141D01*
X253585396Y-152258317D01*
X253468206Y-152338827D01*
X253325989Y-152369019D01*
X253204562Y-152345978D01*
X253097569Y-152284933D01*
X253001301Y-152167082D01*
X252967535Y-152076640D01*
X252955352Y-151976797D01*
X252987662Y-151830211D01*
X253068040Y-151710903D01*
X253185229Y-151629731D01*
X253325989Y-151600334D01*
G36*
X252930855Y-147646209D02*
X253004876Y-147661304D01*
X253064464Y-147703678D01*
X253105514Y-147766179D01*
X253119815Y-147842981D01*
X253105514Y-147919122D01*
X253064464Y-147981623D01*
X253004876Y-148023996D01*
X252930855Y-148039886D01*
X252859747Y-148024791D01*
X252800821Y-147984536D01*
X252760566Y-147923491D01*
X252743351Y-147849470D01*
X252744808Y-147832918D01*
X252762817Y-147758896D01*
X252803072Y-147700103D01*
X252861203Y-147660510D01*
X252930855Y-147646209D01*
G37*
X252930855Y-147646209D02*
X253004876Y-147661304D01*
X253064464Y-147703678D01*
X253105514Y-147766179D01*
X253119815Y-147842981D01*
X253105514Y-147919122D01*
X253064464Y-147981623D01*
X253004876Y-148023996D01*
X252930855Y-148039886D01*
X252859747Y-148024791D01*
X252800821Y-147984536D01*
X252760566Y-147923491D01*
X252743351Y-147849470D01*
X252744808Y-147832918D01*
X252762817Y-147758896D01*
X252803072Y-147700103D01*
X252861203Y-147660510D01*
X252930855Y-147646209D01*
G36*
X251984730Y-145312744D02*
X252037168Y-145283347D01*
X252102582Y-145273283D01*
X252196599Y-145292616D01*
X252272739Y-145346510D01*
X252324514Y-145426226D01*
X252343185Y-145523950D01*
X252324514Y-145621674D01*
X252272739Y-145701390D01*
X252196599Y-145755284D01*
X252102582Y-145775411D01*
X252009890Y-145755284D01*
X251932955Y-145701390D01*
X251881974Y-145621674D01*
X251862641Y-145523950D01*
X251887006Y-145421194D01*
X251930836Y-145363062D01*
X251984730Y-145312744D01*
G37*
X251984730Y-145312744D02*
X252037168Y-145283347D01*
X252102582Y-145273283D01*
X252196599Y-145292616D01*
X252272739Y-145346510D01*
X252324514Y-145426226D01*
X252343185Y-145523950D01*
X252324514Y-145621674D01*
X252272739Y-145701390D01*
X252196599Y-145755284D01*
X252102582Y-145775411D01*
X252009890Y-145755284D01*
X251932955Y-145701390D01*
X251881974Y-145621674D01*
X251862641Y-145523950D01*
X251887006Y-145421194D01*
X251930836Y-145363062D01*
X251984730Y-145312744D01*
G36*
X237543255Y-145409011D02*
X233629385Y-145409011D01*
X234412238Y-146191335D01*
X236760137Y-146191335D01*
X236760137Y-148539101D01*
X234412238Y-148539101D01*
X234412238Y-146191335D01*
X233629385Y-145409011D01*
X233629385Y-149322220D01*
X237543255Y-149322220D01*
X237543255Y-145409011D01*
G37*
X237543255Y-145409011D02*
X233629385Y-145409011D01*
X234412238Y-146191335D01*
X236760137Y-146191335D01*
X236760137Y-148539101D01*
X234412238Y-148539101D01*
X234412238Y-146191335D01*
X233629385Y-145409011D01*
X233629385Y-149322220D01*
X237543255Y-149322220D01*
X237543255Y-145409011D01*
G36*
X232847723Y-148539101D02*
X229716839Y-148539101D01*
X229716839Y-147756777D01*
X232847723Y-147756777D01*
X232847723Y-145409011D01*
X228934383Y-145409011D01*
X228934383Y-146191335D01*
X232065399Y-146191335D01*
X232065399Y-146973792D01*
X228934383Y-146973792D01*
X228934383Y-149322220D01*
X232847723Y-149322220D01*
X232847723Y-148539101D01*
G37*
X232847723Y-148539101D02*
X229716839Y-148539101D01*
X229716839Y-147756777D01*
X232847723Y-147756777D01*
X232847723Y-145409011D01*
X228934383Y-145409011D01*
X228934383Y-146191335D01*
X232065399Y-146191335D01*
X232065399Y-146973792D01*
X228934383Y-146973792D01*
X228934383Y-149322220D01*
X232847723Y-149322220D01*
X232847723Y-148539101D01*
G36*
X226587543Y-146191335D02*
X228152853Y-146191335D01*
X228152853Y-145409011D01*
X224239645Y-145409011D01*
X224239645Y-146191335D01*
X225804425Y-146191335D01*
X225804425Y-149322220D01*
X226587543Y-149322220D01*
X226587543Y-146191335D01*
G37*
X226587543Y-146191335D02*
X228152853Y-146191335D01*
X228152853Y-145409011D01*
X224239645Y-145409011D01*
X224239645Y-146191335D01*
X225804425Y-146191335D01*
X225804425Y-149322220D01*
X226587543Y-149322220D01*
X226587543Y-146191335D01*
G36*
X242237993Y-150396260D02*
X238324917Y-150396260D01*
X238324917Y-151179378D01*
X241455669Y-151179378D01*
X241455669Y-151961702D01*
X239889564Y-151961702D01*
X239889564Y-152744688D01*
X241455669Y-152744688D01*
X241455669Y-153526349D01*
X238324917Y-153526349D01*
X238324917Y-154309468D01*
X242237993Y-154309468D01*
X242237993Y-150396260D01*
G37*
X242237993Y-150396260D02*
X238324917Y-150396260D01*
X238324917Y-151179378D01*
X241455669Y-151179378D01*
X241455669Y-151961702D01*
X239889564Y-151961702D01*
X239889564Y-152744688D01*
X241455669Y-152744688D01*
X241455669Y-153526349D01*
X238324917Y-153526349D01*
X238324917Y-154309468D01*
X242237993Y-154309468D01*
X242237993Y-150396260D01*
G36*
X237543255Y-150396260D02*
X233630047Y-150396260D01*
X233630047Y-154309468D01*
X234412238Y-154309468D01*
X234412238Y-151179378D01*
X236760137Y-151179378D01*
X236760137Y-154309468D01*
X237542461Y-154309468D01*
X237542461Y-150396260D01*
X237543255Y-150396260D01*
G37*
X237543255Y-150396260D02*
X233630047Y-150396260D01*
X233630047Y-154309468D01*
X234412238Y-154309468D01*
X234412238Y-151179378D01*
X236760137Y-151179378D01*
X236760137Y-154309468D01*
X237542461Y-154309468D01*
X237542461Y-150396260D01*
X237543255Y-150396260D01*
G36*
X232847723Y-150396260D02*
X228934383Y-150396260D01*
X228934383Y-151179378D01*
X232065399Y-151179378D01*
X232065399Y-151961702D01*
X230499957Y-151961702D01*
X230499957Y-152744688D01*
X232065399Y-152744688D01*
X232065399Y-153526349D01*
X228934383Y-153526349D01*
X228934383Y-154309468D01*
X232847723Y-154309468D01*
X232847723Y-150396260D01*
G37*
X232847723Y-150396260D02*
X228934383Y-150396260D01*
X228934383Y-151179378D01*
X232065399Y-151179378D01*
X232065399Y-151961702D01*
X230499957Y-151961702D01*
X230499957Y-152744688D01*
X232065399Y-152744688D01*
X232065399Y-153526349D01*
X228934383Y-153526349D01*
X228934383Y-154309468D01*
X232847723Y-154309468D01*
X232847723Y-150396260D01*
G36*
X228152853Y-150396260D02*
X224239645Y-150396260D01*
X224239645Y-154309468D01*
X225021969Y-153527144D01*
X225021969Y-152744688D01*
X225021969Y-151961702D01*
X225021969Y-151179378D01*
X227369735Y-151179378D01*
X227369735Y-151961702D01*
X225021969Y-151961702D01*
X225021969Y-152744688D01*
X227369735Y-152744688D01*
X227369735Y-153527144D01*
X225021969Y-153527144D01*
X224239645Y-154309468D01*
X228152853Y-154309468D01*
X228152853Y-150396260D01*
G37*
X228152853Y-150396260D02*
X224239645Y-150396260D01*
X224239645Y-154309468D01*
X225021969Y-153527144D01*
X225021969Y-152744688D01*
X225021969Y-151961702D01*
X225021969Y-151179378D01*
X227369735Y-151179378D01*
X227369735Y-151961702D01*
X225021969Y-151961702D01*
X225021969Y-152744688D01*
X227369735Y-152744688D01*
X227369735Y-153527144D01*
X225021969Y-153527144D01*
X224239645Y-154309468D01*
X228152853Y-154309468D01*
X228152853Y-150396260D01*
G36*
X223457321Y-150396260D02*
X219544908Y-150396260D01*
X219544908Y-152744688D01*
X221109423Y-152744688D01*
X220069944Y-153777149D01*
X220595775Y-154309468D01*
X222161217Y-152744688D01*
X222674865Y-152744688D01*
X222674865Y-151961702D01*
X220327231Y-151961702D01*
X220327231Y-151179378D01*
X222674865Y-151179378D01*
X222674865Y-151961702D01*
X222674865Y-152744688D01*
X222674865Y-154309468D01*
X223457321Y-154309468D01*
X223457321Y-150396260D01*
G37*
X223457321Y-150396260D02*
X219544908Y-150396260D01*
X219544908Y-152744688D01*
X221109423Y-152744688D01*
X220069944Y-153777149D01*
X220595775Y-154309468D01*
X222161217Y-152744688D01*
X222674865Y-152744688D01*
X222674865Y-151961702D01*
X220327231Y-151961702D01*
X220327231Y-151179378D01*
X222674865Y-151179378D01*
X222674865Y-151961702D01*
X222674865Y-152744688D01*
X222674865Y-154309468D01*
X223457321Y-154309468D01*
X223457321Y-150396260D01*
G36*
X218762584Y-150396260D02*
X214849243Y-150396260D01*
X214849243Y-154309468D01*
X215631567Y-154309468D01*
X215631567Y-152744688D01*
X215632362Y-151961702D01*
X215632362Y-151179378D01*
X217980128Y-151179378D01*
X217980128Y-151961702D01*
X215632362Y-151961702D01*
X215631567Y-152744688D01*
X217979465Y-152744688D01*
X217979465Y-154309468D01*
X218762584Y-154309468D01*
X218762584Y-150396260D01*
G37*
X218762584Y-150396260D02*
X214849243Y-150396260D01*
X214849243Y-154309468D01*
X215631567Y-154309468D01*
X215631567Y-152744688D01*
X215632362Y-151961702D01*
X215632362Y-151179378D01*
X217980128Y-151179378D01*
X217980128Y-151961702D01*
X215632362Y-151961702D01*
X215631567Y-152744688D01*
X217979465Y-152744688D01*
X217979465Y-154309468D01*
X218762584Y-154309468D01*
X218762584Y-150396260D01*
G36*
X214067582Y-153527144D02*
X210936830Y-153527144D01*
X210936830Y-152744688D01*
X214067582Y-152744688D01*
X214067582Y-150396260D01*
X210154506Y-150396260D01*
X210154506Y-151179378D01*
X213284728Y-151179378D01*
X213284728Y-151961702D01*
X210154506Y-151961702D01*
X210154506Y-154309468D01*
X214067582Y-154309468D01*
X214067582Y-153527144D01*
G37*
X214067582Y-153527144D02*
X210936830Y-153527144D01*
X210936830Y-152744688D01*
X214067582Y-152744688D01*
X214067582Y-150396260D01*
X210154506Y-150396260D01*
X210154506Y-151179378D01*
X213284728Y-151179378D01*
X213284728Y-151961702D01*
X210154506Y-151961702D01*
X210154506Y-154309468D01*
X214067582Y-154309468D01*
X214067582Y-153527144D01*
G36*
X246932862Y-154992611D02*
X243019654Y-154992611D01*
X243019654Y-158905819D01*
X243802773Y-158905819D01*
X243802773Y-157340377D01*
X243802773Y-156558053D01*
X243802773Y-155775067D01*
X246150539Y-155775067D01*
X246150539Y-156558053D01*
X243802773Y-156558053D01*
X243802773Y-157340377D01*
X246150539Y-157340377D01*
X246150539Y-158905819D01*
X246932862Y-158905819D01*
X246932862Y-154992611D01*
G37*
X246932862Y-154992611D02*
X243019654Y-154992611D01*
X243019654Y-158905819D01*
X243802773Y-158905819D01*
X243802773Y-157340377D01*
X243802773Y-156558053D01*
X243802773Y-155775067D01*
X246150539Y-155775067D01*
X246150539Y-156558053D01*
X243802773Y-156558053D01*
X243802773Y-157340377D01*
X246150539Y-157340377D01*
X246150539Y-158905819D01*
X246932862Y-158905819D01*
X246932862Y-154992611D01*
G36*
X242237993Y-154992611D02*
X238324917Y-154992611D01*
X239107241Y-155775067D01*
X241455007Y-155775067D01*
X241455007Y-156558053D01*
X241455007Y-157340377D01*
X241455007Y-158122701D01*
X239107241Y-158122701D01*
X239107241Y-157340377D01*
X241455007Y-157340377D01*
X241455007Y-156558053D01*
X239107241Y-156558053D01*
X239107241Y-155775067D01*
X238324917Y-154992611D01*
X238324917Y-158905819D01*
X242237993Y-158905819D01*
X242237993Y-154992611D01*
G37*
X242237993Y-154992611D02*
X238324917Y-154992611D01*
X239107241Y-155775067D01*
X241455007Y-155775067D01*
X241455007Y-156558053D01*
X241455007Y-157340377D01*
X241455007Y-158122701D01*
X239107241Y-158122701D01*
X239107241Y-157340377D01*
X241455007Y-157340377D01*
X241455007Y-156558053D01*
X239107241Y-156558053D01*
X239107241Y-155775067D01*
X238324917Y-154992611D01*
X238324917Y-158905819D01*
X242237993Y-158905819D01*
X242237993Y-154992611D01*
G36*
X242237993Y-146505298D02*
X242237993Y-149322220D01*
X241455007Y-149322220D01*
X241455007Y-147756777D01*
X241455007Y-146974454D01*
X241455007Y-146191335D01*
X239107241Y-146191335D01*
X239107241Y-146974454D01*
X241455007Y-146974454D01*
X241455007Y-147756777D01*
X238324917Y-147756777D01*
X238324917Y-145409011D01*
X241145414Y-145409011D01*
X242237993Y-146505298D01*
G37*
X242237993Y-146505298D02*
X242237993Y-149322220D01*
X241455007Y-149322220D01*
X241455007Y-147756777D01*
X241455007Y-146974454D01*
X241455007Y-146191335D01*
X239107241Y-146191335D01*
X239107241Y-146974454D01*
X241455007Y-146974454D01*
X241455007Y-147756777D01*
X238324917Y-147756777D01*
X238324917Y-145409011D01*
X241145414Y-145409011D01*
X242237993Y-146505298D01*
G36*
X246894726Y-151179378D02*
X245367420Y-151179378D01*
X245367420Y-154309468D01*
X244585096Y-154309468D01*
X244585096Y-151179378D01*
X243019654Y-151179378D01*
X243019654Y-150396260D01*
X246114521Y-150396260D01*
X246894726Y-151179378D01*
G37*
X246894726Y-151179378D02*
X245367420Y-151179378D01*
X245367420Y-154309468D01*
X244585096Y-154309468D01*
X244585096Y-151179378D01*
X243019654Y-151179378D01*
X243019654Y-150396260D01*
X246114521Y-150396260D01*
X246894726Y-151179378D01*
G36*
X250845276Y-155144229D02*
X251627732Y-155929466D01*
X251627732Y-158905819D01*
X247715186Y-158905819D01*
X247715186Y-158122701D01*
X250845276Y-158122701D01*
X250845276Y-155144229D01*
G37*
X250845276Y-155144229D02*
X251627732Y-155929466D01*
X251627732Y-158905819D01*
X247715186Y-158905819D01*
X247715186Y-158122701D01*
X250845276Y-158122701D01*
X250845276Y-155144229D01*
G36*
X237542461Y-154980428D02*
X236331236Y-154980428D01*
X236331236Y-155222488D01*
X237300401Y-155222488D01*
X237300401Y-155948799D01*
X236573295Y-155948799D01*
X236573295Y-155706739D01*
X237058209Y-155706739D01*
X237058209Y-155464680D01*
X236331236Y-155464680D01*
X236331236Y-156191653D01*
X237542461Y-156191653D01*
X237542461Y-154980428D01*
G37*
X237542461Y-154980428D02*
X236331236Y-154980428D01*
X236331236Y-155222488D01*
X237300401Y-155222488D01*
X237300401Y-155948799D01*
X236573295Y-155948799D01*
X236573295Y-155706739D01*
X237058209Y-155706739D01*
X237058209Y-155464680D01*
X236331236Y-155464680D01*
X236331236Y-156191653D01*
X237542461Y-156191653D01*
X237542461Y-154980428D01*
G36*
X236089971Y-154980428D02*
X234878746Y-154980428D01*
X234878746Y-155222488D01*
X235846984Y-155222488D01*
X235846984Y-155464680D01*
X235362733Y-155464680D01*
X235362733Y-155706739D01*
X235846984Y-155706739D01*
X235846984Y-155948799D01*
X234878746Y-155948799D01*
X234878746Y-156190991D01*
X236089971Y-156190991D01*
X236089971Y-154980428D01*
G37*
X236089971Y-154980428D02*
X234878746Y-154980428D01*
X234878746Y-155222488D01*
X235846984Y-155222488D01*
X235846984Y-155464680D01*
X235362733Y-155464680D01*
X235362733Y-155706739D01*
X235846984Y-155706739D01*
X235846984Y-155948799D01*
X234878746Y-155948799D01*
X234878746Y-156190991D01*
X236089971Y-156190991D01*
X236089971Y-154980428D01*
G36*
X234636422Y-154980428D02*
X233425197Y-154980428D01*
X233425197Y-156191653D01*
X233667389Y-156191653D01*
X233667389Y-155222488D01*
X234394494Y-155222488D01*
X234394494Y-156191653D01*
X234636422Y-156191653D01*
X234636422Y-154980428D01*
G37*
X234636422Y-154980428D02*
X233425197Y-154980428D01*
X233425197Y-156191653D01*
X233667389Y-156191653D01*
X233667389Y-155222488D01*
X234394494Y-155222488D01*
X234394494Y-156191653D01*
X234636422Y-156191653D01*
X234636422Y-154980428D01*
G36*
X233183932Y-154980428D02*
X231972707Y-154980428D01*
X231972707Y-155222488D01*
X232941740Y-155222488D01*
X232941740Y-155464680D01*
X232456958Y-155464680D01*
X232456958Y-155706739D01*
X232941740Y-155706739D01*
X232941740Y-155948799D01*
X231972707Y-155948799D01*
X231972707Y-156190991D01*
X233183932Y-156190991D01*
X233183932Y-154980428D01*
G37*
X233183932Y-154980428D02*
X231972707Y-154980428D01*
X231972707Y-155222488D01*
X232941740Y-155222488D01*
X232941740Y-155464680D01*
X232456958Y-155464680D01*
X232456958Y-155706739D01*
X232941740Y-155706739D01*
X232941740Y-155948799D01*
X231972707Y-155948799D01*
X231972707Y-156190991D01*
X233183932Y-156190991D01*
X233183932Y-154980428D01*
G36*
X230759893Y-155627686D02*
X230762144Y-154980428D01*
X230519952Y-154980428D01*
X230519952Y-155706739D01*
X231004204Y-156191653D01*
X231246396Y-156191653D01*
X231731177Y-155706739D01*
X231731177Y-154980428D01*
X231488455Y-154980428D01*
X231486999Y-155611928D01*
X231168799Y-155928009D01*
X231061011Y-155928009D01*
X230759893Y-155627686D01*
G37*
X230759893Y-155627686D02*
X230762144Y-154980428D01*
X230519952Y-154980428D01*
X230519952Y-155706739D01*
X231004204Y-156191653D01*
X231246396Y-156191653D01*
X231731177Y-155706739D01*
X231731177Y-154980428D01*
X231488455Y-154980428D01*
X231486999Y-155611928D01*
X231168799Y-155928009D01*
X231061011Y-155928009D01*
X230759893Y-155627686D01*
G36*
X230277893Y-154980428D02*
X229066668Y-154980428D01*
X229066668Y-156191653D01*
X229308727Y-156191653D01*
X229308727Y-155706739D01*
X229308727Y-155464680D01*
X229308727Y-155222488D01*
X230035833Y-155222488D01*
X230035833Y-155464680D01*
X229308727Y-155464680D01*
X229308727Y-155706739D01*
X230035833Y-155706739D01*
X230035833Y-156191653D01*
X230277893Y-156191653D01*
X230277893Y-154980428D01*
G37*
X230277893Y-154980428D02*
X229066668Y-154980428D01*
X229066668Y-156191653D01*
X229308727Y-156191653D01*
X229308727Y-155706739D01*
X229308727Y-155464680D01*
X229308727Y-155222488D01*
X230035833Y-155222488D01*
X230035833Y-155464680D01*
X229308727Y-155464680D01*
X229308727Y-155706739D01*
X230035833Y-155706739D01*
X230035833Y-156191653D01*
X230277893Y-156191653D01*
X230277893Y-154980428D01*
G36*
X228825403Y-155948799D02*
X227614046Y-155948799D01*
X227614046Y-156191653D01*
X228825403Y-156191653D01*
X228825403Y-155948799D01*
G37*
X228825403Y-155948799D02*
X227614046Y-155948799D01*
X227614046Y-156191653D01*
X228825403Y-156191653D01*
X228825403Y-155948799D01*
G36*
X227371854Y-154980428D02*
X227129794Y-154980428D01*
X227129794Y-155464680D01*
X226403615Y-155464680D01*
X226403615Y-154980428D01*
X226161423Y-154980428D01*
X226161423Y-156191653D01*
X226403615Y-156191653D01*
X226403615Y-155706739D01*
X227129794Y-155706739D01*
X227129794Y-156191653D01*
X227371854Y-156191653D01*
X227371854Y-154980428D01*
G37*
X227371854Y-154980428D02*
X227129794Y-154980428D01*
X227129794Y-155464680D01*
X226403615Y-155464680D01*
X226403615Y-154980428D01*
X226161423Y-154980428D01*
X226161423Y-156191653D01*
X226403615Y-156191653D01*
X226403615Y-155706739D01*
X227129794Y-155706739D01*
X227129794Y-156191653D01*
X227371854Y-156191653D01*
X227371854Y-154980428D01*
G36*
X225919364Y-154980428D02*
X224708139Y-154980428D01*
X224708139Y-156191653D01*
X224950066Y-156191653D01*
X224950066Y-155706739D01*
X224950066Y-155464680D01*
X224950066Y-155222488D01*
X225677172Y-155222488D01*
X225677172Y-155464680D01*
X224950066Y-155464680D01*
X224950066Y-155706739D01*
X225677172Y-155706739D01*
X225677172Y-156191653D01*
X225919364Y-156191653D01*
X225919364Y-154980428D01*
G37*
X225919364Y-154980428D02*
X224708139Y-154980428D01*
X224708139Y-156191653D01*
X224950066Y-156191653D01*
X224950066Y-155706739D01*
X224950066Y-155464680D01*
X224950066Y-155222488D01*
X225677172Y-155222488D01*
X225677172Y-155464680D01*
X224950066Y-155464680D01*
X224950066Y-155706739D01*
X225677172Y-155706739D01*
X225677172Y-156191653D01*
X225919364Y-156191653D01*
X225919364Y-154980428D01*
G36*
X224466609Y-154980428D02*
X223255384Y-154980428D01*
X223255384Y-155222488D01*
X224223887Y-155222488D01*
X224223887Y-155948799D01*
X223255384Y-155948799D01*
X223255384Y-156190991D01*
X224466609Y-156190991D01*
X224466609Y-154980428D01*
G37*
X224466609Y-154980428D02*
X223255384Y-154980428D01*
X223255384Y-155222488D01*
X224223887Y-155222488D01*
X224223887Y-155948799D01*
X223255384Y-155948799D01*
X223255384Y-156190991D01*
X224466609Y-156190991D01*
X224466609Y-154980428D01*
G36*
X223013325Y-154980428D02*
X222771265Y-154980428D01*
X222771265Y-155464680D01*
X222600976Y-155464680D01*
X222116724Y-154980428D01*
X221959545Y-155139197D01*
X222407646Y-155586107D01*
X221955837Y-156030766D01*
X222116724Y-156191653D01*
X222600976Y-155706739D01*
X222771265Y-155706739D01*
X222771265Y-156191653D01*
X223013325Y-156191653D01*
X223013325Y-154980428D01*
G37*
X223013325Y-154980428D02*
X222771265Y-154980428D01*
X222771265Y-155464680D01*
X222600976Y-155464680D01*
X222116724Y-154980428D01*
X221959545Y-155139197D01*
X222407646Y-155586107D01*
X221955837Y-156030766D01*
X222116724Y-156191653D01*
X222600976Y-155706739D01*
X222771265Y-155706739D01*
X222771265Y-156191653D01*
X223013325Y-156191653D01*
X223013325Y-154980428D01*
G36*
X221759064Y-154980428D02*
X220547839Y-154980428D01*
X220547839Y-155222488D01*
X221516872Y-155222488D01*
X221516872Y-155464680D01*
X221032621Y-155464680D01*
X221032621Y-155706739D01*
X221516872Y-155706739D01*
X221516872Y-155948799D01*
X220547839Y-155948799D01*
X220547839Y-156190991D01*
X221759064Y-156190991D01*
X221759064Y-154980428D01*
G37*
X221759064Y-154980428D02*
X220547839Y-154980428D01*
X220547839Y-155222488D01*
X221516872Y-155222488D01*
X221516872Y-155464680D01*
X221032621Y-155464680D01*
X221032621Y-155706739D01*
X221516872Y-155706739D01*
X221516872Y-155948799D01*
X220547839Y-155948799D01*
X220547839Y-156190991D01*
X221759064Y-156190991D01*
X221759064Y-154980428D01*
G36*
X220306309Y-154980428D02*
X219095085Y-154980428D01*
X219095085Y-155706739D01*
X219579336Y-155706739D01*
X219257429Y-156026396D01*
X219420567Y-156191653D01*
X219904819Y-155706739D01*
X220063588Y-155706739D01*
X220063588Y-155464680D01*
X219337277Y-155464680D01*
X219337277Y-155222488D01*
X220063588Y-155222488D01*
X220063588Y-155464680D01*
X220063588Y-155706739D01*
X220063588Y-156191653D01*
X220305515Y-156191653D01*
X220305515Y-154980428D01*
X220306309Y-154980428D01*
G37*
X220306309Y-154980428D02*
X219095085Y-154980428D01*
X219095085Y-155706739D01*
X219579336Y-155706739D01*
X219257429Y-156026396D01*
X219420567Y-156191653D01*
X219904819Y-155706739D01*
X220063588Y-155706739D01*
X220063588Y-155464680D01*
X219337277Y-155464680D01*
X219337277Y-155222488D01*
X220063588Y-155222488D01*
X220063588Y-155464680D01*
X220063588Y-155706739D01*
X220063588Y-156191653D01*
X220305515Y-156191653D01*
X220305515Y-154980428D01*
X220306309Y-154980428D01*
G36*
X218853025Y-155948799D02*
X217883727Y-155948799D01*
X217883727Y-155706739D01*
X218853025Y-155706739D01*
X218853025Y-154980428D01*
X217641800Y-154980428D01*
X217641800Y-155222488D01*
X218610833Y-155222488D01*
X218610833Y-155464680D01*
X217641800Y-155464680D01*
X217641800Y-156191653D01*
X218853025Y-156191653D01*
X218853025Y-155948799D01*
G37*
X218853025Y-155948799D02*
X217883727Y-155948799D01*
X217883727Y-155706739D01*
X218853025Y-155706739D01*
X218853025Y-154980428D01*
X217641800Y-154980428D01*
X217641800Y-155222488D01*
X218610833Y-155222488D01*
X218610833Y-155464680D01*
X217641800Y-155464680D01*
X217641800Y-156191653D01*
X218853025Y-156191653D01*
X218853025Y-155948799D01*
G36*
X217400270Y-154980428D02*
X216189178Y-154980428D01*
X216189178Y-155706739D01*
X217158211Y-155706739D01*
X217157549Y-155464680D01*
X216431238Y-155464680D01*
X216431238Y-155222488D01*
X217157549Y-155222488D01*
X217157549Y-155464680D01*
X217158211Y-155706739D01*
X217158211Y-156191653D01*
X217400270Y-156191653D01*
X217400270Y-154980428D01*
G37*
X217400270Y-154980428D02*
X216189178Y-154980428D01*
X216189178Y-155706739D01*
X217158211Y-155706739D01*
X217157549Y-155464680D01*
X216431238Y-155464680D01*
X216431238Y-155222488D01*
X217157549Y-155222488D01*
X217157549Y-155464680D01*
X217158211Y-155706739D01*
X217158211Y-156191653D01*
X217400270Y-156191653D01*
X217400270Y-154980428D01*
G36*
X215946986Y-154980428D02*
X214735761Y-154980428D01*
X214735761Y-156191653D01*
X214978483Y-156191653D01*
X214978483Y-155706739D01*
X214978483Y-155464680D01*
X214978483Y-155222488D01*
X215704926Y-155222488D01*
X215704926Y-155464680D01*
X214978483Y-155464680D01*
X214978483Y-155706739D01*
X215704926Y-155706739D01*
X215704926Y-156191653D01*
X215946986Y-156191653D01*
X215946986Y-154980428D01*
G37*
X215946986Y-154980428D02*
X214735761Y-154980428D01*
X214735761Y-156191653D01*
X214978483Y-156191653D01*
X214978483Y-155706739D01*
X214978483Y-155464680D01*
X214978483Y-155222488D01*
X215704926Y-155222488D01*
X215704926Y-155464680D01*
X214978483Y-155464680D01*
X214978483Y-155706739D01*
X215704926Y-155706739D01*
X215704926Y-156191653D01*
X215946986Y-156191653D01*
X215946986Y-154980428D01*
G36*
X214494496Y-154980428D02*
X213283139Y-154980428D01*
X213283139Y-155222488D01*
X214252304Y-155222488D01*
X214252304Y-155948799D01*
X213283139Y-155948799D01*
X213283139Y-156190991D01*
X214494496Y-156190991D01*
X214494496Y-154980428D01*
G37*
X214494496Y-154980428D02*
X213283139Y-154980428D01*
X213283139Y-155222488D01*
X214252304Y-155222488D01*
X214252304Y-155948799D01*
X213283139Y-155948799D01*
X213283139Y-156190991D01*
X214494496Y-156190991D01*
X214494496Y-154980428D01*
G36*
X213041742Y-154980428D02*
X211830517Y-154980428D01*
X211830517Y-155222488D01*
X212798887Y-155222488D01*
X212798887Y-155464680D01*
X212314768Y-155464680D01*
X212314768Y-155706739D01*
X212798887Y-155706739D01*
X212798887Y-155948799D01*
X211830517Y-155948799D01*
X211830517Y-156190991D01*
X213041742Y-156190991D01*
X213041742Y-154980428D01*
G37*
X213041742Y-154980428D02*
X211830517Y-154980428D01*
X211830517Y-155222488D01*
X212798887Y-155222488D01*
X212798887Y-155464680D01*
X212314768Y-155464680D01*
X212314768Y-155706739D01*
X212798887Y-155706739D01*
X212798887Y-155948799D01*
X211830517Y-155948799D01*
X211830517Y-156190991D01*
X213041742Y-156190991D01*
X213041742Y-154980428D01*
G36*
X211471267Y-156318774D02*
X211541714Y-156154311D01*
X211572567Y-156066651D01*
X211606466Y-155941648D01*
X211633612Y-155785793D01*
X211644470Y-155603983D01*
X211641557Y-155514204D01*
X211627918Y-155389864D01*
X211598521Y-155238378D01*
X211546746Y-155068751D01*
X211476432Y-154905745D01*
X211191204Y-154905745D01*
X211260194Y-155088216D01*
X211284559Y-155171507D01*
X211309585Y-155284989D01*
X211329051Y-155427338D01*
X211336996Y-155594714D01*
X211334877Y-155683699D01*
X211322695Y-155821016D01*
X211296079Y-155988392D01*
X211247084Y-156168745D01*
X211187496Y-156321025D01*
X211471267Y-156318774D01*
G37*
X211471267Y-156318774D02*
X211541714Y-156154311D01*
X211572567Y-156066651D01*
X211606466Y-155941648D01*
X211633612Y-155785793D01*
X211644470Y-155603983D01*
X211641557Y-155514204D01*
X211627918Y-155389864D01*
X211598521Y-155238378D01*
X211546746Y-155068751D01*
X211476432Y-154905745D01*
X211191204Y-154905745D01*
X211260194Y-155088216D01*
X211284559Y-155171507D01*
X211309585Y-155284989D01*
X211329051Y-155427338D01*
X211336996Y-155594714D01*
X211334877Y-155683699D01*
X211322695Y-155821016D01*
X211296079Y-155988392D01*
X211247084Y-156168745D01*
X211187496Y-156321025D01*
X211471267Y-156318774D01*
G36*
X210402392Y-154904950D02*
X210330489Y-155070207D01*
X210301092Y-155157206D01*
X210267988Y-155281414D01*
X210240710Y-155438064D01*
X210229189Y-155619873D01*
X210232103Y-155709653D01*
X210244947Y-155834655D01*
X210274344Y-155986273D01*
X210325457Y-156155768D01*
X210395903Y-156321025D01*
X210682455Y-156318774D01*
X210612009Y-156136302D01*
X210588306Y-156052350D01*
X210564074Y-155938735D01*
X210544608Y-155796519D01*
X210536663Y-155629937D01*
X210539576Y-155540026D01*
X210550302Y-155402841D01*
X210576918Y-155236127D01*
X210625118Y-155055906D01*
X210683912Y-154905745D01*
X210402392Y-154905745D01*
X210402392Y-154904950D01*
G37*
X210402392Y-154904950D02*
X210330489Y-155070207D01*
X210301092Y-155157206D01*
X210267988Y-155281414D01*
X210240710Y-155438064D01*
X210229189Y-155619873D01*
X210232103Y-155709653D01*
X210244947Y-155834655D01*
X210274344Y-155986273D01*
X210325457Y-156155768D01*
X210395903Y-156321025D01*
X210682455Y-156318774D01*
X210612009Y-156136302D01*
X210588306Y-156052350D01*
X210564074Y-155938735D01*
X210544608Y-155796519D01*
X210536663Y-155629937D01*
X210539576Y-155540026D01*
X210550302Y-155402841D01*
X210576918Y-155236127D01*
X210625118Y-155055906D01*
X210683912Y-154905745D01*
X210402392Y-154905745D01*
X210402392Y-154904950D01*
G36*
X210058768Y-155808833D02*
X209842000Y-155808833D01*
X209842000Y-156233365D01*
X210058768Y-156233365D01*
X210058768Y-155808833D01*
G37*
X210058768Y-155808833D02*
X209842000Y-155808833D01*
X209842000Y-156233365D01*
X210058768Y-156233365D01*
X210058768Y-155808833D01*
G36*
X210058768Y-155338883D02*
X209842000Y-155338883D01*
X209842000Y-155546514D01*
X210058768Y-155546514D01*
X210058768Y-155338883D01*
G37*
X210058768Y-155338883D02*
X209842000Y-155338883D01*
X209842000Y-155546514D01*
X210058768Y-155546514D01*
X210058768Y-155338883D01*
D15*
X221956381Y-141406667D02*
X222670667Y-141406667D01*
X222813524Y-141359047D01*
X222908762Y-141263809D01*
X222956381Y-141120952D01*
X222956381Y-141025714D01*
X222956381Y-141882857D02*
X221956381Y-141882857D01*
X221956381Y-142263810D01*
X222004000Y-142359048D01*
X222051619Y-142406667D01*
X222146857Y-142454286D01*
X222289714Y-142454286D01*
X222384952Y-142406667D01*
X222432571Y-142359048D01*
X222480190Y-142263810D01*
X222480190Y-141882857D01*
X222956381Y-143406667D02*
X222956381Y-142835238D01*
X222956381Y-143120952D02*
X221956381Y-143120952D01*
X222099238Y-143025714D01*
X222194476Y-142930476D01*
X222242095Y-142835238D01*
X254468381Y-163250667D02*
X255182667Y-163250667D01*
X255325524Y-163203047D01*
X255420762Y-163107809D01*
X255468381Y-162964952D01*
X255468381Y-162869714D01*
X255468381Y-163726857D02*
X254468381Y-163726857D01*
X254468381Y-164107810D01*
X254516000Y-164203048D01*
X254563619Y-164250667D01*
X254658857Y-164298286D01*
X254801714Y-164298286D01*
X254896952Y-164250667D01*
X254944571Y-164203048D01*
X254992190Y-164107810D01*
X254992190Y-163726857D01*
X254468381Y-164631619D02*
X254468381Y-165250667D01*
X254849333Y-164917333D01*
X254849333Y-165060191D01*
X254896952Y-165155429D01*
X254944571Y-165203048D01*
X255039810Y-165250667D01*
X255277905Y-165250667D01*
X255373143Y-165203048D01*
X255420762Y-165155429D01*
X255468381Y-165060191D01*
X255468381Y-164774476D01*
X255420762Y-164679238D01*
X255373143Y-164631619D01*
X225258381Y-160456667D02*
X225972667Y-160456667D01*
X226115524Y-160409047D01*
X226210762Y-160313809D01*
X226258381Y-160170952D01*
X226258381Y-160075714D01*
X226258381Y-160932857D02*
X225258381Y-160932857D01*
X225258381Y-161313810D01*
X225306000Y-161409048D01*
X225353619Y-161456667D01*
X225448857Y-161504286D01*
X225591714Y-161504286D01*
X225686952Y-161456667D01*
X225734571Y-161409048D01*
X225782190Y-161313810D01*
X225782190Y-160932857D01*
X225353619Y-161885238D02*
X225306000Y-161932857D01*
X225258381Y-162028095D01*
X225258381Y-162266191D01*
X225306000Y-162361429D01*
X225353619Y-162409048D01*
X225448857Y-162456667D01*
X225544095Y-162456667D01*
X225686952Y-162409048D01*
X226258381Y-161837619D01*
X226258381Y-162456667D01*
D10*
X214246333Y-141936000D02*
X214479666Y-141936000D01*
X214479666Y-142302667D02*
X214479666Y-141602667D01*
X214146333Y-141602667D01*
X213513000Y-142302667D02*
X213913000Y-142302667D01*
X213713000Y-142302667D02*
X213713000Y-141602667D01*
X213779666Y-141702667D01*
X213846333Y-141769333D01*
X213913000Y-141802667D01*
X212679666Y-142302667D02*
X212679666Y-141602667D01*
X212679666Y-141869333D02*
X212613000Y-141836000D01*
X212479666Y-141836000D01*
X212413000Y-141869333D01*
X212379666Y-141902667D01*
X212346333Y-141969333D01*
X212346333Y-142169333D01*
X212379666Y-142236000D01*
X212413000Y-142269333D01*
X212479666Y-142302667D01*
X212613000Y-142302667D01*
X212679666Y-142269333D01*
X212113000Y-141836000D02*
X211946333Y-142302667D01*
X211779667Y-141836000D02*
X211946333Y-142302667D01*
X212013000Y-142469333D01*
X212046333Y-142502667D01*
X212113000Y-142536000D01*
X211513000Y-141836000D02*
X211513000Y-142536000D01*
X211513000Y-141869333D02*
X211446334Y-141836000D01*
X211313000Y-141836000D01*
X211246334Y-141869333D01*
X211213000Y-141902667D01*
X211179667Y-141969333D01*
X211179667Y-142169333D01*
X211213000Y-142236000D01*
X211246334Y-142269333D01*
X211313000Y-142302667D01*
X211446334Y-142302667D01*
X211513000Y-142269333D01*
X210579667Y-142302667D02*
X210579667Y-141936000D01*
X210613001Y-141869333D01*
X210679667Y-141836000D01*
X210813001Y-141836000D01*
X210879667Y-141869333D01*
X210579667Y-142269333D02*
X210646334Y-142302667D01*
X210813001Y-142302667D01*
X210879667Y-142269333D01*
X210913001Y-142202667D01*
X210913001Y-142136000D01*
X210879667Y-142069333D01*
X210813001Y-142036000D01*
X210646334Y-142036000D01*
X210579667Y-142002667D01*
X210279668Y-142269333D02*
X210213001Y-142302667D01*
X210079668Y-142302667D01*
X210013001Y-142269333D01*
X209979668Y-142202667D01*
X209979668Y-142169333D01*
X210013001Y-142102667D01*
X210079668Y-142069333D01*
X210179668Y-142069333D01*
X210246334Y-142036000D01*
X210279668Y-141969333D01*
X210279668Y-141936000D01*
X210246334Y-141869333D01*
X210179668Y-141836000D01*
X210079668Y-141836000D01*
X210013001Y-141869333D01*
X209713001Y-142269333D02*
X209646334Y-142302667D01*
X209513001Y-142302667D01*
X209446334Y-142269333D01*
X209413001Y-142202667D01*
X209413001Y-142169333D01*
X209446334Y-142102667D01*
X209513001Y-142069333D01*
X209613001Y-142069333D01*
X209679667Y-142036000D01*
X209713001Y-141969333D01*
X209713001Y-141936000D01*
X209679667Y-141869333D01*
X209613001Y-141836000D01*
X209513001Y-141836000D01*
X209446334Y-141869333D01*
%LPC*%
G36*
X226945000Y-152535000D02*
X226445000Y-152535000D01*
X225945000Y-151535000D01*
X227445000Y-151535000D01*
X226945000Y-152535000D01*
X226945000Y-152535000D01*
G37*
G36*
X227445000Y-149455000D02*
X225945000Y-149455000D01*
X226445000Y-148455000D01*
X226945000Y-148455000D01*
X227445000Y-149455000D01*
X227445000Y-149455000D01*
G37*
D17*
X226695000Y-150495000D03*
D10*
G36*
X253742000Y-165334000D02*
X253242000Y-165334000D01*
X252742000Y-164334000D01*
X254242000Y-164334000D01*
X253742000Y-165334000D01*
X253742000Y-165334000D01*
G37*
G36*
X254242000Y-163834000D02*
X252742000Y-163834000D01*
X253242000Y-162834000D01*
X253742000Y-162834000D01*
X254242000Y-163834000D01*
X254242000Y-163834000D01*
G37*
D18*
X207910000Y-163830000D03*
X207910000Y-165430000D03*
X206710000Y-164630000D03*
X207910000Y-162230000D03*
X206710000Y-163030000D03*
D19*
X207010000Y-160280000D03*
X207010000Y-167380000D03*
D20*
X202360000Y-167380000D03*
X202360000Y-160280000D03*
D21*
X208661000Y-133604000D03*
X217551000Y-133604000D03*
X210820000Y-137160000D03*
D22*
X210820000Y-139700000D03*
D10*
G36*
X219075000Y-168236835D02*
X217952114Y-167113949D01*
X219075000Y-165991063D01*
X220197886Y-167113949D01*
X219075000Y-168236835D01*
X219075000Y-168236835D01*
G37*
D21*
X217278949Y-168910000D03*
X219075000Y-170706051D03*
X238125000Y-151130000D03*
X240665000Y-151130000D03*
D22*
X252744000Y-148640013D03*
D21*
X255284000Y-148640013D03*
X252744000Y-151180013D03*
X255284000Y-151180013D03*
X252744000Y-153720013D03*
X255284000Y-153720013D03*
D22*
X230886000Y-128270000D03*
D21*
X228346000Y-128270000D03*
X225806000Y-128270000D03*
X223266000Y-128270000D03*
X220726000Y-128270000D03*
X218186000Y-128270000D03*
X215646000Y-128270000D03*
X213106000Y-128270000D03*
X210566000Y-128270000D03*
X208026000Y-128270000D03*
D22*
X240030000Y-176530000D03*
D21*
X242570000Y-176530000D03*
X245110000Y-176530000D03*
X247650000Y-176530000D03*
X250190000Y-176530000D03*
X252730000Y-176530000D03*
D22*
X217170000Y-176530000D03*
D21*
X219710000Y-176530000D03*
X222250000Y-176530000D03*
X224790000Y-176530000D03*
X227330000Y-176530000D03*
X229870000Y-176530000D03*
X232410000Y-176530000D03*
X234950000Y-176530000D03*
D23*
X221361000Y-148590000D03*
D24*
X221361000Y-153670000D03*
X221361000Y-151130000D03*
D25*
X204851000Y-151130000D03*
D26*
X215265000Y-162560000D03*
X215265000Y-160020000D03*
X217805000Y-162560000D03*
X217805000Y-160020000D03*
X236855000Y-133350000D03*
X234315000Y-133350000D03*
X238125000Y-148590000D03*
X240665000Y-148590000D03*
X253492000Y-158750000D03*
X253492000Y-161290000D03*
D27*
X212725000Y-160020000D03*
D26*
X212725000Y-162560000D03*
D10*
G36*
X224405000Y-162540000D02*
X223905000Y-162540000D01*
X223405000Y-161540000D01*
X224905000Y-161540000D01*
X224405000Y-162540000D01*
X224405000Y-162540000D01*
G37*
G36*
X224905000Y-161040000D02*
X223405000Y-161040000D01*
X223905000Y-160040000D01*
X224405000Y-160040000D01*
X224905000Y-161040000D01*
X224905000Y-161040000D01*
G37*
D27*
X252730000Y-128270000D03*
D26*
X250190000Y-128270000D03*
X247650000Y-128270000D03*
X245110000Y-128270000D03*
X242570000Y-128270000D03*
X240030000Y-128270000D03*
X237490000Y-128270000D03*
X234950000Y-128270000D03*
D27*
X259334000Y-154940000D03*
D26*
X259334000Y-157480000D03*
X259334000Y-160020000D03*
X259334000Y-162560000D03*
X259334000Y-165100000D03*
X259334000Y-167640000D03*
D27*
X225425000Y-168275000D03*
D26*
X227965000Y-168275000D03*
X230505000Y-168275000D03*
X233045000Y-168275000D03*
X235585000Y-168275000D03*
X238125000Y-168275000D03*
X251460000Y-133350000D03*
X242570000Y-133350000D03*
X248920000Y-149225000D03*
X248920000Y-158115000D03*
D28*
X201295000Y-135255000D03*
X206375000Y-135255000D03*
X201295000Y-142875000D03*
X206375000Y-142875000D03*
D29*
X221615000Y-165100000D03*
D28*
X224155000Y-165100000D03*
X226695000Y-165100000D03*
X229235000Y-165100000D03*
X231775000Y-165100000D03*
X234315000Y-165100000D03*
X236855000Y-165100000D03*
X236855000Y-157480000D03*
X234315000Y-157480000D03*
X231775000Y-157480000D03*
X229235000Y-157480000D03*
X226695000Y-157480000D03*
X224155000Y-157480000D03*
X221615000Y-157480000D03*
X249555000Y-138430000D03*
X247015000Y-138430000D03*
X244475000Y-138430000D03*
X241935000Y-138430000D03*
X239395000Y-138430000D03*
X236855000Y-138430000D03*
X234315000Y-138430000D03*
X231775000Y-138430000D03*
X229235000Y-138430000D03*
X226695000Y-138430000D03*
X224155000Y-138430000D03*
X221615000Y-138430000D03*
X219075000Y-138430000D03*
D29*
X252095000Y-138430000D03*
D28*
X219075000Y-146050000D03*
X221615000Y-146050000D03*
X224155000Y-146050000D03*
X226695000Y-146050000D03*
X229235000Y-146050000D03*
X231775000Y-146050000D03*
X234315000Y-146050000D03*
X236855000Y-146050000D03*
X239395000Y-146050000D03*
X241935000Y-146050000D03*
X244475000Y-146050000D03*
X247015000Y-146050000D03*
X249555000Y-146050000D03*
X252095000Y-146050000D03*
D30*
X203708000Y-130556000D03*
X257048000Y-130556000D03*
X203708000Y-174244000D03*
X257048000Y-174244000D03*
D31*
X224155000Y-153035000D03*
D32*
X224155000Y-150495000D03*
D31*
X210820000Y-165100000D03*
D32*
X213360000Y-165100000D03*
D10*
G36*
X210701000Y-143887000D02*
X210701000Y-143387000D01*
X211701000Y-142887000D01*
X211701000Y-144387000D01*
X210701000Y-143887000D01*
X210701000Y-143887000D01*
G37*
G36*
X212225000Y-144387000D02*
X212225000Y-142887000D01*
X213225000Y-143387000D01*
X213225000Y-143887000D01*
X212225000Y-144387000D01*
X212225000Y-144387000D01*
G37*
M02*
