G04 #@! TF.FileFunction,Copper,L2,Bot,Signal*
%FSLAX46Y46*%
G04 Gerber Fmt 4.6, Leading zero omitted, Abs format (unit mm)*
G04 Created by KiCad (PCBNEW 4.0.2-stable) date 2016 March 27, Sunday 01:25:21*
%MOMM*%
G01*
G04 APERTURE LIST*
%ADD10C,0.150000*%
%ADD11R,1.540000X1.540000*%
%ADD12C,1.100000*%
%ADD13O,2.600000X2.300000*%
%ADD14O,2.800000X2.600000*%
%ADD15C,1.588000*%
%ADD16R,1.588000X1.588000*%
%ADD17R,2.540000X1.750000*%
%ADD18O,2.540000X1.750000*%
%ADD19R,8.890000X8.890000*%
%ADD20C,1.397000*%
%ADD21R,1.397000X1.397000*%
%ADD22O,1.574800X2.286000*%
%ADD23R,1.574800X2.286000*%
%ADD24C,6.000000*%
%ADD25R,1.651000X1.651000*%
%ADD26C,1.651000*%
%ADD27C,0.889000*%
%ADD28C,0.254000*%
%ADD29C,0.508000*%
%ADD30C,1.270000*%
G04 APERTURE END LIST*
D10*
G36*
X226945000Y-152535000D02*
X226445000Y-152535000D01*
X225945000Y-151535000D01*
X227445000Y-151535000D01*
X226945000Y-152535000D01*
X226945000Y-152535000D01*
G37*
G36*
X227445000Y-149455000D02*
X225945000Y-149455000D01*
X226445000Y-148455000D01*
X226945000Y-148455000D01*
X227445000Y-149455000D01*
X227445000Y-149455000D01*
G37*
D11*
X226695000Y-150495000D03*
D10*
G36*
X253742000Y-165334000D02*
X253242000Y-165334000D01*
X252742000Y-164334000D01*
X254242000Y-164334000D01*
X253742000Y-165334000D01*
X253742000Y-165334000D01*
G37*
G36*
X254242000Y-163834000D02*
X252742000Y-163834000D01*
X253242000Y-162834000D01*
X253742000Y-162834000D01*
X254242000Y-163834000D01*
X254242000Y-163834000D01*
G37*
D12*
X207910000Y-163830000D03*
X207910000Y-165430000D03*
X206710000Y-164630000D03*
X207910000Y-162230000D03*
X206710000Y-163030000D03*
D13*
X207010000Y-160280000D03*
X207010000Y-167380000D03*
D14*
X202360000Y-167380000D03*
X202360000Y-160280000D03*
D15*
X208661000Y-133604000D03*
X217551000Y-133604000D03*
X210820000Y-137160000D03*
D16*
X210820000Y-139700000D03*
D10*
G36*
X219075000Y-168236835D02*
X217952114Y-167113949D01*
X219075000Y-165991063D01*
X220197886Y-167113949D01*
X219075000Y-168236835D01*
X219075000Y-168236835D01*
G37*
D15*
X217278949Y-168910000D03*
X219075000Y-170706051D03*
X238125000Y-151130000D03*
X240665000Y-151130000D03*
D16*
X252744000Y-148640013D03*
D15*
X255284000Y-148640013D03*
X252744000Y-151180013D03*
X255284000Y-151180013D03*
X252744000Y-153720013D03*
X255284000Y-153720013D03*
D16*
X230886000Y-128270000D03*
D15*
X228346000Y-128270000D03*
X225806000Y-128270000D03*
X223266000Y-128270000D03*
X220726000Y-128270000D03*
X218186000Y-128270000D03*
X215646000Y-128270000D03*
X213106000Y-128270000D03*
X210566000Y-128270000D03*
X208026000Y-128270000D03*
D16*
X240030000Y-176530000D03*
D15*
X242570000Y-176530000D03*
X245110000Y-176530000D03*
X247650000Y-176530000D03*
X250190000Y-176530000D03*
X252730000Y-176530000D03*
D16*
X217170000Y-176530000D03*
D15*
X219710000Y-176530000D03*
X222250000Y-176530000D03*
X224790000Y-176530000D03*
X227330000Y-176530000D03*
X229870000Y-176530000D03*
X232410000Y-176530000D03*
X234950000Y-176530000D03*
D17*
X221361000Y-148590000D03*
D18*
X221361000Y-153670000D03*
X221361000Y-151130000D03*
D19*
X204851000Y-151130000D03*
D20*
X215265000Y-162560000D03*
X215265000Y-160020000D03*
X217805000Y-162560000D03*
X217805000Y-160020000D03*
X236855000Y-133350000D03*
X234315000Y-133350000D03*
X238125000Y-148590000D03*
X240665000Y-148590000D03*
X253492000Y-158750000D03*
X253492000Y-161290000D03*
D21*
X212725000Y-160020000D03*
D20*
X212725000Y-162560000D03*
D10*
G36*
X224405000Y-162540000D02*
X223905000Y-162540000D01*
X223405000Y-161540000D01*
X224905000Y-161540000D01*
X224405000Y-162540000D01*
X224405000Y-162540000D01*
G37*
G36*
X224905000Y-161040000D02*
X223405000Y-161040000D01*
X223905000Y-160040000D01*
X224405000Y-160040000D01*
X224905000Y-161040000D01*
X224905000Y-161040000D01*
G37*
D21*
X252730000Y-128270000D03*
D20*
X250190000Y-128270000D03*
X247650000Y-128270000D03*
X245110000Y-128270000D03*
X242570000Y-128270000D03*
X240030000Y-128270000D03*
X237490000Y-128270000D03*
X234950000Y-128270000D03*
D21*
X259334000Y-154940000D03*
D20*
X259334000Y-157480000D03*
X259334000Y-160020000D03*
X259334000Y-162560000D03*
X259334000Y-165100000D03*
X259334000Y-167640000D03*
D21*
X225425000Y-168275000D03*
D20*
X227965000Y-168275000D03*
X230505000Y-168275000D03*
X233045000Y-168275000D03*
X235585000Y-168275000D03*
X238125000Y-168275000D03*
X251460000Y-133350000D03*
X242570000Y-133350000D03*
X248920000Y-149225000D03*
X248920000Y-158115000D03*
D22*
X201295000Y-135255000D03*
X206375000Y-135255000D03*
X201295000Y-142875000D03*
X206375000Y-142875000D03*
D23*
X221615000Y-165100000D03*
D22*
X224155000Y-165100000D03*
X226695000Y-165100000D03*
X229235000Y-165100000D03*
X231775000Y-165100000D03*
X234315000Y-165100000D03*
X236855000Y-165100000D03*
X236855000Y-157480000D03*
X234315000Y-157480000D03*
X231775000Y-157480000D03*
X229235000Y-157480000D03*
X226695000Y-157480000D03*
X224155000Y-157480000D03*
X221615000Y-157480000D03*
X249555000Y-138430000D03*
X247015000Y-138430000D03*
X244475000Y-138430000D03*
X241935000Y-138430000D03*
X239395000Y-138430000D03*
X236855000Y-138430000D03*
X234315000Y-138430000D03*
X231775000Y-138430000D03*
X229235000Y-138430000D03*
X226695000Y-138430000D03*
X224155000Y-138430000D03*
X221615000Y-138430000D03*
X219075000Y-138430000D03*
D23*
X252095000Y-138430000D03*
D22*
X219075000Y-146050000D03*
X221615000Y-146050000D03*
X224155000Y-146050000D03*
X226695000Y-146050000D03*
X229235000Y-146050000D03*
X231775000Y-146050000D03*
X234315000Y-146050000D03*
X236855000Y-146050000D03*
X239395000Y-146050000D03*
X241935000Y-146050000D03*
X244475000Y-146050000D03*
X247015000Y-146050000D03*
X249555000Y-146050000D03*
X252095000Y-146050000D03*
D24*
X203708000Y-130556000D03*
X257048000Y-130556000D03*
X203708000Y-174244000D03*
X257048000Y-174244000D03*
D25*
X224155000Y-153035000D03*
D26*
X224155000Y-150495000D03*
D25*
X210820000Y-165100000D03*
D26*
X213360000Y-165100000D03*
D10*
G36*
X210701000Y-143887000D02*
X210701000Y-143387000D01*
X211701000Y-142887000D01*
X211701000Y-144387000D01*
X210701000Y-143887000D01*
X210701000Y-143887000D01*
G37*
G36*
X212225000Y-144387000D02*
X212225000Y-142887000D01*
X213225000Y-143387000D01*
X213225000Y-143887000D01*
X212225000Y-144387000D01*
X212225000Y-144387000D01*
G37*
D27*
X221615000Y-170307000D03*
X227330000Y-170307000D03*
X246380000Y-157480000D03*
X225425000Y-131445000D03*
X227330000Y-132080000D03*
X243840000Y-152400000D03*
X243840000Y-149860000D03*
X229235000Y-132715000D03*
X231140000Y-133350000D03*
X250825000Y-134620000D03*
X253492000Y-132969000D03*
X232410000Y-133985000D03*
X241300000Y-157480000D03*
X241300000Y-170180000D03*
X254000000Y-165735000D03*
X214630000Y-153670000D03*
X234950000Y-173990000D03*
X214630000Y-157480000D03*
X213360000Y-171450000D03*
X211328000Y-149860000D03*
X251206000Y-175260000D03*
X251206000Y-158750000D03*
X223901000Y-175260000D03*
X254000000Y-141732000D03*
X230505000Y-171958000D03*
X232410000Y-171958000D03*
X256540000Y-167640000D03*
X256540000Y-155575000D03*
X241300000Y-155575000D03*
X214503000Y-148463000D03*
X226695000Y-153924000D03*
X217805000Y-151638000D03*
X223520000Y-168275000D03*
D28*
X220218000Y-155448000D02*
X220599000Y-155829000D01*
X220599000Y-155829000D02*
X222377000Y-155829000D01*
X222377000Y-155829000D02*
X222758000Y-155448000D01*
X222758000Y-155448000D02*
X223139000Y-155448000D01*
X222504000Y-155067000D02*
X220472000Y-155067000D01*
X220472000Y-155067000D02*
X220218000Y-155321000D01*
X220218000Y-155321000D02*
X220218000Y-155448000D01*
X223139000Y-155448000D02*
X222885000Y-155448000D01*
X222885000Y-155448000D02*
X222504000Y-155067000D01*
D29*
X223139000Y-155448000D02*
X220218000Y-155448000D01*
D30*
X223139000Y-155448000D02*
X223266000Y-155321000D01*
X219202000Y-156464000D02*
X220218000Y-155448000D01*
X219202000Y-156972000D02*
X219202000Y-156464000D01*
X221615000Y-160655000D02*
X221615000Y-165100000D01*
X221615000Y-160655000D02*
X219202000Y-158242000D01*
X219202000Y-158242000D02*
X219202000Y-156972000D01*
X219202000Y-156972000D02*
X219202000Y-156845000D01*
X231775000Y-147320000D02*
X231775000Y-146050000D01*
X221615000Y-170307000D02*
X221615000Y-173990000D01*
X219710000Y-175895000D02*
X221615000Y-173990000D01*
X219710000Y-175895000D02*
X219710000Y-176530000D01*
X227965000Y-168275000D02*
X227965000Y-169672000D01*
X227965000Y-169672000D02*
X227330000Y-170307000D01*
X227330000Y-176530000D02*
X227330000Y-170307000D01*
X221615000Y-170307000D02*
X221615000Y-165100000D01*
X236855000Y-133350000D02*
X241935000Y-133350000D01*
X236855000Y-138430000D02*
X236855000Y-133350000D01*
X231775000Y-147320000D02*
X228600000Y-150495000D01*
X223266000Y-155321000D02*
X228600000Y-155321000D01*
X228600000Y-153035000D02*
X228600000Y-150495000D01*
X228600000Y-155321000D02*
X228600000Y-153035000D01*
D28*
X224155000Y-150495000D02*
X226695000Y-150495000D01*
D30*
X224155000Y-150495000D02*
X228600000Y-150495000D01*
D28*
X248285000Y-146812000D02*
X248285000Y-148209000D01*
X249555000Y-141605000D02*
X248285000Y-142875000D01*
X248285000Y-142875000D02*
X248285000Y-146812000D01*
X249555000Y-138430000D02*
X249555000Y-141605000D01*
X248285000Y-148209000D02*
X248666000Y-148590000D01*
X252730000Y-128270000D02*
X252730000Y-130175000D01*
X252730000Y-130175000D02*
X249555000Y-133350000D01*
X249555000Y-133350000D02*
X249555000Y-138430000D01*
X246380000Y-149225000D02*
X246380000Y-153670000D01*
X245745000Y-148590000D02*
X246380000Y-149225000D01*
X247015000Y-141605000D02*
X245745000Y-142875000D01*
X245745000Y-142875000D02*
X245745000Y-148590000D01*
X247015000Y-138430000D02*
X247015000Y-141605000D01*
X247015000Y-134747000D02*
X247015000Y-138430000D01*
X250190000Y-131572000D02*
X247015000Y-134747000D01*
X250190000Y-128270000D02*
X250190000Y-131572000D01*
X246380000Y-157480000D02*
X246380000Y-153670000D01*
X225425000Y-131445000D02*
X221615000Y-135255000D01*
X220345000Y-136525000D02*
X221615000Y-135255000D01*
X221615000Y-142875000D02*
X220345000Y-141605000D01*
X220345000Y-141605000D02*
X220345000Y-136525000D01*
X221615000Y-142875000D02*
X221615000Y-146050000D01*
X222885000Y-136525000D02*
X227330000Y-132080000D01*
X222885000Y-136525000D02*
X222885000Y-139065000D01*
X224155000Y-142875000D02*
X222885000Y-141605000D01*
X222885000Y-141605000D02*
X222885000Y-139065000D01*
X224155000Y-142875000D02*
X224155000Y-146050000D01*
X243840000Y-152400000D02*
X243840000Y-149860000D01*
X225425000Y-136525000D02*
X229235000Y-132715000D01*
X225425000Y-141605000D02*
X225425000Y-136525000D01*
X226695000Y-142875000D02*
X226695000Y-146050000D01*
X226695000Y-142875000D02*
X225425000Y-141605000D01*
X218186000Y-128270000D02*
X218186000Y-133604000D01*
X229235000Y-142875000D02*
X227965000Y-141605000D01*
X227965000Y-141605000D02*
X227965000Y-136525000D01*
X227965000Y-136525000D02*
X231140000Y-133350000D01*
X229235000Y-142875000D02*
X229235000Y-146050000D01*
X240030000Y-166878000D02*
X240030000Y-176530000D01*
X239395000Y-146050000D02*
X239395000Y-166243000D01*
X239395000Y-166243000D02*
X240030000Y-166878000D01*
X241935000Y-146050000D02*
X241935000Y-145923000D01*
X242570000Y-146685000D02*
X242570000Y-176530000D01*
X241935000Y-145923000D02*
X242570000Y-146685000D01*
X245046500Y-149161500D02*
X245110000Y-176530000D01*
X245110000Y-176530000D02*
X245110000Y-174625000D01*
X244475000Y-146050000D02*
X244411500Y-148526500D01*
X244411500Y-148526500D02*
X245046500Y-149161500D01*
X247015000Y-146050000D02*
X247015000Y-148971000D01*
X247650000Y-160274000D02*
X247396000Y-160020000D01*
X247396000Y-160020000D02*
X247396000Y-156972000D01*
X247650000Y-160274000D02*
X247650000Y-176530000D01*
X247396000Y-149352000D02*
X247396000Y-156972000D01*
X247015000Y-148971000D02*
X247396000Y-149352000D01*
X249555000Y-142875000D02*
X249555000Y-146050000D01*
X250825000Y-141605000D02*
X249555000Y-142875000D01*
X250825000Y-134620000D02*
X250825000Y-141605000D01*
X250190000Y-176530000D02*
X250190000Y-146685000D01*
X249555000Y-146050000D02*
X249555000Y-146050000D01*
X250190000Y-146685000D02*
X249555000Y-146050000D01*
X252730000Y-176530000D02*
X252222000Y-176022000D01*
X252095000Y-146685000D02*
X250825000Y-147955000D01*
X250825000Y-147955000D02*
X250825000Y-154940000D01*
X250825000Y-154940000D02*
X252222000Y-156337000D01*
X252222000Y-156337000D02*
X252222000Y-176022000D01*
X252095000Y-146685000D02*
X252095000Y-146050000D01*
X252095000Y-142367000D02*
X252095000Y-146050000D01*
X253365000Y-141097000D02*
X252095000Y-142367000D01*
X253492000Y-132969000D02*
X253365000Y-141097000D01*
X244475000Y-136017000D02*
X244475000Y-138430000D01*
X247650000Y-128270000D02*
X247650000Y-132842000D01*
X247650000Y-132842000D02*
X244475000Y-136017000D01*
X241935000Y-137287000D02*
X241935000Y-138430000D01*
X245110000Y-128270000D02*
X245110000Y-134112000D01*
X245110000Y-134112000D02*
X241935000Y-137287000D01*
X242570000Y-128270000D02*
X243713000Y-129159000D01*
X243713000Y-134366000D02*
X239395000Y-138430000D01*
X243713000Y-129159000D02*
X243713000Y-134366000D01*
X226695000Y-138430000D02*
X226695000Y-136525000D01*
X236855000Y-131445000D02*
X236220000Y-132080000D01*
X236220000Y-132080000D02*
X231140000Y-132080000D01*
X236855000Y-131445000D02*
X240030000Y-128270000D01*
X229870000Y-133350000D02*
X231140000Y-132080000D01*
X226695000Y-136525000D02*
X229870000Y-133350000D01*
X224155000Y-136525000D02*
X224155000Y-138430000D01*
X229235000Y-131445000D02*
X224155000Y-136525000D01*
X234315000Y-131445000D02*
X229235000Y-131445000D01*
X237490000Y-128270000D02*
X235585000Y-130175000D01*
X235585000Y-130175000D02*
X234315000Y-131445000D01*
X221615000Y-136525000D02*
X221615000Y-138430000D01*
X227330000Y-130810000D02*
X232410000Y-130810000D01*
X234950000Y-128270000D02*
X232410000Y-130810000D01*
X221615000Y-136525000D02*
X227330000Y-130810000D01*
X228981000Y-130175000D02*
X230886000Y-128270000D01*
X219075000Y-138430000D02*
X219075000Y-136525000D01*
X219075000Y-136525000D02*
X225425000Y-130175000D01*
X225425000Y-130175000D02*
X228981000Y-130175000D01*
X217805000Y-141605000D02*
X217805000Y-136525000D01*
X224790000Y-129540000D02*
X227076000Y-129540000D01*
X224790000Y-129540000D02*
X217805000Y-136525000D01*
X219075000Y-146050000D02*
X219075000Y-142875000D01*
X219075000Y-142875000D02*
X217805000Y-141605000D01*
X227076000Y-129540000D02*
X228346000Y-128270000D01*
X233045000Y-134620000D02*
X232410000Y-133985000D01*
X234315000Y-142875000D02*
X233045000Y-141605000D01*
X234315000Y-146050000D02*
X234315000Y-142875000D01*
X233045000Y-141605000D02*
X233045000Y-134620000D01*
X235585000Y-168275000D02*
X235585000Y-161925000D01*
X234315000Y-160655000D02*
X234315000Y-157480000D01*
X235585000Y-161925000D02*
X234315000Y-160655000D01*
X231775000Y-157480000D02*
X231775000Y-160655000D01*
X233045000Y-161925000D02*
X233045000Y-168275000D01*
X231775000Y-160655000D02*
X233045000Y-161925000D01*
X241300000Y-170180000D02*
X241300000Y-157480000D01*
X253492000Y-164834000D02*
X253377000Y-164834000D01*
X253377000Y-164834000D02*
X254000000Y-165735000D01*
D30*
X214630000Y-153670000D02*
X214630000Y-157480000D01*
X234950000Y-176530000D02*
X234950000Y-173990000D01*
X213360000Y-171450000D02*
X213360000Y-165100000D01*
D29*
X211328000Y-149860000D02*
X211328000Y-143764000D01*
X211328000Y-143764000D02*
X211201000Y-143637000D01*
D30*
X211201000Y-149733000D02*
X211328000Y-149860000D01*
X209296000Y-159512000D02*
X209296000Y-159004000D01*
X209296000Y-161036000D02*
X209296000Y-159512000D01*
X208102000Y-162230000D02*
X209296000Y-161036000D01*
X211328000Y-156972000D02*
X211328000Y-149860000D01*
X209296000Y-159004000D02*
X211328000Y-156972000D01*
X207910000Y-162230000D02*
X208102000Y-162230000D01*
D28*
X207910000Y-162230000D02*
X207910000Y-162168000D01*
X229235000Y-165100000D02*
X226060000Y-168275000D01*
X226060000Y-168275000D02*
X225425000Y-168275000D01*
X253492000Y-158750000D02*
X253492000Y-154468013D01*
X253492000Y-154468013D02*
X252744000Y-153720013D01*
X251206000Y-175260000D02*
X251206000Y-158750000D01*
X222250000Y-175895000D02*
X222250000Y-176530000D01*
X222758000Y-175260000D02*
X222250000Y-175895000D01*
X223901000Y-175260000D02*
X222758000Y-175260000D01*
X252744000Y-153720013D02*
X252744000Y-153656000D01*
X254000000Y-152400000D02*
X254000000Y-141732000D01*
X252744000Y-153656000D02*
X254000000Y-152400000D01*
X252095000Y-133350000D02*
X252095000Y-138430000D01*
X201295000Y-142875000D02*
X201295000Y-135255000D01*
D30*
X210820000Y-165100000D02*
X210820000Y-161290000D01*
X210490000Y-165430000D02*
X210820000Y-165100000D01*
X256540000Y-167640000D02*
X256540000Y-161925000D01*
X256540000Y-154940000D02*
X256540000Y-161925000D01*
X230505000Y-168275000D02*
X230505000Y-171958000D01*
D28*
X232410000Y-176530000D02*
X232410000Y-171958000D01*
X224155000Y-160540000D02*
X224155000Y-160020000D01*
X224155000Y-160020000D02*
X221615000Y-157480000D01*
D30*
X210820000Y-161290000D02*
X212090000Y-160020000D01*
X234315000Y-138430000D02*
X234315000Y-133350000D01*
X207910000Y-165430000D02*
X210490000Y-165430000D01*
D28*
X236855000Y-142875000D02*
X238760000Y-142875000D01*
X238760000Y-142875000D02*
X240665000Y-144780000D01*
X240665000Y-148590000D02*
X240665000Y-145415000D01*
X240665000Y-145415000D02*
X240665000Y-144780000D01*
D30*
X240665000Y-151130000D02*
X240665000Y-154940000D01*
X256540000Y-155575000D02*
X256540000Y-154940000D01*
X240665000Y-154940000D02*
X241300000Y-155575000D01*
X255320013Y-153720013D02*
X256540000Y-154940000D01*
X255320013Y-153720013D02*
X255284000Y-153720013D01*
X234315000Y-138430000D02*
X234315000Y-140335000D01*
X234315000Y-140335000D02*
X236855000Y-142875000D01*
X236855000Y-142875000D02*
X236855000Y-142875000D01*
X236855000Y-142875000D02*
X236855000Y-146050000D01*
X215265000Y-160020000D02*
X212090000Y-160020000D01*
X210947000Y-140462000D02*
X206375000Y-140335000D01*
X206375000Y-135255000D02*
X206375000Y-140335000D01*
X206375000Y-140335000D02*
X206375000Y-142875000D01*
X217805000Y-160020000D02*
X215265000Y-160020000D01*
X240665000Y-148590000D02*
X240665000Y-151130000D01*
D28*
X253492000Y-161290000D02*
X253492000Y-163334000D01*
D29*
X212725000Y-143637000D02*
X213233000Y-143637000D01*
X213233000Y-143637000D02*
X214503000Y-144907000D01*
D30*
X214503000Y-143764000D02*
X214503000Y-144907000D01*
X214503000Y-144907000D02*
X214503000Y-148463000D01*
D28*
X226695000Y-153924000D02*
X226695000Y-152908000D01*
X226695000Y-152035000D02*
X225695000Y-152035000D01*
X225695000Y-152035000D02*
X225425000Y-151765000D01*
X225425000Y-151765000D02*
X223012000Y-151765000D01*
X223012000Y-151765000D02*
X222377000Y-152400000D01*
X222377000Y-152400000D02*
X219329000Y-152400000D01*
X219329000Y-152400000D02*
X217805000Y-151638000D01*
X226695000Y-152908000D02*
X226695000Y-152035000D01*
D29*
X226695000Y-148745000D02*
X221770000Y-148745000D01*
X221770000Y-148745000D02*
X221615000Y-148590000D01*
D28*
X224155000Y-165100000D02*
X224155000Y-162040000D01*
X233045000Y-142875000D02*
X233045000Y-150495000D01*
X230505000Y-159385000D02*
X226695000Y-163195000D01*
X226695000Y-165100000D02*
X226695000Y-163195000D01*
X231775000Y-141605000D02*
X233045000Y-142875000D01*
X231775000Y-141605000D02*
X231775000Y-138430000D01*
X230505000Y-153035000D02*
X230505000Y-159385000D01*
X233045000Y-150495000D02*
X230505000Y-153035000D01*
D29*
X212725000Y-162560000D02*
X213995000Y-163830000D01*
X215791051Y-163830000D02*
X219075000Y-167113949D01*
X213995000Y-163830000D02*
X215791051Y-163830000D01*
D30*
X224790000Y-176530000D02*
X225425000Y-175895000D01*
X223520000Y-172085000D02*
X223520000Y-168275000D01*
X225425000Y-173990000D02*
X223520000Y-172085000D01*
X225425000Y-175895000D02*
X225425000Y-173990000D01*
D28*
G36*
X235940378Y-132737714D02*
X235775687Y-133134332D01*
X235775313Y-133563784D01*
X235839000Y-133717918D01*
X235839000Y-137502440D01*
X235775539Y-137597416D01*
X235718641Y-137883464D01*
X235580525Y-137412738D01*
X235230986Y-136978809D01*
X234741996Y-136711673D01*
X234662060Y-136694990D01*
X234442000Y-136817148D01*
X234442000Y-138303000D01*
X234462000Y-138303000D01*
X234462000Y-138557000D01*
X234442000Y-138557000D01*
X234442000Y-140042852D01*
X234662060Y-140165010D01*
X234741996Y-140148327D01*
X235230986Y-139881191D01*
X235580525Y-139447262D01*
X235718641Y-138976536D01*
X235775539Y-139262584D01*
X236028816Y-139641641D01*
X236407873Y-139894918D01*
X236855000Y-139983857D01*
X237302127Y-139894918D01*
X237681184Y-139641641D01*
X237934461Y-139262584D01*
X238023400Y-138815457D01*
X238023400Y-138044543D01*
X237934461Y-137597416D01*
X237871000Y-137502440D01*
X237871000Y-134366000D01*
X241935000Y-134366000D01*
X242115428Y-134330111D01*
X242354332Y-134429313D01*
X242783784Y-134429687D01*
X242998295Y-134341053D01*
X240057420Y-137108936D01*
X239842127Y-136965082D01*
X239395000Y-136876143D01*
X238947873Y-136965082D01*
X238568816Y-137218359D01*
X238315539Y-137597416D01*
X238226600Y-138044543D01*
X238226600Y-138815457D01*
X238315539Y-139262584D01*
X238568816Y-139641641D01*
X238947873Y-139894918D01*
X239395000Y-139983857D01*
X239842127Y-139894918D01*
X240221184Y-139641641D01*
X240474461Y-139262584D01*
X240563400Y-138815457D01*
X240563400Y-138044543D01*
X240560618Y-138030558D01*
X240817467Y-137788818D01*
X240766600Y-138044543D01*
X240766600Y-138815457D01*
X240855539Y-139262584D01*
X241108816Y-139641641D01*
X241487873Y-139894918D01*
X241935000Y-139983857D01*
X242382127Y-139894918D01*
X242761184Y-139641641D01*
X243014461Y-139262584D01*
X243103400Y-138815457D01*
X243103400Y-138044543D01*
X243014461Y-137597416D01*
X242761184Y-137218359D01*
X242737731Y-137202689D01*
X243977821Y-135962599D01*
X243967000Y-136017000D01*
X243967000Y-137005756D01*
X243648816Y-137218359D01*
X243395539Y-137597416D01*
X243306600Y-138044543D01*
X243306600Y-138815457D01*
X243395539Y-139262584D01*
X243648816Y-139641641D01*
X244027873Y-139894918D01*
X244475000Y-139983857D01*
X244922127Y-139894918D01*
X245301184Y-139641641D01*
X245554461Y-139262584D01*
X245643400Y-138815457D01*
X245643400Y-138044543D01*
X245554461Y-137597416D01*
X245301184Y-137218359D01*
X244983000Y-137005756D01*
X244983000Y-136227420D01*
X246517821Y-134692599D01*
X246507000Y-134747000D01*
X246507000Y-137005756D01*
X246188816Y-137218359D01*
X245935539Y-137597416D01*
X245846600Y-138044543D01*
X245846600Y-138815457D01*
X245935539Y-139262584D01*
X246188816Y-139641641D01*
X246507000Y-139854244D01*
X246507000Y-141394580D01*
X245385790Y-142515790D01*
X245275669Y-142680597D01*
X245237000Y-142875000D01*
X245237000Y-144795473D01*
X244922127Y-144585082D01*
X244475000Y-144496143D01*
X244027873Y-144585082D01*
X243648816Y-144838359D01*
X243395539Y-145217416D01*
X243306600Y-145664543D01*
X243306600Y-146435457D01*
X243395539Y-146882584D01*
X243648816Y-147261641D01*
X243930932Y-147450144D01*
X243903667Y-148513479D01*
X243904792Y-148520005D01*
X243903500Y-148526500D01*
X243921588Y-148617434D01*
X243937340Y-148708809D01*
X243940877Y-148714408D01*
X243942169Y-148720903D01*
X243993688Y-148798006D01*
X244043201Y-148876384D01*
X244048610Y-148880202D01*
X244052290Y-148885710D01*
X244538988Y-149372408D01*
X244539033Y-149391800D01*
X244308219Y-149160583D01*
X244004923Y-149034643D01*
X243676518Y-149034357D01*
X243373002Y-149159767D01*
X243140583Y-149391781D01*
X243078000Y-149542497D01*
X243078000Y-146685000D01*
X243065881Y-146624076D01*
X243103400Y-146435457D01*
X243103400Y-145664543D01*
X243014461Y-145217416D01*
X242761184Y-144838359D01*
X242382127Y-144585082D01*
X241935000Y-144496143D01*
X241487873Y-144585082D01*
X241108816Y-144838359D01*
X240855539Y-145217416D01*
X240766600Y-145664543D01*
X240766600Y-146435457D01*
X240855539Y-146882584D01*
X241108816Y-147261641D01*
X241332969Y-147411415D01*
X240857520Y-147244073D01*
X240327801Y-147272852D01*
X240003148Y-147407327D01*
X240221184Y-147261641D01*
X240474461Y-146882584D01*
X240563400Y-146435457D01*
X240563400Y-145664543D01*
X240474461Y-145217416D01*
X240221184Y-144838359D01*
X239842127Y-144585082D01*
X239395000Y-144496143D01*
X238947873Y-144585082D01*
X238568816Y-144838359D01*
X238315539Y-145217416D01*
X238258641Y-145503464D01*
X238120525Y-145032738D01*
X237770986Y-144598809D01*
X237281996Y-144331673D01*
X237202060Y-144314990D01*
X236982000Y-144437148D01*
X236982000Y-145923000D01*
X237002000Y-145923000D01*
X237002000Y-146177000D01*
X236982000Y-146177000D01*
X236982000Y-147662852D01*
X237202060Y-147785010D01*
X237281996Y-147768327D01*
X237770986Y-147501191D01*
X238120525Y-147067262D01*
X238258641Y-146596536D01*
X238315539Y-146882584D01*
X238568816Y-147261641D01*
X238887000Y-147474244D01*
X238887000Y-147825354D01*
X238737286Y-147675378D01*
X238340668Y-147510687D01*
X237911216Y-147510313D01*
X237514311Y-147674311D01*
X237210378Y-147977714D01*
X237045687Y-148374332D01*
X237045313Y-148803784D01*
X237209311Y-149200689D01*
X237512714Y-149504622D01*
X237909332Y-149669313D01*
X238338784Y-149669687D01*
X238735689Y-149505689D01*
X238887000Y-149354642D01*
X238887000Y-150230178D01*
X238791453Y-150134464D01*
X238359747Y-149955204D01*
X237892303Y-149954796D01*
X237460285Y-150133302D01*
X237129464Y-150463547D01*
X236950204Y-150895253D01*
X236949796Y-151362697D01*
X237128302Y-151794715D01*
X237458547Y-152125536D01*
X237890253Y-152304796D01*
X238357697Y-152305204D01*
X238789715Y-152126698D01*
X238887000Y-152029582D01*
X238887000Y-166243000D01*
X238925669Y-166437403D01*
X239035790Y-166602210D01*
X239522000Y-167088421D01*
X239522000Y-175347536D01*
X239236000Y-175347536D01*
X239094810Y-175374103D01*
X238965135Y-175457546D01*
X238878141Y-175584866D01*
X238847536Y-175736000D01*
X238847536Y-177324000D01*
X238874103Y-177465190D01*
X238957546Y-177594865D01*
X238998723Y-177623000D01*
X235381646Y-177623000D01*
X235614715Y-177526698D01*
X235945536Y-177196453D01*
X236124796Y-176764747D01*
X236125204Y-176297303D01*
X235966000Y-175911999D01*
X235966000Y-173990000D01*
X235888662Y-173601194D01*
X235668420Y-173271580D01*
X235338806Y-173051338D01*
X234950000Y-172974000D01*
X234561194Y-173051338D01*
X234231580Y-173271580D01*
X234011338Y-173601194D01*
X233934000Y-173990000D01*
X233934000Y-175912830D01*
X233823752Y-176178337D01*
X233823712Y-176177507D01*
X233658896Y-175779604D01*
X233413398Y-175706207D01*
X232589605Y-176530000D01*
X233413398Y-177353793D01*
X233658896Y-177280396D01*
X233812234Y-176853303D01*
X233953302Y-177194715D01*
X234283547Y-177525536D01*
X234518266Y-177623000D01*
X233207005Y-177623000D01*
X233233793Y-177533398D01*
X232410000Y-176709605D01*
X231586207Y-177533398D01*
X231612995Y-177623000D01*
X230667005Y-177623000D01*
X230693793Y-177533398D01*
X229870000Y-176709605D01*
X229046207Y-177533398D01*
X229072995Y-177623000D01*
X227761646Y-177623000D01*
X227994715Y-177526698D01*
X228325536Y-177196453D01*
X228456248Y-176881663D01*
X228456288Y-176882493D01*
X228621104Y-177280396D01*
X228866602Y-177353793D01*
X229690395Y-176530000D01*
X230049605Y-176530000D01*
X230873398Y-177353793D01*
X231118896Y-177280396D01*
X231138494Y-177225810D01*
X231161104Y-177280396D01*
X231406602Y-177353793D01*
X232230395Y-176530000D01*
X231406602Y-175706207D01*
X231161104Y-175779604D01*
X231141506Y-175834190D01*
X231118896Y-175779604D01*
X230873398Y-175706207D01*
X230049605Y-176530000D01*
X229690395Y-176530000D01*
X228866602Y-175706207D01*
X228621104Y-175779604D01*
X228467766Y-176206697D01*
X228346000Y-175911999D01*
X228346000Y-175526602D01*
X229046207Y-175526602D01*
X229870000Y-176350395D01*
X230693793Y-175526602D01*
X231586207Y-175526602D01*
X232410000Y-176350395D01*
X233233793Y-175526602D01*
X233160396Y-175281104D01*
X232625343Y-175089006D01*
X232057507Y-175116288D01*
X231659604Y-175281104D01*
X231586207Y-175526602D01*
X230693793Y-175526602D01*
X230620396Y-175281104D01*
X230085343Y-175089006D01*
X229517507Y-175116288D01*
X229119604Y-175281104D01*
X229046207Y-175526602D01*
X228346000Y-175526602D01*
X228346000Y-170727840D01*
X228683421Y-170390420D01*
X228903662Y-170060807D01*
X228981000Y-169672000D01*
X228981000Y-169209188D01*
X229750417Y-169209188D01*
X229812071Y-169444800D01*
X230312480Y-169620927D01*
X230842199Y-169592148D01*
X231197929Y-169444800D01*
X231259583Y-169209188D01*
X230505000Y-168454605D01*
X229750417Y-169209188D01*
X228981000Y-169209188D01*
X228981000Y-168643142D01*
X229044313Y-168490668D01*
X229044668Y-168082480D01*
X229159073Y-168082480D01*
X229187852Y-168612199D01*
X229335200Y-168967929D01*
X229570812Y-169029583D01*
X230325395Y-168275000D01*
X230684605Y-168275000D01*
X231439188Y-169029583D01*
X231674800Y-168967929D01*
X231850927Y-168467520D01*
X231822148Y-167937801D01*
X231674800Y-167582071D01*
X231439188Y-167520417D01*
X230684605Y-168275000D01*
X230325395Y-168275000D01*
X229570812Y-167520417D01*
X229335200Y-167582071D01*
X229159073Y-168082480D01*
X229044668Y-168082480D01*
X229044687Y-168061216D01*
X228880689Y-167664311D01*
X228577286Y-167360378D01*
X228530167Y-167340812D01*
X229750417Y-167340812D01*
X230505000Y-168095395D01*
X231259583Y-167340812D01*
X231197929Y-167105200D01*
X230697520Y-166929073D01*
X230167801Y-166957852D01*
X229812071Y-167105200D01*
X229750417Y-167340812D01*
X228530167Y-167340812D01*
X228180668Y-167195687D01*
X227858014Y-167195406D01*
X228608413Y-166445007D01*
X228787873Y-166564918D01*
X229235000Y-166653857D01*
X229682127Y-166564918D01*
X230061184Y-166311641D01*
X230314461Y-165932584D01*
X230403400Y-165485457D01*
X230403400Y-164714543D01*
X230314461Y-164267416D01*
X230061184Y-163888359D01*
X229682127Y-163635082D01*
X229235000Y-163546143D01*
X228787873Y-163635082D01*
X228408816Y-163888359D01*
X228155539Y-164267416D01*
X228066600Y-164714543D01*
X228066600Y-165485457D01*
X228077305Y-165539275D01*
X227796924Y-165819656D01*
X227863400Y-165485457D01*
X227863400Y-164714543D01*
X227774461Y-164267416D01*
X227521184Y-163888359D01*
X227203000Y-163675756D01*
X227203000Y-163405420D01*
X230864210Y-159744210D01*
X230974331Y-159579403D01*
X231013000Y-159385000D01*
X231013000Y-158734527D01*
X231267000Y-158904244D01*
X231267000Y-160655000D01*
X231305669Y-160849403D01*
X231415790Y-161014210D01*
X232537000Y-162135420D01*
X232537000Y-163845473D01*
X232222127Y-163635082D01*
X231775000Y-163546143D01*
X231327873Y-163635082D01*
X230948816Y-163888359D01*
X230695539Y-164267416D01*
X230606600Y-164714543D01*
X230606600Y-165485457D01*
X230695539Y-165932584D01*
X230948816Y-166311641D01*
X231327873Y-166564918D01*
X231775000Y-166653857D01*
X232222127Y-166564918D01*
X232537000Y-166354527D01*
X232537000Y-167316881D01*
X232434311Y-167359311D01*
X232130378Y-167662714D01*
X231965687Y-168059332D01*
X231965313Y-168488784D01*
X232129311Y-168885689D01*
X232432714Y-169189622D01*
X232829332Y-169354313D01*
X233258784Y-169354687D01*
X233655689Y-169190689D01*
X233959622Y-168887286D01*
X234124313Y-168490668D01*
X234124687Y-168061216D01*
X233960689Y-167664311D01*
X233657286Y-167360378D01*
X233553000Y-167317074D01*
X233553000Y-166354527D01*
X233867873Y-166564918D01*
X234315000Y-166653857D01*
X234762127Y-166564918D01*
X235077000Y-166354527D01*
X235077000Y-167316881D01*
X234974311Y-167359311D01*
X234670378Y-167662714D01*
X234505687Y-168059332D01*
X234505313Y-168488784D01*
X234669311Y-168885689D01*
X234972714Y-169189622D01*
X235369332Y-169354313D01*
X235798784Y-169354687D01*
X236195689Y-169190689D01*
X236499622Y-168887286D01*
X236664313Y-168490668D01*
X236664314Y-168488784D01*
X237045313Y-168488784D01*
X237209311Y-168885689D01*
X237512714Y-169189622D01*
X237909332Y-169354313D01*
X238338784Y-169354687D01*
X238735689Y-169190689D01*
X239039622Y-168887286D01*
X239204313Y-168490668D01*
X239204687Y-168061216D01*
X239040689Y-167664311D01*
X238737286Y-167360378D01*
X238340668Y-167195687D01*
X237911216Y-167195313D01*
X237514311Y-167359311D01*
X237210378Y-167662714D01*
X237045687Y-168059332D01*
X237045313Y-168488784D01*
X236664314Y-168488784D01*
X236664687Y-168061216D01*
X236500689Y-167664311D01*
X236197286Y-167360378D01*
X236093000Y-167317074D01*
X236093000Y-166354527D01*
X236407873Y-166564918D01*
X236855000Y-166653857D01*
X237302127Y-166564918D01*
X237681184Y-166311641D01*
X237934461Y-165932584D01*
X238023400Y-165485457D01*
X238023400Y-164714543D01*
X237934461Y-164267416D01*
X237681184Y-163888359D01*
X237302127Y-163635082D01*
X236855000Y-163546143D01*
X236407873Y-163635082D01*
X236093000Y-163845473D01*
X236093000Y-161925000D01*
X236054331Y-161730597D01*
X236054331Y-161730596D01*
X235944210Y-161565790D01*
X234823000Y-160444580D01*
X234823000Y-158904244D01*
X235141184Y-158691641D01*
X235394461Y-158312584D01*
X235483400Y-157865457D01*
X235483400Y-157094543D01*
X235686600Y-157094543D01*
X235686600Y-157865457D01*
X235775539Y-158312584D01*
X236028816Y-158691641D01*
X236407873Y-158944918D01*
X236855000Y-159033857D01*
X237302127Y-158944918D01*
X237681184Y-158691641D01*
X237934461Y-158312584D01*
X238023400Y-157865457D01*
X238023400Y-157094543D01*
X237934461Y-156647416D01*
X237681184Y-156268359D01*
X237302127Y-156015082D01*
X236855000Y-155926143D01*
X236407873Y-156015082D01*
X236028816Y-156268359D01*
X235775539Y-156647416D01*
X235686600Y-157094543D01*
X235483400Y-157094543D01*
X235394461Y-156647416D01*
X235141184Y-156268359D01*
X234762127Y-156015082D01*
X234315000Y-155926143D01*
X233867873Y-156015082D01*
X233488816Y-156268359D01*
X233235539Y-156647416D01*
X233146600Y-157094543D01*
X233146600Y-157865457D01*
X233235539Y-158312584D01*
X233488816Y-158691641D01*
X233807000Y-158904244D01*
X233807000Y-160655000D01*
X233845669Y-160849403D01*
X233955790Y-161014210D01*
X235077000Y-162135420D01*
X235077000Y-163845473D01*
X234762127Y-163635082D01*
X234315000Y-163546143D01*
X233867873Y-163635082D01*
X233553000Y-163845473D01*
X233553000Y-161925000D01*
X233514331Y-161730597D01*
X233514331Y-161730596D01*
X233404210Y-161565790D01*
X232283000Y-160444580D01*
X232283000Y-158904244D01*
X232601184Y-158691641D01*
X232854461Y-158312584D01*
X232943400Y-157865457D01*
X232943400Y-157094543D01*
X232854461Y-156647416D01*
X232601184Y-156268359D01*
X232222127Y-156015082D01*
X231775000Y-155926143D01*
X231327873Y-156015082D01*
X231013000Y-156225473D01*
X231013000Y-153245420D01*
X233404210Y-150854211D01*
X233483168Y-150736041D01*
X233514331Y-150689403D01*
X233553000Y-150495000D01*
X233553000Y-147304527D01*
X233867873Y-147514918D01*
X234315000Y-147603857D01*
X234762127Y-147514918D01*
X235141184Y-147261641D01*
X235394461Y-146882584D01*
X235451359Y-146596536D01*
X235589475Y-147067262D01*
X235939014Y-147501191D01*
X236428004Y-147768327D01*
X236507940Y-147785010D01*
X236728000Y-147662852D01*
X236728000Y-146177000D01*
X236708000Y-146177000D01*
X236708000Y-145923000D01*
X236728000Y-145923000D01*
X236728000Y-144437148D01*
X236507940Y-144314990D01*
X236428004Y-144331673D01*
X235939014Y-144598809D01*
X235589475Y-145032738D01*
X235451359Y-145503464D01*
X235394461Y-145217416D01*
X235141184Y-144838359D01*
X234823000Y-144625756D01*
X234823000Y-142875000D01*
X234784331Y-142680597D01*
X234784331Y-142680596D01*
X234674210Y-142515790D01*
X233553000Y-141394580D01*
X233553000Y-139965314D01*
X233888004Y-140148327D01*
X233967940Y-140165010D01*
X234188000Y-140042852D01*
X234188000Y-138557000D01*
X234168000Y-138557000D01*
X234168000Y-138303000D01*
X234188000Y-138303000D01*
X234188000Y-136817148D01*
X233967940Y-136694990D01*
X233888004Y-136711673D01*
X233553000Y-136894686D01*
X233553000Y-134620000D01*
X233514331Y-134425597D01*
X233484791Y-134381387D01*
X233476151Y-134368457D01*
X233560418Y-134284190D01*
X233622071Y-134519800D01*
X234122480Y-134695927D01*
X234652199Y-134667148D01*
X235007929Y-134519800D01*
X235069583Y-134284188D01*
X234315000Y-133529605D01*
X234300858Y-133543748D01*
X234121253Y-133364143D01*
X234135395Y-133350000D01*
X234121253Y-133335858D01*
X234300858Y-133156253D01*
X234315000Y-133170395D01*
X234329143Y-133156253D01*
X234508748Y-133335858D01*
X234494605Y-133350000D01*
X235249188Y-134104583D01*
X235484800Y-134042929D01*
X235660927Y-133542520D01*
X235632148Y-133012801D01*
X235484800Y-132657071D01*
X235249190Y-132595418D01*
X235256608Y-132588000D01*
X236090354Y-132588000D01*
X235940378Y-132737714D01*
X235940378Y-132737714D01*
G37*
X235940378Y-132737714D02*
X235775687Y-133134332D01*
X235775313Y-133563784D01*
X235839000Y-133717918D01*
X235839000Y-137502440D01*
X235775539Y-137597416D01*
X235718641Y-137883464D01*
X235580525Y-137412738D01*
X235230986Y-136978809D01*
X234741996Y-136711673D01*
X234662060Y-136694990D01*
X234442000Y-136817148D01*
X234442000Y-138303000D01*
X234462000Y-138303000D01*
X234462000Y-138557000D01*
X234442000Y-138557000D01*
X234442000Y-140042852D01*
X234662060Y-140165010D01*
X234741996Y-140148327D01*
X235230986Y-139881191D01*
X235580525Y-139447262D01*
X235718641Y-138976536D01*
X235775539Y-139262584D01*
X236028816Y-139641641D01*
X236407873Y-139894918D01*
X236855000Y-139983857D01*
X237302127Y-139894918D01*
X237681184Y-139641641D01*
X237934461Y-139262584D01*
X238023400Y-138815457D01*
X238023400Y-138044543D01*
X237934461Y-137597416D01*
X237871000Y-137502440D01*
X237871000Y-134366000D01*
X241935000Y-134366000D01*
X242115428Y-134330111D01*
X242354332Y-134429313D01*
X242783784Y-134429687D01*
X242998295Y-134341053D01*
X240057420Y-137108936D01*
X239842127Y-136965082D01*
X239395000Y-136876143D01*
X238947873Y-136965082D01*
X238568816Y-137218359D01*
X238315539Y-137597416D01*
X238226600Y-138044543D01*
X238226600Y-138815457D01*
X238315539Y-139262584D01*
X238568816Y-139641641D01*
X238947873Y-139894918D01*
X239395000Y-139983857D01*
X239842127Y-139894918D01*
X240221184Y-139641641D01*
X240474461Y-139262584D01*
X240563400Y-138815457D01*
X240563400Y-138044543D01*
X240560618Y-138030558D01*
X240817467Y-137788818D01*
X240766600Y-138044543D01*
X240766600Y-138815457D01*
X240855539Y-139262584D01*
X241108816Y-139641641D01*
X241487873Y-139894918D01*
X241935000Y-139983857D01*
X242382127Y-139894918D01*
X242761184Y-139641641D01*
X243014461Y-139262584D01*
X243103400Y-138815457D01*
X243103400Y-138044543D01*
X243014461Y-137597416D01*
X242761184Y-137218359D01*
X242737731Y-137202689D01*
X243977821Y-135962599D01*
X243967000Y-136017000D01*
X243967000Y-137005756D01*
X243648816Y-137218359D01*
X243395539Y-137597416D01*
X243306600Y-138044543D01*
X243306600Y-138815457D01*
X243395539Y-139262584D01*
X243648816Y-139641641D01*
X244027873Y-139894918D01*
X244475000Y-139983857D01*
X244922127Y-139894918D01*
X245301184Y-139641641D01*
X245554461Y-139262584D01*
X245643400Y-138815457D01*
X245643400Y-138044543D01*
X245554461Y-137597416D01*
X245301184Y-137218359D01*
X244983000Y-137005756D01*
X244983000Y-136227420D01*
X246517821Y-134692599D01*
X246507000Y-134747000D01*
X246507000Y-137005756D01*
X246188816Y-137218359D01*
X245935539Y-137597416D01*
X245846600Y-138044543D01*
X245846600Y-138815457D01*
X245935539Y-139262584D01*
X246188816Y-139641641D01*
X246507000Y-139854244D01*
X246507000Y-141394580D01*
X245385790Y-142515790D01*
X245275669Y-142680597D01*
X245237000Y-142875000D01*
X245237000Y-144795473D01*
X244922127Y-144585082D01*
X244475000Y-144496143D01*
X244027873Y-144585082D01*
X243648816Y-144838359D01*
X243395539Y-145217416D01*
X243306600Y-145664543D01*
X243306600Y-146435457D01*
X243395539Y-146882584D01*
X243648816Y-147261641D01*
X243930932Y-147450144D01*
X243903667Y-148513479D01*
X243904792Y-148520005D01*
X243903500Y-148526500D01*
X243921588Y-148617434D01*
X243937340Y-148708809D01*
X243940877Y-148714408D01*
X243942169Y-148720903D01*
X243993688Y-148798006D01*
X244043201Y-148876384D01*
X244048610Y-148880202D01*
X244052290Y-148885710D01*
X244538988Y-149372408D01*
X244539033Y-149391800D01*
X244308219Y-149160583D01*
X244004923Y-149034643D01*
X243676518Y-149034357D01*
X243373002Y-149159767D01*
X243140583Y-149391781D01*
X243078000Y-149542497D01*
X243078000Y-146685000D01*
X243065881Y-146624076D01*
X243103400Y-146435457D01*
X243103400Y-145664543D01*
X243014461Y-145217416D01*
X242761184Y-144838359D01*
X242382127Y-144585082D01*
X241935000Y-144496143D01*
X241487873Y-144585082D01*
X241108816Y-144838359D01*
X240855539Y-145217416D01*
X240766600Y-145664543D01*
X240766600Y-146435457D01*
X240855539Y-146882584D01*
X241108816Y-147261641D01*
X241332969Y-147411415D01*
X240857520Y-147244073D01*
X240327801Y-147272852D01*
X240003148Y-147407327D01*
X240221184Y-147261641D01*
X240474461Y-146882584D01*
X240563400Y-146435457D01*
X240563400Y-145664543D01*
X240474461Y-145217416D01*
X240221184Y-144838359D01*
X239842127Y-144585082D01*
X239395000Y-144496143D01*
X238947873Y-144585082D01*
X238568816Y-144838359D01*
X238315539Y-145217416D01*
X238258641Y-145503464D01*
X238120525Y-145032738D01*
X237770986Y-144598809D01*
X237281996Y-144331673D01*
X237202060Y-144314990D01*
X236982000Y-144437148D01*
X236982000Y-145923000D01*
X237002000Y-145923000D01*
X237002000Y-146177000D01*
X236982000Y-146177000D01*
X236982000Y-147662852D01*
X237202060Y-147785010D01*
X237281996Y-147768327D01*
X237770986Y-147501191D01*
X238120525Y-147067262D01*
X238258641Y-146596536D01*
X238315539Y-146882584D01*
X238568816Y-147261641D01*
X238887000Y-147474244D01*
X238887000Y-147825354D01*
X238737286Y-147675378D01*
X238340668Y-147510687D01*
X237911216Y-147510313D01*
X237514311Y-147674311D01*
X237210378Y-147977714D01*
X237045687Y-148374332D01*
X237045313Y-148803784D01*
X237209311Y-149200689D01*
X237512714Y-149504622D01*
X237909332Y-149669313D01*
X238338784Y-149669687D01*
X238735689Y-149505689D01*
X238887000Y-149354642D01*
X238887000Y-150230178D01*
X238791453Y-150134464D01*
X238359747Y-149955204D01*
X237892303Y-149954796D01*
X237460285Y-150133302D01*
X237129464Y-150463547D01*
X236950204Y-150895253D01*
X236949796Y-151362697D01*
X237128302Y-151794715D01*
X237458547Y-152125536D01*
X237890253Y-152304796D01*
X238357697Y-152305204D01*
X238789715Y-152126698D01*
X238887000Y-152029582D01*
X238887000Y-166243000D01*
X238925669Y-166437403D01*
X239035790Y-166602210D01*
X239522000Y-167088421D01*
X239522000Y-175347536D01*
X239236000Y-175347536D01*
X239094810Y-175374103D01*
X238965135Y-175457546D01*
X238878141Y-175584866D01*
X238847536Y-175736000D01*
X238847536Y-177324000D01*
X238874103Y-177465190D01*
X238957546Y-177594865D01*
X238998723Y-177623000D01*
X235381646Y-177623000D01*
X235614715Y-177526698D01*
X235945536Y-177196453D01*
X236124796Y-176764747D01*
X236125204Y-176297303D01*
X235966000Y-175911999D01*
X235966000Y-173990000D01*
X235888662Y-173601194D01*
X235668420Y-173271580D01*
X235338806Y-173051338D01*
X234950000Y-172974000D01*
X234561194Y-173051338D01*
X234231580Y-173271580D01*
X234011338Y-173601194D01*
X233934000Y-173990000D01*
X233934000Y-175912830D01*
X233823752Y-176178337D01*
X233823712Y-176177507D01*
X233658896Y-175779604D01*
X233413398Y-175706207D01*
X232589605Y-176530000D01*
X233413398Y-177353793D01*
X233658896Y-177280396D01*
X233812234Y-176853303D01*
X233953302Y-177194715D01*
X234283547Y-177525536D01*
X234518266Y-177623000D01*
X233207005Y-177623000D01*
X233233793Y-177533398D01*
X232410000Y-176709605D01*
X231586207Y-177533398D01*
X231612995Y-177623000D01*
X230667005Y-177623000D01*
X230693793Y-177533398D01*
X229870000Y-176709605D01*
X229046207Y-177533398D01*
X229072995Y-177623000D01*
X227761646Y-177623000D01*
X227994715Y-177526698D01*
X228325536Y-177196453D01*
X228456248Y-176881663D01*
X228456288Y-176882493D01*
X228621104Y-177280396D01*
X228866602Y-177353793D01*
X229690395Y-176530000D01*
X230049605Y-176530000D01*
X230873398Y-177353793D01*
X231118896Y-177280396D01*
X231138494Y-177225810D01*
X231161104Y-177280396D01*
X231406602Y-177353793D01*
X232230395Y-176530000D01*
X231406602Y-175706207D01*
X231161104Y-175779604D01*
X231141506Y-175834190D01*
X231118896Y-175779604D01*
X230873398Y-175706207D01*
X230049605Y-176530000D01*
X229690395Y-176530000D01*
X228866602Y-175706207D01*
X228621104Y-175779604D01*
X228467766Y-176206697D01*
X228346000Y-175911999D01*
X228346000Y-175526602D01*
X229046207Y-175526602D01*
X229870000Y-176350395D01*
X230693793Y-175526602D01*
X231586207Y-175526602D01*
X232410000Y-176350395D01*
X233233793Y-175526602D01*
X233160396Y-175281104D01*
X232625343Y-175089006D01*
X232057507Y-175116288D01*
X231659604Y-175281104D01*
X231586207Y-175526602D01*
X230693793Y-175526602D01*
X230620396Y-175281104D01*
X230085343Y-175089006D01*
X229517507Y-175116288D01*
X229119604Y-175281104D01*
X229046207Y-175526602D01*
X228346000Y-175526602D01*
X228346000Y-170727840D01*
X228683421Y-170390420D01*
X228903662Y-170060807D01*
X228981000Y-169672000D01*
X228981000Y-169209188D01*
X229750417Y-169209188D01*
X229812071Y-169444800D01*
X230312480Y-169620927D01*
X230842199Y-169592148D01*
X231197929Y-169444800D01*
X231259583Y-169209188D01*
X230505000Y-168454605D01*
X229750417Y-169209188D01*
X228981000Y-169209188D01*
X228981000Y-168643142D01*
X229044313Y-168490668D01*
X229044668Y-168082480D01*
X229159073Y-168082480D01*
X229187852Y-168612199D01*
X229335200Y-168967929D01*
X229570812Y-169029583D01*
X230325395Y-168275000D01*
X230684605Y-168275000D01*
X231439188Y-169029583D01*
X231674800Y-168967929D01*
X231850927Y-168467520D01*
X231822148Y-167937801D01*
X231674800Y-167582071D01*
X231439188Y-167520417D01*
X230684605Y-168275000D01*
X230325395Y-168275000D01*
X229570812Y-167520417D01*
X229335200Y-167582071D01*
X229159073Y-168082480D01*
X229044668Y-168082480D01*
X229044687Y-168061216D01*
X228880689Y-167664311D01*
X228577286Y-167360378D01*
X228530167Y-167340812D01*
X229750417Y-167340812D01*
X230505000Y-168095395D01*
X231259583Y-167340812D01*
X231197929Y-167105200D01*
X230697520Y-166929073D01*
X230167801Y-166957852D01*
X229812071Y-167105200D01*
X229750417Y-167340812D01*
X228530167Y-167340812D01*
X228180668Y-167195687D01*
X227858014Y-167195406D01*
X228608413Y-166445007D01*
X228787873Y-166564918D01*
X229235000Y-166653857D01*
X229682127Y-166564918D01*
X230061184Y-166311641D01*
X230314461Y-165932584D01*
X230403400Y-165485457D01*
X230403400Y-164714543D01*
X230314461Y-164267416D01*
X230061184Y-163888359D01*
X229682127Y-163635082D01*
X229235000Y-163546143D01*
X228787873Y-163635082D01*
X228408816Y-163888359D01*
X228155539Y-164267416D01*
X228066600Y-164714543D01*
X228066600Y-165485457D01*
X228077305Y-165539275D01*
X227796924Y-165819656D01*
X227863400Y-165485457D01*
X227863400Y-164714543D01*
X227774461Y-164267416D01*
X227521184Y-163888359D01*
X227203000Y-163675756D01*
X227203000Y-163405420D01*
X230864210Y-159744210D01*
X230974331Y-159579403D01*
X231013000Y-159385000D01*
X231013000Y-158734527D01*
X231267000Y-158904244D01*
X231267000Y-160655000D01*
X231305669Y-160849403D01*
X231415790Y-161014210D01*
X232537000Y-162135420D01*
X232537000Y-163845473D01*
X232222127Y-163635082D01*
X231775000Y-163546143D01*
X231327873Y-163635082D01*
X230948816Y-163888359D01*
X230695539Y-164267416D01*
X230606600Y-164714543D01*
X230606600Y-165485457D01*
X230695539Y-165932584D01*
X230948816Y-166311641D01*
X231327873Y-166564918D01*
X231775000Y-166653857D01*
X232222127Y-166564918D01*
X232537000Y-166354527D01*
X232537000Y-167316881D01*
X232434311Y-167359311D01*
X232130378Y-167662714D01*
X231965687Y-168059332D01*
X231965313Y-168488784D01*
X232129311Y-168885689D01*
X232432714Y-169189622D01*
X232829332Y-169354313D01*
X233258784Y-169354687D01*
X233655689Y-169190689D01*
X233959622Y-168887286D01*
X234124313Y-168490668D01*
X234124687Y-168061216D01*
X233960689Y-167664311D01*
X233657286Y-167360378D01*
X233553000Y-167317074D01*
X233553000Y-166354527D01*
X233867873Y-166564918D01*
X234315000Y-166653857D01*
X234762127Y-166564918D01*
X235077000Y-166354527D01*
X235077000Y-167316881D01*
X234974311Y-167359311D01*
X234670378Y-167662714D01*
X234505687Y-168059332D01*
X234505313Y-168488784D01*
X234669311Y-168885689D01*
X234972714Y-169189622D01*
X235369332Y-169354313D01*
X235798784Y-169354687D01*
X236195689Y-169190689D01*
X236499622Y-168887286D01*
X236664313Y-168490668D01*
X236664314Y-168488784D01*
X237045313Y-168488784D01*
X237209311Y-168885689D01*
X237512714Y-169189622D01*
X237909332Y-169354313D01*
X238338784Y-169354687D01*
X238735689Y-169190689D01*
X239039622Y-168887286D01*
X239204313Y-168490668D01*
X239204687Y-168061216D01*
X239040689Y-167664311D01*
X238737286Y-167360378D01*
X238340668Y-167195687D01*
X237911216Y-167195313D01*
X237514311Y-167359311D01*
X237210378Y-167662714D01*
X237045687Y-168059332D01*
X237045313Y-168488784D01*
X236664314Y-168488784D01*
X236664687Y-168061216D01*
X236500689Y-167664311D01*
X236197286Y-167360378D01*
X236093000Y-167317074D01*
X236093000Y-166354527D01*
X236407873Y-166564918D01*
X236855000Y-166653857D01*
X237302127Y-166564918D01*
X237681184Y-166311641D01*
X237934461Y-165932584D01*
X238023400Y-165485457D01*
X238023400Y-164714543D01*
X237934461Y-164267416D01*
X237681184Y-163888359D01*
X237302127Y-163635082D01*
X236855000Y-163546143D01*
X236407873Y-163635082D01*
X236093000Y-163845473D01*
X236093000Y-161925000D01*
X236054331Y-161730597D01*
X236054331Y-161730596D01*
X235944210Y-161565790D01*
X234823000Y-160444580D01*
X234823000Y-158904244D01*
X235141184Y-158691641D01*
X235394461Y-158312584D01*
X235483400Y-157865457D01*
X235483400Y-157094543D01*
X235686600Y-157094543D01*
X235686600Y-157865457D01*
X235775539Y-158312584D01*
X236028816Y-158691641D01*
X236407873Y-158944918D01*
X236855000Y-159033857D01*
X237302127Y-158944918D01*
X237681184Y-158691641D01*
X237934461Y-158312584D01*
X238023400Y-157865457D01*
X238023400Y-157094543D01*
X237934461Y-156647416D01*
X237681184Y-156268359D01*
X237302127Y-156015082D01*
X236855000Y-155926143D01*
X236407873Y-156015082D01*
X236028816Y-156268359D01*
X235775539Y-156647416D01*
X235686600Y-157094543D01*
X235483400Y-157094543D01*
X235394461Y-156647416D01*
X235141184Y-156268359D01*
X234762127Y-156015082D01*
X234315000Y-155926143D01*
X233867873Y-156015082D01*
X233488816Y-156268359D01*
X233235539Y-156647416D01*
X233146600Y-157094543D01*
X233146600Y-157865457D01*
X233235539Y-158312584D01*
X233488816Y-158691641D01*
X233807000Y-158904244D01*
X233807000Y-160655000D01*
X233845669Y-160849403D01*
X233955790Y-161014210D01*
X235077000Y-162135420D01*
X235077000Y-163845473D01*
X234762127Y-163635082D01*
X234315000Y-163546143D01*
X233867873Y-163635082D01*
X233553000Y-163845473D01*
X233553000Y-161925000D01*
X233514331Y-161730597D01*
X233514331Y-161730596D01*
X233404210Y-161565790D01*
X232283000Y-160444580D01*
X232283000Y-158904244D01*
X232601184Y-158691641D01*
X232854461Y-158312584D01*
X232943400Y-157865457D01*
X232943400Y-157094543D01*
X232854461Y-156647416D01*
X232601184Y-156268359D01*
X232222127Y-156015082D01*
X231775000Y-155926143D01*
X231327873Y-156015082D01*
X231013000Y-156225473D01*
X231013000Y-153245420D01*
X233404210Y-150854211D01*
X233483168Y-150736041D01*
X233514331Y-150689403D01*
X233553000Y-150495000D01*
X233553000Y-147304527D01*
X233867873Y-147514918D01*
X234315000Y-147603857D01*
X234762127Y-147514918D01*
X235141184Y-147261641D01*
X235394461Y-146882584D01*
X235451359Y-146596536D01*
X235589475Y-147067262D01*
X235939014Y-147501191D01*
X236428004Y-147768327D01*
X236507940Y-147785010D01*
X236728000Y-147662852D01*
X236728000Y-146177000D01*
X236708000Y-146177000D01*
X236708000Y-145923000D01*
X236728000Y-145923000D01*
X236728000Y-144437148D01*
X236507940Y-144314990D01*
X236428004Y-144331673D01*
X235939014Y-144598809D01*
X235589475Y-145032738D01*
X235451359Y-145503464D01*
X235394461Y-145217416D01*
X235141184Y-144838359D01*
X234823000Y-144625756D01*
X234823000Y-142875000D01*
X234784331Y-142680597D01*
X234784331Y-142680596D01*
X234674210Y-142515790D01*
X233553000Y-141394580D01*
X233553000Y-139965314D01*
X233888004Y-140148327D01*
X233967940Y-140165010D01*
X234188000Y-140042852D01*
X234188000Y-138557000D01*
X234168000Y-138557000D01*
X234168000Y-138303000D01*
X234188000Y-138303000D01*
X234188000Y-136817148D01*
X233967940Y-136694990D01*
X233888004Y-136711673D01*
X233553000Y-136894686D01*
X233553000Y-134620000D01*
X233514331Y-134425597D01*
X233484791Y-134381387D01*
X233476151Y-134368457D01*
X233560418Y-134284190D01*
X233622071Y-134519800D01*
X234122480Y-134695927D01*
X234652199Y-134667148D01*
X235007929Y-134519800D01*
X235069583Y-134284188D01*
X234315000Y-133529605D01*
X234300858Y-133543748D01*
X234121253Y-133364143D01*
X234135395Y-133350000D01*
X234121253Y-133335858D01*
X234300858Y-133156253D01*
X234315000Y-133170395D01*
X234329143Y-133156253D01*
X234508748Y-133335858D01*
X234494605Y-133350000D01*
X235249188Y-134104583D01*
X235484800Y-134042929D01*
X235660927Y-133542520D01*
X235632148Y-133012801D01*
X235484800Y-132657071D01*
X235249190Y-132595418D01*
X235256608Y-132588000D01*
X236090354Y-132588000D01*
X235940378Y-132737714D01*
G36*
X207361285Y-127273302D02*
X207030464Y-127603547D01*
X206851204Y-128035253D01*
X206850796Y-128502697D01*
X207029302Y-128934715D01*
X207359547Y-129265536D01*
X207791253Y-129444796D01*
X208258697Y-129445204D01*
X208690715Y-129266698D01*
X209021536Y-128936453D01*
X209200796Y-128504747D01*
X209201204Y-128037303D01*
X209022698Y-127605285D01*
X208692453Y-127274464D01*
X208457734Y-127177000D01*
X210134354Y-127177000D01*
X209901285Y-127273302D01*
X209570464Y-127603547D01*
X209391204Y-128035253D01*
X209390796Y-128502697D01*
X209569302Y-128934715D01*
X209899547Y-129265536D01*
X210331253Y-129444796D01*
X210798697Y-129445204D01*
X211230715Y-129266698D01*
X211561536Y-128936453D01*
X211740796Y-128504747D01*
X211741204Y-128037303D01*
X211562698Y-127605285D01*
X211232453Y-127274464D01*
X210997734Y-127177000D01*
X212674354Y-127177000D01*
X212441285Y-127273302D01*
X212110464Y-127603547D01*
X211931204Y-128035253D01*
X211930796Y-128502697D01*
X212109302Y-128934715D01*
X212439547Y-129265536D01*
X212871253Y-129444796D01*
X213338697Y-129445204D01*
X213754499Y-129273398D01*
X214822207Y-129273398D01*
X214895604Y-129518896D01*
X215430657Y-129710994D01*
X215998493Y-129683712D01*
X216396396Y-129518896D01*
X216469793Y-129273398D01*
X215646000Y-128449605D01*
X214822207Y-129273398D01*
X213754499Y-129273398D01*
X213770715Y-129266698D01*
X214101536Y-128936453D01*
X214232248Y-128621663D01*
X214232288Y-128622493D01*
X214397104Y-129020396D01*
X214642602Y-129093793D01*
X215466395Y-128270000D01*
X214642602Y-127446207D01*
X214397104Y-127519604D01*
X214243766Y-127946697D01*
X214102698Y-127605285D01*
X213772453Y-127274464D01*
X213537734Y-127177000D01*
X214848995Y-127177000D01*
X214822207Y-127266602D01*
X215646000Y-128090395D01*
X216469793Y-127266602D01*
X216443005Y-127177000D01*
X217754354Y-127177000D01*
X217521285Y-127273302D01*
X217190464Y-127603547D01*
X217059752Y-127918337D01*
X217059712Y-127917507D01*
X216894896Y-127519604D01*
X216649398Y-127446207D01*
X215825605Y-128270000D01*
X216649398Y-129093793D01*
X216894896Y-129020396D01*
X217048234Y-128593303D01*
X217189302Y-128934715D01*
X217519547Y-129265536D01*
X217678000Y-129331331D01*
X217678000Y-132429110D01*
X217318303Y-132428796D01*
X216886285Y-132607302D01*
X216555464Y-132937547D01*
X216376204Y-133369253D01*
X216375796Y-133836697D01*
X216554302Y-134268715D01*
X216884547Y-134599536D01*
X217316253Y-134778796D01*
X217783697Y-134779204D01*
X218215715Y-134600698D01*
X218546536Y-134270453D01*
X218725796Y-133838747D01*
X218726204Y-133371303D01*
X218694000Y-133293363D01*
X218694000Y-129331451D01*
X218850715Y-129266698D01*
X219181536Y-128936453D01*
X219360796Y-128504747D01*
X219361204Y-128037303D01*
X219182698Y-127605285D01*
X218852453Y-127274464D01*
X218617734Y-127177000D01*
X220294354Y-127177000D01*
X220061285Y-127273302D01*
X219730464Y-127603547D01*
X219551204Y-128035253D01*
X219550796Y-128502697D01*
X219729302Y-128934715D01*
X220059547Y-129265536D01*
X220491253Y-129444796D01*
X220958697Y-129445204D01*
X221390715Y-129266698D01*
X221721536Y-128936453D01*
X221900796Y-128504747D01*
X221901204Y-128037303D01*
X221722698Y-127605285D01*
X221392453Y-127274464D01*
X221157734Y-127177000D01*
X222834354Y-127177000D01*
X222601285Y-127273302D01*
X222270464Y-127603547D01*
X222091204Y-128035253D01*
X222090796Y-128502697D01*
X222269302Y-128934715D01*
X222599547Y-129265536D01*
X223031253Y-129444796D01*
X223498697Y-129445204D01*
X223930715Y-129266698D01*
X224261536Y-128936453D01*
X224440796Y-128504747D01*
X224441204Y-128037303D01*
X224262698Y-127605285D01*
X223932453Y-127274464D01*
X223697734Y-127177000D01*
X225374354Y-127177000D01*
X225141285Y-127273302D01*
X224810464Y-127603547D01*
X224631204Y-128035253D01*
X224630796Y-128502697D01*
X224809302Y-128934715D01*
X224906418Y-129032000D01*
X224790000Y-129032000D01*
X224595597Y-129070669D01*
X224430790Y-129180790D01*
X217445790Y-136165790D01*
X217335669Y-136330597D01*
X217297000Y-136525000D01*
X217297000Y-141605000D01*
X217335669Y-141799403D01*
X217445790Y-141964210D01*
X218567000Y-143085420D01*
X218567000Y-144625756D01*
X218248816Y-144838359D01*
X217995539Y-145217416D01*
X217906600Y-145664543D01*
X217906600Y-146435457D01*
X217995539Y-146882584D01*
X218248816Y-147261641D01*
X218627873Y-147514918D01*
X219075000Y-147603857D01*
X219522127Y-147514918D01*
X219901184Y-147261641D01*
X220154461Y-146882584D01*
X220243400Y-146435457D01*
X220243400Y-145664543D01*
X220154461Y-145217416D01*
X219901184Y-144838359D01*
X219583000Y-144625756D01*
X219583000Y-142875000D01*
X219544331Y-142680597D01*
X219544331Y-142680596D01*
X219434210Y-142515790D01*
X218313000Y-141394580D01*
X218313000Y-139684527D01*
X218627873Y-139894918D01*
X219075000Y-139983857D01*
X219522127Y-139894918D01*
X219837000Y-139684527D01*
X219837000Y-141605000D01*
X219875669Y-141799403D01*
X219985790Y-141964210D01*
X221107000Y-143085420D01*
X221107000Y-144625756D01*
X220788816Y-144838359D01*
X220535539Y-145217416D01*
X220446600Y-145664543D01*
X220446600Y-146435457D01*
X220535539Y-146882584D01*
X220788816Y-147261641D01*
X220885939Y-147326536D01*
X220091000Y-147326536D01*
X219949810Y-147353103D01*
X219820135Y-147436546D01*
X219733141Y-147563866D01*
X219702536Y-147715000D01*
X219702536Y-149465000D01*
X219729103Y-149606190D01*
X219812546Y-149735865D01*
X219939866Y-149822859D01*
X220091000Y-149853464D01*
X220183094Y-149853464D01*
X219808466Y-150152072D01*
X219522341Y-150669481D01*
X219499742Y-150769184D01*
X219620731Y-151003000D01*
X221234000Y-151003000D01*
X221234000Y-150983000D01*
X221488000Y-150983000D01*
X221488000Y-151003000D01*
X221508000Y-151003000D01*
X221508000Y-151257000D01*
X221488000Y-151257000D01*
X221488000Y-151277000D01*
X221234000Y-151277000D01*
X221234000Y-151257000D01*
X219620731Y-151257000D01*
X219499742Y-151490816D01*
X219522341Y-151590519D01*
X219689059Y-151892000D01*
X219448923Y-151892000D01*
X218630636Y-151482856D01*
X218630643Y-151474518D01*
X218505233Y-151171002D01*
X218273219Y-150938583D01*
X217969923Y-150812643D01*
X217641518Y-150812357D01*
X217338002Y-150937767D01*
X217105583Y-151169781D01*
X216979643Y-151473077D01*
X216979357Y-151801482D01*
X217104767Y-152104998D01*
X217336781Y-152337417D01*
X217640077Y-152463357D01*
X217968482Y-152463643D01*
X218161148Y-152384035D01*
X219101816Y-152854369D01*
X219119420Y-152859190D01*
X219134597Y-152869331D01*
X219214457Y-152885216D01*
X219292988Y-152906722D01*
X219311098Y-152904439D01*
X219329000Y-152908000D01*
X219961254Y-152908000D01*
X219773262Y-153189350D01*
X219677655Y-153670000D01*
X219773262Y-154150650D01*
X219991375Y-154477079D01*
X219829193Y-154509338D01*
X219499580Y-154729579D01*
X218483580Y-155745580D01*
X218263338Y-156075193D01*
X218263338Y-156075194D01*
X218186000Y-156464000D01*
X218186000Y-158242000D01*
X218236524Y-158496000D01*
X218263338Y-158630807D01*
X218382875Y-158809705D01*
X217997520Y-158674073D01*
X217467801Y-158702852D01*
X217112071Y-158850200D01*
X217050417Y-159085812D01*
X217805000Y-159840395D01*
X217819143Y-159826253D01*
X217998748Y-160005858D01*
X217984605Y-160020000D01*
X218739188Y-160774583D01*
X218974800Y-160712929D01*
X219150927Y-160212520D01*
X219122148Y-159682801D01*
X219062884Y-159539724D01*
X220599000Y-161075841D01*
X220599000Y-163651349D01*
X220556735Y-163678546D01*
X220469741Y-163805866D01*
X220439136Y-163957000D01*
X220439136Y-166243000D01*
X220465703Y-166384190D01*
X220549146Y-166513865D01*
X220599000Y-166547929D01*
X220599000Y-173569159D01*
X218991580Y-175176580D01*
X218771338Y-175506193D01*
X218765946Y-175533302D01*
X218694000Y-175895000D01*
X218694000Y-175912830D01*
X218535204Y-176295253D01*
X218534796Y-176762697D01*
X218713302Y-177194715D01*
X219043547Y-177525536D01*
X219278266Y-177623000D01*
X218202935Y-177623000D01*
X218234865Y-177602454D01*
X218321859Y-177475134D01*
X218352464Y-177324000D01*
X218352464Y-175736000D01*
X218325897Y-175594810D01*
X218242454Y-175465135D01*
X218115134Y-175378141D01*
X217964000Y-175347536D01*
X216376000Y-175347536D01*
X216234810Y-175374103D01*
X216105135Y-175457546D01*
X216018141Y-175584866D01*
X215987536Y-175736000D01*
X215987536Y-177324000D01*
X216014103Y-177465190D01*
X216097546Y-177594865D01*
X216138723Y-177623000D01*
X204383831Y-177623000D01*
X205620681Y-177111944D01*
X206572601Y-176161683D01*
X207088412Y-174919473D01*
X207089586Y-173574428D01*
X206575944Y-172331319D01*
X205625683Y-171379399D01*
X204383473Y-170863588D01*
X203038428Y-170862414D01*
X201795319Y-171376056D01*
X200843399Y-172326317D01*
X200329000Y-173565127D01*
X200329000Y-167380000D01*
X200544108Y-167380000D01*
X200672067Y-168023291D01*
X201036462Y-168568646D01*
X201581817Y-168933041D01*
X202225108Y-169061000D01*
X202494892Y-169061000D01*
X203138183Y-168933041D01*
X203683538Y-168568646D01*
X204047933Y-168023291D01*
X204175892Y-167380000D01*
X204047933Y-166736709D01*
X203683538Y-166191354D01*
X203138183Y-165826959D01*
X202494892Y-165699000D01*
X202225108Y-165699000D01*
X201581817Y-165826959D01*
X201036462Y-166191354D01*
X200672067Y-166736709D01*
X200544108Y-167380000D01*
X200329000Y-167380000D01*
X200329000Y-160280000D01*
X200544108Y-160280000D01*
X200672067Y-160923291D01*
X201036462Y-161468646D01*
X201581817Y-161833041D01*
X202225108Y-161961000D01*
X202494892Y-161961000D01*
X203138183Y-161833041D01*
X203683538Y-161468646D01*
X204047933Y-160923291D01*
X204175892Y-160280000D01*
X205296067Y-160280000D01*
X205412607Y-160865888D01*
X205744487Y-161362580D01*
X206241179Y-161694460D01*
X206827067Y-161811000D01*
X206991513Y-161811000D01*
X206971338Y-161841194D01*
X206918192Y-162108377D01*
X206896000Y-162099162D01*
X206525625Y-162098839D01*
X206183320Y-162240277D01*
X205921197Y-162501943D01*
X205779162Y-162844000D01*
X205778839Y-163214375D01*
X205920277Y-163556680D01*
X206181943Y-163818803D01*
X206208551Y-163829852D01*
X206183320Y-163840277D01*
X205921197Y-164101943D01*
X205779162Y-164444000D01*
X205778839Y-164814375D01*
X205920277Y-165156680D01*
X206181943Y-165418803D01*
X206524000Y-165560838D01*
X206731076Y-165561019D01*
X206743137Y-165743396D01*
X206789939Y-165856385D01*
X206241179Y-165965540D01*
X205744487Y-166297420D01*
X205412607Y-166794112D01*
X205296067Y-167380000D01*
X205412607Y-167965888D01*
X205744487Y-168462580D01*
X206241179Y-168794460D01*
X206827067Y-168911000D01*
X207192933Y-168911000D01*
X207778821Y-168794460D01*
X208275513Y-168462580D01*
X208607393Y-167965888D01*
X208723933Y-167380000D01*
X208607393Y-166794112D01*
X208420925Y-166515044D01*
X208513492Y-166476701D01*
X208556828Y-166256433D01*
X207910000Y-165609605D01*
X207895858Y-165623748D01*
X207716253Y-165444143D01*
X207730395Y-165430000D01*
X208089605Y-165430000D01*
X208736433Y-166076828D01*
X208956701Y-166033492D01*
X209107972Y-165586999D01*
X209094663Y-165385750D01*
X209359500Y-165385750D01*
X209359500Y-166051810D01*
X209456173Y-166285199D01*
X209634802Y-166463827D01*
X209868191Y-166560500D01*
X210534250Y-166560500D01*
X210693000Y-166401750D01*
X210693000Y-165227000D01*
X209518250Y-165227000D01*
X209359500Y-165385750D01*
X209094663Y-165385750D01*
X209076863Y-165116604D01*
X208956701Y-164826508D01*
X208736433Y-164783172D01*
X208089605Y-165430000D01*
X207730395Y-165430000D01*
X207716253Y-165415858D01*
X207895858Y-165236253D01*
X207910000Y-165250395D01*
X208556828Y-164603567D01*
X208539761Y-164516821D01*
X208698803Y-164358057D01*
X208785947Y-164148190D01*
X209359500Y-164148190D01*
X209359500Y-164814250D01*
X209518250Y-164973000D01*
X210693000Y-164973000D01*
X210693000Y-163798250D01*
X210947000Y-163798250D01*
X210947000Y-164973000D01*
X210967000Y-164973000D01*
X210967000Y-165227000D01*
X210947000Y-165227000D01*
X210947000Y-166401750D01*
X211105750Y-166560500D01*
X211771809Y-166560500D01*
X212005198Y-166463827D01*
X212183827Y-166285199D01*
X212280500Y-166051810D01*
X212280500Y-165646806D01*
X212336582Y-165782535D01*
X212344000Y-165789966D01*
X212344000Y-171450000D01*
X212421338Y-171838806D01*
X212641580Y-172168420D01*
X212971194Y-172388662D01*
X213360000Y-172466000D01*
X213748806Y-172388662D01*
X214078420Y-172168420D01*
X214298662Y-171838806D01*
X214376000Y-171450000D01*
X214376000Y-171058544D01*
X217661287Y-171058544D01*
X217903793Y-171572717D01*
X218324605Y-171954947D01*
X218722507Y-172119764D01*
X218948000Y-171998070D01*
X218948000Y-170833051D01*
X219202000Y-170833051D01*
X219202000Y-171998070D01*
X219427493Y-172119764D01*
X219941666Y-171877258D01*
X220323896Y-171456446D01*
X220488713Y-171058544D01*
X220367019Y-170833051D01*
X219202000Y-170833051D01*
X218948000Y-170833051D01*
X217782981Y-170833051D01*
X217661287Y-171058544D01*
X214376000Y-171058544D01*
X214376000Y-169142697D01*
X216103745Y-169142697D01*
X216282251Y-169574715D01*
X216612496Y-169905536D01*
X217044202Y-170084796D01*
X217511646Y-170085204D01*
X217826661Y-169955042D01*
X217826104Y-169955656D01*
X217661287Y-170353558D01*
X217782981Y-170579051D01*
X218768392Y-170579051D01*
X218881251Y-170691910D01*
X219060859Y-170512302D01*
X218948000Y-170399443D01*
X218948000Y-169414032D01*
X219202000Y-169414032D01*
X219202000Y-170579051D01*
X220367019Y-170579051D01*
X220488713Y-170353558D01*
X220246207Y-169839385D01*
X219825395Y-169457155D01*
X219427493Y-169292338D01*
X219202000Y-169414032D01*
X218948000Y-169414032D01*
X218722507Y-169292338D01*
X218312081Y-169485913D01*
X218453745Y-169144747D01*
X218454153Y-168677303D01*
X218275647Y-168245285D01*
X217945402Y-167914464D01*
X217513696Y-167735204D01*
X217046252Y-167734796D01*
X216614234Y-167913302D01*
X216283413Y-168243547D01*
X216104153Y-168675253D01*
X216103745Y-169142697D01*
X214376000Y-169142697D01*
X214376000Y-165790534D01*
X214382225Y-165784320D01*
X214566290Y-165341041D01*
X214566709Y-164861065D01*
X214403059Y-164465000D01*
X215528025Y-164465000D01*
X217789858Y-166726833D01*
X217677428Y-166839263D01*
X217596378Y-166957885D01*
X217563687Y-167108582D01*
X217592202Y-167260125D01*
X217677428Y-167388635D01*
X218800314Y-168511521D01*
X218918936Y-168592571D01*
X219069633Y-168625262D01*
X219221176Y-168596747D01*
X219349686Y-168511521D01*
X220472572Y-167388635D01*
X220553622Y-167270013D01*
X220586313Y-167119316D01*
X220557798Y-166967773D01*
X220472572Y-166839263D01*
X219349686Y-165716377D01*
X219231064Y-165635327D01*
X219080367Y-165602636D01*
X218928824Y-165631151D01*
X218800314Y-165716377D01*
X218687884Y-165828807D01*
X216240064Y-163380987D01*
X216078619Y-163273113D01*
X216179622Y-163172286D01*
X216344313Y-162775668D01*
X216344314Y-162773784D01*
X216725313Y-162773784D01*
X216889311Y-163170689D01*
X217192714Y-163474622D01*
X217589332Y-163639313D01*
X218018784Y-163639687D01*
X218415689Y-163475689D01*
X218719622Y-163172286D01*
X218884313Y-162775668D01*
X218884687Y-162346216D01*
X218720689Y-161949311D01*
X218417286Y-161645378D01*
X218020668Y-161480687D01*
X217591216Y-161480313D01*
X217194311Y-161644311D01*
X216890378Y-161947714D01*
X216725687Y-162344332D01*
X216725313Y-162773784D01*
X216344314Y-162773784D01*
X216344687Y-162346216D01*
X216180689Y-161949311D01*
X215877286Y-161645378D01*
X215480668Y-161480687D01*
X215051216Y-161480313D01*
X214654311Y-161644311D01*
X214350378Y-161947714D01*
X214185687Y-162344332D01*
X214185313Y-162773784D01*
X214349311Y-163170689D01*
X214373580Y-163195000D01*
X214258026Y-163195000D01*
X213804343Y-162741317D01*
X213804687Y-162346216D01*
X213640689Y-161949311D01*
X213337286Y-161645378D01*
X212940668Y-161480687D01*
X212511216Y-161480313D01*
X212114311Y-161644311D01*
X211810378Y-161947714D01*
X211645687Y-162344332D01*
X211645313Y-162773784D01*
X211809311Y-163170689D01*
X212112714Y-163474622D01*
X212509332Y-163639313D01*
X212906633Y-163639659D01*
X213160299Y-163893325D01*
X213121065Y-163893291D01*
X212677465Y-164076582D01*
X212337775Y-164415680D01*
X212280500Y-164553614D01*
X212280500Y-164148190D01*
X212183827Y-163914801D01*
X212005198Y-163736173D01*
X211771809Y-163639500D01*
X211105750Y-163639500D01*
X210947000Y-163798250D01*
X210693000Y-163798250D01*
X210534250Y-163639500D01*
X209868191Y-163639500D01*
X209634802Y-163736173D01*
X209456173Y-163914801D01*
X209359500Y-164148190D01*
X208785947Y-164148190D01*
X208840838Y-164016000D01*
X208841161Y-163645625D01*
X208699723Y-163303320D01*
X208535493Y-163138803D01*
X208820420Y-162948420D01*
X210014420Y-161754420D01*
X210234662Y-161424807D01*
X210264397Y-161275317D01*
X210312000Y-161036000D01*
X210312000Y-160305750D01*
X211391500Y-160305750D01*
X211391500Y-160844809D01*
X211488173Y-161078198D01*
X211666801Y-161256827D01*
X211900190Y-161353500D01*
X212439250Y-161353500D01*
X212598000Y-161194750D01*
X212598000Y-160147000D01*
X211550250Y-160147000D01*
X211391500Y-160305750D01*
X210312000Y-160305750D01*
X210312000Y-159424840D01*
X210541649Y-159195191D01*
X211391500Y-159195191D01*
X211391500Y-159734250D01*
X211550250Y-159893000D01*
X212598000Y-159893000D01*
X212598000Y-158845250D01*
X212852000Y-158845250D01*
X212852000Y-159893000D01*
X212872000Y-159893000D01*
X212872000Y-160147000D01*
X212852000Y-160147000D01*
X212852000Y-161194750D01*
X213010750Y-161353500D01*
X213549810Y-161353500D01*
X213783199Y-161256827D01*
X213961827Y-161078198D01*
X214013193Y-160954188D01*
X214510417Y-160954188D01*
X214572071Y-161189800D01*
X215072480Y-161365927D01*
X215602199Y-161337148D01*
X215957929Y-161189800D01*
X216019583Y-160954188D01*
X217050417Y-160954188D01*
X217112071Y-161189800D01*
X217612480Y-161365927D01*
X218142199Y-161337148D01*
X218497929Y-161189800D01*
X218559583Y-160954188D01*
X217805000Y-160199605D01*
X217050417Y-160954188D01*
X216019583Y-160954188D01*
X215265000Y-160199605D01*
X214510417Y-160954188D01*
X214013193Y-160954188D01*
X214058500Y-160844809D01*
X214058500Y-160624327D01*
X214095200Y-160712929D01*
X214330812Y-160774583D01*
X215085395Y-160020000D01*
X215444605Y-160020000D01*
X216199188Y-160774583D01*
X216434800Y-160712929D01*
X216526859Y-160451371D01*
X216635200Y-160712929D01*
X216870812Y-160774583D01*
X217625395Y-160020000D01*
X216870812Y-159265417D01*
X216635200Y-159327071D01*
X216543141Y-159588629D01*
X216434800Y-159327071D01*
X216199188Y-159265417D01*
X215444605Y-160020000D01*
X215085395Y-160020000D01*
X214330812Y-159265417D01*
X214095200Y-159327071D01*
X214058500Y-159431342D01*
X214058500Y-159195191D01*
X214013194Y-159085812D01*
X214510417Y-159085812D01*
X215265000Y-159840395D01*
X216019583Y-159085812D01*
X215957929Y-158850200D01*
X215457520Y-158674073D01*
X214927801Y-158702852D01*
X214572071Y-158850200D01*
X214510417Y-159085812D01*
X214013194Y-159085812D01*
X213961827Y-158961802D01*
X213783199Y-158783173D01*
X213549810Y-158686500D01*
X213010750Y-158686500D01*
X212852000Y-158845250D01*
X212598000Y-158845250D01*
X212439250Y-158686500D01*
X211900190Y-158686500D01*
X211666801Y-158783173D01*
X211488173Y-158961802D01*
X211391500Y-159195191D01*
X210541649Y-159195191D01*
X212046421Y-157690420D01*
X212266662Y-157360807D01*
X212305331Y-157166403D01*
X212344000Y-156972000D01*
X212344000Y-153670000D01*
X213614000Y-153670000D01*
X213614000Y-157480000D01*
X213691338Y-157868806D01*
X213911580Y-158198420D01*
X214241194Y-158418662D01*
X214630000Y-158496000D01*
X215018806Y-158418662D01*
X215348420Y-158198420D01*
X215568662Y-157868806D01*
X215646000Y-157480000D01*
X215646000Y-153670000D01*
X215568662Y-153281194D01*
X215348420Y-152951580D01*
X215018806Y-152731338D01*
X214630000Y-152654000D01*
X214241194Y-152731338D01*
X213911580Y-152951580D01*
X213691338Y-153281194D01*
X213614000Y-153670000D01*
X212344000Y-153670000D01*
X212344000Y-149860000D01*
X212276512Y-149520711D01*
X212266662Y-149471193D01*
X212046420Y-149141579D01*
X211963000Y-149058160D01*
X211963000Y-144673164D01*
X211964451Y-144675130D01*
X212097077Y-144753797D01*
X212249861Y-144774668D01*
X212398726Y-144734453D01*
X213087860Y-144389886D01*
X213487000Y-144789026D01*
X213487000Y-148463000D01*
X213564338Y-148851806D01*
X213784580Y-149181420D01*
X214114194Y-149401662D01*
X214503000Y-149479000D01*
X214891806Y-149401662D01*
X215221420Y-149181420D01*
X215441662Y-148851806D01*
X215519000Y-148463000D01*
X215519000Y-143764000D01*
X215441662Y-143375194D01*
X215221420Y-143045580D01*
X214891806Y-142825338D01*
X214503000Y-142748000D01*
X214114194Y-142825338D01*
X213784580Y-143045580D01*
X213686457Y-143192431D01*
X213682013Y-143187987D01*
X213476004Y-143050336D01*
X213383507Y-143031937D01*
X212398726Y-142539547D01*
X212235732Y-142498684D01*
X212083810Y-142525103D01*
X211964004Y-142602196D01*
X211961549Y-142598870D01*
X211828923Y-142520203D01*
X211676139Y-142499332D01*
X211527274Y-142539547D01*
X210527274Y-143039547D01*
X210430135Y-143108546D01*
X210343141Y-143235866D01*
X210312536Y-143387000D01*
X210312536Y-143887000D01*
X210330809Y-144004740D01*
X210405782Y-144139489D01*
X210527274Y-144234453D01*
X210693000Y-144317316D01*
X210693000Y-148873981D01*
X210482580Y-149014580D01*
X210262338Y-149344193D01*
X210185001Y-149733000D01*
X210262338Y-150121807D01*
X210312000Y-150196131D01*
X210312000Y-156551159D01*
X208577580Y-158285580D01*
X208357338Y-158615193D01*
X208354232Y-158630807D01*
X208280000Y-159004000D01*
X208280000Y-159204135D01*
X208275513Y-159197420D01*
X207778821Y-158865540D01*
X207192933Y-158749000D01*
X206827067Y-158749000D01*
X206241179Y-158865540D01*
X205744487Y-159197420D01*
X205412607Y-159694112D01*
X205296067Y-160280000D01*
X204175892Y-160280000D01*
X204047933Y-159636709D01*
X203683538Y-159091354D01*
X203138183Y-158726959D01*
X202494892Y-158599000D01*
X202225108Y-158599000D01*
X201581817Y-158726959D01*
X201036462Y-159091354D01*
X200672067Y-159636709D01*
X200544108Y-160280000D01*
X200329000Y-160280000D01*
X200329000Y-155947871D01*
X200406000Y-155963464D01*
X209296000Y-155963464D01*
X209437190Y-155936897D01*
X209566865Y-155853454D01*
X209653859Y-155726134D01*
X209684464Y-155575000D01*
X209684464Y-146685000D01*
X209657897Y-146543810D01*
X209574454Y-146414135D01*
X209447134Y-146327141D01*
X209296000Y-146296536D01*
X200406000Y-146296536D01*
X200329000Y-146311025D01*
X200329000Y-143877391D01*
X200468816Y-144086641D01*
X200847873Y-144339918D01*
X201295000Y-144428857D01*
X201742127Y-144339918D01*
X202121184Y-144086641D01*
X202374461Y-143707584D01*
X202463400Y-143260457D01*
X202463400Y-143002000D01*
X204952600Y-143002000D01*
X204952600Y-143357600D01*
X205109475Y-143892262D01*
X205459014Y-144326191D01*
X205948004Y-144593327D01*
X206027940Y-144610010D01*
X206248000Y-144487852D01*
X206248000Y-143002000D01*
X206502000Y-143002000D01*
X206502000Y-144487852D01*
X206722060Y-144610010D01*
X206801996Y-144593327D01*
X207290986Y-144326191D01*
X207640525Y-143892262D01*
X207797400Y-143357600D01*
X207797400Y-143002000D01*
X206502000Y-143002000D01*
X206248000Y-143002000D01*
X204952600Y-143002000D01*
X202463400Y-143002000D01*
X202463400Y-142489543D01*
X202444078Y-142392400D01*
X204952600Y-142392400D01*
X204952600Y-142748000D01*
X206248000Y-142748000D01*
X206248000Y-141262148D01*
X206502000Y-141262148D01*
X206502000Y-142748000D01*
X207797400Y-142748000D01*
X207797400Y-142392400D01*
X207640525Y-141857738D01*
X207290986Y-141423809D01*
X206801996Y-141156673D01*
X206722060Y-141139990D01*
X206502000Y-141262148D01*
X206248000Y-141262148D01*
X206027940Y-141139990D01*
X205948004Y-141156673D01*
X205459014Y-141423809D01*
X205109475Y-141857738D01*
X204952600Y-142392400D01*
X202444078Y-142392400D01*
X202374461Y-142042416D01*
X202121184Y-141663359D01*
X201803000Y-141450756D01*
X201803000Y-139985750D01*
X209391000Y-139985750D01*
X209391000Y-140620309D01*
X209487673Y-140853698D01*
X209666301Y-141032327D01*
X209899690Y-141129000D01*
X210534250Y-141129000D01*
X210693000Y-140970250D01*
X210693000Y-139827000D01*
X210947000Y-139827000D01*
X210947000Y-140970250D01*
X211105750Y-141129000D01*
X211740310Y-141129000D01*
X211973699Y-141032327D01*
X212152327Y-140853698D01*
X212249000Y-140620309D01*
X212249000Y-139985750D01*
X212090250Y-139827000D01*
X210947000Y-139827000D01*
X210693000Y-139827000D01*
X209549750Y-139827000D01*
X209391000Y-139985750D01*
X201803000Y-139985750D01*
X201803000Y-138779691D01*
X209391000Y-138779691D01*
X209391000Y-139414250D01*
X209549750Y-139573000D01*
X210693000Y-139573000D01*
X210693000Y-139553000D01*
X210947000Y-139553000D01*
X210947000Y-139573000D01*
X212090250Y-139573000D01*
X212249000Y-139414250D01*
X212249000Y-138779691D01*
X212152327Y-138546302D01*
X211973699Y-138367673D01*
X211740310Y-138271000D01*
X211208083Y-138271000D01*
X211484715Y-138156698D01*
X211815536Y-137826453D01*
X211994796Y-137394747D01*
X211995204Y-136927303D01*
X211816698Y-136495285D01*
X211486453Y-136164464D01*
X211054747Y-135985204D01*
X210587303Y-135984796D01*
X210155285Y-136163302D01*
X209824464Y-136493547D01*
X209645204Y-136925253D01*
X209644796Y-137392697D01*
X209823302Y-137824715D01*
X210153547Y-138155536D01*
X210431615Y-138271000D01*
X209899690Y-138271000D01*
X209666301Y-138367673D01*
X209487673Y-138546302D01*
X209391000Y-138779691D01*
X201803000Y-138779691D01*
X201803000Y-136679244D01*
X202121184Y-136466641D01*
X202374461Y-136087584D01*
X202463400Y-135640457D01*
X202463400Y-135382000D01*
X204952600Y-135382000D01*
X204952600Y-135737600D01*
X205109475Y-136272262D01*
X205459014Y-136706191D01*
X205948004Y-136973327D01*
X206027940Y-136990010D01*
X206248000Y-136867852D01*
X206248000Y-135382000D01*
X206502000Y-135382000D01*
X206502000Y-136867852D01*
X206722060Y-136990010D01*
X206801996Y-136973327D01*
X207290986Y-136706191D01*
X207640525Y-136272262D01*
X207797400Y-135737600D01*
X207797400Y-135382000D01*
X206502000Y-135382000D01*
X206248000Y-135382000D01*
X204952600Y-135382000D01*
X202463400Y-135382000D01*
X202463400Y-134869543D01*
X202444078Y-134772400D01*
X204952600Y-134772400D01*
X204952600Y-135128000D01*
X206248000Y-135128000D01*
X206248000Y-133642148D01*
X206502000Y-133642148D01*
X206502000Y-135128000D01*
X207797400Y-135128000D01*
X207797400Y-134772400D01*
X207640525Y-134237738D01*
X207317478Y-133836697D01*
X207485796Y-133836697D01*
X207664302Y-134268715D01*
X207994547Y-134599536D01*
X208426253Y-134778796D01*
X208893697Y-134779204D01*
X209325715Y-134600698D01*
X209656536Y-134270453D01*
X209835796Y-133838747D01*
X209836204Y-133371303D01*
X209657698Y-132939285D01*
X209327453Y-132608464D01*
X208895747Y-132429204D01*
X208428303Y-132428796D01*
X207996285Y-132607302D01*
X207665464Y-132937547D01*
X207486204Y-133369253D01*
X207485796Y-133836697D01*
X207317478Y-133836697D01*
X207290986Y-133803809D01*
X206801996Y-133536673D01*
X206722060Y-133519990D01*
X206502000Y-133642148D01*
X206248000Y-133642148D01*
X206027940Y-133519990D01*
X205948004Y-133536673D01*
X205459014Y-133803809D01*
X205109475Y-134237738D01*
X204952600Y-134772400D01*
X202444078Y-134772400D01*
X202374461Y-134422416D01*
X202121184Y-134043359D01*
X201742127Y-133790082D01*
X201295000Y-133701143D01*
X200847873Y-133790082D01*
X200468816Y-134043359D01*
X200329000Y-134252609D01*
X200329000Y-131231831D01*
X200840056Y-132468681D01*
X201790317Y-133420601D01*
X203032527Y-133936412D01*
X204377572Y-133937586D01*
X205620681Y-133423944D01*
X206572601Y-132473683D01*
X207088412Y-131231473D01*
X207089586Y-129886428D01*
X206575944Y-128643319D01*
X205625683Y-127691399D01*
X204386873Y-127177000D01*
X207594354Y-127177000D01*
X207361285Y-127273302D01*
X207361285Y-127273302D01*
G37*
X207361285Y-127273302D02*
X207030464Y-127603547D01*
X206851204Y-128035253D01*
X206850796Y-128502697D01*
X207029302Y-128934715D01*
X207359547Y-129265536D01*
X207791253Y-129444796D01*
X208258697Y-129445204D01*
X208690715Y-129266698D01*
X209021536Y-128936453D01*
X209200796Y-128504747D01*
X209201204Y-128037303D01*
X209022698Y-127605285D01*
X208692453Y-127274464D01*
X208457734Y-127177000D01*
X210134354Y-127177000D01*
X209901285Y-127273302D01*
X209570464Y-127603547D01*
X209391204Y-128035253D01*
X209390796Y-128502697D01*
X209569302Y-128934715D01*
X209899547Y-129265536D01*
X210331253Y-129444796D01*
X210798697Y-129445204D01*
X211230715Y-129266698D01*
X211561536Y-128936453D01*
X211740796Y-128504747D01*
X211741204Y-128037303D01*
X211562698Y-127605285D01*
X211232453Y-127274464D01*
X210997734Y-127177000D01*
X212674354Y-127177000D01*
X212441285Y-127273302D01*
X212110464Y-127603547D01*
X211931204Y-128035253D01*
X211930796Y-128502697D01*
X212109302Y-128934715D01*
X212439547Y-129265536D01*
X212871253Y-129444796D01*
X213338697Y-129445204D01*
X213754499Y-129273398D01*
X214822207Y-129273398D01*
X214895604Y-129518896D01*
X215430657Y-129710994D01*
X215998493Y-129683712D01*
X216396396Y-129518896D01*
X216469793Y-129273398D01*
X215646000Y-128449605D01*
X214822207Y-129273398D01*
X213754499Y-129273398D01*
X213770715Y-129266698D01*
X214101536Y-128936453D01*
X214232248Y-128621663D01*
X214232288Y-128622493D01*
X214397104Y-129020396D01*
X214642602Y-129093793D01*
X215466395Y-128270000D01*
X214642602Y-127446207D01*
X214397104Y-127519604D01*
X214243766Y-127946697D01*
X214102698Y-127605285D01*
X213772453Y-127274464D01*
X213537734Y-127177000D01*
X214848995Y-127177000D01*
X214822207Y-127266602D01*
X215646000Y-128090395D01*
X216469793Y-127266602D01*
X216443005Y-127177000D01*
X217754354Y-127177000D01*
X217521285Y-127273302D01*
X217190464Y-127603547D01*
X217059752Y-127918337D01*
X217059712Y-127917507D01*
X216894896Y-127519604D01*
X216649398Y-127446207D01*
X215825605Y-128270000D01*
X216649398Y-129093793D01*
X216894896Y-129020396D01*
X217048234Y-128593303D01*
X217189302Y-128934715D01*
X217519547Y-129265536D01*
X217678000Y-129331331D01*
X217678000Y-132429110D01*
X217318303Y-132428796D01*
X216886285Y-132607302D01*
X216555464Y-132937547D01*
X216376204Y-133369253D01*
X216375796Y-133836697D01*
X216554302Y-134268715D01*
X216884547Y-134599536D01*
X217316253Y-134778796D01*
X217783697Y-134779204D01*
X218215715Y-134600698D01*
X218546536Y-134270453D01*
X218725796Y-133838747D01*
X218726204Y-133371303D01*
X218694000Y-133293363D01*
X218694000Y-129331451D01*
X218850715Y-129266698D01*
X219181536Y-128936453D01*
X219360796Y-128504747D01*
X219361204Y-128037303D01*
X219182698Y-127605285D01*
X218852453Y-127274464D01*
X218617734Y-127177000D01*
X220294354Y-127177000D01*
X220061285Y-127273302D01*
X219730464Y-127603547D01*
X219551204Y-128035253D01*
X219550796Y-128502697D01*
X219729302Y-128934715D01*
X220059547Y-129265536D01*
X220491253Y-129444796D01*
X220958697Y-129445204D01*
X221390715Y-129266698D01*
X221721536Y-128936453D01*
X221900796Y-128504747D01*
X221901204Y-128037303D01*
X221722698Y-127605285D01*
X221392453Y-127274464D01*
X221157734Y-127177000D01*
X222834354Y-127177000D01*
X222601285Y-127273302D01*
X222270464Y-127603547D01*
X222091204Y-128035253D01*
X222090796Y-128502697D01*
X222269302Y-128934715D01*
X222599547Y-129265536D01*
X223031253Y-129444796D01*
X223498697Y-129445204D01*
X223930715Y-129266698D01*
X224261536Y-128936453D01*
X224440796Y-128504747D01*
X224441204Y-128037303D01*
X224262698Y-127605285D01*
X223932453Y-127274464D01*
X223697734Y-127177000D01*
X225374354Y-127177000D01*
X225141285Y-127273302D01*
X224810464Y-127603547D01*
X224631204Y-128035253D01*
X224630796Y-128502697D01*
X224809302Y-128934715D01*
X224906418Y-129032000D01*
X224790000Y-129032000D01*
X224595597Y-129070669D01*
X224430790Y-129180790D01*
X217445790Y-136165790D01*
X217335669Y-136330597D01*
X217297000Y-136525000D01*
X217297000Y-141605000D01*
X217335669Y-141799403D01*
X217445790Y-141964210D01*
X218567000Y-143085420D01*
X218567000Y-144625756D01*
X218248816Y-144838359D01*
X217995539Y-145217416D01*
X217906600Y-145664543D01*
X217906600Y-146435457D01*
X217995539Y-146882584D01*
X218248816Y-147261641D01*
X218627873Y-147514918D01*
X219075000Y-147603857D01*
X219522127Y-147514918D01*
X219901184Y-147261641D01*
X220154461Y-146882584D01*
X220243400Y-146435457D01*
X220243400Y-145664543D01*
X220154461Y-145217416D01*
X219901184Y-144838359D01*
X219583000Y-144625756D01*
X219583000Y-142875000D01*
X219544331Y-142680597D01*
X219544331Y-142680596D01*
X219434210Y-142515790D01*
X218313000Y-141394580D01*
X218313000Y-139684527D01*
X218627873Y-139894918D01*
X219075000Y-139983857D01*
X219522127Y-139894918D01*
X219837000Y-139684527D01*
X219837000Y-141605000D01*
X219875669Y-141799403D01*
X219985790Y-141964210D01*
X221107000Y-143085420D01*
X221107000Y-144625756D01*
X220788816Y-144838359D01*
X220535539Y-145217416D01*
X220446600Y-145664543D01*
X220446600Y-146435457D01*
X220535539Y-146882584D01*
X220788816Y-147261641D01*
X220885939Y-147326536D01*
X220091000Y-147326536D01*
X219949810Y-147353103D01*
X219820135Y-147436546D01*
X219733141Y-147563866D01*
X219702536Y-147715000D01*
X219702536Y-149465000D01*
X219729103Y-149606190D01*
X219812546Y-149735865D01*
X219939866Y-149822859D01*
X220091000Y-149853464D01*
X220183094Y-149853464D01*
X219808466Y-150152072D01*
X219522341Y-150669481D01*
X219499742Y-150769184D01*
X219620731Y-151003000D01*
X221234000Y-151003000D01*
X221234000Y-150983000D01*
X221488000Y-150983000D01*
X221488000Y-151003000D01*
X221508000Y-151003000D01*
X221508000Y-151257000D01*
X221488000Y-151257000D01*
X221488000Y-151277000D01*
X221234000Y-151277000D01*
X221234000Y-151257000D01*
X219620731Y-151257000D01*
X219499742Y-151490816D01*
X219522341Y-151590519D01*
X219689059Y-151892000D01*
X219448923Y-151892000D01*
X218630636Y-151482856D01*
X218630643Y-151474518D01*
X218505233Y-151171002D01*
X218273219Y-150938583D01*
X217969923Y-150812643D01*
X217641518Y-150812357D01*
X217338002Y-150937767D01*
X217105583Y-151169781D01*
X216979643Y-151473077D01*
X216979357Y-151801482D01*
X217104767Y-152104998D01*
X217336781Y-152337417D01*
X217640077Y-152463357D01*
X217968482Y-152463643D01*
X218161148Y-152384035D01*
X219101816Y-152854369D01*
X219119420Y-152859190D01*
X219134597Y-152869331D01*
X219214457Y-152885216D01*
X219292988Y-152906722D01*
X219311098Y-152904439D01*
X219329000Y-152908000D01*
X219961254Y-152908000D01*
X219773262Y-153189350D01*
X219677655Y-153670000D01*
X219773262Y-154150650D01*
X219991375Y-154477079D01*
X219829193Y-154509338D01*
X219499580Y-154729579D01*
X218483580Y-155745580D01*
X218263338Y-156075193D01*
X218263338Y-156075194D01*
X218186000Y-156464000D01*
X218186000Y-158242000D01*
X218236524Y-158496000D01*
X218263338Y-158630807D01*
X218382875Y-158809705D01*
X217997520Y-158674073D01*
X217467801Y-158702852D01*
X217112071Y-158850200D01*
X217050417Y-159085812D01*
X217805000Y-159840395D01*
X217819143Y-159826253D01*
X217998748Y-160005858D01*
X217984605Y-160020000D01*
X218739188Y-160774583D01*
X218974800Y-160712929D01*
X219150927Y-160212520D01*
X219122148Y-159682801D01*
X219062884Y-159539724D01*
X220599000Y-161075841D01*
X220599000Y-163651349D01*
X220556735Y-163678546D01*
X220469741Y-163805866D01*
X220439136Y-163957000D01*
X220439136Y-166243000D01*
X220465703Y-166384190D01*
X220549146Y-166513865D01*
X220599000Y-166547929D01*
X220599000Y-173569159D01*
X218991580Y-175176580D01*
X218771338Y-175506193D01*
X218765946Y-175533302D01*
X218694000Y-175895000D01*
X218694000Y-175912830D01*
X218535204Y-176295253D01*
X218534796Y-176762697D01*
X218713302Y-177194715D01*
X219043547Y-177525536D01*
X219278266Y-177623000D01*
X218202935Y-177623000D01*
X218234865Y-177602454D01*
X218321859Y-177475134D01*
X218352464Y-177324000D01*
X218352464Y-175736000D01*
X218325897Y-175594810D01*
X218242454Y-175465135D01*
X218115134Y-175378141D01*
X217964000Y-175347536D01*
X216376000Y-175347536D01*
X216234810Y-175374103D01*
X216105135Y-175457546D01*
X216018141Y-175584866D01*
X215987536Y-175736000D01*
X215987536Y-177324000D01*
X216014103Y-177465190D01*
X216097546Y-177594865D01*
X216138723Y-177623000D01*
X204383831Y-177623000D01*
X205620681Y-177111944D01*
X206572601Y-176161683D01*
X207088412Y-174919473D01*
X207089586Y-173574428D01*
X206575944Y-172331319D01*
X205625683Y-171379399D01*
X204383473Y-170863588D01*
X203038428Y-170862414D01*
X201795319Y-171376056D01*
X200843399Y-172326317D01*
X200329000Y-173565127D01*
X200329000Y-167380000D01*
X200544108Y-167380000D01*
X200672067Y-168023291D01*
X201036462Y-168568646D01*
X201581817Y-168933041D01*
X202225108Y-169061000D01*
X202494892Y-169061000D01*
X203138183Y-168933041D01*
X203683538Y-168568646D01*
X204047933Y-168023291D01*
X204175892Y-167380000D01*
X204047933Y-166736709D01*
X203683538Y-166191354D01*
X203138183Y-165826959D01*
X202494892Y-165699000D01*
X202225108Y-165699000D01*
X201581817Y-165826959D01*
X201036462Y-166191354D01*
X200672067Y-166736709D01*
X200544108Y-167380000D01*
X200329000Y-167380000D01*
X200329000Y-160280000D01*
X200544108Y-160280000D01*
X200672067Y-160923291D01*
X201036462Y-161468646D01*
X201581817Y-161833041D01*
X202225108Y-161961000D01*
X202494892Y-161961000D01*
X203138183Y-161833041D01*
X203683538Y-161468646D01*
X204047933Y-160923291D01*
X204175892Y-160280000D01*
X205296067Y-160280000D01*
X205412607Y-160865888D01*
X205744487Y-161362580D01*
X206241179Y-161694460D01*
X206827067Y-161811000D01*
X206991513Y-161811000D01*
X206971338Y-161841194D01*
X206918192Y-162108377D01*
X206896000Y-162099162D01*
X206525625Y-162098839D01*
X206183320Y-162240277D01*
X205921197Y-162501943D01*
X205779162Y-162844000D01*
X205778839Y-163214375D01*
X205920277Y-163556680D01*
X206181943Y-163818803D01*
X206208551Y-163829852D01*
X206183320Y-163840277D01*
X205921197Y-164101943D01*
X205779162Y-164444000D01*
X205778839Y-164814375D01*
X205920277Y-165156680D01*
X206181943Y-165418803D01*
X206524000Y-165560838D01*
X206731076Y-165561019D01*
X206743137Y-165743396D01*
X206789939Y-165856385D01*
X206241179Y-165965540D01*
X205744487Y-166297420D01*
X205412607Y-166794112D01*
X205296067Y-167380000D01*
X205412607Y-167965888D01*
X205744487Y-168462580D01*
X206241179Y-168794460D01*
X206827067Y-168911000D01*
X207192933Y-168911000D01*
X207778821Y-168794460D01*
X208275513Y-168462580D01*
X208607393Y-167965888D01*
X208723933Y-167380000D01*
X208607393Y-166794112D01*
X208420925Y-166515044D01*
X208513492Y-166476701D01*
X208556828Y-166256433D01*
X207910000Y-165609605D01*
X207895858Y-165623748D01*
X207716253Y-165444143D01*
X207730395Y-165430000D01*
X208089605Y-165430000D01*
X208736433Y-166076828D01*
X208956701Y-166033492D01*
X209107972Y-165586999D01*
X209094663Y-165385750D01*
X209359500Y-165385750D01*
X209359500Y-166051810D01*
X209456173Y-166285199D01*
X209634802Y-166463827D01*
X209868191Y-166560500D01*
X210534250Y-166560500D01*
X210693000Y-166401750D01*
X210693000Y-165227000D01*
X209518250Y-165227000D01*
X209359500Y-165385750D01*
X209094663Y-165385750D01*
X209076863Y-165116604D01*
X208956701Y-164826508D01*
X208736433Y-164783172D01*
X208089605Y-165430000D01*
X207730395Y-165430000D01*
X207716253Y-165415858D01*
X207895858Y-165236253D01*
X207910000Y-165250395D01*
X208556828Y-164603567D01*
X208539761Y-164516821D01*
X208698803Y-164358057D01*
X208785947Y-164148190D01*
X209359500Y-164148190D01*
X209359500Y-164814250D01*
X209518250Y-164973000D01*
X210693000Y-164973000D01*
X210693000Y-163798250D01*
X210947000Y-163798250D01*
X210947000Y-164973000D01*
X210967000Y-164973000D01*
X210967000Y-165227000D01*
X210947000Y-165227000D01*
X210947000Y-166401750D01*
X211105750Y-166560500D01*
X211771809Y-166560500D01*
X212005198Y-166463827D01*
X212183827Y-166285199D01*
X212280500Y-166051810D01*
X212280500Y-165646806D01*
X212336582Y-165782535D01*
X212344000Y-165789966D01*
X212344000Y-171450000D01*
X212421338Y-171838806D01*
X212641580Y-172168420D01*
X212971194Y-172388662D01*
X213360000Y-172466000D01*
X213748806Y-172388662D01*
X214078420Y-172168420D01*
X214298662Y-171838806D01*
X214376000Y-171450000D01*
X214376000Y-171058544D01*
X217661287Y-171058544D01*
X217903793Y-171572717D01*
X218324605Y-171954947D01*
X218722507Y-172119764D01*
X218948000Y-171998070D01*
X218948000Y-170833051D01*
X219202000Y-170833051D01*
X219202000Y-171998070D01*
X219427493Y-172119764D01*
X219941666Y-171877258D01*
X220323896Y-171456446D01*
X220488713Y-171058544D01*
X220367019Y-170833051D01*
X219202000Y-170833051D01*
X218948000Y-170833051D01*
X217782981Y-170833051D01*
X217661287Y-171058544D01*
X214376000Y-171058544D01*
X214376000Y-169142697D01*
X216103745Y-169142697D01*
X216282251Y-169574715D01*
X216612496Y-169905536D01*
X217044202Y-170084796D01*
X217511646Y-170085204D01*
X217826661Y-169955042D01*
X217826104Y-169955656D01*
X217661287Y-170353558D01*
X217782981Y-170579051D01*
X218768392Y-170579051D01*
X218881251Y-170691910D01*
X219060859Y-170512302D01*
X218948000Y-170399443D01*
X218948000Y-169414032D01*
X219202000Y-169414032D01*
X219202000Y-170579051D01*
X220367019Y-170579051D01*
X220488713Y-170353558D01*
X220246207Y-169839385D01*
X219825395Y-169457155D01*
X219427493Y-169292338D01*
X219202000Y-169414032D01*
X218948000Y-169414032D01*
X218722507Y-169292338D01*
X218312081Y-169485913D01*
X218453745Y-169144747D01*
X218454153Y-168677303D01*
X218275647Y-168245285D01*
X217945402Y-167914464D01*
X217513696Y-167735204D01*
X217046252Y-167734796D01*
X216614234Y-167913302D01*
X216283413Y-168243547D01*
X216104153Y-168675253D01*
X216103745Y-169142697D01*
X214376000Y-169142697D01*
X214376000Y-165790534D01*
X214382225Y-165784320D01*
X214566290Y-165341041D01*
X214566709Y-164861065D01*
X214403059Y-164465000D01*
X215528025Y-164465000D01*
X217789858Y-166726833D01*
X217677428Y-166839263D01*
X217596378Y-166957885D01*
X217563687Y-167108582D01*
X217592202Y-167260125D01*
X217677428Y-167388635D01*
X218800314Y-168511521D01*
X218918936Y-168592571D01*
X219069633Y-168625262D01*
X219221176Y-168596747D01*
X219349686Y-168511521D01*
X220472572Y-167388635D01*
X220553622Y-167270013D01*
X220586313Y-167119316D01*
X220557798Y-166967773D01*
X220472572Y-166839263D01*
X219349686Y-165716377D01*
X219231064Y-165635327D01*
X219080367Y-165602636D01*
X218928824Y-165631151D01*
X218800314Y-165716377D01*
X218687884Y-165828807D01*
X216240064Y-163380987D01*
X216078619Y-163273113D01*
X216179622Y-163172286D01*
X216344313Y-162775668D01*
X216344314Y-162773784D01*
X216725313Y-162773784D01*
X216889311Y-163170689D01*
X217192714Y-163474622D01*
X217589332Y-163639313D01*
X218018784Y-163639687D01*
X218415689Y-163475689D01*
X218719622Y-163172286D01*
X218884313Y-162775668D01*
X218884687Y-162346216D01*
X218720689Y-161949311D01*
X218417286Y-161645378D01*
X218020668Y-161480687D01*
X217591216Y-161480313D01*
X217194311Y-161644311D01*
X216890378Y-161947714D01*
X216725687Y-162344332D01*
X216725313Y-162773784D01*
X216344314Y-162773784D01*
X216344687Y-162346216D01*
X216180689Y-161949311D01*
X215877286Y-161645378D01*
X215480668Y-161480687D01*
X215051216Y-161480313D01*
X214654311Y-161644311D01*
X214350378Y-161947714D01*
X214185687Y-162344332D01*
X214185313Y-162773784D01*
X214349311Y-163170689D01*
X214373580Y-163195000D01*
X214258026Y-163195000D01*
X213804343Y-162741317D01*
X213804687Y-162346216D01*
X213640689Y-161949311D01*
X213337286Y-161645378D01*
X212940668Y-161480687D01*
X212511216Y-161480313D01*
X212114311Y-161644311D01*
X211810378Y-161947714D01*
X211645687Y-162344332D01*
X211645313Y-162773784D01*
X211809311Y-163170689D01*
X212112714Y-163474622D01*
X212509332Y-163639313D01*
X212906633Y-163639659D01*
X213160299Y-163893325D01*
X213121065Y-163893291D01*
X212677465Y-164076582D01*
X212337775Y-164415680D01*
X212280500Y-164553614D01*
X212280500Y-164148190D01*
X212183827Y-163914801D01*
X212005198Y-163736173D01*
X211771809Y-163639500D01*
X211105750Y-163639500D01*
X210947000Y-163798250D01*
X210693000Y-163798250D01*
X210534250Y-163639500D01*
X209868191Y-163639500D01*
X209634802Y-163736173D01*
X209456173Y-163914801D01*
X209359500Y-164148190D01*
X208785947Y-164148190D01*
X208840838Y-164016000D01*
X208841161Y-163645625D01*
X208699723Y-163303320D01*
X208535493Y-163138803D01*
X208820420Y-162948420D01*
X210014420Y-161754420D01*
X210234662Y-161424807D01*
X210264397Y-161275317D01*
X210312000Y-161036000D01*
X210312000Y-160305750D01*
X211391500Y-160305750D01*
X211391500Y-160844809D01*
X211488173Y-161078198D01*
X211666801Y-161256827D01*
X211900190Y-161353500D01*
X212439250Y-161353500D01*
X212598000Y-161194750D01*
X212598000Y-160147000D01*
X211550250Y-160147000D01*
X211391500Y-160305750D01*
X210312000Y-160305750D01*
X210312000Y-159424840D01*
X210541649Y-159195191D01*
X211391500Y-159195191D01*
X211391500Y-159734250D01*
X211550250Y-159893000D01*
X212598000Y-159893000D01*
X212598000Y-158845250D01*
X212852000Y-158845250D01*
X212852000Y-159893000D01*
X212872000Y-159893000D01*
X212872000Y-160147000D01*
X212852000Y-160147000D01*
X212852000Y-161194750D01*
X213010750Y-161353500D01*
X213549810Y-161353500D01*
X213783199Y-161256827D01*
X213961827Y-161078198D01*
X214013193Y-160954188D01*
X214510417Y-160954188D01*
X214572071Y-161189800D01*
X215072480Y-161365927D01*
X215602199Y-161337148D01*
X215957929Y-161189800D01*
X216019583Y-160954188D01*
X217050417Y-160954188D01*
X217112071Y-161189800D01*
X217612480Y-161365927D01*
X218142199Y-161337148D01*
X218497929Y-161189800D01*
X218559583Y-160954188D01*
X217805000Y-160199605D01*
X217050417Y-160954188D01*
X216019583Y-160954188D01*
X215265000Y-160199605D01*
X214510417Y-160954188D01*
X214013193Y-160954188D01*
X214058500Y-160844809D01*
X214058500Y-160624327D01*
X214095200Y-160712929D01*
X214330812Y-160774583D01*
X215085395Y-160020000D01*
X215444605Y-160020000D01*
X216199188Y-160774583D01*
X216434800Y-160712929D01*
X216526859Y-160451371D01*
X216635200Y-160712929D01*
X216870812Y-160774583D01*
X217625395Y-160020000D01*
X216870812Y-159265417D01*
X216635200Y-159327071D01*
X216543141Y-159588629D01*
X216434800Y-159327071D01*
X216199188Y-159265417D01*
X215444605Y-160020000D01*
X215085395Y-160020000D01*
X214330812Y-159265417D01*
X214095200Y-159327071D01*
X214058500Y-159431342D01*
X214058500Y-159195191D01*
X214013194Y-159085812D01*
X214510417Y-159085812D01*
X215265000Y-159840395D01*
X216019583Y-159085812D01*
X215957929Y-158850200D01*
X215457520Y-158674073D01*
X214927801Y-158702852D01*
X214572071Y-158850200D01*
X214510417Y-159085812D01*
X214013194Y-159085812D01*
X213961827Y-158961802D01*
X213783199Y-158783173D01*
X213549810Y-158686500D01*
X213010750Y-158686500D01*
X212852000Y-158845250D01*
X212598000Y-158845250D01*
X212439250Y-158686500D01*
X211900190Y-158686500D01*
X211666801Y-158783173D01*
X211488173Y-158961802D01*
X211391500Y-159195191D01*
X210541649Y-159195191D01*
X212046421Y-157690420D01*
X212266662Y-157360807D01*
X212305331Y-157166403D01*
X212344000Y-156972000D01*
X212344000Y-153670000D01*
X213614000Y-153670000D01*
X213614000Y-157480000D01*
X213691338Y-157868806D01*
X213911580Y-158198420D01*
X214241194Y-158418662D01*
X214630000Y-158496000D01*
X215018806Y-158418662D01*
X215348420Y-158198420D01*
X215568662Y-157868806D01*
X215646000Y-157480000D01*
X215646000Y-153670000D01*
X215568662Y-153281194D01*
X215348420Y-152951580D01*
X215018806Y-152731338D01*
X214630000Y-152654000D01*
X214241194Y-152731338D01*
X213911580Y-152951580D01*
X213691338Y-153281194D01*
X213614000Y-153670000D01*
X212344000Y-153670000D01*
X212344000Y-149860000D01*
X212276512Y-149520711D01*
X212266662Y-149471193D01*
X212046420Y-149141579D01*
X211963000Y-149058160D01*
X211963000Y-144673164D01*
X211964451Y-144675130D01*
X212097077Y-144753797D01*
X212249861Y-144774668D01*
X212398726Y-144734453D01*
X213087860Y-144389886D01*
X213487000Y-144789026D01*
X213487000Y-148463000D01*
X213564338Y-148851806D01*
X213784580Y-149181420D01*
X214114194Y-149401662D01*
X214503000Y-149479000D01*
X214891806Y-149401662D01*
X215221420Y-149181420D01*
X215441662Y-148851806D01*
X215519000Y-148463000D01*
X215519000Y-143764000D01*
X215441662Y-143375194D01*
X215221420Y-143045580D01*
X214891806Y-142825338D01*
X214503000Y-142748000D01*
X214114194Y-142825338D01*
X213784580Y-143045580D01*
X213686457Y-143192431D01*
X213682013Y-143187987D01*
X213476004Y-143050336D01*
X213383507Y-143031937D01*
X212398726Y-142539547D01*
X212235732Y-142498684D01*
X212083810Y-142525103D01*
X211964004Y-142602196D01*
X211961549Y-142598870D01*
X211828923Y-142520203D01*
X211676139Y-142499332D01*
X211527274Y-142539547D01*
X210527274Y-143039547D01*
X210430135Y-143108546D01*
X210343141Y-143235866D01*
X210312536Y-143387000D01*
X210312536Y-143887000D01*
X210330809Y-144004740D01*
X210405782Y-144139489D01*
X210527274Y-144234453D01*
X210693000Y-144317316D01*
X210693000Y-148873981D01*
X210482580Y-149014580D01*
X210262338Y-149344193D01*
X210185001Y-149733000D01*
X210262338Y-150121807D01*
X210312000Y-150196131D01*
X210312000Y-156551159D01*
X208577580Y-158285580D01*
X208357338Y-158615193D01*
X208354232Y-158630807D01*
X208280000Y-159004000D01*
X208280000Y-159204135D01*
X208275513Y-159197420D01*
X207778821Y-158865540D01*
X207192933Y-158749000D01*
X206827067Y-158749000D01*
X206241179Y-158865540D01*
X205744487Y-159197420D01*
X205412607Y-159694112D01*
X205296067Y-160280000D01*
X204175892Y-160280000D01*
X204047933Y-159636709D01*
X203683538Y-159091354D01*
X203138183Y-158726959D01*
X202494892Y-158599000D01*
X202225108Y-158599000D01*
X201581817Y-158726959D01*
X201036462Y-159091354D01*
X200672067Y-159636709D01*
X200544108Y-160280000D01*
X200329000Y-160280000D01*
X200329000Y-155947871D01*
X200406000Y-155963464D01*
X209296000Y-155963464D01*
X209437190Y-155936897D01*
X209566865Y-155853454D01*
X209653859Y-155726134D01*
X209684464Y-155575000D01*
X209684464Y-146685000D01*
X209657897Y-146543810D01*
X209574454Y-146414135D01*
X209447134Y-146327141D01*
X209296000Y-146296536D01*
X200406000Y-146296536D01*
X200329000Y-146311025D01*
X200329000Y-143877391D01*
X200468816Y-144086641D01*
X200847873Y-144339918D01*
X201295000Y-144428857D01*
X201742127Y-144339918D01*
X202121184Y-144086641D01*
X202374461Y-143707584D01*
X202463400Y-143260457D01*
X202463400Y-143002000D01*
X204952600Y-143002000D01*
X204952600Y-143357600D01*
X205109475Y-143892262D01*
X205459014Y-144326191D01*
X205948004Y-144593327D01*
X206027940Y-144610010D01*
X206248000Y-144487852D01*
X206248000Y-143002000D01*
X206502000Y-143002000D01*
X206502000Y-144487852D01*
X206722060Y-144610010D01*
X206801996Y-144593327D01*
X207290986Y-144326191D01*
X207640525Y-143892262D01*
X207797400Y-143357600D01*
X207797400Y-143002000D01*
X206502000Y-143002000D01*
X206248000Y-143002000D01*
X204952600Y-143002000D01*
X202463400Y-143002000D01*
X202463400Y-142489543D01*
X202444078Y-142392400D01*
X204952600Y-142392400D01*
X204952600Y-142748000D01*
X206248000Y-142748000D01*
X206248000Y-141262148D01*
X206502000Y-141262148D01*
X206502000Y-142748000D01*
X207797400Y-142748000D01*
X207797400Y-142392400D01*
X207640525Y-141857738D01*
X207290986Y-141423809D01*
X206801996Y-141156673D01*
X206722060Y-141139990D01*
X206502000Y-141262148D01*
X206248000Y-141262148D01*
X206027940Y-141139990D01*
X205948004Y-141156673D01*
X205459014Y-141423809D01*
X205109475Y-141857738D01*
X204952600Y-142392400D01*
X202444078Y-142392400D01*
X202374461Y-142042416D01*
X202121184Y-141663359D01*
X201803000Y-141450756D01*
X201803000Y-139985750D01*
X209391000Y-139985750D01*
X209391000Y-140620309D01*
X209487673Y-140853698D01*
X209666301Y-141032327D01*
X209899690Y-141129000D01*
X210534250Y-141129000D01*
X210693000Y-140970250D01*
X210693000Y-139827000D01*
X210947000Y-139827000D01*
X210947000Y-140970250D01*
X211105750Y-141129000D01*
X211740310Y-141129000D01*
X211973699Y-141032327D01*
X212152327Y-140853698D01*
X212249000Y-140620309D01*
X212249000Y-139985750D01*
X212090250Y-139827000D01*
X210947000Y-139827000D01*
X210693000Y-139827000D01*
X209549750Y-139827000D01*
X209391000Y-139985750D01*
X201803000Y-139985750D01*
X201803000Y-138779691D01*
X209391000Y-138779691D01*
X209391000Y-139414250D01*
X209549750Y-139573000D01*
X210693000Y-139573000D01*
X210693000Y-139553000D01*
X210947000Y-139553000D01*
X210947000Y-139573000D01*
X212090250Y-139573000D01*
X212249000Y-139414250D01*
X212249000Y-138779691D01*
X212152327Y-138546302D01*
X211973699Y-138367673D01*
X211740310Y-138271000D01*
X211208083Y-138271000D01*
X211484715Y-138156698D01*
X211815536Y-137826453D01*
X211994796Y-137394747D01*
X211995204Y-136927303D01*
X211816698Y-136495285D01*
X211486453Y-136164464D01*
X211054747Y-135985204D01*
X210587303Y-135984796D01*
X210155285Y-136163302D01*
X209824464Y-136493547D01*
X209645204Y-136925253D01*
X209644796Y-137392697D01*
X209823302Y-137824715D01*
X210153547Y-138155536D01*
X210431615Y-138271000D01*
X209899690Y-138271000D01*
X209666301Y-138367673D01*
X209487673Y-138546302D01*
X209391000Y-138779691D01*
X201803000Y-138779691D01*
X201803000Y-136679244D01*
X202121184Y-136466641D01*
X202374461Y-136087584D01*
X202463400Y-135640457D01*
X202463400Y-135382000D01*
X204952600Y-135382000D01*
X204952600Y-135737600D01*
X205109475Y-136272262D01*
X205459014Y-136706191D01*
X205948004Y-136973327D01*
X206027940Y-136990010D01*
X206248000Y-136867852D01*
X206248000Y-135382000D01*
X206502000Y-135382000D01*
X206502000Y-136867852D01*
X206722060Y-136990010D01*
X206801996Y-136973327D01*
X207290986Y-136706191D01*
X207640525Y-136272262D01*
X207797400Y-135737600D01*
X207797400Y-135382000D01*
X206502000Y-135382000D01*
X206248000Y-135382000D01*
X204952600Y-135382000D01*
X202463400Y-135382000D01*
X202463400Y-134869543D01*
X202444078Y-134772400D01*
X204952600Y-134772400D01*
X204952600Y-135128000D01*
X206248000Y-135128000D01*
X206248000Y-133642148D01*
X206502000Y-133642148D01*
X206502000Y-135128000D01*
X207797400Y-135128000D01*
X207797400Y-134772400D01*
X207640525Y-134237738D01*
X207317478Y-133836697D01*
X207485796Y-133836697D01*
X207664302Y-134268715D01*
X207994547Y-134599536D01*
X208426253Y-134778796D01*
X208893697Y-134779204D01*
X209325715Y-134600698D01*
X209656536Y-134270453D01*
X209835796Y-133838747D01*
X209836204Y-133371303D01*
X209657698Y-132939285D01*
X209327453Y-132608464D01*
X208895747Y-132429204D01*
X208428303Y-132428796D01*
X207996285Y-132607302D01*
X207665464Y-132937547D01*
X207486204Y-133369253D01*
X207485796Y-133836697D01*
X207317478Y-133836697D01*
X207290986Y-133803809D01*
X206801996Y-133536673D01*
X206722060Y-133519990D01*
X206502000Y-133642148D01*
X206248000Y-133642148D01*
X206027940Y-133519990D01*
X205948004Y-133536673D01*
X205459014Y-133803809D01*
X205109475Y-134237738D01*
X204952600Y-134772400D01*
X202444078Y-134772400D01*
X202374461Y-134422416D01*
X202121184Y-134043359D01*
X201742127Y-133790082D01*
X201295000Y-133701143D01*
X200847873Y-133790082D01*
X200468816Y-134043359D01*
X200329000Y-134252609D01*
X200329000Y-131231831D01*
X200840056Y-132468681D01*
X201790317Y-133420601D01*
X203032527Y-133936412D01*
X204377572Y-133937586D01*
X205620681Y-133423944D01*
X206572601Y-132473683D01*
X207088412Y-131231473D01*
X207089586Y-129886428D01*
X206575944Y-128643319D01*
X205625683Y-127691399D01*
X204386873Y-127177000D01*
X207594354Y-127177000D01*
X207361285Y-127273302D01*
G36*
X255135319Y-127688056D02*
X254183399Y-128638317D01*
X253667588Y-129880527D01*
X253666414Y-131225572D01*
X254180056Y-132468681D01*
X255130317Y-133420601D01*
X256372527Y-133936412D01*
X257717572Y-133937586D01*
X258960681Y-133423944D01*
X259912601Y-132473683D01*
X260427000Y-131234873D01*
X260427000Y-166926974D01*
X260268188Y-166885417D01*
X259513605Y-167640000D01*
X260268188Y-168394583D01*
X260427000Y-168353026D01*
X260427000Y-173568169D01*
X259915944Y-172331319D01*
X258965683Y-171379399D01*
X257723473Y-170863588D01*
X256378428Y-170862414D01*
X255135319Y-171376056D01*
X254183399Y-172326317D01*
X253667588Y-173568527D01*
X253666414Y-174913572D01*
X254180056Y-176156681D01*
X255130317Y-177108601D01*
X256369127Y-177623000D01*
X253161646Y-177623000D01*
X253394715Y-177526698D01*
X253725536Y-177196453D01*
X253904796Y-176764747D01*
X253905204Y-176297303D01*
X253726698Y-175865285D01*
X253396453Y-175534464D01*
X252964747Y-175355204D01*
X252730000Y-175354999D01*
X252730000Y-168574188D01*
X258579417Y-168574188D01*
X258641071Y-168809800D01*
X259141480Y-168985927D01*
X259671199Y-168957148D01*
X260026929Y-168809800D01*
X260088583Y-168574188D01*
X259334000Y-167819605D01*
X258579417Y-168574188D01*
X252730000Y-168574188D01*
X252730000Y-167447480D01*
X257988073Y-167447480D01*
X258016852Y-167977199D01*
X258164200Y-168332929D01*
X258399812Y-168394583D01*
X259154395Y-167640000D01*
X258399812Y-166885417D01*
X258164200Y-166947071D01*
X257988073Y-167447480D01*
X252730000Y-167447480D01*
X252730000Y-166705812D01*
X258579417Y-166705812D01*
X259334000Y-167460395D01*
X260088583Y-166705812D01*
X260026929Y-166470200D01*
X259526520Y-166294073D01*
X258996801Y-166322852D01*
X258641071Y-166470200D01*
X258579417Y-166705812D01*
X252730000Y-166705812D01*
X252730000Y-165178632D01*
X252894547Y-165507726D01*
X252963546Y-165604865D01*
X253090866Y-165691859D01*
X253174522Y-165708800D01*
X253174357Y-165898482D01*
X253299767Y-166201998D01*
X253531781Y-166434417D01*
X253835077Y-166560357D01*
X254163482Y-166560643D01*
X254466998Y-166435233D01*
X254699417Y-166203219D01*
X254825357Y-165899923D01*
X254825643Y-165571518D01*
X254719150Y-165313784D01*
X258254313Y-165313784D01*
X258418311Y-165710689D01*
X258721714Y-166014622D01*
X259118332Y-166179313D01*
X259547784Y-166179687D01*
X259944689Y-166015689D01*
X260248622Y-165712286D01*
X260413313Y-165315668D01*
X260413687Y-164886216D01*
X260249689Y-164489311D01*
X259946286Y-164185378D01*
X259549668Y-164020687D01*
X259120216Y-164020313D01*
X258723311Y-164184311D01*
X258419378Y-164487714D01*
X258254687Y-164884332D01*
X258254313Y-165313784D01*
X254719150Y-165313784D01*
X254700233Y-165268002D01*
X254468219Y-165035583D01*
X254350057Y-164986518D01*
X254589453Y-164507726D01*
X254630316Y-164344732D01*
X254603897Y-164192810D01*
X254535185Y-164086027D01*
X254608797Y-163961923D01*
X254629668Y-163809139D01*
X254589453Y-163660274D01*
X254146208Y-162773784D01*
X258254313Y-162773784D01*
X258418311Y-163170689D01*
X258721714Y-163474622D01*
X259118332Y-163639313D01*
X259547784Y-163639687D01*
X259944689Y-163475689D01*
X260248622Y-163172286D01*
X260413313Y-162775668D01*
X260413687Y-162346216D01*
X260249689Y-161949311D01*
X259946286Y-161645378D01*
X259549668Y-161480687D01*
X259120216Y-161480313D01*
X258723311Y-161644311D01*
X258419378Y-161947714D01*
X258254687Y-162344332D01*
X258254313Y-162773784D01*
X254146208Y-162773784D01*
X254089453Y-162660274D01*
X254020454Y-162563135D01*
X254000000Y-162549159D01*
X254000000Y-162248119D01*
X254102689Y-162205689D01*
X254406622Y-161902286D01*
X254571313Y-161505668D01*
X254571687Y-161076216D01*
X254407689Y-160679311D01*
X254104286Y-160375378D01*
X253763292Y-160233784D01*
X258254313Y-160233784D01*
X258418311Y-160630689D01*
X258721714Y-160934622D01*
X259118332Y-161099313D01*
X259547784Y-161099687D01*
X259944689Y-160935689D01*
X260248622Y-160632286D01*
X260413313Y-160235668D01*
X260413687Y-159806216D01*
X260249689Y-159409311D01*
X259946286Y-159105378D01*
X259549668Y-158940687D01*
X259120216Y-158940313D01*
X258723311Y-159104311D01*
X258419378Y-159407714D01*
X258254687Y-159804332D01*
X258254313Y-160233784D01*
X253763292Y-160233784D01*
X253707668Y-160210687D01*
X253278216Y-160210313D01*
X252881311Y-160374311D01*
X252730000Y-160525358D01*
X252730000Y-159514646D01*
X252879714Y-159664622D01*
X253276332Y-159829313D01*
X253705784Y-159829687D01*
X254102689Y-159665689D01*
X254406622Y-159362286D01*
X254571313Y-158965668D01*
X254571687Y-158536216D01*
X254407689Y-158139311D01*
X254104286Y-157835378D01*
X254000000Y-157792074D01*
X254000000Y-157693784D01*
X258254313Y-157693784D01*
X258418311Y-158090689D01*
X258721714Y-158394622D01*
X259118332Y-158559313D01*
X259547784Y-158559687D01*
X259944689Y-158395689D01*
X260248622Y-158092286D01*
X260413313Y-157695668D01*
X260413687Y-157266216D01*
X260249689Y-156869311D01*
X259946286Y-156565378D01*
X259549668Y-156400687D01*
X259120216Y-156400313D01*
X258723311Y-156564311D01*
X258419378Y-156867714D01*
X258254687Y-157264332D01*
X258254313Y-157693784D01*
X254000000Y-157693784D01*
X254000000Y-154723411D01*
X254460207Y-154723411D01*
X254533604Y-154968909D01*
X255068657Y-155161007D01*
X255636493Y-155133725D01*
X256034396Y-154968909D01*
X256107793Y-154723411D01*
X255284000Y-153899618D01*
X254460207Y-154723411D01*
X254000000Y-154723411D01*
X254000000Y-154468013D01*
X253968485Y-154309576D01*
X254035104Y-154470409D01*
X254280602Y-154543806D01*
X255104395Y-153720013D01*
X255463605Y-153720013D01*
X256287398Y-154543806D01*
X256532896Y-154470409D01*
X256615080Y-154241500D01*
X258247036Y-154241500D01*
X258247036Y-155638500D01*
X258273603Y-155779690D01*
X258357046Y-155909365D01*
X258484366Y-155996359D01*
X258635500Y-156026964D01*
X260032500Y-156026964D01*
X260173690Y-156000397D01*
X260303365Y-155916954D01*
X260390359Y-155789634D01*
X260420964Y-155638500D01*
X260420964Y-154241500D01*
X260394397Y-154100310D01*
X260310954Y-153970635D01*
X260183634Y-153883641D01*
X260032500Y-153853036D01*
X258635500Y-153853036D01*
X258494310Y-153879603D01*
X258364635Y-153963046D01*
X258277641Y-154090366D01*
X258247036Y-154241500D01*
X256615080Y-154241500D01*
X256724994Y-153935356D01*
X256697712Y-153367520D01*
X256532896Y-152969617D01*
X256287398Y-152896220D01*
X255463605Y-153720013D01*
X255104395Y-153720013D01*
X255090253Y-153705871D01*
X255269858Y-153526266D01*
X255284000Y-153540408D01*
X256107793Y-152716615D01*
X256034396Y-152471117D01*
X255607303Y-152317779D01*
X255948715Y-152176711D01*
X256279536Y-151846466D01*
X256458796Y-151414760D01*
X256459204Y-150947316D01*
X256280698Y-150515298D01*
X255950453Y-150184477D01*
X255518747Y-150005217D01*
X255051303Y-150004809D01*
X254619285Y-150183315D01*
X254508000Y-150294406D01*
X254508000Y-149525811D01*
X254617547Y-149635549D01*
X255049253Y-149814809D01*
X255516697Y-149815217D01*
X255948715Y-149636711D01*
X256279536Y-149306466D01*
X256458796Y-148874760D01*
X256459204Y-148407316D01*
X256280698Y-147975298D01*
X255950453Y-147644477D01*
X255518747Y-147465217D01*
X255051303Y-147464809D01*
X254619285Y-147643315D01*
X254508000Y-147754406D01*
X254508000Y-142391302D01*
X254699417Y-142200219D01*
X254825357Y-141896923D01*
X254825643Y-141568518D01*
X254700233Y-141265002D01*
X254468219Y-141032583D01*
X254164923Y-140906643D01*
X253876040Y-140906391D01*
X253989598Y-133638686D01*
X254191417Y-133437219D01*
X254317357Y-133133923D01*
X254317643Y-132805518D01*
X254192233Y-132502002D01*
X253960219Y-132269583D01*
X253656923Y-132143643D01*
X253328518Y-132143357D01*
X253025002Y-132268767D01*
X252792583Y-132500781D01*
X252666643Y-132804077D01*
X252666357Y-133132482D01*
X252791767Y-133435998D01*
X252973792Y-133618341D01*
X252922412Y-136906639D01*
X252882400Y-136898536D01*
X252603000Y-136898536D01*
X252603000Y-133350000D01*
X252564331Y-133155597D01*
X252520738Y-133090355D01*
X252375689Y-132739311D01*
X252072286Y-132435378D01*
X251675668Y-132270687D01*
X251353014Y-132270406D01*
X253089210Y-130534210D01*
X253199331Y-130369403D01*
X253238000Y-130175000D01*
X253238000Y-129356964D01*
X253428500Y-129356964D01*
X253569690Y-129330397D01*
X253699365Y-129246954D01*
X253786359Y-129119634D01*
X253816964Y-128968500D01*
X253816964Y-127571500D01*
X253790397Y-127430310D01*
X253706954Y-127300635D01*
X253579634Y-127213641D01*
X253428500Y-127183036D01*
X252031500Y-127183036D01*
X251890310Y-127209603D01*
X251760635Y-127293046D01*
X251673641Y-127420366D01*
X251643036Y-127571500D01*
X251643036Y-128968500D01*
X251669603Y-129109690D01*
X251753046Y-129239365D01*
X251880366Y-129326359D01*
X252031500Y-129356964D01*
X252222000Y-129356964D01*
X252222000Y-129964580D01*
X250698000Y-131488580D01*
X250698000Y-129228119D01*
X250800689Y-129185689D01*
X251104622Y-128882286D01*
X251269313Y-128485668D01*
X251269687Y-128056216D01*
X251105689Y-127659311D01*
X250802286Y-127355378D01*
X250405668Y-127190687D01*
X249976216Y-127190313D01*
X249579311Y-127354311D01*
X249275378Y-127657714D01*
X249110687Y-128054332D01*
X249110313Y-128483784D01*
X249274311Y-128880689D01*
X249577714Y-129184622D01*
X249682000Y-129227926D01*
X249682000Y-131361580D01*
X248147179Y-132896401D01*
X248158000Y-132842000D01*
X248158000Y-129228119D01*
X248260689Y-129185689D01*
X248564622Y-128882286D01*
X248729313Y-128485668D01*
X248729687Y-128056216D01*
X248565689Y-127659311D01*
X248262286Y-127355378D01*
X247865668Y-127190687D01*
X247436216Y-127190313D01*
X247039311Y-127354311D01*
X246735378Y-127657714D01*
X246570687Y-128054332D01*
X246570313Y-128483784D01*
X246734311Y-128880689D01*
X247037714Y-129184622D01*
X247142000Y-129227926D01*
X247142000Y-132631580D01*
X245607179Y-134166401D01*
X245618000Y-134112000D01*
X245618000Y-129228119D01*
X245720689Y-129185689D01*
X246024622Y-128882286D01*
X246189313Y-128485668D01*
X246189687Y-128056216D01*
X246025689Y-127659311D01*
X245722286Y-127355378D01*
X245325668Y-127190687D01*
X244896216Y-127190313D01*
X244499311Y-127354311D01*
X244195378Y-127657714D01*
X244030687Y-128054332D01*
X244030313Y-128483784D01*
X244194311Y-128880689D01*
X244497714Y-129184622D01*
X244602000Y-129227926D01*
X244602000Y-133901580D01*
X244221000Y-134282580D01*
X244221000Y-129159000D01*
X244214786Y-129127760D01*
X244217077Y-129095991D01*
X244195614Y-129031378D01*
X244182331Y-128964597D01*
X244164635Y-128938113D01*
X244154594Y-128907885D01*
X244110036Y-128856400D01*
X244072210Y-128799790D01*
X244045727Y-128782095D01*
X244024882Y-128758009D01*
X243649330Y-128465913D01*
X243649687Y-128056216D01*
X243485689Y-127659311D01*
X243182286Y-127355378D01*
X242785668Y-127190687D01*
X242356216Y-127190313D01*
X241959311Y-127354311D01*
X241655378Y-127657714D01*
X241490687Y-128054332D01*
X241490313Y-128483784D01*
X241654311Y-128880689D01*
X241957714Y-129184622D01*
X242354332Y-129349313D01*
X242783784Y-129349687D01*
X243010360Y-129256068D01*
X243205000Y-129407455D01*
X243205000Y-132458132D01*
X243182286Y-132435378D01*
X242785668Y-132270687D01*
X242356216Y-132270313D01*
X242115290Y-132369862D01*
X241935000Y-132334000D01*
X237223142Y-132334000D01*
X237070668Y-132270687D01*
X236748014Y-132270406D01*
X237214211Y-131804210D01*
X237214213Y-131804207D01*
X239711717Y-129306703D01*
X239814332Y-129349313D01*
X240243784Y-129349687D01*
X240640689Y-129185689D01*
X240944622Y-128882286D01*
X241109313Y-128485668D01*
X241109687Y-128056216D01*
X240945689Y-127659311D01*
X240642286Y-127355378D01*
X240245668Y-127190687D01*
X239816216Y-127190313D01*
X239419311Y-127354311D01*
X239115378Y-127657714D01*
X238950687Y-128054332D01*
X238950313Y-128483784D01*
X238993434Y-128588146D01*
X236495793Y-131085787D01*
X236495790Y-131085789D01*
X236009580Y-131572000D01*
X234906420Y-131572000D01*
X237171717Y-129306703D01*
X237274332Y-129349313D01*
X237703784Y-129349687D01*
X238100689Y-129185689D01*
X238404622Y-128882286D01*
X238569313Y-128485668D01*
X238569687Y-128056216D01*
X238405689Y-127659311D01*
X238102286Y-127355378D01*
X237705668Y-127190687D01*
X237276216Y-127190313D01*
X236879311Y-127354311D01*
X236575378Y-127657714D01*
X236410687Y-128054332D01*
X236410313Y-128483784D01*
X236453434Y-128588146D01*
X234104580Y-130937000D01*
X233001420Y-130937000D01*
X234631717Y-129306703D01*
X234734332Y-129349313D01*
X235163784Y-129349687D01*
X235560689Y-129185689D01*
X235864622Y-128882286D01*
X236029313Y-128485668D01*
X236029687Y-128056216D01*
X235865689Y-127659311D01*
X235562286Y-127355378D01*
X235165668Y-127190687D01*
X234736216Y-127190313D01*
X234339311Y-127354311D01*
X234035378Y-127657714D01*
X233870687Y-128054332D01*
X233870313Y-128483784D01*
X233913434Y-128588145D01*
X232199580Y-130302000D01*
X229572420Y-130302000D01*
X230421956Y-129452464D01*
X231680000Y-129452464D01*
X231821190Y-129425897D01*
X231950865Y-129342454D01*
X232037859Y-129215134D01*
X232068464Y-129064000D01*
X232068464Y-127476000D01*
X232041897Y-127334810D01*
X231958454Y-127205135D01*
X231917277Y-127177000D01*
X256372169Y-127177000D01*
X255135319Y-127688056D01*
X255135319Y-127688056D01*
G37*
X255135319Y-127688056D02*
X254183399Y-128638317D01*
X253667588Y-129880527D01*
X253666414Y-131225572D01*
X254180056Y-132468681D01*
X255130317Y-133420601D01*
X256372527Y-133936412D01*
X257717572Y-133937586D01*
X258960681Y-133423944D01*
X259912601Y-132473683D01*
X260427000Y-131234873D01*
X260427000Y-166926974D01*
X260268188Y-166885417D01*
X259513605Y-167640000D01*
X260268188Y-168394583D01*
X260427000Y-168353026D01*
X260427000Y-173568169D01*
X259915944Y-172331319D01*
X258965683Y-171379399D01*
X257723473Y-170863588D01*
X256378428Y-170862414D01*
X255135319Y-171376056D01*
X254183399Y-172326317D01*
X253667588Y-173568527D01*
X253666414Y-174913572D01*
X254180056Y-176156681D01*
X255130317Y-177108601D01*
X256369127Y-177623000D01*
X253161646Y-177623000D01*
X253394715Y-177526698D01*
X253725536Y-177196453D01*
X253904796Y-176764747D01*
X253905204Y-176297303D01*
X253726698Y-175865285D01*
X253396453Y-175534464D01*
X252964747Y-175355204D01*
X252730000Y-175354999D01*
X252730000Y-168574188D01*
X258579417Y-168574188D01*
X258641071Y-168809800D01*
X259141480Y-168985927D01*
X259671199Y-168957148D01*
X260026929Y-168809800D01*
X260088583Y-168574188D01*
X259334000Y-167819605D01*
X258579417Y-168574188D01*
X252730000Y-168574188D01*
X252730000Y-167447480D01*
X257988073Y-167447480D01*
X258016852Y-167977199D01*
X258164200Y-168332929D01*
X258399812Y-168394583D01*
X259154395Y-167640000D01*
X258399812Y-166885417D01*
X258164200Y-166947071D01*
X257988073Y-167447480D01*
X252730000Y-167447480D01*
X252730000Y-166705812D01*
X258579417Y-166705812D01*
X259334000Y-167460395D01*
X260088583Y-166705812D01*
X260026929Y-166470200D01*
X259526520Y-166294073D01*
X258996801Y-166322852D01*
X258641071Y-166470200D01*
X258579417Y-166705812D01*
X252730000Y-166705812D01*
X252730000Y-165178632D01*
X252894547Y-165507726D01*
X252963546Y-165604865D01*
X253090866Y-165691859D01*
X253174522Y-165708800D01*
X253174357Y-165898482D01*
X253299767Y-166201998D01*
X253531781Y-166434417D01*
X253835077Y-166560357D01*
X254163482Y-166560643D01*
X254466998Y-166435233D01*
X254699417Y-166203219D01*
X254825357Y-165899923D01*
X254825643Y-165571518D01*
X254719150Y-165313784D01*
X258254313Y-165313784D01*
X258418311Y-165710689D01*
X258721714Y-166014622D01*
X259118332Y-166179313D01*
X259547784Y-166179687D01*
X259944689Y-166015689D01*
X260248622Y-165712286D01*
X260413313Y-165315668D01*
X260413687Y-164886216D01*
X260249689Y-164489311D01*
X259946286Y-164185378D01*
X259549668Y-164020687D01*
X259120216Y-164020313D01*
X258723311Y-164184311D01*
X258419378Y-164487714D01*
X258254687Y-164884332D01*
X258254313Y-165313784D01*
X254719150Y-165313784D01*
X254700233Y-165268002D01*
X254468219Y-165035583D01*
X254350057Y-164986518D01*
X254589453Y-164507726D01*
X254630316Y-164344732D01*
X254603897Y-164192810D01*
X254535185Y-164086027D01*
X254608797Y-163961923D01*
X254629668Y-163809139D01*
X254589453Y-163660274D01*
X254146208Y-162773784D01*
X258254313Y-162773784D01*
X258418311Y-163170689D01*
X258721714Y-163474622D01*
X259118332Y-163639313D01*
X259547784Y-163639687D01*
X259944689Y-163475689D01*
X260248622Y-163172286D01*
X260413313Y-162775668D01*
X260413687Y-162346216D01*
X260249689Y-161949311D01*
X259946286Y-161645378D01*
X259549668Y-161480687D01*
X259120216Y-161480313D01*
X258723311Y-161644311D01*
X258419378Y-161947714D01*
X258254687Y-162344332D01*
X258254313Y-162773784D01*
X254146208Y-162773784D01*
X254089453Y-162660274D01*
X254020454Y-162563135D01*
X254000000Y-162549159D01*
X254000000Y-162248119D01*
X254102689Y-162205689D01*
X254406622Y-161902286D01*
X254571313Y-161505668D01*
X254571687Y-161076216D01*
X254407689Y-160679311D01*
X254104286Y-160375378D01*
X253763292Y-160233784D01*
X258254313Y-160233784D01*
X258418311Y-160630689D01*
X258721714Y-160934622D01*
X259118332Y-161099313D01*
X259547784Y-161099687D01*
X259944689Y-160935689D01*
X260248622Y-160632286D01*
X260413313Y-160235668D01*
X260413687Y-159806216D01*
X260249689Y-159409311D01*
X259946286Y-159105378D01*
X259549668Y-158940687D01*
X259120216Y-158940313D01*
X258723311Y-159104311D01*
X258419378Y-159407714D01*
X258254687Y-159804332D01*
X258254313Y-160233784D01*
X253763292Y-160233784D01*
X253707668Y-160210687D01*
X253278216Y-160210313D01*
X252881311Y-160374311D01*
X252730000Y-160525358D01*
X252730000Y-159514646D01*
X252879714Y-159664622D01*
X253276332Y-159829313D01*
X253705784Y-159829687D01*
X254102689Y-159665689D01*
X254406622Y-159362286D01*
X254571313Y-158965668D01*
X254571687Y-158536216D01*
X254407689Y-158139311D01*
X254104286Y-157835378D01*
X254000000Y-157792074D01*
X254000000Y-157693784D01*
X258254313Y-157693784D01*
X258418311Y-158090689D01*
X258721714Y-158394622D01*
X259118332Y-158559313D01*
X259547784Y-158559687D01*
X259944689Y-158395689D01*
X260248622Y-158092286D01*
X260413313Y-157695668D01*
X260413687Y-157266216D01*
X260249689Y-156869311D01*
X259946286Y-156565378D01*
X259549668Y-156400687D01*
X259120216Y-156400313D01*
X258723311Y-156564311D01*
X258419378Y-156867714D01*
X258254687Y-157264332D01*
X258254313Y-157693784D01*
X254000000Y-157693784D01*
X254000000Y-154723411D01*
X254460207Y-154723411D01*
X254533604Y-154968909D01*
X255068657Y-155161007D01*
X255636493Y-155133725D01*
X256034396Y-154968909D01*
X256107793Y-154723411D01*
X255284000Y-153899618D01*
X254460207Y-154723411D01*
X254000000Y-154723411D01*
X254000000Y-154468013D01*
X253968485Y-154309576D01*
X254035104Y-154470409D01*
X254280602Y-154543806D01*
X255104395Y-153720013D01*
X255463605Y-153720013D01*
X256287398Y-154543806D01*
X256532896Y-154470409D01*
X256615080Y-154241500D01*
X258247036Y-154241500D01*
X258247036Y-155638500D01*
X258273603Y-155779690D01*
X258357046Y-155909365D01*
X258484366Y-155996359D01*
X258635500Y-156026964D01*
X260032500Y-156026964D01*
X260173690Y-156000397D01*
X260303365Y-155916954D01*
X260390359Y-155789634D01*
X260420964Y-155638500D01*
X260420964Y-154241500D01*
X260394397Y-154100310D01*
X260310954Y-153970635D01*
X260183634Y-153883641D01*
X260032500Y-153853036D01*
X258635500Y-153853036D01*
X258494310Y-153879603D01*
X258364635Y-153963046D01*
X258277641Y-154090366D01*
X258247036Y-154241500D01*
X256615080Y-154241500D01*
X256724994Y-153935356D01*
X256697712Y-153367520D01*
X256532896Y-152969617D01*
X256287398Y-152896220D01*
X255463605Y-153720013D01*
X255104395Y-153720013D01*
X255090253Y-153705871D01*
X255269858Y-153526266D01*
X255284000Y-153540408D01*
X256107793Y-152716615D01*
X256034396Y-152471117D01*
X255607303Y-152317779D01*
X255948715Y-152176711D01*
X256279536Y-151846466D01*
X256458796Y-151414760D01*
X256459204Y-150947316D01*
X256280698Y-150515298D01*
X255950453Y-150184477D01*
X255518747Y-150005217D01*
X255051303Y-150004809D01*
X254619285Y-150183315D01*
X254508000Y-150294406D01*
X254508000Y-149525811D01*
X254617547Y-149635549D01*
X255049253Y-149814809D01*
X255516697Y-149815217D01*
X255948715Y-149636711D01*
X256279536Y-149306466D01*
X256458796Y-148874760D01*
X256459204Y-148407316D01*
X256280698Y-147975298D01*
X255950453Y-147644477D01*
X255518747Y-147465217D01*
X255051303Y-147464809D01*
X254619285Y-147643315D01*
X254508000Y-147754406D01*
X254508000Y-142391302D01*
X254699417Y-142200219D01*
X254825357Y-141896923D01*
X254825643Y-141568518D01*
X254700233Y-141265002D01*
X254468219Y-141032583D01*
X254164923Y-140906643D01*
X253876040Y-140906391D01*
X253989598Y-133638686D01*
X254191417Y-133437219D01*
X254317357Y-133133923D01*
X254317643Y-132805518D01*
X254192233Y-132502002D01*
X253960219Y-132269583D01*
X253656923Y-132143643D01*
X253328518Y-132143357D01*
X253025002Y-132268767D01*
X252792583Y-132500781D01*
X252666643Y-132804077D01*
X252666357Y-133132482D01*
X252791767Y-133435998D01*
X252973792Y-133618341D01*
X252922412Y-136906639D01*
X252882400Y-136898536D01*
X252603000Y-136898536D01*
X252603000Y-133350000D01*
X252564331Y-133155597D01*
X252520738Y-133090355D01*
X252375689Y-132739311D01*
X252072286Y-132435378D01*
X251675668Y-132270687D01*
X251353014Y-132270406D01*
X253089210Y-130534210D01*
X253199331Y-130369403D01*
X253238000Y-130175000D01*
X253238000Y-129356964D01*
X253428500Y-129356964D01*
X253569690Y-129330397D01*
X253699365Y-129246954D01*
X253786359Y-129119634D01*
X253816964Y-128968500D01*
X253816964Y-127571500D01*
X253790397Y-127430310D01*
X253706954Y-127300635D01*
X253579634Y-127213641D01*
X253428500Y-127183036D01*
X252031500Y-127183036D01*
X251890310Y-127209603D01*
X251760635Y-127293046D01*
X251673641Y-127420366D01*
X251643036Y-127571500D01*
X251643036Y-128968500D01*
X251669603Y-129109690D01*
X251753046Y-129239365D01*
X251880366Y-129326359D01*
X252031500Y-129356964D01*
X252222000Y-129356964D01*
X252222000Y-129964580D01*
X250698000Y-131488580D01*
X250698000Y-129228119D01*
X250800689Y-129185689D01*
X251104622Y-128882286D01*
X251269313Y-128485668D01*
X251269687Y-128056216D01*
X251105689Y-127659311D01*
X250802286Y-127355378D01*
X250405668Y-127190687D01*
X249976216Y-127190313D01*
X249579311Y-127354311D01*
X249275378Y-127657714D01*
X249110687Y-128054332D01*
X249110313Y-128483784D01*
X249274311Y-128880689D01*
X249577714Y-129184622D01*
X249682000Y-129227926D01*
X249682000Y-131361580D01*
X248147179Y-132896401D01*
X248158000Y-132842000D01*
X248158000Y-129228119D01*
X248260689Y-129185689D01*
X248564622Y-128882286D01*
X248729313Y-128485668D01*
X248729687Y-128056216D01*
X248565689Y-127659311D01*
X248262286Y-127355378D01*
X247865668Y-127190687D01*
X247436216Y-127190313D01*
X247039311Y-127354311D01*
X246735378Y-127657714D01*
X246570687Y-128054332D01*
X246570313Y-128483784D01*
X246734311Y-128880689D01*
X247037714Y-129184622D01*
X247142000Y-129227926D01*
X247142000Y-132631580D01*
X245607179Y-134166401D01*
X245618000Y-134112000D01*
X245618000Y-129228119D01*
X245720689Y-129185689D01*
X246024622Y-128882286D01*
X246189313Y-128485668D01*
X246189687Y-128056216D01*
X246025689Y-127659311D01*
X245722286Y-127355378D01*
X245325668Y-127190687D01*
X244896216Y-127190313D01*
X244499311Y-127354311D01*
X244195378Y-127657714D01*
X244030687Y-128054332D01*
X244030313Y-128483784D01*
X244194311Y-128880689D01*
X244497714Y-129184622D01*
X244602000Y-129227926D01*
X244602000Y-133901580D01*
X244221000Y-134282580D01*
X244221000Y-129159000D01*
X244214786Y-129127760D01*
X244217077Y-129095991D01*
X244195614Y-129031378D01*
X244182331Y-128964597D01*
X244164635Y-128938113D01*
X244154594Y-128907885D01*
X244110036Y-128856400D01*
X244072210Y-128799790D01*
X244045727Y-128782095D01*
X244024882Y-128758009D01*
X243649330Y-128465913D01*
X243649687Y-128056216D01*
X243485689Y-127659311D01*
X243182286Y-127355378D01*
X242785668Y-127190687D01*
X242356216Y-127190313D01*
X241959311Y-127354311D01*
X241655378Y-127657714D01*
X241490687Y-128054332D01*
X241490313Y-128483784D01*
X241654311Y-128880689D01*
X241957714Y-129184622D01*
X242354332Y-129349313D01*
X242783784Y-129349687D01*
X243010360Y-129256068D01*
X243205000Y-129407455D01*
X243205000Y-132458132D01*
X243182286Y-132435378D01*
X242785668Y-132270687D01*
X242356216Y-132270313D01*
X242115290Y-132369862D01*
X241935000Y-132334000D01*
X237223142Y-132334000D01*
X237070668Y-132270687D01*
X236748014Y-132270406D01*
X237214211Y-131804210D01*
X237214213Y-131804207D01*
X239711717Y-129306703D01*
X239814332Y-129349313D01*
X240243784Y-129349687D01*
X240640689Y-129185689D01*
X240944622Y-128882286D01*
X241109313Y-128485668D01*
X241109687Y-128056216D01*
X240945689Y-127659311D01*
X240642286Y-127355378D01*
X240245668Y-127190687D01*
X239816216Y-127190313D01*
X239419311Y-127354311D01*
X239115378Y-127657714D01*
X238950687Y-128054332D01*
X238950313Y-128483784D01*
X238993434Y-128588146D01*
X236495793Y-131085787D01*
X236495790Y-131085789D01*
X236009580Y-131572000D01*
X234906420Y-131572000D01*
X237171717Y-129306703D01*
X237274332Y-129349313D01*
X237703784Y-129349687D01*
X238100689Y-129185689D01*
X238404622Y-128882286D01*
X238569313Y-128485668D01*
X238569687Y-128056216D01*
X238405689Y-127659311D01*
X238102286Y-127355378D01*
X237705668Y-127190687D01*
X237276216Y-127190313D01*
X236879311Y-127354311D01*
X236575378Y-127657714D01*
X236410687Y-128054332D01*
X236410313Y-128483784D01*
X236453434Y-128588146D01*
X234104580Y-130937000D01*
X233001420Y-130937000D01*
X234631717Y-129306703D01*
X234734332Y-129349313D01*
X235163784Y-129349687D01*
X235560689Y-129185689D01*
X235864622Y-128882286D01*
X236029313Y-128485668D01*
X236029687Y-128056216D01*
X235865689Y-127659311D01*
X235562286Y-127355378D01*
X235165668Y-127190687D01*
X234736216Y-127190313D01*
X234339311Y-127354311D01*
X234035378Y-127657714D01*
X233870687Y-128054332D01*
X233870313Y-128483784D01*
X233913434Y-128588145D01*
X232199580Y-130302000D01*
X229572420Y-130302000D01*
X230421956Y-129452464D01*
X231680000Y-129452464D01*
X231821190Y-129425897D01*
X231950865Y-129342454D01*
X232037859Y-129215134D01*
X232068464Y-129064000D01*
X232068464Y-127476000D01*
X232041897Y-127334810D01*
X231958454Y-127205135D01*
X231917277Y-127177000D01*
X256372169Y-127177000D01*
X255135319Y-127688056D01*
G36*
X241487873Y-147514918D02*
X241935000Y-147603857D01*
X242062000Y-147578595D01*
X242062000Y-150737160D01*
X241913896Y-150379604D01*
X241668398Y-150306207D01*
X240844605Y-151130000D01*
X241668398Y-151953793D01*
X241913896Y-151880396D01*
X242062000Y-151467880D01*
X242062000Y-157162490D01*
X242000233Y-157013002D01*
X241768219Y-156780583D01*
X241464923Y-156654643D01*
X241136518Y-156654357D01*
X240833002Y-156779767D01*
X240600583Y-157011781D01*
X240474643Y-157315077D01*
X240474357Y-157643482D01*
X240599767Y-157946998D01*
X240792000Y-158139567D01*
X240792000Y-169520698D01*
X240600583Y-169711781D01*
X240538000Y-169862497D01*
X240538000Y-166878000D01*
X240499331Y-166683597D01*
X240464497Y-166631464D01*
X240389211Y-166518790D01*
X239903000Y-166032580D01*
X239903000Y-152340083D01*
X239914604Y-152378896D01*
X240449657Y-152570994D01*
X241017493Y-152543712D01*
X241415396Y-152378896D01*
X241488793Y-152133398D01*
X240665000Y-151309605D01*
X240650858Y-151323748D01*
X240471253Y-151144143D01*
X240485395Y-151130000D01*
X240471253Y-151115858D01*
X240650858Y-150936253D01*
X240665000Y-150950395D01*
X241488793Y-150126602D01*
X241415396Y-149881104D01*
X241227734Y-149813728D01*
X241357929Y-149759800D01*
X241419583Y-149524188D01*
X240665000Y-148769605D01*
X240650858Y-148783748D01*
X240471253Y-148604143D01*
X240485395Y-148590000D01*
X240844605Y-148590000D01*
X241599188Y-149344583D01*
X241834800Y-149282929D01*
X242010927Y-148782520D01*
X241982148Y-148252801D01*
X241834800Y-147897071D01*
X241599188Y-147835417D01*
X240844605Y-148590000D01*
X240485395Y-148590000D01*
X240471253Y-148575858D01*
X240650858Y-148396253D01*
X240665000Y-148410395D01*
X241419583Y-147655812D01*
X241360432Y-147429765D01*
X241487873Y-147514918D01*
X241487873Y-147514918D01*
G37*
X241487873Y-147514918D02*
X241935000Y-147603857D01*
X242062000Y-147578595D01*
X242062000Y-150737160D01*
X241913896Y-150379604D01*
X241668398Y-150306207D01*
X240844605Y-151130000D01*
X241668398Y-151953793D01*
X241913896Y-151880396D01*
X242062000Y-151467880D01*
X242062000Y-157162490D01*
X242000233Y-157013002D01*
X241768219Y-156780583D01*
X241464923Y-156654643D01*
X241136518Y-156654357D01*
X240833002Y-156779767D01*
X240600583Y-157011781D01*
X240474643Y-157315077D01*
X240474357Y-157643482D01*
X240599767Y-157946998D01*
X240792000Y-158139567D01*
X240792000Y-169520698D01*
X240600583Y-169711781D01*
X240538000Y-169862497D01*
X240538000Y-166878000D01*
X240499331Y-166683597D01*
X240464497Y-166631464D01*
X240389211Y-166518790D01*
X239903000Y-166032580D01*
X239903000Y-152340083D01*
X239914604Y-152378896D01*
X240449657Y-152570994D01*
X241017493Y-152543712D01*
X241415396Y-152378896D01*
X241488793Y-152133398D01*
X240665000Y-151309605D01*
X240650858Y-151323748D01*
X240471253Y-151144143D01*
X240485395Y-151130000D01*
X240471253Y-151115858D01*
X240650858Y-150936253D01*
X240665000Y-150950395D01*
X241488793Y-150126602D01*
X241415396Y-149881104D01*
X241227734Y-149813728D01*
X241357929Y-149759800D01*
X241419583Y-149524188D01*
X240665000Y-148769605D01*
X240650858Y-148783748D01*
X240471253Y-148604143D01*
X240485395Y-148590000D01*
X240844605Y-148590000D01*
X241599188Y-149344583D01*
X241834800Y-149282929D01*
X242010927Y-148782520D01*
X241982148Y-148252801D01*
X241834800Y-147897071D01*
X241599188Y-147835417D01*
X240844605Y-148590000D01*
X240485395Y-148590000D01*
X240471253Y-148575858D01*
X240650858Y-148396253D01*
X240665000Y-148410395D01*
X241419583Y-147655812D01*
X241360432Y-147429765D01*
X241487873Y-147514918D01*
G36*
X225615539Y-156647416D02*
X225526600Y-157094543D01*
X225526600Y-157865457D01*
X225615539Y-158312584D01*
X225868816Y-158691641D01*
X226247873Y-158944918D01*
X226695000Y-159033857D01*
X227142127Y-158944918D01*
X227521184Y-158691641D01*
X227774461Y-158312584D01*
X227863400Y-157865457D01*
X227863400Y-157094543D01*
X227774461Y-156647416D01*
X227567048Y-156337000D01*
X228362952Y-156337000D01*
X228155539Y-156647416D01*
X228066600Y-157094543D01*
X228066600Y-157865457D01*
X228155539Y-158312584D01*
X228408816Y-158691641D01*
X228787873Y-158944918D01*
X229235000Y-159033857D01*
X229682127Y-158944918D01*
X229997000Y-158734527D01*
X229997000Y-159174580D01*
X226335790Y-162835790D01*
X226225669Y-163000597D01*
X226187000Y-163195000D01*
X226187000Y-163675756D01*
X225868816Y-163888359D01*
X225615539Y-164267416D01*
X225526600Y-164714543D01*
X225526600Y-165485457D01*
X225615539Y-165932584D01*
X225868816Y-166311641D01*
X226247873Y-166564918D01*
X226695000Y-166653857D01*
X227029199Y-166587381D01*
X226347887Y-167268693D01*
X226274634Y-167218641D01*
X226123500Y-167188036D01*
X224726500Y-167188036D01*
X224585310Y-167214603D01*
X224455635Y-167298046D01*
X224368641Y-167425366D01*
X224338036Y-167576500D01*
X224338036Y-167705665D01*
X224238420Y-167556580D01*
X223908806Y-167336338D01*
X223520000Y-167259000D01*
X223131194Y-167336338D01*
X222801580Y-167556580D01*
X222631000Y-167811870D01*
X222631000Y-166548651D01*
X222673265Y-166521454D01*
X222760259Y-166394134D01*
X222790864Y-166243000D01*
X222790864Y-163957000D01*
X222764297Y-163815810D01*
X222680854Y-163686135D01*
X222631000Y-163652071D01*
X222631000Y-161022113D01*
X222757807Y-161022113D01*
X222801838Y-161275317D01*
X222940910Y-161491441D01*
X223019981Y-161545468D01*
X223017332Y-161564861D01*
X223057547Y-161713726D01*
X223557547Y-162713726D01*
X223626546Y-162810865D01*
X223647000Y-162824841D01*
X223647000Y-163675756D01*
X223328816Y-163888359D01*
X223075539Y-164267416D01*
X222986600Y-164714543D01*
X222986600Y-165485457D01*
X223075539Y-165932584D01*
X223328816Y-166311641D01*
X223707873Y-166564918D01*
X224155000Y-166653857D01*
X224602127Y-166564918D01*
X224981184Y-166311641D01*
X225234461Y-165932584D01*
X225323400Y-165485457D01*
X225323400Y-164714543D01*
X225234461Y-164267416D01*
X224981184Y-163888359D01*
X224663000Y-163675756D01*
X224663000Y-162828168D01*
X224752453Y-162713726D01*
X225252453Y-161713726D01*
X225293316Y-161550732D01*
X225291982Y-161543061D01*
X225385216Y-161474248D01*
X225516329Y-161253204D01*
X225551113Y-160998566D01*
X225484088Y-160750456D01*
X225442360Y-160667000D01*
X224282000Y-160667000D01*
X224282000Y-160687000D01*
X224028000Y-160687000D01*
X224028000Y-160667000D01*
X222867640Y-160667000D01*
X222825912Y-160750456D01*
X222757807Y-161022113D01*
X222631000Y-161022113D01*
X222631000Y-160655000D01*
X222582864Y-160413000D01*
X222994640Y-160413000D01*
X224028000Y-160413000D01*
X224028000Y-159392560D01*
X224282000Y-159392560D01*
X224282000Y-160413000D01*
X225315360Y-160413000D01*
X224984088Y-159750456D01*
X224869090Y-159588559D01*
X224656890Y-159443569D01*
X224405000Y-159392560D01*
X224282000Y-159392560D01*
X224028000Y-159392560D01*
X223905000Y-159392560D01*
X223708766Y-159423015D01*
X223484185Y-159547970D01*
X223325912Y-159750456D01*
X222994640Y-160413000D01*
X222582864Y-160413000D01*
X222553662Y-160266194D01*
X222440836Y-160097338D01*
X222333420Y-159936579D01*
X221654841Y-159258000D01*
X221742002Y-159258000D01*
X221742002Y-159092853D01*
X221962060Y-159215010D01*
X222041996Y-159198327D01*
X222530986Y-158931191D01*
X222880525Y-158497262D01*
X223018641Y-158026536D01*
X223075539Y-158312584D01*
X223328816Y-158691641D01*
X223707873Y-158944918D01*
X224155000Y-159033857D01*
X224602127Y-158944918D01*
X224981184Y-158691641D01*
X225234461Y-158312584D01*
X225323400Y-157865457D01*
X225323400Y-157094543D01*
X225234461Y-156647416D01*
X225027048Y-156337000D01*
X225822952Y-156337000D01*
X225615539Y-156647416D01*
X225615539Y-156647416D01*
G37*
X225615539Y-156647416D02*
X225526600Y-157094543D01*
X225526600Y-157865457D01*
X225615539Y-158312584D01*
X225868816Y-158691641D01*
X226247873Y-158944918D01*
X226695000Y-159033857D01*
X227142127Y-158944918D01*
X227521184Y-158691641D01*
X227774461Y-158312584D01*
X227863400Y-157865457D01*
X227863400Y-157094543D01*
X227774461Y-156647416D01*
X227567048Y-156337000D01*
X228362952Y-156337000D01*
X228155539Y-156647416D01*
X228066600Y-157094543D01*
X228066600Y-157865457D01*
X228155539Y-158312584D01*
X228408816Y-158691641D01*
X228787873Y-158944918D01*
X229235000Y-159033857D01*
X229682127Y-158944918D01*
X229997000Y-158734527D01*
X229997000Y-159174580D01*
X226335790Y-162835790D01*
X226225669Y-163000597D01*
X226187000Y-163195000D01*
X226187000Y-163675756D01*
X225868816Y-163888359D01*
X225615539Y-164267416D01*
X225526600Y-164714543D01*
X225526600Y-165485457D01*
X225615539Y-165932584D01*
X225868816Y-166311641D01*
X226247873Y-166564918D01*
X226695000Y-166653857D01*
X227029199Y-166587381D01*
X226347887Y-167268693D01*
X226274634Y-167218641D01*
X226123500Y-167188036D01*
X224726500Y-167188036D01*
X224585310Y-167214603D01*
X224455635Y-167298046D01*
X224368641Y-167425366D01*
X224338036Y-167576500D01*
X224338036Y-167705665D01*
X224238420Y-167556580D01*
X223908806Y-167336338D01*
X223520000Y-167259000D01*
X223131194Y-167336338D01*
X222801580Y-167556580D01*
X222631000Y-167811870D01*
X222631000Y-166548651D01*
X222673265Y-166521454D01*
X222760259Y-166394134D01*
X222790864Y-166243000D01*
X222790864Y-163957000D01*
X222764297Y-163815810D01*
X222680854Y-163686135D01*
X222631000Y-163652071D01*
X222631000Y-161022113D01*
X222757807Y-161022113D01*
X222801838Y-161275317D01*
X222940910Y-161491441D01*
X223019981Y-161545468D01*
X223017332Y-161564861D01*
X223057547Y-161713726D01*
X223557547Y-162713726D01*
X223626546Y-162810865D01*
X223647000Y-162824841D01*
X223647000Y-163675756D01*
X223328816Y-163888359D01*
X223075539Y-164267416D01*
X222986600Y-164714543D01*
X222986600Y-165485457D01*
X223075539Y-165932584D01*
X223328816Y-166311641D01*
X223707873Y-166564918D01*
X224155000Y-166653857D01*
X224602127Y-166564918D01*
X224981184Y-166311641D01*
X225234461Y-165932584D01*
X225323400Y-165485457D01*
X225323400Y-164714543D01*
X225234461Y-164267416D01*
X224981184Y-163888359D01*
X224663000Y-163675756D01*
X224663000Y-162828168D01*
X224752453Y-162713726D01*
X225252453Y-161713726D01*
X225293316Y-161550732D01*
X225291982Y-161543061D01*
X225385216Y-161474248D01*
X225516329Y-161253204D01*
X225551113Y-160998566D01*
X225484088Y-160750456D01*
X225442360Y-160667000D01*
X224282000Y-160667000D01*
X224282000Y-160687000D01*
X224028000Y-160687000D01*
X224028000Y-160667000D01*
X222867640Y-160667000D01*
X222825912Y-160750456D01*
X222757807Y-161022113D01*
X222631000Y-161022113D01*
X222631000Y-160655000D01*
X222582864Y-160413000D01*
X222994640Y-160413000D01*
X224028000Y-160413000D01*
X224028000Y-159392560D01*
X224282000Y-159392560D01*
X224282000Y-160413000D01*
X225315360Y-160413000D01*
X224984088Y-159750456D01*
X224869090Y-159588559D01*
X224656890Y-159443569D01*
X224405000Y-159392560D01*
X224282000Y-159392560D01*
X224028000Y-159392560D01*
X223905000Y-159392560D01*
X223708766Y-159423015D01*
X223484185Y-159547970D01*
X223325912Y-159750456D01*
X222994640Y-160413000D01*
X222582864Y-160413000D01*
X222553662Y-160266194D01*
X222440836Y-160097338D01*
X222333420Y-159936579D01*
X221654841Y-159258000D01*
X221742002Y-159258000D01*
X221742002Y-159092853D01*
X221962060Y-159215010D01*
X222041996Y-159198327D01*
X222530986Y-158931191D01*
X222880525Y-158497262D01*
X223018641Y-158026536D01*
X223075539Y-158312584D01*
X223328816Y-158691641D01*
X223707873Y-158944918D01*
X224155000Y-159033857D01*
X224602127Y-158944918D01*
X224981184Y-158691641D01*
X225234461Y-158312584D01*
X225323400Y-157865457D01*
X225323400Y-157094543D01*
X225234461Y-156647416D01*
X225027048Y-156337000D01*
X225822952Y-156337000D01*
X225615539Y-156647416D01*
G36*
X221742000Y-157353000D02*
X221762000Y-157353000D01*
X221762000Y-157607000D01*
X221742000Y-157607000D01*
X221742000Y-157627000D01*
X221488000Y-157627000D01*
X221488000Y-157607000D01*
X221468000Y-157607000D01*
X221468000Y-157353000D01*
X221488000Y-157353000D01*
X221488000Y-157333000D01*
X221742000Y-157333000D01*
X221742000Y-157353000D01*
X221742000Y-157353000D01*
G37*
X221742000Y-157353000D02*
X221762000Y-157353000D01*
X221762000Y-157607000D01*
X221742000Y-157607000D01*
X221742000Y-157627000D01*
X221488000Y-157627000D01*
X221488000Y-157607000D01*
X221468000Y-157607000D01*
X221468000Y-157353000D01*
X221488000Y-157353000D01*
X221488000Y-157333000D01*
X221742000Y-157333000D01*
X221742000Y-157353000D01*
G36*
X225695000Y-152543000D02*
X226014684Y-152543000D01*
X226097547Y-152708726D01*
X226166546Y-152805865D01*
X226187000Y-152819841D01*
X226187000Y-153264698D01*
X225995583Y-153455781D01*
X225869643Y-153759077D01*
X225869357Y-154087482D01*
X225959233Y-154305000D01*
X225434025Y-154305000D01*
X225518827Y-154220198D01*
X225615500Y-153986809D01*
X225615500Y-153320750D01*
X225456750Y-153162000D01*
X224282000Y-153162000D01*
X224282000Y-153182000D01*
X224028000Y-153182000D01*
X224028000Y-153162000D01*
X224008000Y-153162000D01*
X224008000Y-152908000D01*
X224028000Y-152908000D01*
X224028000Y-152888000D01*
X224282000Y-152888000D01*
X224282000Y-152908000D01*
X225456750Y-152908000D01*
X225615500Y-152749250D01*
X225615500Y-152527187D01*
X225695000Y-152543000D01*
X225695000Y-152543000D01*
G37*
X225695000Y-152543000D02*
X226014684Y-152543000D01*
X226097547Y-152708726D01*
X226166546Y-152805865D01*
X226187000Y-152819841D01*
X226187000Y-153264698D01*
X225995583Y-153455781D01*
X225869643Y-153759077D01*
X225869357Y-154087482D01*
X225959233Y-154305000D01*
X225434025Y-154305000D01*
X225518827Y-154220198D01*
X225615500Y-153986809D01*
X225615500Y-153320750D01*
X225456750Y-153162000D01*
X224282000Y-153162000D01*
X224282000Y-153182000D01*
X224028000Y-153182000D01*
X224028000Y-153162000D01*
X224008000Y-153162000D01*
X224008000Y-152908000D01*
X224028000Y-152908000D01*
X224028000Y-152888000D01*
X224282000Y-152888000D01*
X224282000Y-152908000D01*
X225456750Y-152908000D01*
X225615500Y-152749250D01*
X225615500Y-152527187D01*
X225695000Y-152543000D01*
M02*
