M48
;DRILL file {KiCad 4.0.2-stable} date 2016 March 27, Sunday 01:25:28
;FORMAT={-:-/ absolute / metric / decimal}
FMAT,2
METRIC,TZ
T1C0.600
T2C0.635
T3C0.813
T4C1.016
T5C1.143
T6C1.500
T7C3.000
T8C3.048
%
G90
G05
M71
T1
X206.71Y-163.03
X206.71Y-164.63
X207.91Y-162.23
X207.91Y-163.83
X207.91Y-165.43
T2
X211.328Y-149.86
X213.36Y-171.45
X214.503Y-148.463
X214.63Y-153.67
X214.63Y-157.48
X217.805Y-151.638
X221.615Y-170.307
X223.52Y-168.275
X223.901Y-175.26
X225.425Y-131.445
X226.695Y-153.924
X227.33Y-132.08
X227.33Y-170.307
X229.235Y-132.715
X230.505Y-171.958
X231.14Y-133.35
X232.41Y-133.985
X232.41Y-171.958
X234.95Y-173.99
X241.3Y-155.575
X241.3Y-157.48
X241.3Y-170.18
X243.84Y-149.86
X243.84Y-152.4
X246.38Y-157.48
X250.825Y-134.62
X251.206Y-158.75
X251.206Y-175.26
X253.492Y-132.969
X254.Y-141.732
X254.Y-165.735
X256.54Y-155.575
X256.54Y-167.64
T3
X201.295Y-135.255
X201.295Y-142.875
X206.375Y-135.255
X206.375Y-142.875
X208.026Y-128.27
X208.661Y-133.604
X210.566Y-128.27
X210.82Y-137.16
X210.82Y-139.7
X210.82Y-165.1
X212.725Y-160.02
X212.725Y-162.56
X213.106Y-128.27
X213.36Y-165.1
X215.265Y-160.02
X215.265Y-162.56
X215.646Y-128.27
X217.17Y-176.53
X217.279Y-168.91
X217.551Y-133.604
X217.805Y-160.02
X217.805Y-162.56
X218.186Y-128.27
X219.075Y-138.43
X219.075Y-146.05
X219.075Y-167.114
X219.075Y-170.706
X219.71Y-176.53
X220.726Y-128.27
X221.615Y-138.43
X221.615Y-146.05
X221.615Y-157.48
X221.615Y-165.1
X222.25Y-176.53
X223.266Y-128.27
X224.155Y-138.43
X224.155Y-146.05
X224.155Y-150.495
X224.155Y-153.035
X224.155Y-157.48
X224.155Y-165.1
X224.79Y-176.53
X225.425Y-168.275
X225.806Y-128.27
X226.695Y-138.43
X226.695Y-146.05
X226.695Y-157.48
X226.695Y-165.1
X227.33Y-176.53
X227.965Y-168.275
X228.346Y-128.27
X229.235Y-138.43
X229.235Y-146.05
X229.235Y-157.48
X229.235Y-165.1
X229.87Y-176.53
X230.505Y-168.275
X230.886Y-128.27
X231.775Y-138.43
X231.775Y-146.05
X231.775Y-157.48
X231.775Y-165.1
X232.41Y-176.53
X233.045Y-168.275
X234.315Y-133.35
X234.315Y-138.43
X234.315Y-146.05
X234.315Y-157.48
X234.315Y-165.1
X234.95Y-128.27
X234.95Y-176.53
X235.585Y-168.275
X236.855Y-133.35
X236.855Y-138.43
X236.855Y-146.05
X236.855Y-157.48
X236.855Y-165.1
X237.49Y-128.27
X238.125Y-148.59
X238.125Y-151.13
X238.125Y-168.275
X239.395Y-138.43
X239.395Y-146.05
X240.03Y-128.27
X240.03Y-176.53
X240.665Y-148.59
X240.665Y-151.13
X241.935Y-138.43
X241.935Y-146.05
X242.57Y-128.27
X242.57Y-133.35
X242.57Y-176.53
X244.475Y-138.43
X244.475Y-146.05
X245.11Y-128.27
X245.11Y-176.53
X247.015Y-138.43
X247.015Y-146.05
X247.65Y-128.27
X247.65Y-176.53
X248.92Y-149.225
X248.92Y-158.115
X249.555Y-138.43
X249.555Y-146.05
X250.19Y-128.27
X250.19Y-176.53
X251.46Y-133.35
X252.095Y-138.43
X252.095Y-146.05
X252.73Y-128.27
X252.73Y-176.53
X253.492Y-158.75
X253.492Y-161.29
X259.334Y-154.94
X259.334Y-157.48
X259.334Y-160.02
X259.334Y-162.56
X259.334Y-165.1
X259.334Y-167.64
T4
X252.744Y-148.64
X252.744Y-151.18
X252.744Y-153.72
X255.284Y-148.64
X255.284Y-151.18
X255.284Y-153.72
T5
X221.361Y-148.59
X221.361Y-151.13
X221.361Y-153.67
T6
X202.36Y-160.28
X202.36Y-167.38
X207.01Y-160.28
X207.01Y-167.38
T7
X203.708Y-130.556
X203.708Y-174.244
X257.048Y-130.556
X257.048Y-174.244
T8
X204.851Y-151.13
T0
M30
