G04 #@! TF.FileFunction,Soldermask,Bot*
%FSLAX46Y46*%
G04 Gerber Fmt 4.6, Leading zero omitted, Abs format (unit mm)*
G04 Created by KiCad (PCBNEW 4.0.2-stable) date 2016 March 27, Sunday 01:25:21*
%MOMM*%
G01*
G04 APERTURE LIST*
%ADD10C,0.150000*%
%ADD11R,1.540000X1.540000*%
%ADD12C,1.100000*%
%ADD13O,2.600000X2.300000*%
%ADD14O,2.800000X2.600000*%
%ADD15C,1.588000*%
%ADD16R,1.588000X1.588000*%
%ADD17R,2.540000X1.750000*%
%ADD18O,2.540000X1.750000*%
%ADD19R,8.890000X8.890000*%
%ADD20C,1.397000*%
%ADD21R,1.397000X1.397000*%
%ADD22O,1.574800X2.286000*%
%ADD23R,1.574800X2.286000*%
%ADD24C,6.000000*%
%ADD25R,1.651000X1.651000*%
%ADD26C,1.651000*%
G04 APERTURE END LIST*
D10*
G36*
X226945000Y-152535000D02*
X226445000Y-152535000D01*
X225945000Y-151535000D01*
X227445000Y-151535000D01*
X226945000Y-152535000D01*
X226945000Y-152535000D01*
G37*
G36*
X227445000Y-149455000D02*
X225945000Y-149455000D01*
X226445000Y-148455000D01*
X226945000Y-148455000D01*
X227445000Y-149455000D01*
X227445000Y-149455000D01*
G37*
D11*
X226695000Y-150495000D03*
D10*
G36*
X253742000Y-165334000D02*
X253242000Y-165334000D01*
X252742000Y-164334000D01*
X254242000Y-164334000D01*
X253742000Y-165334000D01*
X253742000Y-165334000D01*
G37*
G36*
X254242000Y-163834000D02*
X252742000Y-163834000D01*
X253242000Y-162834000D01*
X253742000Y-162834000D01*
X254242000Y-163834000D01*
X254242000Y-163834000D01*
G37*
D12*
X207910000Y-163830000D03*
X207910000Y-165430000D03*
X206710000Y-164630000D03*
X207910000Y-162230000D03*
X206710000Y-163030000D03*
D13*
X207010000Y-160280000D03*
X207010000Y-167380000D03*
D14*
X202360000Y-167380000D03*
X202360000Y-160280000D03*
D15*
X208661000Y-133604000D03*
X217551000Y-133604000D03*
X210820000Y-137160000D03*
D16*
X210820000Y-139700000D03*
D10*
G36*
X219075000Y-168236835D02*
X217952114Y-167113949D01*
X219075000Y-165991063D01*
X220197886Y-167113949D01*
X219075000Y-168236835D01*
X219075000Y-168236835D01*
G37*
D15*
X217278949Y-168910000D03*
X219075000Y-170706051D03*
X238125000Y-151130000D03*
X240665000Y-151130000D03*
D16*
X252744000Y-148640013D03*
D15*
X255284000Y-148640013D03*
X252744000Y-151180013D03*
X255284000Y-151180013D03*
X252744000Y-153720013D03*
X255284000Y-153720013D03*
D16*
X230886000Y-128270000D03*
D15*
X228346000Y-128270000D03*
X225806000Y-128270000D03*
X223266000Y-128270000D03*
X220726000Y-128270000D03*
X218186000Y-128270000D03*
X215646000Y-128270000D03*
X213106000Y-128270000D03*
X210566000Y-128270000D03*
X208026000Y-128270000D03*
D16*
X240030000Y-176530000D03*
D15*
X242570000Y-176530000D03*
X245110000Y-176530000D03*
X247650000Y-176530000D03*
X250190000Y-176530000D03*
X252730000Y-176530000D03*
D16*
X217170000Y-176530000D03*
D15*
X219710000Y-176530000D03*
X222250000Y-176530000D03*
X224790000Y-176530000D03*
X227330000Y-176530000D03*
X229870000Y-176530000D03*
X232410000Y-176530000D03*
X234950000Y-176530000D03*
D17*
X221361000Y-148590000D03*
D18*
X221361000Y-153670000D03*
X221361000Y-151130000D03*
D19*
X204851000Y-151130000D03*
D20*
X215265000Y-162560000D03*
X215265000Y-160020000D03*
X217805000Y-162560000D03*
X217805000Y-160020000D03*
X236855000Y-133350000D03*
X234315000Y-133350000D03*
X238125000Y-148590000D03*
X240665000Y-148590000D03*
X253492000Y-158750000D03*
X253492000Y-161290000D03*
D21*
X212725000Y-160020000D03*
D20*
X212725000Y-162560000D03*
D10*
G36*
X224405000Y-162540000D02*
X223905000Y-162540000D01*
X223405000Y-161540000D01*
X224905000Y-161540000D01*
X224405000Y-162540000D01*
X224405000Y-162540000D01*
G37*
G36*
X224905000Y-161040000D02*
X223405000Y-161040000D01*
X223905000Y-160040000D01*
X224405000Y-160040000D01*
X224905000Y-161040000D01*
X224905000Y-161040000D01*
G37*
D21*
X252730000Y-128270000D03*
D20*
X250190000Y-128270000D03*
X247650000Y-128270000D03*
X245110000Y-128270000D03*
X242570000Y-128270000D03*
X240030000Y-128270000D03*
X237490000Y-128270000D03*
X234950000Y-128270000D03*
D21*
X259334000Y-154940000D03*
D20*
X259334000Y-157480000D03*
X259334000Y-160020000D03*
X259334000Y-162560000D03*
X259334000Y-165100000D03*
X259334000Y-167640000D03*
D21*
X225425000Y-168275000D03*
D20*
X227965000Y-168275000D03*
X230505000Y-168275000D03*
X233045000Y-168275000D03*
X235585000Y-168275000D03*
X238125000Y-168275000D03*
X251460000Y-133350000D03*
X242570000Y-133350000D03*
X248920000Y-149225000D03*
X248920000Y-158115000D03*
D22*
X201295000Y-135255000D03*
X206375000Y-135255000D03*
X201295000Y-142875000D03*
X206375000Y-142875000D03*
D23*
X221615000Y-165100000D03*
D22*
X224155000Y-165100000D03*
X226695000Y-165100000D03*
X229235000Y-165100000D03*
X231775000Y-165100000D03*
X234315000Y-165100000D03*
X236855000Y-165100000D03*
X236855000Y-157480000D03*
X234315000Y-157480000D03*
X231775000Y-157480000D03*
X229235000Y-157480000D03*
X226695000Y-157480000D03*
X224155000Y-157480000D03*
X221615000Y-157480000D03*
X249555000Y-138430000D03*
X247015000Y-138430000D03*
X244475000Y-138430000D03*
X241935000Y-138430000D03*
X239395000Y-138430000D03*
X236855000Y-138430000D03*
X234315000Y-138430000D03*
X231775000Y-138430000D03*
X229235000Y-138430000D03*
X226695000Y-138430000D03*
X224155000Y-138430000D03*
X221615000Y-138430000D03*
X219075000Y-138430000D03*
D23*
X252095000Y-138430000D03*
D22*
X219075000Y-146050000D03*
X221615000Y-146050000D03*
X224155000Y-146050000D03*
X226695000Y-146050000D03*
X229235000Y-146050000D03*
X231775000Y-146050000D03*
X234315000Y-146050000D03*
X236855000Y-146050000D03*
X239395000Y-146050000D03*
X241935000Y-146050000D03*
X244475000Y-146050000D03*
X247015000Y-146050000D03*
X249555000Y-146050000D03*
X252095000Y-146050000D03*
D24*
X203708000Y-130556000D03*
X257048000Y-130556000D03*
X203708000Y-174244000D03*
X257048000Y-174244000D03*
D25*
X224155000Y-153035000D03*
D26*
X224155000Y-150495000D03*
D25*
X210820000Y-165100000D03*
D26*
X213360000Y-165100000D03*
D10*
G36*
X210701000Y-143887000D02*
X210701000Y-143387000D01*
X211701000Y-142887000D01*
X211701000Y-144387000D01*
X210701000Y-143887000D01*
X210701000Y-143887000D01*
G37*
G36*
X212225000Y-144387000D02*
X212225000Y-142887000D01*
X213225000Y-143387000D01*
X213225000Y-143887000D01*
X212225000Y-144387000D01*
X212225000Y-144387000D01*
G37*
M02*
